<?xml version="1.0" encoding="UTF-8"?>
<svg xmlns="http://www.w3.org/2000/svg" width="850" height="1688.4799999999996" viewBox="-40 -65 850 1688.4799999999996" class="mermaid">
  <style>

.mermaid {
  font-family: trebuchet ms, verdana, arial, sans-serif;
  font-size: 14px;
}

.node rect,
.node polygon,
.node circle,
.node ellipse,
.node path {
  fill: #ECECFF;
  stroke: #9370DB;
  stroke-width: 1px;
}

.node .label {
  fill: #333333;
}

.node text {
  fill: #333333;
  font-family: trebuchet ms, verdana, arial, sans-serif;
  font-size: 14px;
}

.edge-path {
  fill: none;
  stroke: #333333;
  stroke-width: 1px;
}

.edge-label {
  fill: #333333;
  font-family: trebuchet ms, verdana, arial, sans-serif;
  font-size: 12px;
}

.edge-label-bg {
  fill: #ffffff;
}

.subgraph {
  fill: #fafafa;
  stroke: #9370DB;
  stroke-width: 1px;
}

.subgraph-title {
  fill: #333333;
  font-weight: bold;
}

.cluster rect {
  fill: #fafafa;
  stroke: #9370DB;
  stroke-width: 1px;
  rx: 5px;
  ry: 5px;
}

.cluster-label {
  fill: #333333;
  font-family: trebuchet ms, verdana, arial, sans-serif;
  font-size: 14px;
  font-weight: bold;
}

marker path {
  fill: #333333;
  stroke: #333333;
}

  </style>
  <defs>
    <marker id="arrow_point" viewBox="0 0 10 10" refX="10" refY="5" markerWidth="8" markerHeight="8" orient="auto" markerUnits="userSpaceOnUse">
      <path d="M 0 0 L 10 5 L 0 10 z"/>
    </marker>
    <marker id="arrow_open" viewBox="0 0 10 10" refX="9" refY="5" markerWidth="8" markerHeight="8" orient="auto" markerUnits="userSpaceOnUse">
      <path d="M 1 1 L 9 5 L 1 9" stroke-width="1.5" fill="none"/>
    </marker>
    <marker id="arrow_cross" viewBox="0 0 11 11" refX="12" refY="5.2" markerWidth="11" markerHeight="11" orient="auto" markerUnits="userSpaceOnUse">
      <path d="M 1 1 L 10 10 M 10 1 L 1 10" fill="none" stroke-width="2"/>
    </marker>
    <marker id="arrow_circle" viewBox="0 0 10 10" refX="11" refY="5" markerWidth="11" markerHeight="11" orient="auto" markerUnits="userSpaceOnUse">
      <circle cx="5" cy="5" r="5"/>
    </marker>
    <marker id="arrow_circle_start" viewBox="0 0 10 10" refX="-1" refY="5" markerWidth="11" markerHeight="11" orient="auto" markerUnits="userSpaceOnUse">
      <circle cx="5" cy="5" r="5"/>
    </marker>
    <marker id="double_arrow_point_start" viewBox="0 0 10 10" refX="0" refY="5" markerWidth="8" markerHeight="8" orient="auto" markerUnits="userSpaceOnUse">
      <path d="M 0 5 L 10 10 L 10 0 z"/>
    </marker>
    <marker id="double_arrow_point_end" viewBox="0 0 10 10" refX="10" refY="5" markerWidth="8" markerHeight="8" orient="auto" markerUnits="userSpaceOnUse">
      <path d="M 0 0 L 10 5 L 0 10 z"/>
    </marker>
  </defs>
  <g class="root">
    <g class="subgraph" id="subgraph-main">
      <rect x="201.2" y="-45" width="352.40000000000003" height="620.0799999999999" class="cluster"/>
      <text x="377.4" y="-29" class="cluster-label" text-anchor="middle">Main Flow</text>
    </g>
    <g class="subgraph" id="subgraph-shapes">
      <rect x="270.28000000000003" y="560.0799999999999" width="209.44" height="852.1999999999998" class="cluster"/>
      <text x="375" y="576.0799999999999" class="cluster-label" text-anchor="middle">All Shapes</text>
    </g>
    <g class="subgraph" id="subgraph-edges">
      <rect x="-20" y="1397.2799999999997" width="790" height="186.19999999999982" class="cluster"/>
      <text x="375" y="1413.2799999999997" class="cluster-label" text-anchor="middle">Edge Types</text>
    </g>
    <g class="node" id="node-A">
      <rect x="321.2" y="0" width="107.6" height="35.599999999999994"/>
      <text x="375" y="17.799999999999997" class="label" dominant-baseline="central" text-anchor="middle">Rectangle</text>
    </g>
    <g class="node" id="node-B">
      <rect x="329.6" y="85.6" width="90.8" height="35.599999999999994" rx="5" ry="5"/>
      <text x="375" y="103.39999999999999" class="label" dominant-baseline="central" text-anchor="middle">Rounded</text>
    </g>
    <g class="node" id="node-C">
      <polygon points="375,171.2 476,272.2 375,373.2 274,272.2"/>
      <text x="375" y="272.2" class="label" text-anchor="middle" dominant-baseline="central">Diamond Decision</text>
    </g>
    <g class="node" id="node-D">
      <rect x="221.2" y="423.2" width="126.39999999999999" height="35.599999999999994" rx="17.799999999999997" ry="17.799999999999997"/>
      <text x="284.4" y="441" class="label" text-anchor="middle" dominant-baseline="central">Stadium</text>
    </g>
    <g class="node" id="node-E">
      <g>
        <rect x="397.6" y="423.2" width="136" height="35.599999999999994"/>
        <line x1="407.6" y1="423.2" x2="407.6" y2="458.79999999999995" stroke-width="1" stroke="#9370DB"/>
        <line x1="523.6" y1="423.2" x2="523.6" y2="458.79999999999995" stroke="#9370DB" stroke-width="1"/>
      </g>
      <text x="465.6" y="441" class="label" text-anchor="middle" dominant-baseline="central">Subroutine</text>
    </g>
    <g class="node" id="node-F">
      <path d="M 312.8 515.742 a 62.199999999999996 6.941999999999999 0 0 0 124.39999999999999 0 a 62.199999999999996 6.941999999999999 0 0 0 -124.39999999999999 0 l 0 32.395999999999994 a 62.199999999999996 6.941999999999999 0 0 0 124.39999999999999 0 l 0 -32.395999999999994"/>
      <text x="375" y="531.9399999999999" class="label" dominant-baseline="central" text-anchor="middle">Cylinder DB</text>
    </g>
    <g class="node" id="node-G">
      <circle cx="375" cy="646.28" r="41.2"/>
      <text x="375" y="646.28" class="label" text-anchor="middle" dominant-baseline="central">Circle</text>
    </g>
    <g class="node" id="node-H">
      <polygon points="311.2,737.4799999999999 438.8,737.4799999999999 419.66,755.2799999999999 438.8,773.0799999999999 311.2,773.0799999999999"/>
      <text x="375" y="755.2799999999999" class="label" dominant-baseline="central" text-anchor="middle">Asymmetric</text>
    </g>
    <g class="node" id="node-I">
      <polygon points="315.696,823.0799999999999 459.72,823.0799999999999 434.30400000000003,858.68 290.28000000000003,858.68"/>
      <text x="375" y="840.8799999999999" class="label" dominant-baseline="central" text-anchor="middle">Parallelogram</text>
    </g>
    <g class="node" id="node-J">
      <polygon points="295.32,908.68 430.776,908.68 454.68,944.28 319.224,944.28"/>
      <text x="375" y="926.4799999999999" class="label" text-anchor="middle" dominant-baseline="central">Reverse Para</text>
    </g>
    <g class="node" id="node-K">
      <polygon points="329.808,994.28 420.19199999999995,994.28 439.55999999999995,1029.8799999999999 310.44,1029.8799999999999"/>
      <text x="375" y="1012.0799999999999" class="label" dominant-baseline="central" text-anchor="middle">Trapezoid</text>
    </g>
    <g class="node" id="node-L">
      <polygon points="290.28000000000003,1079.8799999999999 459.72,1079.8799999999999 434.30400000000003,1115.4799999999998 315.696,1115.4799999999998"/>
      <text x="375" y="1097.6799999999998" class="label" text-anchor="middle" dominant-baseline="central">Inv Trapezoid</text>
    </g>
    <g class="node" id="node-M">
      <polygon points="336.864,1165.4799999999998 413.13599999999997,1165.4799999999998 429.47999999999996,1183.2799999999997 413.13599999999997,1201.0799999999997 336.864,1201.0799999999997 320.52,1183.2799999999997"/>
      <text x="375" y="1183.2799999999997" class="label" text-anchor="middle" dominant-baseline="central">Hexagon</text>
    </g>
    <g class="node" id="node-N">
      <g>
        <circle cx="375" cy="1321.6799999999996" r="70.6"/>
        <circle cx="375" cy="1321.6799999999996" r="66.6"/>
      </g>
      <text x="375" y="1321.6799999999996" class="label" dominant-baseline="central" text-anchor="middle">Double Circle</text>
    </g>
    <g class="node" id="node-O">
      <rect x="350" y="1442.2799999999997" width="50" height="35.599999999999994"/>
      <text x="375" y="1460.0799999999997" class="label" text-anchor="middle" dominant-baseline="central">O</text>
    </g>
    <g class="node" id="node-P">
      <rect x="0" y="1527.8799999999997" width="50" height="35.599999999999994"/>
      <text x="25" y="1545.6799999999996" class="label" text-anchor="middle" dominant-baseline="central">P</text>
    </g>
    <g class="node" id="node-Q">
      <rect x="100" y="1527.8799999999997" width="50" height="35.599999999999994"/>
      <text x="125" y="1545.6799999999996" class="label" text-anchor="middle" dominant-baseline="central">Q</text>
    </g>
    <g class="node" id="node-R">
      <rect x="200" y="1527.8799999999997" width="50" height="35.599999999999994"/>
      <text x="225" y="1545.6799999999996" class="label" dominant-baseline="central" text-anchor="middle">R</text>
    </g>
    <g class="node" id="node-S">
      <rect x="300" y="1527.8799999999997" width="50" height="35.599999999999994"/>
      <text x="325" y="1545.6799999999996" class="label" text-anchor="middle" dominant-baseline="central">S</text>
    </g>
    <g class="node" id="node-T">
      <rect x="400" y="1527.8799999999997" width="50" height="35.599999999999994"/>
      <text x="425" y="1545.6799999999996" class="label" text-anchor="middle" dominant-baseline="central">T</text>
    </g>
    <g class="node" id="node-U">
      <rect x="500" y="1527.8799999999997" width="50" height="35.599999999999994"/>
      <text x="525" y="1545.6799999999996" class="label" dominant-baseline="central" text-anchor="middle">U</text>
    </g>
    <g class="node" id="node-V">
      <rect x="600" y="1527.8799999999997" width="50" height="35.599999999999994"/>
      <text x="625" y="1545.6799999999996" class="label" dominant-baseline="central" text-anchor="middle">V</text>
    </g>
    <g class="node" id="node-W">
      <rect x="700" y="1527.8799999999997" width="50" height="35.599999999999994"/>
      <text x="725" y="1545.6799999999996" class="label" text-anchor="middle" dominant-baseline="central">W</text>
    </g>
    <g class="edge" id="edge-L-A-B-0">
      <path d="M 375.00 35.60 C 375.00 41.10, 375.00 46.60, 375.00 52.18 C 375.00 57.77, 375.00 63.43, 375.00 69.02 C 375.00 80.10, 375.00 85.60, 375.00 85.60" class="edge-path" marker-end="url(#arrow_point)" fill="none" stroke-width="1"/>
    </g>
    <g class="edge" id="edge-L-B-C-0">
      <path d="M 375.00 121.20 C 375.00 126.70, 375.00 132.20, 375.00 137.78 C 375.00 143.37, 375.00 149.03, 375.00 154.62 C 375.00 165.70, 375.00 171.20, 375.00 171.20" class="edge-path" marker-end="url(#arrow_point)" stroke-width="1" fill="none"/>
    </g>
    <g class="edge" id="edge-L-C-D-0">
      <path d="M 339.72 337.92 C 334.69 347.30, 329.65 356.68, 324.54 366.21 C 319.43 375.73, 314.25 385.39, 309.13 394.92 C 298.99 413.82, 293.95 423.20, 293.95 423.20" class="edge-path" stroke-width="1" marker-end="url(#arrow_point)" fill="none"/>
      <rect x="300.83888494045686" y="370.5619892058596" width="32" height="20" class="edge-label-bg" fill="#e8e8e8" fill-opacity="0.8"/>
      <text x="316.83888494045686" y="380.5619892058596" class="edge-label" text-anchor="middle" dominant-baseline="central">Yes</text>
    </g>
    <g class="edge" id="edge-L-C-E-0">
      <path d="M 410.28 337.92 C 415.31 347.30, 420.35 356.68, 425.46 366.21 C 430.57 375.73, 435.75 385.39, 440.87 394.92 C 451.01 413.82, 456.05 423.20, 456.05 423.20" class="edge-path" marker-end="url(#arrow_point)" stroke-width="1" fill="none"/>
      <rect x="421.16111505954314" y="370.5619892058596" width="24" height="20" class="edge-label-bg" fill-opacity="0.8" fill="#e8e8e8"/>
      <text x="433.16111505954314" y="380.5619892058596" class="edge-label" text-anchor="middle" dominant-baseline="central">No</text>
    </g>
    <g class="edge" id="edge-L-D-F-0">
      <path d="M 302.13 458.80 C 307.61 464.30, 313.09 469.80, 318.65 475.38 C 324.22 480.97, 329.86 486.63, 335.43 492.22 C 346.47 503.30, 351.95 508.80, 351.95 508.80" class="edge-path" stroke-width="1" marker-end="url(#arrow_point)" fill="none"/>
    </g>
    <g class="edge" id="edge-L-E-F-0">
      <path d="M 447.87 458.80 C 442.39 464.30, 436.91 469.80, 431.35 475.38 C 425.78 480.97, 420.14 486.63, 414.57 492.22 C 403.53 503.30, 398.05 508.80, 398.05 508.80" class="edge-path" fill="none" marker-end="url(#arrow_point)" stroke-width="1"/>
    </g>
    <g class="edge" id="edge-L-G-H-0">
      <path d="M 375.00 687.48 C 375.00 692.98, 375.00 698.48, 375.00 704.06 C 375.00 709.65, 375.00 715.31, 375.00 720.90 C 375.00 731.98, 375.00 737.48, 375.00 737.48" class="edge-path" fill="none" marker-end="url(#arrow_point)" stroke-width="1"/>
    </g>
    <g class="edge" id="edge-L-H-I-0">
      <path d="M 375.00 773.08 C 375.00 778.58, 375.00 784.08, 375.00 789.66 C 375.00 795.25, 375.00 800.91, 375.00 806.50 C 375.00 817.58, 375.00 823.08, 375.00 823.08" class="edge-path" fill="none" stroke-width="1" marker-end="url(#arrow_point)"/>
    </g>
    <g class="edge" id="edge-L-I-J-0">
      <path d="M 375.00 858.68 C 375.00 864.18, 375.00 869.68, 375.00 875.26 C 375.00 880.85, 375.00 886.51, 375.00 892.10 C 375.00 903.18, 375.00 908.68, 375.00 908.68" class="edge-path" marker-end="url(#arrow_point)" fill="none" stroke-width="1"/>
    </g>
    <g class="edge" id="edge-L-J-K-0">
      <path d="M 375.00 944.28 C 375.00 949.78, 375.00 955.28, 375.00 960.86 C 375.00 966.45, 375.00 972.11, 375.00 977.70 C 375.00 988.78, 375.00 994.28, 375.00 994.28" class="edge-path" fill="none" stroke-width="1" marker-end="url(#arrow_point)"/>
    </g>
    <g class="edge" id="edge-L-K-L-0">
      <path d="M 375.00 1029.88 C 375.00 1035.38, 375.00 1040.88, 375.00 1046.46 C 375.00 1052.05, 375.00 1057.71, 375.00 1063.30 C 375.00 1074.38, 375.00 1079.88, 375.00 1079.88" class="edge-path" marker-end="url(#arrow_point)" fill="none" stroke-width="1"/>
    </g>
    <g class="edge" id="edge-L-L-M-0">
      <path d="M 375.00 1115.48 C 375.00 1120.98, 375.00 1126.48, 375.00 1132.06 C 375.00 1137.65, 375.00 1143.31, 375.00 1148.90 C 375.00 1159.98, 375.00 1165.48, 375.00 1165.48" class="edge-path" marker-end="url(#arrow_point)" fill="none" stroke-width="1"/>
    </g>
    <g class="edge" id="edge-L-M-N-0">
      <path d="M 375.00 1201.08 C 375.00 1206.58, 375.00 1212.08, 375.00 1217.66 C 375.00 1223.25, 375.00 1228.91, 375.00 1234.50 C 375.00 1245.58, 375.00 1251.08, 375.00 1251.08" class="edge-path" stroke-width="1" marker-end="url(#arrow_point)" fill="none"/>
    </g>
    <g class="edge" id="edge-L-O-P-0">
      <path d="M 350.00 1466.19 C 317.00 1474.27, 284.00 1482.34, 250.50 1490.53 C 217.00 1498.72, 183.00 1507.04, 149.50 1515.23 C 83.00 1531.49, 50.00 1539.57, 50.00 1539.57" class="edge-path" fill="none" marker-end="url(#arrow_point)" stroke-width="1"/>
    </g>
    <g class="edge" id="edge-L-O-Q-0">
      <path d="M 350.00 1468.64 C 328.00 1476.17, 306.00 1483.71, 283.67 1491.35 C 261.33 1499.00, 238.67 1506.76, 216.33 1514.41 C 172.00 1529.59, 150.00 1537.12, 150.00 1537.12" class="edge-path" fill="none" stroke-width="1" marker-end="url(#arrow_open)"/>
    </g>
    <g class="edge" id="edge-L-O-R-0">
      <path d="M 350.00 1474.35 C 339.00 1480.62, 328.00 1486.90, 316.83 1493.27 C 305.67 1499.65, 294.33 1506.11, 283.17 1512.49 C 261.00 1525.14, 250.00 1531.41, 250.00 1531.41" class="edge-path" marker-end="url(#arrow_open)" fill="none" stroke-width="2" stroke-dasharray="3,3"/>
    </g>
    <g class="edge" id="edge-L-O-S-0">
      <path d="M 364.60 1477.88 C 361.39 1483.38, 358.18 1488.88, 354.92 1494.46 C 351.65 1500.05, 348.35 1505.71, 345.08 1511.30 C 338.61 1522.38, 335.40 1527.88, 335.40 1527.88" class="edge-path" marker-end="url(#arrow_point)" stroke-dasharray="3,3" fill="none" stroke-width="2"/>
    </g>
    <g class="edge" id="edge-L-O-T-0">
      <path d="M 385.40 1477.88 C 388.61 1483.38, 391.82 1488.88, 395.08 1494.46 C 398.35 1500.05, 401.65 1505.71, 404.92 1511.30 C 411.39 1522.38, 414.60 1527.88, 414.60 1527.88" class="edge-path" stroke-width="3.5" marker-end="url(#arrow_point)" fill="none"/>
    </g>
    <g class="edge" id="edge-L-O-U-0">
      <path d="M 400.00 1474.35 C 411.00 1480.62, 422.00 1486.90, 433.17 1493.27 C 444.33 1499.65, 455.67 1506.11, 466.83 1512.49 C 489.00 1525.14, 500.00 1531.41, 500.00 1531.41" class="edge-path" fill="none" marker-start="url(#double_arrow_point_start)" stroke-width="1" marker-end="url(#double_arrow_point_end)"/>
    </g>
    <g class="edge" id="edge-L-O-V-0">
      <path d="M 400.00 1468.64 C 422.00 1476.17, 444.00 1483.71, 466.33 1491.35 C 488.67 1499.00, 511.33 1506.76, 533.67 1514.41 C 578.00 1529.59, 600.00 1537.12, 600.00 1537.12" class="edge-path" fill="none" marker-end="url(#arrow_cross)" stroke-width="1" marker-start="url(#arrow_cross)"/>
    </g>
    <g class="edge" id="edge-L-O-W-0">
      <path d="M 400.00 1466.19 C 433.00 1474.27, 466.00 1482.34, 499.50 1490.53 C 533.00 1498.72, 567.00 1507.04, 600.50 1515.23 C 667.00 1531.49, 700.00 1539.57, 700.00 1539.57" class="edge-path" marker-start="url(#arrow_circle_start)" fill="none" stroke-width="1" marker-end="url(#arrow_circle)"/>
    </g>
    <g class="edge" id="edge-L-F-G-0">
      <path d="M 375.00 555.08 C 375.00 560.58, 375.00 566.08, 375.00 571.66 C 375.00 577.25, 375.00 582.91, 375.00 588.50 C 375.00 599.58, 375.00 605.08, 375.00 605.08" class="edge-path" fill="none" stroke-width="1" marker-end="url(#arrow_point)"/>
    </g>
    <g class="edge" id="edge-L-N-O-0">
      <path d="M 375.00 1392.28 C 375.00 1397.78, 375.00 1403.28, 375.00 1408.86 C 375.00 1414.45, 375.00 1420.11, 375.00 1425.70 C 375.00 1436.78, 375.00 1442.28, 375.00 1442.28" class="edge-path" fill="none" stroke-width="1" marker-end="url(#arrow_point)"/>
    </g>
  </g>
</svg>
