<svg id="my-svg" width="100%" xmlns="http://www.w3.org/2000/svg" xmlns:xlink="http://www.w3.org/1999/xlink" class="requirementDiagram" style="max-width: 855.672px; background-color: white;" viewBox="0 0 855.671875 1232" role="graphics-document document" aria-roledescription="requirement"><style>#my-svg{font-family:"trebuchet ms",verdana,arial,sans-serif;font-size:16px;fill:#333;}@keyframes edge-animation-frame{from{stroke-dashoffset:0;}}@keyframes dash{to{stroke-dashoffset:0;}}#my-svg .edge-animation-slow{stroke-dasharray:9,5!important;stroke-dashoffset:900;animation:dash 50s linear infinite;stroke-linecap:round;}#my-svg .edge-animation-fast{stroke-dasharray:9,5!important;stroke-dashoffset:900;animation:dash 20s linear infinite;stroke-linecap:round;}#my-svg .error-icon{fill:#552222;}#my-svg .error-text{fill:#552222;stroke:#552222;}#my-svg .edge-thickness-normal{stroke-width:1px;}#my-svg .edge-thickness-thick{stroke-width:3.5px;}#my-svg .edge-pattern-solid{stroke-dasharray:0;}#my-svg .edge-thickness-invisible{stroke-width:0;fill:none;}#my-svg .edge-pattern-dashed{stroke-dasharray:3;}#my-svg .edge-pattern-dotted{stroke-dasharray:2;}#my-svg .marker{fill:#333333;stroke:#333333;}#my-svg .marker.cross{stroke:#333333;}#my-svg svg{font-family:"trebuchet ms",verdana,arial,sans-serif;font-size:16px;}#my-svg p{margin:0;}#my-svg marker{fill:#333333;stroke:#333333;}#my-svg marker.cross{stroke:#333333;}#my-svg svg{font-family:"trebuchet ms",verdana,arial,sans-serif;font-size:16px;}#my-svg .reqBox{fill:#ECECFF;fill-opacity:1.0;stroke:hsl(240, 60%, 86.2745098039%);stroke-width:1;}#my-svg .reqTitle,#my-svg .reqLabel{fill:#131300;}#my-svg .reqLabelBox{fill:rgba(232,232,232, 0.8);fill-opacity:1.0;}#my-svg .req-title-line{stroke:hsl(240, 60%, 86.2745098039%);stroke-width:1;}#my-svg .relationshipLine{stroke:#333333;stroke-width:1;}#my-svg .relationshipLabel{fill:black;}#my-svg .divider{stroke:#9370DB;stroke-width:1;}#my-svg .label{font-family:"trebuchet ms",verdana,arial,sans-serif;color:#333;}#my-svg .label text,#my-svg span{fill:#333;color:#333;}#my-svg .labelBkg{background-color:rgba(232,232,232, 0.8);}#my-svg :root{--mermaid-font-family:"trebuchet ms",verdana,arial,sans-serif;}</style><g><defs><marker id="my-svg_requirement-requirement_containsStart" refX="0" refY="10" markerWidth="20" markerHeight="20" orient="auto"><g><circle cx="10" cy="10" r="9" fill="none"/><line x1="1" x2="19" y1="10" y2="10"/><line y1="1" y2="19" x1="10" x2="10"/></g></marker></defs><defs><marker id="my-svg_requirement-requirement_arrowEnd" refX="20" refY="10" markerWidth="20" markerHeight="20" orient="auto"><path d="M0,0&#10;      L20,10&#10;      M20,10&#10;      L0,20"/></marker></defs><g class="root"><g class="clusters"/><g class="edgePaths"><path d="M77.047,156L77.047,168.167C77.047,180.333,77.047,204.667,79.547,223C82.046,241.333,87.046,253.667,89.546,259.833L92.046,266" id="test_entity-test_req2-0" class="edge-thickness-normal edge-pattern-dashed relationshipLine" style="fill:none;stroke-dasharray: 10,7;;;fill:none;stroke-dasharray: 10,7" data-edge="true" data-et="edge" data-id="test_entity-test_req2-0" data-points="W3sieCI6NzcuMDQ2ODc1LCJ5IjoxNTZ9LHsieCI6NzcuMDQ2ODc1LCJ5IjoyMjl9LHsieCI6OTIuMDQ1NjMzNDc4NjgyMTYsInkiOjI2Nn1d" marker-end="url(#my-svg_requirement-requirement_arrowEnd)"/><path d="M290.969,171.88L280.523,181.4C270.078,190.92,249.188,209.96,234.012,225.647C218.836,241.333,209.375,253.667,204.644,259.833L199.914,266" id="test_req-test_req2-0" class="edge-thickness-normal edge-pattern-dashed relationshipLine" style="fill:none;stroke-dasharray: 10,7;;;fill:none;stroke-dasharray: 10,7" data-edge="true" data-et="edge" data-id="test_req-test_req2-0" data-points="W3sieCI6MjkwLjk2ODc1LCJ5IjoxNzEuODgwMjc4MTkxNzUzNn0seyJ4IjoyMjguMjk2ODc1LCJ5IjoyMjl9LHsieCI6MTk5LjkxMzg1MDUzMjk0NTczLCJ5IjoyNjZ9XQ==" marker-end="url(#my-svg_requirement-requirement_arrowEnd)"/><path d="M407.456,192L409.978,198.167C412.499,204.333,417.543,216.667,420.064,229C422.586,241.333,422.586,253.667,422.586,259.833L422.586,266" id="test_req-test_req3-0" class="edge-thickness-normal edge-pattern-solid relationshipLine" style="fill:none;;;;fill:none;" data-edge="true" data-et="edge" data-id="test_req-test_req3-0" data-points="W3sieCI6NDA3LjQ1NjA5MjUzODc1OTY2LCJ5IjoxOTJ9LHsieCI6NDIyLjU4NTkzNzUsInkiOjIyOX0seyJ4Ijo0MjIuNTg1OTM3NSwieSI6MjY2fV0=" marker-start="url(#my-svg_requirement-requirement_containsStart)"/><path d="M422.586,450L422.586,456.167C422.586,462.333,422.586,474.667,422.586,487C422.586,499.333,422.586,511.667,422.586,517.833L422.586,524" id="test_req3-test_req4-0" class="edge-thickness-normal edge-pattern-solid relationshipLine" style="fill:none;;;;fill:none;" data-edge="true" data-et="edge" data-id="test_req3-test_req4-0" data-points="W3sieCI6NDIyLjU4NTkzNzUsInkiOjQ1MH0seyJ4Ijo0MjIuNTg1OTM3NSwieSI6NDg3fSx7IngiOjQyMi41ODU5Mzc1LCJ5Ijo1MjR9XQ==" marker-start="url(#my-svg_requirement-requirement_containsStart)"/><path d="M422.586,708L422.586,714.167C422.586,720.333,422.586,732.667,429.627,745.067C436.668,757.467,450.75,769.935,457.791,776.168L464.832,782.402" id="test_req4-test_req5-0" class="edge-thickness-normal edge-pattern-dashed relationshipLine" style="fill:none;stroke-dasharray: 10,7;;;fill:none;stroke-dasharray: 10,7" data-edge="true" data-et="edge" data-id="test_req4-test_req5-0" data-points="W3sieCI6NDIyLjU4NTkzNzUsInkiOjcwOH0seyJ4Ijo0MjIuNTg1OTM3NSwieSI6NzQ1fSx7IngiOjQ2NC44MzIwMzEyNSwieSI6NzgyLjQwMjA4MDM3MzE4MDN9XQ==" marker-end="url(#my-svg_requirement-requirement_arrowEnd)"/><path d="M568.293,966L568.293,972.167C568.293,978.333,568.293,990.667,568.293,1003C568.293,1015.333,568.293,1027.667,568.293,1033.833L568.293,1040" id="test_req5-test_req6-0" class="edge-thickness-normal edge-pattern-dashed relationshipLine" style="fill:none;stroke-dasharray: 10,7;;;fill:none;stroke-dasharray: 10,7" data-edge="true" data-et="edge" data-id="test_req5-test_req6-0" data-points="W3sieCI6NTY4LjI5Mjk2ODc1LCJ5Ijo5NjZ9LHsieCI6NTY4LjI5Mjk2ODc1LCJ5IjoxMDAzfSx7IngiOjU2OC4yOTI5Njg3NSwieSI6MTA0MH1d" marker-end="url(#my-svg_requirement-requirement_arrowEnd)"/><path d="M714,684L714,694.167C714,704.333,714,724.667,706.959,741.067C699.918,757.467,685.836,769.935,678.795,776.168L671.754,782.402" id="test_entity3-test_req5-0" class="edge-thickness-normal edge-pattern-dashed relationshipLine" style="fill:none;stroke-dasharray: 10,7;;;fill:none;stroke-dasharray: 10,7" data-edge="true" data-et="edge" data-id="test_entity3-test_req5-0" data-points="W3sieCI6NzE0LCJ5Ijo2ODR9LHsieCI6NzE0LCJ5Ijo3NDV9LHsieCI6NjcxLjc1MzkwNjI1LCJ5Ijo3ODIuNDAyMDgwMzczMTgwM31d" marker-end="url(#my-svg_requirement-requirement_arrowEnd)"/></g><g class="edgeLabels"><g class="edgeLabel" transform="translate(77.046875, 229)"><g class="label" data-id="test_entity-test_req2-0" transform="translate(-45.7578125, -12)"><foreignObject width="91.515625" height="24"><div xmlns="http://www.w3.org/1999/xhtml" class="labelBkg" style="display: table-cell; white-space: nowrap; line-height: 1.5; max-width: 200px; text-align: center;"><span class="edgeLabel"><p>&lt;&lt;satisfies&gt;&gt;</p></span></div></foreignObject></g></g><g class="edgeLabel" transform="translate(242.40006, 216.14623)"><g class="label" data-id="test_req-test_req2-0" transform="translate(-38.828125, -12)"><foreignObject width="77.65625" height="24"><div xmlns="http://www.w3.org/1999/xhtml" class="labelBkg" style="display: table-cell; white-space: nowrap; line-height: 1.5; max-width: 200px; text-align: center;"><span class="edgeLabel"><p>&lt;&lt;traces&gt;&gt;</p></span></div></foreignObject></g></g><g class="edgeLabel" transform="translate(422.5859375, 229)"><g class="label" data-id="test_req-test_req3-0" transform="translate(-46.671875, -12)"><foreignObject width="93.34375" height="24"><div xmlns="http://www.w3.org/1999/xhtml" class="labelBkg" style="display: table-cell; white-space: nowrap; line-height: 1.5; max-width: 200px; text-align: center;"><span class="edgeLabel"><p>&lt;&lt;contains&gt;&gt;</p></span></div></foreignObject></g></g><g class="edgeLabel" transform="translate(422.5859375, 487)"><g class="label" data-id="test_req3-test_req4-0" transform="translate(-46.671875, -12)"><foreignObject width="93.34375" height="24"><div xmlns="http://www.w3.org/1999/xhtml" class="labelBkg" style="display: table-cell; white-space: nowrap; line-height: 1.5; max-width: 200px; text-align: center;"><span class="edgeLabel"><p>&lt;&lt;contains&gt;&gt;</p></span></div></foreignObject></g></g><g class="edgeLabel" transform="translate(422.5859375, 745)"><g class="label" data-id="test_req4-test_req5-0" transform="translate(-42.515625, -12)"><foreignObject width="85.03125" height="24"><div xmlns="http://www.w3.org/1999/xhtml" class="labelBkg" style="display: table-cell; white-space: nowrap; line-height: 1.5; max-width: 200px; text-align: center;"><span class="edgeLabel"><p>&lt;&lt;derives&gt;&gt;</p></span></div></foreignObject></g></g><g class="edgeLabel" transform="translate(568.29296875, 1003)"><g class="label" data-id="test_req5-test_req6-0" transform="translate(-41.46875, -12)"><foreignObject width="82.9375" height="24"><div xmlns="http://www.w3.org/1999/xhtml" class="labelBkg" style="display: table-cell; white-space: nowrap; line-height: 1.5; max-width: 200px; text-align: center;"><span class="edgeLabel"><p>&lt;&lt;refines&gt;&gt;</p></span></div></foreignObject></g></g><g class="edgeLabel" transform="translate(714, 745)"><g class="label" data-id="test_entity3-test_req5-0" transform="translate(-43.296875, -12)"><foreignObject width="86.59375" height="24"><div xmlns="http://www.w3.org/1999/xhtml" class="labelBkg" style="display: table-cell; white-space: nowrap; line-height: 1.5; max-width: 200px; text-align: center;"><span class="edgeLabel"><p>&lt;&lt;verifies&gt;&gt;</p></span></div></foreignObject></g></g></g><g class="nodes"><g class="node default" id="test_req" transform="translate(369.8359375, 100)"><g class="basic label-container" style=""><path d="M-78.8671875 -92 L78.8671875 -92 L78.8671875 92 L-78.8671875 92" stroke="none" stroke-width="0" fill="#ECECFF"/><path d="M-78.8671875 -92 C-43.1960765845545 -92, -7.524965669108994 -92, 78.8671875 -92 M-78.8671875 -92 C-20.493059519873874 -92, 37.88106846025225 -92, 78.8671875 -92 M78.8671875 -92 C78.8671875 -51.531559557095584, 78.8671875 -11.063119114191167, 78.8671875 92 M78.8671875 -92 C78.8671875 -19.248996178757807, 78.8671875 53.50200764248439, 78.8671875 92 M78.8671875 92 C35.521527471561825 92, -7.82413255687635 92, -78.8671875 92 M78.8671875 92 C19.10496141839719 92, -40.65726466320562 92, -78.8671875 92 M-78.8671875 92 C-78.8671875 47.11519944380038, -78.8671875 2.2303988876007566, -78.8671875 -92 M-78.8671875 92 C-78.8671875 18.773528263048192, -78.8671875 -54.452943473903616, -78.8671875 -92" stroke="#9370DB" stroke-width="1.3" fill="none" stroke-dasharray="0 0"/></g><g class="label" style="" transform="translate(-62.609375, -84)"><foreignObject width="125.21875" height="24"><div xmlns="http://www.w3.org/1999/xhtml" style="display: table-cell; white-space: nowrap; line-height: 1.5; max-width: 243px; text-align: center;"><span class="nodeLabel markdown-node-label"><p>&lt;&lt;Requirement&gt;&gt;</p></span></div></foreignObject></g><g class="label" style="; font-weight: bold;" transform="translate(-31.765625, -60)"><foreignObject width="63.53125" height="24"><div style="font-weight: bold; display: table-cell; white-space: nowrap; line-height: 1.5; max-width: 101px; text-align: center;" xmlns="http://www.w3.org/1999/xhtml"><span style="; font-weight: bold;" class="nodeLabel markdown-node-label"><p>test_req</p></span></div></foreignObject></g><g class="label" style="" transform="translate(-68.8671875, -16)"><foreignObject width="33.359375" height="24"><div xmlns="http://www.w3.org/1999/xhtml" style="display: table-cell; white-space: nowrap; line-height: 1.5; max-width: 83px; text-align: center;"><span class="nodeLabel markdown-node-label"><p>ID: 1</p></span></div></foreignObject></g><g class="label" style="" transform="translate(-68.8671875, 8)"><foreignObject width="137.734375" height="24"><div xmlns="http://www.w3.org/1999/xhtml" style="display: table-cell; white-space: nowrap; line-height: 1.5; max-width: 164px; text-align: center;"><span class="nodeLabel markdown-node-label"><p>Text: the test text.</p></span></div></foreignObject></g><g class="label" style="" transform="translate(-68.8671875, 32)"><foreignObject width="70.921875" height="24"><div xmlns="http://www.w3.org/1999/xhtml" style="display: table-cell; white-space: nowrap; line-height: 1.5; max-width: 120px; text-align: center;"><span class="nodeLabel markdown-node-label"><p>Risk: High</p></span></div></foreignObject></g><g class="label" style="" transform="translate(-68.8671875, 56)"><foreignObject width="122.171875" height="24"><div xmlns="http://www.w3.org/1999/xhtml" style="display: table-cell; white-space: nowrap; line-height: 1.5; max-width: 160px; text-align: center;"><span class="nodeLabel markdown-node-label"><p>Verification: Test</p></span></div></foreignObject></g><g style=""><path d="M-78.8671875 -24 C-21.53358974502371 -24, 35.80000800995258 -24, 78.8671875 -24 M-78.8671875 -24 C-30.301584458335647 -24, 18.264018583328706 -24, 78.8671875 -24" stroke="#9370DB" stroke-width="1.3" fill="none" stroke-dasharray="0 0"/></g></g><g class="node default" id="test_req2" transform="translate(129.33984375, 358)"><g class="basic label-container" style=""><path d="M-112.6015625 -92 L112.6015625 -92 L112.6015625 92 L-112.6015625 92" stroke="none" stroke-width="0" fill="#ECECFF"/><path d="M-112.6015625 -92 C-28.28056975756415 -92, 56.0404229848717 -92, 112.6015625 -92 M-112.6015625 -92 C-40.20630056763842 -92, 32.188961364723156 -92, 112.6015625 -92 M112.6015625 -92 C112.6015625 -27.77976360407264, 112.6015625 36.44047279185472, 112.6015625 92 M112.6015625 -92 C112.6015625 -33.32388722868944, 112.6015625 25.352225542621113, 112.6015625 92 M112.6015625 92 C52.39302677695817 92, -7.8155089460836535 92, -112.6015625 92 M112.6015625 92 C26.045860590641723 92, -60.50984131871655 92, -112.6015625 92 M-112.6015625 92 C-112.6015625 38.095681858207655, -112.6015625 -15.80863628358469, -112.6015625 -92 M-112.6015625 92 C-112.6015625 45.67524028008543, -112.6015625 -0.6495194398291346, -112.6015625 -92" stroke="#9370DB" stroke-width="1.3" fill="none" stroke-dasharray="0 0"/></g><g class="label" style="" transform="translate(-102.6015625, -84)"><foreignObject width="205.203125" height="24"><div xmlns="http://www.w3.org/1999/xhtml" style="display: table-cell; white-space: nowrap; line-height: 1.5; max-width: 315px; text-align: center;"><span class="nodeLabel markdown-node-label"><p>&lt;&lt;Functional Requirement&gt;&gt;</p></span></div></foreignObject></g><g class="label" style="; font-weight: bold;" transform="translate(-36.453125, -60)"><foreignObject width="72.90625" height="24"><div style="font-weight: bold; display: table-cell; white-space: nowrap; line-height: 1.5; max-width: 109px; text-align: center;" xmlns="http://www.w3.org/1999/xhtml"><span style="; font-weight: bold;" class="nodeLabel markdown-node-label"><p>test_req2</p></span></div></foreignObject></g><g class="label" style="" transform="translate(-102.6015625, -16)"><foreignObject width="47.625" height="24"><div xmlns="http://www.w3.org/1999/xhtml" style="display: table-cell; white-space: nowrap; line-height: 1.5; max-width: 95px; text-align: center;"><span class="nodeLabel markdown-node-label"><p>ID: 1.1</p></span></div></foreignObject></g><g class="label" style="" transform="translate(-102.6015625, 8)"><foreignObject width="191.921875" height="24"><div xmlns="http://www.w3.org/1999/xhtml" style="display: table-cell; white-space: nowrap; line-height: 1.5; max-width: 213px; text-align: center;"><span class="nodeLabel markdown-node-label"><p>Text: the second test text.</p></span></div></foreignObject></g><g class="label" style="" transform="translate(-102.6015625, 32)"><foreignObject width="67.71875" height="24"><div xmlns="http://www.w3.org/1999/xhtml" style="display: table-cell; white-space: nowrap; line-height: 1.5; max-width: 117px; text-align: center;"><span class="nodeLabel markdown-node-label"><p>Risk: Low</p></span></div></foreignObject></g><g class="label" style="" transform="translate(-102.6015625, 56)"><foreignObject width="167.078125" height="24"><div xmlns="http://www.w3.org/1999/xhtml" style="display: table-cell; white-space: nowrap; line-height: 1.5; max-width: 201px; text-align: center;"><span class="nodeLabel markdown-node-label"><p>Verification: Inspection</p></span></div></foreignObject></g><g style=""><path d="M-112.6015625 -24 C-64.5245203033233 -24, -16.447478106646585 -24, 112.6015625 -24 M-112.6015625 -24 C-50.16296022109386 -24, 12.275642057812277 -24, 112.6015625 -24" stroke="#9370DB" stroke-width="1.3" fill="none" stroke-dasharray="0 0"/></g></g><g class="node default" id="test_req3" transform="translate(422.5859375, 358)"><g class="basic label-container" style=""><path d="M-120.4765625 -92 L120.4765625 -92 L120.4765625 92 L-120.4765625 92" stroke="none" stroke-width="0" fill="#ECECFF"/><path d="M-120.4765625 -92 C-30.031993336420783 -92, 60.412575827158435 -92, 120.4765625 -92 M-120.4765625 -92 C-48.37048917483186 -92, 23.73558415033628 -92, 120.4765625 -92 M120.4765625 -92 C120.4765625 -48.45140756871159, 120.4765625 -4.902815137423175, 120.4765625 92 M120.4765625 -92 C120.4765625 -20.427907200402018, 120.4765625 51.144185599195964, 120.4765625 92 M120.4765625 92 C71.02725205274217 92, 21.57794160548434 92, -120.4765625 92 M120.4765625 92 C36.428921542762566 92, -47.61871941447487 92, -120.4765625 92 M-120.4765625 92 C-120.4765625 26.375269604337333, -120.4765625 -39.24946079132533, -120.4765625 -92 M-120.4765625 92 C-120.4765625 30.67678744600442, -120.4765625 -30.646425107991163, -120.4765625 -92" stroke="#9370DB" stroke-width="1.3" fill="none" stroke-dasharray="0 0"/></g><g class="label" style="" transform="translate(-110.4765625, -84)"><foreignObject width="220.953125" height="24"><div xmlns="http://www.w3.org/1999/xhtml" style="display: table-cell; white-space: nowrap; line-height: 1.5; max-width: 329px; text-align: center;"><span class="nodeLabel markdown-node-label"><p>&lt;&lt;Performance Requirement&gt;&gt;</p></span></div></foreignObject></g><g class="label" style="; font-weight: bold;" transform="translate(-36.453125, -60)"><foreignObject width="72.90625" height="24"><div style="font-weight: bold; display: table-cell; white-space: nowrap; line-height: 1.5; max-width: 109px; text-align: center;" xmlns="http://www.w3.org/1999/xhtml"><span style="; font-weight: bold;" class="nodeLabel markdown-node-label"><p>test_req3</p></span></div></foreignObject></g><g class="label" style="" transform="translate(-110.4765625, -16)"><foreignObject width="47.625" height="24"><div xmlns="http://www.w3.org/1999/xhtml" style="display: table-cell; white-space: nowrap; line-height: 1.5; max-width: 95px; text-align: center;"><span class="nodeLabel markdown-node-label"><p>ID: 1.2</p></span></div></foreignObject></g><g class="label" style="" transform="translate(-110.4765625, 8)"><foreignObject width="177.328125" height="24"><div xmlns="http://www.w3.org/1999/xhtml" style="display: table-cell; white-space: nowrap; line-height: 1.5; max-width: 199px; text-align: center;"><span class="nodeLabel markdown-node-label"><p>Text: the third test text.</p></span></div></foreignObject></g><g class="label" style="" transform="translate(-110.4765625, 32)"><foreignObject width="94.703125" height="24"><div xmlns="http://www.w3.org/1999/xhtml" style="display: table-cell; white-space: nowrap; line-height: 1.5; max-width: 142px; text-align: center;"><span class="nodeLabel markdown-node-label"><p>Risk: Medium</p></span></div></foreignObject></g><g class="label" style="" transform="translate(-110.4765625, 56)"><foreignObject width="198.4375" height="24"><div xmlns="http://www.w3.org/1999/xhtml" style="display: table-cell; white-space: nowrap; line-height: 1.5; max-width: 229px; text-align: center;"><span class="nodeLabel markdown-node-label"><p>Verification: Demonstration</p></span></div></foreignObject></g><g style=""><path d="M-120.4765625 -24 C-44.73630856639157 -24, 31.003945367216858 -24, 120.4765625 -24 M-120.4765625 -24 C-39.05447267253541 -24, 42.36761715492918 -24, 120.4765625 -24" stroke="#9370DB" stroke-width="1.3" fill="none" stroke-dasharray="0 0"/></g></g><g class="node default" id="test_req4" transform="translate(422.5859375, 616)"><g class="basic label-container" style=""><path d="M-107.7421875 -92 L107.7421875 -92 L107.7421875 92 L-107.7421875 92" stroke="none" stroke-width="0" fill="#ECECFF"/><path d="M-107.7421875 -92 C-53.94353657722265 -92, -0.14488565444530366 -92, 107.7421875 -92 M-107.7421875 -92 C-22.305977854945823 -92, 63.130231790108354 -92, 107.7421875 -92 M107.7421875 -92 C107.7421875 -35.391041147877914, 107.7421875 21.217917704244172, 107.7421875 92 M107.7421875 -92 C107.7421875 -54.82239323858133, 107.7421875 -17.644786477162654, 107.7421875 92 M107.7421875 92 C33.078550289102154 92, -41.58508692179569 92, -107.7421875 92 M107.7421875 92 C50.245043594449385 92, -7.2521003111012305 92, -107.7421875 92 M-107.7421875 92 C-107.7421875 33.5507107222803, -107.7421875 -24.8985785554394, -107.7421875 -92 M-107.7421875 92 C-107.7421875 48.685652093310466, -107.7421875 5.371304186620932, -107.7421875 -92" stroke="#9370DB" stroke-width="1.3" fill="none" stroke-dasharray="0 0"/></g><g class="label" style="" transform="translate(-97.7421875, -84)"><foreignObject width="195.484375" height="24"><div xmlns="http://www.w3.org/1999/xhtml" style="display: table-cell; white-space: nowrap; line-height: 1.5; max-width: 304px; text-align: center;"><span class="nodeLabel markdown-node-label"><p>&lt;&lt;Interface Requirement&gt;&gt;</p></span></div></foreignObject></g><g class="label" style="; font-weight: bold;" transform="translate(-36.453125, -60)"><foreignObject width="72.90625" height="24"><div style="font-weight: bold; display: table-cell; white-space: nowrap; line-height: 1.5; max-width: 109px; text-align: center;" xmlns="http://www.w3.org/1999/xhtml"><span style="; font-weight: bold;" class="nodeLabel markdown-node-label"><p>test_req4</p></span></div></foreignObject></g><g class="label" style="" transform="translate(-97.7421875, -16)"><foreignObject width="61.890625" height="24"><div xmlns="http://www.w3.org/1999/xhtml" style="display: table-cell; white-space: nowrap; line-height: 1.5; max-width: 107px; text-align: center;"><span class="nodeLabel markdown-node-label"><p>ID: 1.2.1</p></span></div></foreignObject></g><g class="label" style="" transform="translate(-97.7421875, 8)"><foreignObject width="187.09375" height="24"><div xmlns="http://www.w3.org/1999/xhtml" style="display: table-cell; white-space: nowrap; line-height: 1.5; max-width: 208px; text-align: center;"><span class="nodeLabel markdown-node-label"><p>Text: the fourth test text.</p></span></div></foreignObject></g><g class="label" style="" transform="translate(-97.7421875, 32)"><foreignObject width="94.703125" height="24"><div xmlns="http://www.w3.org/1999/xhtml" style="display: table-cell; white-space: nowrap; line-height: 1.5; max-width: 142px; text-align: center;"><span class="nodeLabel markdown-node-label"><p>Risk: Medium</p></span></div></foreignObject></g><g class="label" style="" transform="translate(-97.7421875, 56)"><foreignObject width="149.4375" height="24"><div xmlns="http://www.w3.org/1999/xhtml" style="display: table-cell; white-space: nowrap; line-height: 1.5; max-width: 189px; text-align: center;"><span class="nodeLabel markdown-node-label"><p>Verification: Analysis</p></span></div></foreignObject></g><g style=""><path d="M-107.7421875 -24 C-62.51165778875899 -24, -17.281128077517977 -24, 107.7421875 -24 M-107.7421875 -24 C-51.41316244668576 -24, 4.91586260662848 -24, 107.7421875 -24" stroke="#9370DB" stroke-width="1.3" fill="none" stroke-dasharray="0 0"/></g></g><g class="node default" id="test_req5" transform="translate(568.29296875, 874)"><g class="basic label-container" style=""><path d="M-103.4609375 -92 L103.4609375 -92 L103.4609375 92 L-103.4609375 92" stroke="none" stroke-width="0" fill="#ECECFF"/><path d="M-103.4609375 -92 C-38.16231907679018 -92, 27.136299346419634 -92, 103.4609375 -92 M-103.4609375 -92 C-36.116304253048284 -92, 31.228328993903432 -92, 103.4609375 -92 M103.4609375 -92 C103.4609375 -21.4977902636725, 103.4609375 49.004419472655, 103.4609375 92 M103.4609375 -92 C103.4609375 -24.115996076516666, 103.4609375 43.76800784696667, 103.4609375 92 M103.4609375 92 C57.152377923899444 92, 10.843818347798887 92, -103.4609375 92 M103.4609375 92 C31.214604859813406 92, -41.03172778037319 92, -103.4609375 92 M-103.4609375 92 C-103.4609375 19.174994365861977, -103.4609375 -53.650011268276046, -103.4609375 -92 M-103.4609375 92 C-103.4609375 48.7081602760097, -103.4609375 5.4163205520194, -103.4609375 -92" stroke="#9370DB" stroke-width="1.3" fill="none" stroke-dasharray="0 0"/></g><g class="label" style="" transform="translate(-93.4609375, -84)"><foreignObject width="186.921875" height="24"><div xmlns="http://www.w3.org/1999/xhtml" style="display: table-cell; white-space: nowrap; line-height: 1.5; max-width: 301px; text-align: center;"><span class="nodeLabel markdown-node-label"><p>&lt;&lt;Physical Requirement&gt;&gt;</p></span></div></foreignObject></g><g class="label" style="; font-weight: bold;" transform="translate(-36.453125, -60)"><foreignObject width="72.90625" height="24"><div style="font-weight: bold; display: table-cell; white-space: nowrap; line-height: 1.5; max-width: 109px; text-align: center;" xmlns="http://www.w3.org/1999/xhtml"><span style="; font-weight: bold;" class="nodeLabel markdown-node-label"><p>test_req5</p></span></div></foreignObject></g><g class="label" style="" transform="translate(-93.4609375, -16)"><foreignObject width="61.890625" height="24"><div xmlns="http://www.w3.org/1999/xhtml" style="display: table-cell; white-space: nowrap; line-height: 1.5; max-width: 107px; text-align: center;"><span class="nodeLabel markdown-node-label"><p>ID: 1.2.2</p></span></div></foreignObject></g><g class="label" style="" transform="translate(-93.4609375, 8)"><foreignObject width="174.03125" height="24"><div xmlns="http://www.w3.org/1999/xhtml" style="display: table-cell; white-space: nowrap; line-height: 1.5; max-width: 196px; text-align: center;"><span class="nodeLabel markdown-node-label"><p>Text: the fifth test text.</p></span></div></foreignObject></g><g class="label" style="" transform="translate(-93.4609375, 32)"><foreignObject width="94.703125" height="24"><div xmlns="http://www.w3.org/1999/xhtml" style="display: table-cell; white-space: nowrap; line-height: 1.5; max-width: 142px; text-align: center;"><span class="nodeLabel markdown-node-label"><p>Risk: Medium</p></span></div></foreignObject></g><g class="label" style="" transform="translate(-93.4609375, 56)"><foreignObject width="149.4375" height="24"><div xmlns="http://www.w3.org/1999/xhtml" style="display: table-cell; white-space: nowrap; line-height: 1.5; max-width: 189px; text-align: center;"><span class="nodeLabel markdown-node-label"><p>Verification: Analysis</p></span></div></foreignObject></g><g style=""><path d="M-103.4609375 -24 C-60.30091723778676 -24, -17.140896975573526 -24, 103.4609375 -24 M-103.4609375 -24 C-50.352941494076525 -24, 2.75505451184695 -24, 103.4609375 -24" stroke="#9370DB" stroke-width="1.3" fill="none" stroke-dasharray="0 0"/></g></g><g class="node default" id="test_req6" transform="translate(568.29296875, 1132)"><g class="basic label-container" style=""><path d="M-98.34375 -92 L98.34375 -92 L98.34375 92 L-98.34375 92" stroke="none" stroke-width="0" fill="#ECECFF"/><path d="M-98.34375 -92 C-56.483010948818745 -92, -14.62227189763749 -92, 98.34375 -92 M-98.34375 -92 C-46.21190504648298 -92, 5.919939907034035 -92, 98.34375 -92 M98.34375 -92 C98.34375 -24.544711184367074, 98.34375 42.91057763126585, 98.34375 92 M98.34375 -92 C98.34375 -47.62294862699408, 98.34375 -3.2458972539881614, 98.34375 92 M98.34375 92 C52.32419048694931 92, 6.304630973898625 92, -98.34375 92 M98.34375 92 C29.539095903936 92, -39.265558192128 92, -98.34375 92 M-98.34375 92 C-98.34375 49.79078230599855, -98.34375 7.581564611997095, -98.34375 -92 M-98.34375 92 C-98.34375 30.528789465160642, -98.34375 -30.942421069678716, -98.34375 -92" stroke="#9370DB" stroke-width="1.3" fill="none" stroke-dasharray="0 0"/></g><g class="label" style="" transform="translate(-79.3671875, -84)"><foreignObject width="158.734375" height="24"><div xmlns="http://www.w3.org/1999/xhtml" style="display: table-cell; white-space: nowrap; line-height: 1.5; max-width: 276px; text-align: center;"><span class="nodeLabel markdown-node-label"><p>&lt;&lt;Design Constraint&gt;&gt;</p></span></div></foreignObject></g><g class="label" style="; font-weight: bold;" transform="translate(-36.453125, -60)"><foreignObject width="72.90625" height="24"><div style="font-weight: bold; display: table-cell; white-space: nowrap; line-height: 1.5; max-width: 109px; text-align: center;" xmlns="http://www.w3.org/1999/xhtml"><span style="; font-weight: bold;" class="nodeLabel markdown-node-label"><p>test_req6</p></span></div></foreignObject></g><g class="label" style="" transform="translate(-88.34375, -16)"><foreignObject width="61.890625" height="24"><div xmlns="http://www.w3.org/1999/xhtml" style="display: table-cell; white-space: nowrap; line-height: 1.5; max-width: 107px; text-align: center;"><span class="nodeLabel markdown-node-label"><p>ID: 1.2.3</p></span></div></foreignObject></g><g class="label" style="" transform="translate(-88.34375, 8)"><foreignObject width="176.6875" height="24"><div xmlns="http://www.w3.org/1999/xhtml" style="display: table-cell; white-space: nowrap; line-height: 1.5; max-width: 200px; text-align: center;"><span class="nodeLabel markdown-node-label"><p>Text: the sixth test text.</p></span></div></foreignObject></g><g class="label" style="" transform="translate(-88.34375, 32)"><foreignObject width="94.703125" height="24"><div xmlns="http://www.w3.org/1999/xhtml" style="display: table-cell; white-space: nowrap; line-height: 1.5; max-width: 142px; text-align: center;"><span class="nodeLabel markdown-node-label"><p>Risk: Medium</p></span></div></foreignObject></g><g class="label" style="" transform="translate(-88.34375, 56)"><foreignObject width="149.4375" height="24"><div xmlns="http://www.w3.org/1999/xhtml" style="display: table-cell; white-space: nowrap; line-height: 1.5; max-width: 189px; text-align: center;"><span class="nodeLabel markdown-node-label"><p>Verification: Analysis</p></span></div></foreignObject></g><g style=""><path d="M-98.34375 -24 C-36.93233201367058 -24, 24.479085972658837 -24, 98.34375 -24 M-98.34375 -24 C-38.8796692160167 -24, 20.584411567966598 -24, 98.34375 -24" stroke="#9370DB" stroke-width="1.3" fill="none" stroke-dasharray="0 0"/></g></g><g class="node default" id="test_entity" transform="translate(77.046875, 100)"><g class="basic label-container" style=""><path d="M-69.046875 -56 L69.046875 -56 L69.046875 56 L-69.046875 56" stroke="none" stroke-width="0" fill="#ECECFF"/><path d="M-69.046875 -56 C-29.85369243978525 -56, 9.339490120429502 -56, 69.046875 -56 M-69.046875 -56 C-18.008109075551843 -56, 33.030656848896314 -56, 69.046875 -56 M69.046875 -56 C69.046875 -25.100011932142028, 69.046875 5.799976135715944, 69.046875 56 M69.046875 -56 C69.046875 -21.277465403955283, 69.046875 13.445069192089434, 69.046875 56 M69.046875 56 C15.554654773388968 56, -37.937565453222064 56, -69.046875 56 M69.046875 56 C39.86051379406172 56, 10.674152588123434 56, -69.046875 56 M-69.046875 56 C-69.046875 29.665738697950466, -69.046875 3.331477395900933, -69.046875 -56 M-69.046875 56 C-69.046875 23.33739873021318, -69.046875 -9.325202539573638, -69.046875 -56" stroke="#9370DB" stroke-width="1.3" fill="none" stroke-dasharray="0 0"/></g><g class="label" style="" transform="translate(-46.3359375, -48)"><foreignObject width="92.671875" height="24"><div xmlns="http://www.w3.org/1999/xhtml" style="display: table-cell; white-space: nowrap; line-height: 1.5; max-width: 214px; text-align: center;"><span class="nodeLabel markdown-node-label"><p>&lt;&lt;Element&gt;&gt;</p></span></div></foreignObject></g><g class="label" style="; font-weight: bold;" transform="translate(-41.3984375, -24)"><foreignObject width="82.796875" height="24"><div style="font-weight: bold; display: table-cell; white-space: nowrap; line-height: 1.5; max-width: 117px; text-align: center;" xmlns="http://www.w3.org/1999/xhtml"><span style="; font-weight: bold;" class="nodeLabel markdown-node-label"><p>test_entity</p></span></div></foreignObject></g><g class="label" style="" transform="translate(-59.046875, 20)"><foreignObject width="118.09375" height="24"><div xmlns="http://www.w3.org/1999/xhtml" style="display: table-cell; white-space: nowrap; line-height: 1.5; max-width: 158px; text-align: center;"><span class="nodeLabel markdown-node-label"><p>Type: simulation</p></span></div></foreignObject></g><g style=""><path d="M-69.046875 12 C-28.26121392792806 12, 12.524447144143878 12, 69.046875 12 M-69.046875 12 C-25.16644818916822 12, 18.713978621663557 12, 69.046875 12" stroke="#9370DB" stroke-width="1.3" fill="none" stroke-dasharray="0 0"/></g></g><g class="node default" id="test_entity2" transform="translate(600.0859375, 100)"><g class="basic label-container" style=""><path d="M-101.3828125 -68 L101.3828125 -68 L101.3828125 68 L-101.3828125 68" stroke="none" stroke-width="0" fill="#ECECFF"/><path d="M-101.3828125 -68 C-40.0125310206279 -68, 21.357750458744206 -68, 101.3828125 -68 M-101.3828125 -68 C-59.00285332832364 -68, -16.622894156647277 -68, 101.3828125 -68 M101.3828125 -68 C101.3828125 -36.46693273998902, 101.3828125 -4.9338654799780315, 101.3828125 68 M101.3828125 -68 C101.3828125 -32.640994592585514, 101.3828125 2.718010814828972, 101.3828125 68 M101.3828125 68 C33.72833136307712 68, -33.926149773845765 68, -101.3828125 68 M101.3828125 68 C47.14488964695475 68, -7.093033206090496 68, -101.3828125 68 M-101.3828125 68 C-101.3828125 18.18748840186457, -101.3828125 -31.62502319627086, -101.3828125 -68 M-101.3828125 68 C-101.3828125 27.918638524474893, -101.3828125 -12.162722951050213, -101.3828125 -68" stroke="#9370DB" stroke-width="1.3" fill="none" stroke-dasharray="0 0"/></g><g class="label" style="" transform="translate(-46.3359375, -60)"><foreignObject width="92.671875" height="24"><div xmlns="http://www.w3.org/1999/xhtml" style="display: table-cell; white-space: nowrap; line-height: 1.5; max-width: 214px; text-align: center;"><span class="nodeLabel markdown-node-label"><p>&lt;&lt;Element&gt;&gt;</p></span></div></foreignObject></g><g class="label" style="; font-weight: bold;" transform="translate(-46.0859375, -36)"><foreignObject width="92.171875" height="24"><div style="font-weight: bold; display: table-cell; white-space: nowrap; line-height: 1.5; max-width: 125px; text-align: center;" xmlns="http://www.w3.org/1999/xhtml"><span style="; font-weight: bold;" class="nodeLabel markdown-node-label"><p>test_entity2</p></span></div></foreignObject></g><g class="label" style="" transform="translate(-91.3828125, 8)"><foreignObject width="109.546875" height="24"><div xmlns="http://www.w3.org/1999/xhtml" style="display: table-cell; white-space: nowrap; line-height: 1.5; max-width: 150px; text-align: center;"><span class="nodeLabel markdown-node-label"><p>Type: word doc</p></span></div></foreignObject></g><g class="label" style="" transform="translate(-91.3828125, 32)"><foreignObject width="182.765625" height="24"><div xmlns="http://www.w3.org/1999/xhtml" style="display: table-cell; white-space: nowrap; line-height: 1.5; max-width: 210px; text-align: center;"><span class="nodeLabel markdown-node-label"><p>Doc Ref: reqs/test_entity</p></span></div></foreignObject></g><g style=""><path d="M-101.3828125 0 C-30.65507142112483 0, 40.07266965775034 0, 101.3828125 0 M-101.3828125 0 C-26.267281005938884 0, 48.84825048812223 0, 101.3828125 0" stroke="#9370DB" stroke-width="1.3" fill="none" stroke-dasharray="0 0"/></g></g><g class="node default" id="test_entity3" transform="translate(714, 616)"><g class="basic label-container" style=""><path d="M-133.671875 -68 L133.671875 -68 L133.671875 68 L-133.671875 68" stroke="none" stroke-width="0" fill="#ECECFF"/><path d="M-133.671875 -68 C-47.63766576445077 -68, 38.396543471098454 -68, 133.671875 -68 M-133.671875 -68 C-71.17050589842516 -68, -8.669136796850324 -68, 133.671875 -68 M133.671875 -68 C133.671875 -20.981153717945134, 133.671875 26.037692564109733, 133.671875 68 M133.671875 -68 C133.671875 -23.41933536245167, 133.671875 21.161329275096662, 133.671875 68 M133.671875 68 C40.45799407838703 68, -52.75588684322594 68, -133.671875 68 M133.671875 68 C49.88951005397384 68, -33.89285489205233 68, -133.671875 68 M-133.671875 68 C-133.671875 32.99668848062823, -133.671875 -2.006623038743541, -133.671875 -68 M-133.671875 68 C-133.671875 18.426355721071907, -133.671875 -31.147288557856186, -133.671875 -68" stroke="#9370DB" stroke-width="1.3" fill="none" stroke-dasharray="0 0"/></g><g class="label" style="" transform="translate(-46.3359375, -60)"><foreignObject width="92.671875" height="24"><div xmlns="http://www.w3.org/1999/xhtml" style="display: table-cell; white-space: nowrap; line-height: 1.5; max-width: 214px; text-align: center;"><span class="nodeLabel markdown-node-label"><p>&lt;&lt;Element&gt;&gt;</p></span></div></foreignObject></g><g class="label" style="; font-weight: bold;" transform="translate(-46.0859375, -36)"><foreignObject width="92.171875" height="24"><div style="font-weight: bold; display: table-cell; white-space: nowrap; line-height: 1.5; max-width: 125px; text-align: center;" xmlns="http://www.w3.org/1999/xhtml"><span style="; font-weight: bold;" class="nodeLabel markdown-node-label"><p>test_entity3</p></span></div></foreignObject></g><g class="label" style="" transform="translate(-123.671875, 8)"><foreignObject width="111.234375" height="24"><div xmlns="http://www.w3.org/1999/xhtml" style="display: table-cell; white-space: nowrap; line-height: 1.5; max-width: 147px; text-align: center;"><span class="nodeLabel markdown-node-label"><p>Type: test suite</p></span></div></foreignObject></g><g class="label" style="" transform="translate(-123.671875, 32)"><foreignObject width="247.34375" height="24"><div xmlns="http://www.w3.org/1999/xhtml" style="display: table-cell; white-space: nowrap; line-height: 1.5; max-width: 269px; text-align: center;"><span class="nodeLabel markdown-node-label"><p>Doc Ref: github.com/all_the_tests</p></span></div></foreignObject></g><g style=""><path d="M-133.671875 0 C-62.31510728821854 0, 9.041660423562917 0, 133.671875 0 M-133.671875 0 C-53.479090242807175 0, 26.71369451438565 0, 133.671875 0" stroke="#9370DB" stroke-width="1.3" fill="none" stroke-dasharray="0 0"/></g></g></g></g></g></svg>