<svg id="my-svg" width="100%" xmlns="http://www.w3.org/2000/svg" xmlns:xlink="http://www.w3.org/1999/xlink" class="requirementDiagram" style="max-width: 855.672px; background-color: white;" viewBox="0 0 855.671875 1232" role="graphics-document document" aria-roledescription="requirement"><style>#my-svg{font-family:"trebuchet ms",verdana,arial,sans-serif;font-size:16px;fill:#333;}@keyframes edge-animation-frame{from{stroke-dashoffset:0;}}@keyframes dash{to{stroke-dashoffset:0;}}#my-svg .edge-animation-slow{stroke-dasharray:9,5!important;stroke-dashoffset:900;animation:dash 50s linear infinite;stroke-linecap:round;}#my-svg .edge-animation-fast{stroke-dasharray:9,5!important;stroke-dashoffset:900;animation:dash 20s linear infinite;stroke-linecap:round;}#my-svg .error-icon{fill:#552222;}#my-svg .error-text{fill:#552222;stroke:#552222;}#my-svg .edge-thickness-normal{stroke-width:1px;}#my-svg .edge-thickness-thick{stroke-width:3.5px;}#my-svg .edge-pattern-solid{stroke-dasharray:0;}#my-svg .edge-thickness-invisible{stroke-width:0;fill:none;}#my-svg .edge-pattern-dashed{stroke-dasharray:3;}#my-svg .edge-pattern-dotted{stroke-dasharray:2;}#my-svg .marker{fill:#333333;stroke:#333333;}#my-svg .marker.cross{stroke:#333333;}#my-svg svg{font-family:"trebuchet ms",verdana,arial,sans-serif;font-size:16px;}#my-svg p{margin:0;}#my-svg marker{fill:#333333;stroke:#333333;}#my-svg marker.cross{stroke:#333333;}#my-svg svg{font-family:"trebuchet ms",verdana,arial,sans-serif;font-size:16px;}#my-svg .reqBox{fill:#ECECFF;fill-opacity:1.0;stroke:hsl(240, 60%, 86.2745098039%);stroke-width:1;}#my-svg .reqTitle,#my-svg .reqLabel{fill:#131300;}#my-svg .reqLabelBox{fill:rgba(232,232,232, 0.8);fill-opacity:1.0;}#my-svg .req-title-line{stroke:hsl(240, 60%, 86.2745098039%);stroke-width:1;}#my-svg .relationshipLine{stroke:#333333;stroke-width:1;}#my-svg .relationshipLabel{fill:black;}#my-svg .divider{stroke:#9370DB;stroke-width:1;}#my-svg .label{font-family:"trebuchet ms",verdana,arial,sans-serif;color:#333;}#my-svg .label text,#my-svg span{fill:#333;color:#333;}#my-svg .labelBkg{background-color:rgba(232,232,232, 0.8);}#my-svg :root{--mermaid-font-family:"trebuchet ms",verdana,arial,sans-serif;}</style><g><defs><marker id="my-svg_requirement-requirement_containsStart" refX="0" refY="10" markerWidth="20" markerHeight="20" orient="auto"><g><circle cx="10" cy="10" r="9" fill="none"/><line x1="1" x2="19" y1="10" y2="10"/><line y1="1" y2="19" x1="10" x2="10"/></g></marker></defs><defs><marker id="my-svg_requirement-requirement_arrowEnd" refX="20" refY="10" markerWidth="20" markerHeight="20" orient="auto"><path d="M0,0&#10;      L20,10&#10;      M20,10&#10;      L0,20"/></marker></defs><g class="root"><g class="clusters"/><g class="edgePaths"><path d="M77.047,156L77.047,168.167C77.047,180.333,77.047,204.667,79.547,223C82.046,241.333,87.046,253.667,89.546,259.833L92.046,266" id="test_entity-test_req2-0" class="edge-thickness-normal edge-pattern-dashed relationshipLine" style="fill:none;stroke-dasharray: 10,7;;;fill:none;stroke-dasharray: 10,7" data-edge="true" data-et="edge" data-id="test_entity-test_req2-0" data-points="W3sieCI6NzcuMDQ2ODc1LCJ5IjoxNTZ9LHsieCI6NzcuMDQ2ODc1LCJ5IjoyMjl9LHsieCI6OTIuMDQ1NjMzNDc4NjgyMTYsInkiOjI2Nn1d" marker-end="url(#my-svg_requirement-requirement_arrowEnd)"/><path d="M290.969,171.88L280.523,181.4C270.078,190.92,249.188,209.96,234.012,225.647C218.836,241.333,209.375,253.667,204.644,259.833L199.914,266" id="test_req-test_req2-0" class="edge-thickness-normal edge-pattern-dashed relationshipLine" style="fill:none;stroke-dasharray: 10,7;;;fill:none;stroke-dasharray: 10,7" data-edge="true" data-et="edge" data-id="test_req-test_req2-0" data-points="W3sieCI6MjkwLjk2ODc1LCJ5IjoxNzEuODgwMjc4MTkxNzUzNn0seyJ4IjoyMjguMjk2ODc1LCJ5IjoyMjl9LHsieCI6MTk5LjkxMzg1MDUzMjk0NTczLCJ5IjoyNjZ9XQ==" marker-end="url(#my-svg_requirement-requirement_arrowEnd)"/><path d="M407.456,192L409.978,198.167C412.499,204.333,417.543,216.667,420.064,229C422.586,241.333,422.586,253.667,422.586,259.833L422.586,266" id="test_req-test_req3-0" class="edge-thickness-normal edge-pattern-solid relationshipLine" style="fill:none;;;;fill:none;" data-edge="true" data-et="edge" data-id="test_req-test_req3-0" data-points="W3sieCI6NDA3LjQ1NjA5MjUzODc1OTY2LCJ5IjoxOTJ9LHsieCI6NDIyLjU4NTkzNzUsInkiOjIyOX0seyJ4Ijo0MjIuNTg1OTM3NSwieSI6MjY2fV0=" marker-start="url(#my-svg_requirement-requirement_containsStart)"/><path d="M422.586,450L422.586,456.167C422.586,462.333,422.586,474.667,422.586,487C422.586,499.333,422.586,511.667,422.586,517.833L422.586,524" id="test_req3-test_req4-0" class="edge-thickness-normal edge-pattern-solid relationshipLine" style="fill:none;;;;fill:none;" data-edge="true" data-et="edge" data-id="test_req3-test_req4-0" data-points="W3sieCI6NDIyLjU4NTkzNzUsInkiOjQ1MH0seyJ4Ijo0MjIuNTg1OTM3NSwieSI6NDg3fSx7IngiOjQyMi41ODU5Mzc1LCJ5Ijo1MjR9XQ==" marker-start="url(#my-svg_requirement-requirement_containsStart)"/><path d="M422.586,708L422.586,714.167C422.586,720.333,422.586,732.667,429.627,745.067C436.668,757.467,450.75,769.935,457.791,776.168L464.832,782.402" id="test_req4-test_req5-0" class="edge-thickness-normal edge-pattern-dashed relationshipLine" style="fill:none;stroke-dasharray: 10,7;;;fill:none;stroke-dasharray: 10,7" data-edge="true" data-et="edge" data-id="test_req4-test_req5-0" data-points="W3sieCI6NDIyLjU4NTkzNzUsInkiOjcwOH0seyJ4Ijo0MjIuNTg1OTM3NSwieSI6NzQ1fSx7IngiOjQ2NC44MzIwMzEyNSwieSI6NzgyLjQwMjA4MDM3MzE4MDN9XQ==" marker-end="url(#my-svg_requirement-requirement_arrowEnd)"/><path d="M568.293,966L568.293,972.167C568.293,978.333,568.293,990.667,568.293,1003C568.293,1015.333,568.293,1027.667,568.293,1033.833L568.293,1040" id="test_req5-test_req6-0" class="edge-thickness-normal edge-pattern-dashed relationshipLine" style="fill:none;stroke-dasharray: 10,7;;;fill:none;stroke-dasharray: 10,7" data-edge="true" data-et="edge" data-id="test_req5-test_req6-0" data-points="W3sieCI6NTY4LjI5Mjk2ODc1LCJ5Ijo5NjZ9LHsieCI6NTY4LjI5Mjk2ODc1LCJ5IjoxMDAzfSx7IngiOjU2OC4yOTI5Njg3NSwieSI6MTA0MH1d" marker-end="url(#my-svg_requirement-requirement_arrowEnd)"/><path d="M714,684L714,694.167C714,704.333,714,724.667,706.959,741.067C699.918,757.467,685.836,769.935,678.795,776.168L671.754,782.402" id="test_entity3-test_req5-0" class="edge-thickness-normal edge-pattern-dashed relationshipLine" style="fill:none;stroke-dasharray: 10,7;;;fill:none;stroke-dasharray: 10,7" data-edge="true" data-et="edge" data-id="test_entity3-test_req5-0" data-points="W3sieCI6NzE0LCJ5Ijo2ODR9LHsieCI6NzE0LCJ5Ijo3NDV9LHsieCI6NjcxLjc1MzkwNjI1LCJ5Ijo3ODIuNDAyMDgwMzczMTgwM31d" marker-end="url(#my-svg_requirement-requirement_arrowEnd)"/></g><g class="edgeLabels"><g class="edgeLabel" transform="translate(77.046875, 229)"><g class="label" data-id="test_entity-test_req2-0" transform="translate(-45.7578125, -12)"><foreignObject width="91.515625" height="24"><div xmlns="http://www.w3.org/1999/xhtml" class="labelBkg" style="display: table-cell; white-space: nowrap; line-height: 1.5; max-width: 200px; text-align: center;"><span class="edgeLabel"><p>&lt;&lt;satisfies&gt;&gt;</p></span></div></foreignObject></g></g><g class="edgeLabel" transform="translate(242.40006, 216.14623)"><g class="label" data-id="test_req-test_req2-0" transform="translate(-38.828125, -12)"><foreignObject width="77.65625" height="24"><div xmlns="http://www.w3.org/1999/xhtml" class="labelBkg" style="display: table-cell; white-space: nowrap; line-height: 1.5; max-width: 200px; text-align: center;"><span class="edgeLabel"><p>&lt;&lt;traces&gt;&gt;</p></span></div></foreignObject></g></g><g class="edgeLabel" transform="translate(422.5859375, 229)"><g class="label" data-id="test_req-test_req3-0" transform="translate(-46.671875, -12)"><foreignObject width="93.34375" height="24"><div xmlns="http://www.w3.org/1999/xhtml" class="labelBkg" style="display: table-cell; white-space: nowrap; line-height: 1.5; max-width: 200px; text-align: center;"><span class="edgeLabel"><p>&lt;&lt;contains&gt;&gt;</p></span></div></foreignObject></g></g><g class="edgeLabel" transform="translate(422.5859375, 487)"><g class="label" data-id="test_req3-test_req4-0" transform="translate(-46.671875, -12)"><foreignObject width="93.34375" height="24"><div xmlns="http://www.w3.org/1999/xhtml" class="labelBkg" style="display: table-cell; white-space: nowrap; line-height: 1.5; max-width: 200px; text-align: center;"><span class="edgeLabel"><p>&lt;&lt;contains&gt;&gt;</p></span></div></foreignObject></g></g><g class="edgeLabel" transform="translate(422.5859375, 745)"><g class="label" data-id="test_req4-test_req5-0" transform="translate(-42.515625, -12)"><foreignObject width="85.03125" height="24"><div xmlns="http://www.w3.org/1999/xhtml" class="labelBkg" style="display: table-cell; white-space: nowrap; line-height: 1.5; max-width: 200px; text-align: center;"><span class="edgeLabel"><p>&lt;&lt;derives&gt;&gt;</p></span></div></foreignObject></g></g><g class="edgeLabel" transform="translate(568.29296875, 1003)"><g class="label" data-id="test_req5-test_req6-0" transform="translate(-41.46875, -12)"><foreignObject width="82.9375" height="24"><div xmlns="http://www.w3.org/1999/xhtml" class="labelBkg" style="display: table-cell; white-space: nowrap; line-height: 1.5; max-width: 200px; text-align: center;"><span class="edgeLabel"><p>&lt;&lt;refines&gt;&gt;</p></span></div></foreignObject></g></g><g class="edgeLabel" transform="translate(714, 745)"><g class="label" data-id="test_entity3-test_req5-0" transform="translate(-43.296875, -12)"><foreignObject width="86.59375" height="24"><div xmlns="http://www.w3.org/1999/xhtml" class="labelBkg" style="display: table-cell; white-space: nowrap; line-height: 1.5; max-width: 200px; text-align: center;"><span class="edgeLabel"><p>&lt;&lt;verifies&gt;&gt;</p></span></div></foreignObject></g></g></g><g class="nodes"><g class="node default" id="test_req" transform="translate(369.8359375, 100)"><g class="basic label-container" style=""><path d="M-78.8671875 -92 L78.8671875 -92 L78.8671875 92 L-78.8671875 92" stroke="none" stroke-width="0" fill="#ECECFF"/><path d="M-78.8671875 -92 C-46.76992881981679 -92, -14.672670139633581 -92, 78.8671875 -92 M-78.8671875 -92 C-31.660793697277278 -92, 15.545600105445445 -92, 78.8671875 -92 M78.8671875 -92 C78.8671875 -39.12893993000772, 78.8671875 13.742120139984564, 78.8671875 92 M78.8671875 -92 C78.8671875 -28.426301067730698, 78.8671875 35.147397864538604, 78.8671875 92 M78.8671875 92 C39.16540298608461 92, -0.536381527830784 92, -78.8671875 92 M78.8671875 92 C35.365917129277406 92, -8.135353241445188 92, -78.8671875 92 M-78.8671875 92 C-78.8671875 38.925587218345036, -78.8671875 -14.148825563309927, -78.8671875 -92 M-78.8671875 92 C-78.8671875 35.84207632805598, -78.8671875 -20.315847343888038, -78.8671875 -92" stroke="#9370DB" stroke-width="1.3" fill="none" stroke-dasharray="0 0"/></g><g class="label" style="" transform="translate(-62.609375, -84)"><foreignObject width="125.21875" height="24"><div xmlns="http://www.w3.org/1999/xhtml" style="display: table-cell; white-space: nowrap; line-height: 1.5; max-width: 243px; text-align: center;"><span class="nodeLabel markdown-node-label"><p>&lt;&lt;Requirement&gt;&gt;</p></span></div></foreignObject></g><g class="label" style="; font-weight: bold;" transform="translate(-31.765625, -60)"><foreignObject width="63.53125" height="24"><div style="font-weight: bold; display: table-cell; white-space: nowrap; line-height: 1.5; max-width: 101px; text-align: center;" xmlns="http://www.w3.org/1999/xhtml"><span style="; font-weight: bold;" class="nodeLabel markdown-node-label"><p>test_req</p></span></div></foreignObject></g><g class="label" style="" transform="translate(-68.8671875, -16)"><foreignObject width="33.359375" height="24"><div xmlns="http://www.w3.org/1999/xhtml" style="display: table-cell; white-space: nowrap; line-height: 1.5; max-width: 83px; text-align: center;"><span class="nodeLabel markdown-node-label"><p>ID: 1</p></span></div></foreignObject></g><g class="label" style="" transform="translate(-68.8671875, 8)"><foreignObject width="137.734375" height="24"><div xmlns="http://www.w3.org/1999/xhtml" style="display: table-cell; white-space: nowrap; line-height: 1.5; max-width: 164px; text-align: center;"><span class="nodeLabel markdown-node-label"><p>Text: the test text.</p></span></div></foreignObject></g><g class="label" style="" transform="translate(-68.8671875, 32)"><foreignObject width="70.921875" height="24"><div xmlns="http://www.w3.org/1999/xhtml" style="display: table-cell; white-space: nowrap; line-height: 1.5; max-width: 120px; text-align: center;"><span class="nodeLabel markdown-node-label"><p>Risk: High</p></span></div></foreignObject></g><g class="label" style="" transform="translate(-68.8671875, 56)"><foreignObject width="122.171875" height="24"><div xmlns="http://www.w3.org/1999/xhtml" style="display: table-cell; white-space: nowrap; line-height: 1.5; max-width: 160px; text-align: center;"><span class="nodeLabel markdown-node-label"><p>Verification: Test</p></span></div></foreignObject></g><g style=""><path d="M-78.8671875 -24 C-35.5514484567922 -24, 7.764290586415598 -24, 78.8671875 -24 M-78.8671875 -24 C-36.641505373310686 -24, 5.584176753378628 -24, 78.8671875 -24" stroke="#9370DB" stroke-width="1.3" fill="none" stroke-dasharray="0 0"/></g></g><g class="node default" id="test_req2" transform="translate(129.33984375, 358)"><g class="basic label-container" style=""><path d="M-112.6015625 -92 L112.6015625 -92 L112.6015625 92 L-112.6015625 92" stroke="none" stroke-width="0" fill="#ECECFF"/><path d="M-112.6015625 -92 C-56.24302899925439 -92, 0.11550450149121616 -92, 112.6015625 -92 M-112.6015625 -92 C-55.290596795470194 -92, 2.020368909059613 -92, 112.6015625 -92 M112.6015625 -92 C112.6015625 -34.84568063830218, 112.6015625 22.308638723395646, 112.6015625 92 M112.6015625 -92 C112.6015625 -51.47143517813187, 112.6015625 -10.94287035626374, 112.6015625 92 M112.6015625 92 C51.84184783619923 92, -8.917866827601543 92, -112.6015625 92 M112.6015625 92 C67.1796143751852 92, 21.75766625037039 92, -112.6015625 92 M-112.6015625 92 C-112.6015625 35.66995763487407, -112.6015625 -20.660084730251853, -112.6015625 -92 M-112.6015625 92 C-112.6015625 50.77986212290821, -112.6015625 9.559724245816426, -112.6015625 -92" stroke="#9370DB" stroke-width="1.3" fill="none" stroke-dasharray="0 0"/></g><g class="label" style="" transform="translate(-102.6015625, -84)"><foreignObject width="205.203125" height="24"><div xmlns="http://www.w3.org/1999/xhtml" style="display: table-cell; white-space: nowrap; line-height: 1.5; max-width: 315px; text-align: center;"><span class="nodeLabel markdown-node-label"><p>&lt;&lt;Functional Requirement&gt;&gt;</p></span></div></foreignObject></g><g class="label" style="; font-weight: bold;" transform="translate(-36.453125, -60)"><foreignObject width="72.90625" height="24"><div style="font-weight: bold; display: table-cell; white-space: nowrap; line-height: 1.5; max-width: 109px; text-align: center;" xmlns="http://www.w3.org/1999/xhtml"><span style="; font-weight: bold;" class="nodeLabel markdown-node-label"><p>test_req2</p></span></div></foreignObject></g><g class="label" style="" transform="translate(-102.6015625, -16)"><foreignObject width="47.625" height="24"><div xmlns="http://www.w3.org/1999/xhtml" style="display: table-cell; white-space: nowrap; line-height: 1.5; max-width: 95px; text-align: center;"><span class="nodeLabel markdown-node-label"><p>ID: 1.1</p></span></div></foreignObject></g><g class="label" style="" transform="translate(-102.6015625, 8)"><foreignObject width="191.921875" height="24"><div xmlns="http://www.w3.org/1999/xhtml" style="display: table-cell; white-space: nowrap; line-height: 1.5; max-width: 213px; text-align: center;"><span class="nodeLabel markdown-node-label"><p>Text: the second test text.</p></span></div></foreignObject></g><g class="label" style="" transform="translate(-102.6015625, 32)"><foreignObject width="67.71875" height="24"><div xmlns="http://www.w3.org/1999/xhtml" style="display: table-cell; white-space: nowrap; line-height: 1.5; max-width: 117px; text-align: center;"><span class="nodeLabel markdown-node-label"><p>Risk: Low</p></span></div></foreignObject></g><g class="label" style="" transform="translate(-102.6015625, 56)"><foreignObject width="167.078125" height="24"><div xmlns="http://www.w3.org/1999/xhtml" style="display: table-cell; white-space: nowrap; line-height: 1.5; max-width: 201px; text-align: center;"><span class="nodeLabel markdown-node-label"><p>Verification: Inspection</p></span></div></foreignObject></g><g style=""><path d="M-112.6015625 -24 C-51.78065011499855 -24, 9.040262270002899 -24, 112.6015625 -24 M-112.6015625 -24 C-50.04649135225517 -24, 12.508579795489666 -24, 112.6015625 -24" stroke="#9370DB" stroke-width="1.3" fill="none" stroke-dasharray="0 0"/></g></g><g class="node default" id="test_req3" transform="translate(422.5859375, 358)"><g class="basic label-container" style=""><path d="M-120.4765625 -92 L120.4765625 -92 L120.4765625 92 L-120.4765625 92" stroke="none" stroke-width="0" fill="#ECECFF"/><path d="M-120.4765625 -92 C-34.2809179384105 -92, 51.91472662317901 -92, 120.4765625 -92 M-120.4765625 -92 C-55.70767624989402 -92, 9.061210000211958 -92, 120.4765625 -92 M120.4765625 -92 C120.4765625 -18.767967289103808, 120.4765625 54.464065421792384, 120.4765625 92 M120.4765625 -92 C120.4765625 -36.30283044243909, 120.4765625 19.394339115121824, 120.4765625 92 M120.4765625 92 C30.06733902446895 92, -60.3418844510621 92, -120.4765625 92 M120.4765625 92 C35.60470867991337 92, -49.267145140173255 92, -120.4765625 92 M-120.4765625 92 C-120.4765625 42.25933784145327, -120.4765625 -7.481324317093467, -120.4765625 -92 M-120.4765625 92 C-120.4765625 41.93537094783877, -120.4765625 -8.12925810432246, -120.4765625 -92" stroke="#9370DB" stroke-width="1.3" fill="none" stroke-dasharray="0 0"/></g><g class="label" style="" transform="translate(-110.4765625, -84)"><foreignObject width="220.953125" height="24"><div xmlns="http://www.w3.org/1999/xhtml" style="display: table-cell; white-space: nowrap; line-height: 1.5; max-width: 329px; text-align: center;"><span class="nodeLabel markdown-node-label"><p>&lt;&lt;Performance Requirement&gt;&gt;</p></span></div></foreignObject></g><g class="label" style="; font-weight: bold;" transform="translate(-36.453125, -60)"><foreignObject width="72.90625" height="24"><div style="font-weight: bold; display: table-cell; white-space: nowrap; line-height: 1.5; max-width: 109px; text-align: center;" xmlns="http://www.w3.org/1999/xhtml"><span style="; font-weight: bold;" class="nodeLabel markdown-node-label"><p>test_req3</p></span></div></foreignObject></g><g class="label" style="" transform="translate(-110.4765625, -16)"><foreignObject width="47.625" height="24"><div xmlns="http://www.w3.org/1999/xhtml" style="display: table-cell; white-space: nowrap; line-height: 1.5; max-width: 95px; text-align: center;"><span class="nodeLabel markdown-node-label"><p>ID: 1.2</p></span></div></foreignObject></g><g class="label" style="" transform="translate(-110.4765625, 8)"><foreignObject width="177.328125" height="24"><div xmlns="http://www.w3.org/1999/xhtml" style="display: table-cell; white-space: nowrap; line-height: 1.5; max-width: 199px; text-align: center;"><span class="nodeLabel markdown-node-label"><p>Text: the third test text.</p></span></div></foreignObject></g><g class="label" style="" transform="translate(-110.4765625, 32)"><foreignObject width="94.703125" height="24"><div xmlns="http://www.w3.org/1999/xhtml" style="display: table-cell; white-space: nowrap; line-height: 1.5; max-width: 142px; text-align: center;"><span class="nodeLabel markdown-node-label"><p>Risk: Medium</p></span></div></foreignObject></g><g class="label" style="" transform="translate(-110.4765625, 56)"><foreignObject width="198.4375" height="24"><div xmlns="http://www.w3.org/1999/xhtml" style="display: table-cell; white-space: nowrap; line-height: 1.5; max-width: 229px; text-align: center;"><span class="nodeLabel markdown-node-label"><p>Verification: Demonstration</p></span></div></foreignObject></g><g style=""><path d="M-120.4765625 -24 C-62.3417609431344 -24, -4.206959386268807 -24, 120.4765625 -24 M-120.4765625 -24 C-46.868589869128215 -24, 26.73938276174357 -24, 120.4765625 -24" stroke="#9370DB" stroke-width="1.3" fill="none" stroke-dasharray="0 0"/></g></g><g class="node default" id="test_req4" transform="translate(422.5859375, 616)"><g class="basic label-container" style=""><path d="M-107.7421875 -92 L107.7421875 -92 L107.7421875 92 L-107.7421875 92" stroke="none" stroke-width="0" fill="#ECECFF"/><path d="M-107.7421875 -92 C-28.981538285654707 -92, 49.779110928690585 -92, 107.7421875 -92 M-107.7421875 -92 C-57.277676863461465 -92, -6.813166226922931 -92, 107.7421875 -92 M107.7421875 -92 C107.7421875 -24.487149782568906, 107.7421875 43.02570043486219, 107.7421875 92 M107.7421875 -92 C107.7421875 -41.899164221697404, 107.7421875 8.201671556605191, 107.7421875 92 M107.7421875 92 C58.11817053173161 92, 8.494153563463215 92, -107.7421875 92 M107.7421875 92 C40.483180362401484 92, -26.775826775197032 92, -107.7421875 92 M-107.7421875 92 C-107.7421875 39.70493804284346, -107.7421875 -12.590123914313082, -107.7421875 -92 M-107.7421875 92 C-107.7421875 38.23773950850474, -107.7421875 -15.524520982990524, -107.7421875 -92" stroke="#9370DB" stroke-width="1.3" fill="none" stroke-dasharray="0 0"/></g><g class="label" style="" transform="translate(-97.7421875, -84)"><foreignObject width="195.484375" height="24"><div xmlns="http://www.w3.org/1999/xhtml" style="display: table-cell; white-space: nowrap; line-height: 1.5; max-width: 304px; text-align: center;"><span class="nodeLabel markdown-node-label"><p>&lt;&lt;Interface Requirement&gt;&gt;</p></span></div></foreignObject></g><g class="label" style="; font-weight: bold;" transform="translate(-36.453125, -60)"><foreignObject width="72.90625" height="24"><div style="font-weight: bold; display: table-cell; white-space: nowrap; line-height: 1.5; max-width: 109px; text-align: center;" xmlns="http://www.w3.org/1999/xhtml"><span style="; font-weight: bold;" class="nodeLabel markdown-node-label"><p>test_req4</p></span></div></foreignObject></g><g class="label" style="" transform="translate(-97.7421875, -16)"><foreignObject width="61.890625" height="24"><div xmlns="http://www.w3.org/1999/xhtml" style="display: table-cell; white-space: nowrap; line-height: 1.5; max-width: 107px; text-align: center;"><span class="nodeLabel markdown-node-label"><p>ID: 1.2.1</p></span></div></foreignObject></g><g class="label" style="" transform="translate(-97.7421875, 8)"><foreignObject width="187.09375" height="24"><div xmlns="http://www.w3.org/1999/xhtml" style="display: table-cell; white-space: nowrap; line-height: 1.5; max-width: 208px; text-align: center;"><span class="nodeLabel markdown-node-label"><p>Text: the fourth test text.</p></span></div></foreignObject></g><g class="label" style="" transform="translate(-97.7421875, 32)"><foreignObject width="94.703125" height="24"><div xmlns="http://www.w3.org/1999/xhtml" style="display: table-cell; white-space: nowrap; line-height: 1.5; max-width: 142px; text-align: center;"><span class="nodeLabel markdown-node-label"><p>Risk: Medium</p></span></div></foreignObject></g><g class="label" style="" transform="translate(-97.7421875, 56)"><foreignObject width="149.4375" height="24"><div xmlns="http://www.w3.org/1999/xhtml" style="display: table-cell; white-space: nowrap; line-height: 1.5; max-width: 189px; text-align: center;"><span class="nodeLabel markdown-node-label"><p>Verification: Analysis</p></span></div></foreignObject></g><g style=""><path d="M-107.7421875 -24 C-23.882187420133974 -24, 59.97781265973205 -24, 107.7421875 -24 M-107.7421875 -24 C-27.512552411178163 -24, 52.717082677643674 -24, 107.7421875 -24" stroke="#9370DB" stroke-width="1.3" fill="none" stroke-dasharray="0 0"/></g></g><g class="node default" id="test_req5" transform="translate(568.29296875, 874)"><g class="basic label-container" style=""><path d="M-103.4609375 -92 L103.4609375 -92 L103.4609375 92 L-103.4609375 92" stroke="none" stroke-width="0" fill="#ECECFF"/><path d="M-103.4609375 -92 C-54.86091931419301 -92, -6.260901128386024 -92, 103.4609375 -92 M-103.4609375 -92 C-53.87380965888407 -92, -4.286681817768141 -92, 103.4609375 -92 M103.4609375 -92 C103.4609375 -43.7306775032374, 103.4609375 4.538644993525196, 103.4609375 92 M103.4609375 -92 C103.4609375 -41.26719635397725, 103.4609375 9.465607292045505, 103.4609375 92 M103.4609375 92 C39.66217732978913 92, -24.136582840421738 92, -103.4609375 92 M103.4609375 92 C57.07144354462478 92, 10.681949589249555 92, -103.4609375 92 M-103.4609375 92 C-103.4609375 23.231959277603835, -103.4609375 -45.53608144479233, -103.4609375 -92 M-103.4609375 92 C-103.4609375 25.158490617456792, -103.4609375 -41.683018765086416, -103.4609375 -92" stroke="#9370DB" stroke-width="1.3" fill="none" stroke-dasharray="0 0"/></g><g class="label" style="" transform="translate(-93.4609375, -84)"><foreignObject width="186.921875" height="24"><div xmlns="http://www.w3.org/1999/xhtml" style="display: table-cell; white-space: nowrap; line-height: 1.5; max-width: 301px; text-align: center;"><span class="nodeLabel markdown-node-label"><p>&lt;&lt;Physical Requirement&gt;&gt;</p></span></div></foreignObject></g><g class="label" style="; font-weight: bold;" transform="translate(-36.453125, -60)"><foreignObject width="72.90625" height="24"><div style="font-weight: bold; display: table-cell; white-space: nowrap; line-height: 1.5; max-width: 109px; text-align: center;" xmlns="http://www.w3.org/1999/xhtml"><span style="; font-weight: bold;" class="nodeLabel markdown-node-label"><p>test_req5</p></span></div></foreignObject></g><g class="label" style="" transform="translate(-93.4609375, -16)"><foreignObject width="61.890625" height="24"><div xmlns="http://www.w3.org/1999/xhtml" style="display: table-cell; white-space: nowrap; line-height: 1.5; max-width: 107px; text-align: center;"><span class="nodeLabel markdown-node-label"><p>ID: 1.2.2</p></span></div></foreignObject></g><g class="label" style="" transform="translate(-93.4609375, 8)"><foreignObject width="174.03125" height="24"><div xmlns="http://www.w3.org/1999/xhtml" style="display: table-cell; white-space: nowrap; line-height: 1.5; max-width: 196px; text-align: center;"><span class="nodeLabel markdown-node-label"><p>Text: the fifth test text.</p></span></div></foreignObject></g><g class="label" style="" transform="translate(-93.4609375, 32)"><foreignObject width="94.703125" height="24"><div xmlns="http://www.w3.org/1999/xhtml" style="display: table-cell; white-space: nowrap; line-height: 1.5; max-width: 142px; text-align: center;"><span class="nodeLabel markdown-node-label"><p>Risk: Medium</p></span></div></foreignObject></g><g class="label" style="" transform="translate(-93.4609375, 56)"><foreignObject width="149.4375" height="24"><div xmlns="http://www.w3.org/1999/xhtml" style="display: table-cell; white-space: nowrap; line-height: 1.5; max-width: 189px; text-align: center;"><span class="nodeLabel markdown-node-label"><p>Verification: Analysis</p></span></div></foreignObject></g><g style=""><path d="M-103.4609375 -24 C-51.553017387583566 -24, 0.35490272483286844 -24, 103.4609375 -24 M-103.4609375 -24 C-21.02835662443414 -24, 61.40422425113172 -24, 103.4609375 -24" stroke="#9370DB" stroke-width="1.3" fill="none" stroke-dasharray="0 0"/></g></g><g class="node default" id="test_req6" transform="translate(568.29296875, 1132)"><g class="basic label-container" style=""><path d="M-98.34375 -92 L98.34375 -92 L98.34375 92 L-98.34375 92" stroke="none" stroke-width="0" fill="#ECECFF"/><path d="M-98.34375 -92 C-40.99197223680355 -92, 16.359805526392904 -92, 98.34375 -92 M-98.34375 -92 C-19.89175799878835 -92, 58.5602340024233 -92, 98.34375 -92 M98.34375 -92 C98.34375 -49.74447265092077, 98.34375 -7.4889453018415395, 98.34375 92 M98.34375 -92 C98.34375 -34.47726697790552, 98.34375 23.045466044188956, 98.34375 92 M98.34375 92 C49.27625118337375 92, 0.20875236674750397 92, -98.34375 92 M98.34375 92 C37.271631267143164 92, -23.800487465713672 92, -98.34375 92 M-98.34375 92 C-98.34375 44.811194001532556, -98.34375 -2.3776119969348883, -98.34375 -92 M-98.34375 92 C-98.34375 41.573485442373276, -98.34375 -8.853029115253449, -98.34375 -92" stroke="#9370DB" stroke-width="1.3" fill="none" stroke-dasharray="0 0"/></g><g class="label" style="" transform="translate(-79.3671875, -84)"><foreignObject width="158.734375" height="24"><div xmlns="http://www.w3.org/1999/xhtml" style="display: table-cell; white-space: nowrap; line-height: 1.5; max-width: 276px; text-align: center;"><span class="nodeLabel markdown-node-label"><p>&lt;&lt;Design Constraint&gt;&gt;</p></span></div></foreignObject></g><g class="label" style="; font-weight: bold;" transform="translate(-36.453125, -60)"><foreignObject width="72.90625" height="24"><div style="font-weight: bold; display: table-cell; white-space: nowrap; line-height: 1.5; max-width: 109px; text-align: center;" xmlns="http://www.w3.org/1999/xhtml"><span style="; font-weight: bold;" class="nodeLabel markdown-node-label"><p>test_req6</p></span></div></foreignObject></g><g class="label" style="" transform="translate(-88.34375, -16)"><foreignObject width="61.890625" height="24"><div xmlns="http://www.w3.org/1999/xhtml" style="display: table-cell; white-space: nowrap; line-height: 1.5; max-width: 107px; text-align: center;"><span class="nodeLabel markdown-node-label"><p>ID: 1.2.3</p></span></div></foreignObject></g><g class="label" style="" transform="translate(-88.34375, 8)"><foreignObject width="176.6875" height="24"><div xmlns="http://www.w3.org/1999/xhtml" style="display: table-cell; white-space: nowrap; line-height: 1.5; max-width: 200px; text-align: center;"><span class="nodeLabel markdown-node-label"><p>Text: the sixth test text.</p></span></div></foreignObject></g><g class="label" style="" transform="translate(-88.34375, 32)"><foreignObject width="94.703125" height="24"><div xmlns="http://www.w3.org/1999/xhtml" style="display: table-cell; white-space: nowrap; line-height: 1.5; max-width: 142px; text-align: center;"><span class="nodeLabel markdown-node-label"><p>Risk: Medium</p></span></div></foreignObject></g><g class="label" style="" transform="translate(-88.34375, 56)"><foreignObject width="149.4375" height="24"><div xmlns="http://www.w3.org/1999/xhtml" style="display: table-cell; white-space: nowrap; line-height: 1.5; max-width: 189px; text-align: center;"><span class="nodeLabel markdown-node-label"><p>Verification: Analysis</p></span></div></foreignObject></g><g style=""><path d="M-98.34375 -24 C-53.629269141163384 -24, -8.914788282326768 -24, 98.34375 -24 M-98.34375 -24 C-31.711300334899036 -24, 34.92114933020193 -24, 98.34375 -24" stroke="#9370DB" stroke-width="1.3" fill="none" stroke-dasharray="0 0"/></g></g><g class="node default" id="test_entity" transform="translate(77.046875, 100)"><g class="basic label-container" style=""><path d="M-69.046875 -56 L69.046875 -56 L69.046875 56 L-69.046875 56" stroke="none" stroke-width="0" fill="#ECECFF"/><path d="M-69.046875 -56 C-32.96909275073928 -56, 3.108689498521443 -56, 69.046875 -56 M-69.046875 -56 C-36.60558744398725 -56, -4.164299887974494 -56, 69.046875 -56 M69.046875 -56 C69.046875 -15.419665824606085, 69.046875 25.16066835078783, 69.046875 56 M69.046875 -56 C69.046875 -13.292406353592469, 69.046875 29.415187292815062, 69.046875 56 M69.046875 56 C32.76811996409368 56, -3.5106350718126436 56, -69.046875 56 M69.046875 56 C35.448391086488854 56, 1.8499071729777086 56, -69.046875 56 M-69.046875 56 C-69.046875 19.852741843633808, -69.046875 -16.294516312732384, -69.046875 -56 M-69.046875 56 C-69.046875 12.255405137827786, -69.046875 -31.489189724344428, -69.046875 -56" stroke="#9370DB" stroke-width="1.3" fill="none" stroke-dasharray="0 0"/></g><g class="label" style="" transform="translate(-46.3359375, -48)"><foreignObject width="92.671875" height="24"><div xmlns="http://www.w3.org/1999/xhtml" style="display: table-cell; white-space: nowrap; line-height: 1.5; max-width: 214px; text-align: center;"><span class="nodeLabel markdown-node-label"><p>&lt;&lt;Element&gt;&gt;</p></span></div></foreignObject></g><g class="label" style="; font-weight: bold;" transform="translate(-41.3984375, -24)"><foreignObject width="82.796875" height="24"><div style="font-weight: bold; display: table-cell; white-space: nowrap; line-height: 1.5; max-width: 117px; text-align: center;" xmlns="http://www.w3.org/1999/xhtml"><span style="; font-weight: bold;" class="nodeLabel markdown-node-label"><p>test_entity</p></span></div></foreignObject></g><g class="label" style="" transform="translate(-59.046875, 20)"><foreignObject width="118.09375" height="24"><div xmlns="http://www.w3.org/1999/xhtml" style="display: table-cell; white-space: nowrap; line-height: 1.5; max-width: 158px; text-align: center;"><span class="nodeLabel markdown-node-label"><p>Type: simulation</p></span></div></foreignObject></g><g style=""><path d="M-69.046875 12 C-37.792422606769264 12, -6.537970213538529 12, 69.046875 12 M-69.046875 12 C-39.64084639352899 12, -10.234817787057978 12, 69.046875 12" stroke="#9370DB" stroke-width="1.3" fill="none" stroke-dasharray="0 0"/></g></g><g class="node default" id="test_entity2" transform="translate(600.0859375, 100)"><g class="basic label-container" style=""><path d="M-101.3828125 -68 L101.3828125 -68 L101.3828125 68 L-101.3828125 68" stroke="none" stroke-width="0" fill="#ECECFF"/><path d="M-101.3828125 -68 C-33.43040039053338 -68, 34.52201171893324 -68, 101.3828125 -68 M-101.3828125 -68 C-48.07714977155179 -68, 5.228512956896424 -68, 101.3828125 -68 M101.3828125 -68 C101.3828125 -36.27530117822874, 101.3828125 -4.550602356457475, 101.3828125 68 M101.3828125 -68 C101.3828125 -23.657152995036782, 101.3828125 20.685694009926436, 101.3828125 68 M101.3828125 68 C47.626499526120114 68, -6.129813447759773 68, -101.3828125 68 M101.3828125 68 C44.24651381471114 68, -12.889784870577714 68, -101.3828125 68 M-101.3828125 68 C-101.3828125 34.17761750238627, -101.3828125 0.35523500477253833, -101.3828125 -68 M-101.3828125 68 C-101.3828125 21.267833922182554, -101.3828125 -25.464332155634892, -101.3828125 -68" stroke="#9370DB" stroke-width="1.3" fill="none" stroke-dasharray="0 0"/></g><g class="label" style="" transform="translate(-46.3359375, -60)"><foreignObject width="92.671875" height="24"><div xmlns="http://www.w3.org/1999/xhtml" style="display: table-cell; white-space: nowrap; line-height: 1.5; max-width: 214px; text-align: center;"><span class="nodeLabel markdown-node-label"><p>&lt;&lt;Element&gt;&gt;</p></span></div></foreignObject></g><g class="label" style="; font-weight: bold;" transform="translate(-46.0859375, -36)"><foreignObject width="92.171875" height="24"><div style="font-weight: bold; display: table-cell; white-space: nowrap; line-height: 1.5; max-width: 125px; text-align: center;" xmlns="http://www.w3.org/1999/xhtml"><span style="; font-weight: bold;" class="nodeLabel markdown-node-label"><p>test_entity2</p></span></div></foreignObject></g><g class="label" style="" transform="translate(-91.3828125, 8)"><foreignObject width="109.546875" height="24"><div xmlns="http://www.w3.org/1999/xhtml" style="display: table-cell; white-space: nowrap; line-height: 1.5; max-width: 150px; text-align: center;"><span class="nodeLabel markdown-node-label"><p>Type: word doc</p></span></div></foreignObject></g><g class="label" style="" transform="translate(-91.3828125, 32)"><foreignObject width="182.765625" height="24"><div xmlns="http://www.w3.org/1999/xhtml" style="display: table-cell; white-space: nowrap; line-height: 1.5; max-width: 210px; text-align: center;"><span class="nodeLabel markdown-node-label"><p>Doc Ref: reqs/test_entity</p></span></div></foreignObject></g><g style=""><path d="M-101.3828125 0 C-47.290686603769934 0, 6.801439292460131 0, 101.3828125 0 M-101.3828125 0 C-54.800794728978694 0, -8.218776957957388 0, 101.3828125 0" stroke="#9370DB" stroke-width="1.3" fill="none" stroke-dasharray="0 0"/></g></g><g class="node default" id="test_entity3" transform="translate(714, 616)"><g class="basic label-container" style=""><path d="M-133.671875 -68 L133.671875 -68 L133.671875 68 L-133.671875 68" stroke="none" stroke-width="0" fill="#ECECFF"/><path d="M-133.671875 -68 C-40.689404039846124 -68, 52.29306692030775 -68, 133.671875 -68 M-133.671875 -68 C-65.35252690854824 -68, 2.966821182903516 -68, 133.671875 -68 M133.671875 -68 C133.671875 -37.20837882521582, 133.671875 -6.416757650431627, 133.671875 68 M133.671875 -68 C133.671875 -39.63811295090659, 133.671875 -11.276225901813177, 133.671875 68 M133.671875 68 C33.16951820593248 68, -67.33283858813505 68, -133.671875 68 M133.671875 68 C56.72667863562914 68, -20.218517728741716 68, -133.671875 68 M-133.671875 68 C-133.671875 30.098475746248248, -133.671875 -7.8030485075035045, -133.671875 -68 M-133.671875 68 C-133.671875 32.65675019280226, -133.671875 -2.686499614395487, -133.671875 -68" stroke="#9370DB" stroke-width="1.3" fill="none" stroke-dasharray="0 0"/></g><g class="label" style="" transform="translate(-46.3359375, -60)"><foreignObject width="92.671875" height="24"><div xmlns="http://www.w3.org/1999/xhtml" style="display: table-cell; white-space: nowrap; line-height: 1.5; max-width: 214px; text-align: center;"><span class="nodeLabel markdown-node-label"><p>&lt;&lt;Element&gt;&gt;</p></span></div></foreignObject></g><g class="label" style="; font-weight: bold;" transform="translate(-46.0859375, -36)"><foreignObject width="92.171875" height="24"><div style="font-weight: bold; display: table-cell; white-space: nowrap; line-height: 1.5; max-width: 125px; text-align: center;" xmlns="http://www.w3.org/1999/xhtml"><span style="; font-weight: bold;" class="nodeLabel markdown-node-label"><p>test_entity3</p></span></div></foreignObject></g><g class="label" style="" transform="translate(-123.671875, 8)"><foreignObject width="111.234375" height="24"><div xmlns="http://www.w3.org/1999/xhtml" style="display: table-cell; white-space: nowrap; line-height: 1.5; max-width: 147px; text-align: center;"><span class="nodeLabel markdown-node-label"><p>Type: test suite</p></span></div></foreignObject></g><g class="label" style="" transform="translate(-123.671875, 32)"><foreignObject width="247.34375" height="24"><div xmlns="http://www.w3.org/1999/xhtml" style="display: table-cell; white-space: nowrap; line-height: 1.5; max-width: 269px; text-align: center;"><span class="nodeLabel markdown-node-label"><p>Doc Ref: github.com/all_the_tests</p></span></div></foreignObject></g><g style=""><path d="M-133.671875 0 C-39.8472911379491 0, 53.9772927241018 0, 133.671875 0 M-133.671875 0 C-73.11956560298972 0, -12.567256205979461 0, 133.671875 0" stroke="#9370DB" stroke-width="1.3" fill="none" stroke-dasharray="0 0"/></g></g></g></g></g></svg>