<svg id="my-svg" width="100%" xmlns="http://www.w3.org/2000/svg" xmlns:xlink="http://www.w3.org/1999/xlink" style="max-width: 700px; background-color: white;" viewBox="0 0 700 500" role="graphics-document document" aria-roledescription="xychart"><style>#my-svg{font-family:"trebuchet ms",verdana,arial,sans-serif;font-size:16px;fill:#333;}@keyframes edge-animation-frame{from{stroke-dashoffset:0;}}@keyframes dash{to{stroke-dashoffset:0;}}#my-svg .edge-animation-slow{stroke-dasharray:9,5!important;stroke-dashoffset:900;animation:dash 50s linear infinite;stroke-linecap:round;}#my-svg .edge-animation-fast{stroke-dasharray:9,5!important;stroke-dashoffset:900;animation:dash 20s linear infinite;stroke-linecap:round;}#my-svg .error-icon{fill:#552222;}#my-svg .error-text{fill:#552222;stroke:#552222;}#my-svg .edge-thickness-normal{stroke-width:1px;}#my-svg .edge-thickness-thick{stroke-width:3.5px;}#my-svg .edge-pattern-solid{stroke-dasharray:0;}#my-svg .edge-thickness-invisible{stroke-width:0;fill:none;}#my-svg .edge-pattern-dashed{stroke-dasharray:3;}#my-svg .edge-pattern-dotted{stroke-dasharray:2;}#my-svg .marker{fill:#333333;stroke:#333333;}#my-svg .marker.cross{stroke:#333333;}#my-svg svg{font-family:"trebuchet ms",verdana,arial,sans-serif;font-size:16px;}#my-svg p{margin:0;}#my-svg :root{--mermaid-font-family:"trebuchet ms",verdana,arial,sans-serif;}</style><g/><g class="main"><rect width="700" height="500" class="background" fill="white"/><g class="chart-title"><text x="0" y="0" fill="#131300" font-size="20" dominant-baseline="middle" text-anchor="middle" transform="translate(350, 21.55078125) rotate(0)">Website Analytics</text></g><g class="plot"><g class="bar-plot-0"><rect x="62.18750190734863" y="361.104375" width="57" height="105.895625" fill="#ECECFF" stroke="#ECECFF" stroke-width="0"/><rect x="158.73958492279053" y="312.1565625" width="57" height="154.8434375" fill="#ECECFF" stroke="#ECECFF" stroke-width="0"/><rect x="255.29166793823242" y="255.05078125" width="57" height="211.94921875" fill="#ECECFF" stroke="#ECECFF" stroke-width="0"/><rect x="351.8437509536743" y="279.5246875" width="57" height="187.47531249999997" fill="#ECECFF" stroke="#ECECFF" stroke-width="0"/><rect x="448.3958339691162" y="214.2609375" width="57" height="252.7390625" fill="#ECECFF" stroke="#ECECFF" stroke-width="0"/><rect x="544.9479169845581" y="91.89140624999999" width="57" height="375.10859375" fill="#ECECFF" stroke="#ECECFF" stroke-width="0"/><rect x="641.5" y="116.36531250000002" width="57" height="350.6346875" fill="#ECECFF" stroke="#ECECFF" stroke-width="0"/></g><g class="line-plot-1"><path d="M90.688,377.42L187.24,336.63L283.792,295.841L380.344,312.157L476.896,255.051L573.448,132.681L670,148.997" fill="none" stroke="#8493A6" stroke-width="2"/></g><g class="line-plot-2"><path d="M90.688,393.736L187.24,361.104L283.792,312.157L380.344,336.63L476.896,279.525L573.448,173.471L670,214.261" fill="none" stroke="#FFC3A0" stroke-width="2"/></g></g><g class="bottom-axis"><g class="axis-line"><path d="M 60.68750190734863,468 L 700,468" fill="none" stroke="#131300" stroke-width="2"/></g><g class="label"><text x="0" y="0" fill="#131300" font-size="14" dominant-baseline="text-before-edge" text-anchor="middle" transform="translate(90.68750190734863, 479) rotate(0)">Mon</text><text x="0" y="0" fill="#131300" font-size="14" dominant-baseline="text-before-edge" text-anchor="middle" transform="translate(187.23958492279053, 479) rotate(0)">Tue</text><text x="0" y="0" fill="#131300" font-size="14" dominant-baseline="text-before-edge" text-anchor="middle" transform="translate(283.7916679382324, 479) rotate(0)">Wed</text><text x="0" y="0" fill="#131300" font-size="14" dominant-baseline="text-before-edge" text-anchor="middle" transform="translate(380.3437509536743, 479) rotate(0)">Thu</text><text x="0" y="0" fill="#131300" font-size="14" dominant-baseline="text-before-edge" text-anchor="middle" transform="translate(476.8958339691162, 479) rotate(0)">Fri</text><text x="0" y="0" fill="#131300" font-size="14" dominant-baseline="text-before-edge" text-anchor="middle" transform="translate(573.4479169845581, 479) rotate(0)">Sat</text><text x="0" y="0" fill="#131300" font-size="14" dominant-baseline="text-before-edge" text-anchor="middle" transform="translate(670, 479) rotate(0)">Sun</text></g><g class="ticks"><path d="M 90.68750190734863,469 L 90.68750190734863,474" fill="none" stroke="#131300" stroke-width="2"/><path d="M 187.23958492279053,469 L 187.23958492279053,474" fill="none" stroke="#131300" stroke-width="2"/><path d="M 283.7916679382324,469 L 283.7916679382324,474" fill="none" stroke="#131300" stroke-width="2"/><path d="M 380.3437509536743,469 L 380.3437509536743,474" fill="none" stroke="#131300" stroke-width="2"/><path d="M 476.8958339691162,469 L 476.8958339691162,474" fill="none" stroke="#131300" stroke-width="2"/><path d="M 573.4479169845581,469 L 573.4479169845581,474" fill="none" stroke="#131300" stroke-width="2"/><path d="M 670,469 L 670,474" fill="none" stroke="#131300" stroke-width="2"/></g></g><g class="left-axis"><g class="axisl-line"><path d="M 59.68750190734863,43.1015625 L 59.68750190734863,467" fill="none" stroke="#131300" stroke-width="2"/></g><g class="label"><text x="0" y="0" fill="#131300" font-size="14" dominant-baseline="middle" text-anchor="end" transform="translate(48.68750190734863, 51.1015625) rotate(0)">50</text><text x="0" y="0" fill="#131300" font-size="14" dominant-baseline="middle" text-anchor="end" transform="translate(48.68750190734863, 91.89140624999999) rotate(0)">45</text><text x="0" y="0" fill="#131300" font-size="14" dominant-baseline="middle" text-anchor="end" transform="translate(48.68750190734863, 132.68124999999998) rotate(0)">40</text><text x="0" y="0" fill="#131300" font-size="14" dominant-baseline="middle" text-anchor="end" transform="translate(48.68750190734863, 173.47109375000002) rotate(0)">35</text><text x="0" y="0" fill="#131300" font-size="14" dominant-baseline="middle" text-anchor="end" transform="translate(48.68750190734863, 214.2609375) rotate(0)">30</text><text x="0" y="0" fill="#131300" font-size="14" dominant-baseline="middle" text-anchor="end" transform="translate(48.68750190734863, 255.05078125) rotate(0)">25</text><text x="0" y="0" fill="#131300" font-size="14" dominant-baseline="middle" text-anchor="end" transform="translate(48.68750190734863, 295.840625) rotate(0)">20</text><text x="0" y="0" fill="#131300" font-size="14" dominant-baseline="middle" text-anchor="end" transform="translate(48.68750190734863, 336.63046875) rotate(0)">15</text><text x="0" y="0" fill="#131300" font-size="14" dominant-baseline="middle" text-anchor="end" transform="translate(48.68750190734863, 377.4203125) rotate(0)">10</text><text x="0" y="0" fill="#131300" font-size="14" dominant-baseline="middle" text-anchor="end" transform="translate(48.68750190734863, 418.21015625) rotate(0)">5</text><text x="0" y="0" fill="#131300" font-size="14" dominant-baseline="middle" text-anchor="end" transform="translate(48.68750190734863, 459) rotate(0)">0</text></g><g class="ticks"><path d="M 58.68750190734863,51.1015625 L 53.68750190734863,51.1015625" fill="none" stroke="#131300" stroke-width="2"/><path d="M 58.68750190734863,91.89140624999999 L 53.68750190734863,91.89140624999999" fill="none" stroke="#131300" stroke-width="2"/><path d="M 58.68750190734863,132.68124999999998 L 53.68750190734863,132.68124999999998" fill="none" stroke="#131300" stroke-width="2"/><path d="M 58.68750190734863,173.47109375000002 L 53.68750190734863,173.47109375000002" fill="none" stroke="#131300" stroke-width="2"/><path d="M 58.68750190734863,214.2609375 L 53.68750190734863,214.2609375" fill="none" stroke="#131300" stroke-width="2"/><path d="M 58.68750190734863,255.05078125 L 53.68750190734863,255.05078125" fill="none" stroke="#131300" stroke-width="2"/><path d="M 58.68750190734863,295.840625 L 53.68750190734863,295.840625" fill="none" stroke="#131300" stroke-width="2"/><path d="M 58.68750190734863,336.63046875 L 53.68750190734863,336.63046875" fill="none" stroke="#131300" stroke-width="2"/><path d="M 58.68750190734863,377.4203125 L 53.68750190734863,377.4203125" fill="none" stroke="#131300" stroke-width="2"/><path d="M 58.68750190734863,418.21015625 L 53.68750190734863,418.21015625" fill="none" stroke="#131300" stroke-width="2"/><path d="M 58.68750190734863,459 L 53.68750190734863,459" fill="none" stroke="#131300" stroke-width="2"/></g><g class="title"><text x="0" y="0" fill="#131300" font-size="16" dominant-baseline="text-before-edge" text-anchor="middle" transform="translate(5, 255.05078125) rotate(270)">Visitors (thousands)</text></g></g></g><g class="mermaid-tmp-group"/></svg>