<svg id="my-svg" width="100%" xmlns="http://www.w3.org/2000/svg" xmlns:xlink="http://www.w3.org/1999/xlink" style="max-width: 700px; background-color: white;" viewBox="0 0 700 500" role="graphics-document document" aria-roledescription="xychart"><style>#my-svg{font-family:"trebuchet ms",verdana,arial,sans-serif;font-size:16px;fill:#333;}@keyframes edge-animation-frame{from{stroke-dashoffset:0;}}@keyframes dash{to{stroke-dashoffset:0;}}#my-svg .edge-animation-slow{stroke-dasharray:9,5!important;stroke-dashoffset:900;animation:dash 50s linear infinite;stroke-linecap:round;}#my-svg .edge-animation-fast{stroke-dasharray:9,5!important;stroke-dashoffset:900;animation:dash 20s linear infinite;stroke-linecap:round;}#my-svg .error-icon{fill:#552222;}#my-svg .error-text{fill:#552222;stroke:#552222;}#my-svg .edge-thickness-normal{stroke-width:1px;}#my-svg .edge-thickness-thick{stroke-width:3.5px;}#my-svg .edge-pattern-solid{stroke-dasharray:0;}#my-svg .edge-thickness-invisible{stroke-width:0;fill:none;}#my-svg .edge-pattern-dashed{stroke-dasharray:3;}#my-svg .edge-pattern-dotted{stroke-dasharray:2;}#my-svg .marker{fill:#333333;stroke:#333333;}#my-svg .marker.cross{stroke:#333333;}#my-svg svg{font-family:"trebuchet ms",verdana,arial,sans-serif;font-size:16px;}#my-svg p{margin:0;}#my-svg :root{--mermaid-font-family:"trebuchet ms",verdana,arial,sans-serif;}</style><g/><g class="main"><rect width="700" height="500" class="background" fill="white"/><g class="chart-title"><text x="0" y="0" fill="#131300" font-size="20" dominant-baseline="middle" text-anchor="middle" transform="translate(350, 21.55078125) rotate(0)">Monthly Sales</text></g><g class="plot"><g class="bar-plot-0"><rect x="69.78125190734863" y="377.4203125" width="66.5" height="89.57968749999998" fill="#ECECFF" stroke="#ECECFF" stroke-width="0"/><rect x="182.1750015258789" y="316.235546875" width="66.5" height="150.764453125" fill="#ECECFF" stroke="#ECECFF" stroke-width="0"/><rect x="294.5687511444092" y="275.445703125" width="66.5" height="191.55429687499998" fill="#ECECFF" stroke="#ECECFF" stroke-width="0"/><rect x="406.9625007629395" y="206.10296875" width="66.5" height="260.89703125" fill="#ECECFF" stroke="#ECECFF" stroke-width="0"/><rect x="519.3562503814697" y="140.83921875" width="66.5" height="326.16078125" fill="#ECECFF" stroke="#ECECFF" stroke-width="0"/><rect x="631.75" y="87.81242187499998" width="66.5" height="379.187578125" fill="#ECECFF" stroke="#ECECFF" stroke-width="0"/></g><g class="line-plot-1"><path d="M103.031,397.815L215.425,336.63L327.819,295.841L440.213,234.656L552.606,173.471L665,112.286" fill="none" stroke="#8493A6" stroke-width="2"/></g></g><g class="bottom-axis"><g class="axis-line"><path d="M 68.03125190734863,468 L 700,468" fill="none" stroke="#131300" stroke-width="2"/></g><g class="label"><text x="0" y="0" fill="#131300" font-size="14" dominant-baseline="text-before-edge" text-anchor="middle" transform="translate(103.03125190734863, 479) rotate(0)">Jan</text><text x="0" y="0" fill="#131300" font-size="14" dominant-baseline="text-before-edge" text-anchor="middle" transform="translate(215.4250015258789, 479) rotate(0)">Feb</text><text x="0" y="0" fill="#131300" font-size="14" dominant-baseline="text-before-edge" text-anchor="middle" transform="translate(327.8187511444092, 479) rotate(0)">Mar</text><text x="0" y="0" fill="#131300" font-size="14" dominant-baseline="text-before-edge" text-anchor="middle" transform="translate(440.2125007629395, 479) rotate(0)">Apr</text><text x="0" y="0" fill="#131300" font-size="14" dominant-baseline="text-before-edge" text-anchor="middle" transform="translate(552.6062503814697, 479) rotate(0)">May</text><text x="0" y="0" fill="#131300" font-size="14" dominant-baseline="text-before-edge" text-anchor="middle" transform="translate(665, 479) rotate(0)">Jun</text></g><g class="ticks"><path d="M 103.03125190734863,469 L 103.03125190734863,474" fill="none" stroke="#131300" stroke-width="2"/><path d="M 215.4250015258789,469 L 215.4250015258789,474" fill="none" stroke="#131300" stroke-width="2"/><path d="M 327.8187511444092,469 L 327.8187511444092,474" fill="none" stroke="#131300" stroke-width="2"/><path d="M 440.2125007629395,469 L 440.2125007629395,474" fill="none" stroke="#131300" stroke-width="2"/><path d="M 552.6062503814697,469 L 552.6062503814697,474" fill="none" stroke="#131300" stroke-width="2"/><path d="M 665,469 L 665,474" fill="none" stroke="#131300" stroke-width="2"/></g></g><g class="left-axis"><g class="axisl-line"><path d="M 67.03125190734863,43.1015625 L 67.03125190734863,467" fill="none" stroke="#131300" stroke-width="2"/></g><g class="label"><text x="0" y="0" fill="#131300" font-size="14" dominant-baseline="middle" text-anchor="end" transform="translate(56.03125190734863, 51.1015625) rotate(0)">100</text><text x="0" y="0" fill="#131300" font-size="14" dominant-baseline="middle" text-anchor="end" transform="translate(56.03125190734863, 91.89140624999999) rotate(0)">90</text><text x="0" y="0" fill="#131300" font-size="14" dominant-baseline="middle" text-anchor="end" transform="translate(56.03125190734863, 132.68124999999998) rotate(0)">80</text><text x="0" y="0" fill="#131300" font-size="14" dominant-baseline="middle" text-anchor="end" transform="translate(56.03125190734863, 173.47109375000002) rotate(0)">70</text><text x="0" y="0" fill="#131300" font-size="14" dominant-baseline="middle" text-anchor="end" transform="translate(56.03125190734863, 214.2609375) rotate(0)">60</text><text x="0" y="0" fill="#131300" font-size="14" dominant-baseline="middle" text-anchor="end" transform="translate(56.03125190734863, 255.05078125) rotate(0)">50</text><text x="0" y="0" fill="#131300" font-size="14" dominant-baseline="middle" text-anchor="end" transform="translate(56.03125190734863, 295.840625) rotate(0)">40</text><text x="0" y="0" fill="#131300" font-size="14" dominant-baseline="middle" text-anchor="end" transform="translate(56.03125190734863, 336.63046875) rotate(0)">30</text><text x="0" y="0" fill="#131300" font-size="14" dominant-baseline="middle" text-anchor="end" transform="translate(56.03125190734863, 377.4203125) rotate(0)">20</text><text x="0" y="0" fill="#131300" font-size="14" dominant-baseline="middle" text-anchor="end" transform="translate(56.03125190734863, 418.21015625) rotate(0)">10</text><text x="0" y="0" fill="#131300" font-size="14" dominant-baseline="middle" text-anchor="end" transform="translate(56.03125190734863, 459) rotate(0)">0</text></g><g class="ticks"><path d="M 66.03125190734863,51.1015625 L 61.03125190734863,51.1015625" fill="none" stroke="#131300" stroke-width="2"/><path d="M 66.03125190734863,91.89140624999999 L 61.03125190734863,91.89140624999999" fill="none" stroke="#131300" stroke-width="2"/><path d="M 66.03125190734863,132.68124999999998 L 61.03125190734863,132.68124999999998" fill="none" stroke="#131300" stroke-width="2"/><path d="M 66.03125190734863,173.47109375000002 L 61.03125190734863,173.47109375000002" fill="none" stroke="#131300" stroke-width="2"/><path d="M 66.03125190734863,214.2609375 L 61.03125190734863,214.2609375" fill="none" stroke="#131300" stroke-width="2"/><path d="M 66.03125190734863,255.05078125 L 61.03125190734863,255.05078125" fill="none" stroke="#131300" stroke-width="2"/><path d="M 66.03125190734863,295.840625 L 61.03125190734863,295.840625" fill="none" stroke="#131300" stroke-width="2"/><path d="M 66.03125190734863,336.63046875 L 61.03125190734863,336.63046875" fill="none" stroke="#131300" stroke-width="2"/><path d="M 66.03125190734863,377.4203125 L 61.03125190734863,377.4203125" fill="none" stroke="#131300" stroke-width="2"/><path d="M 66.03125190734863,418.21015625 L 61.03125190734863,418.21015625" fill="none" stroke="#131300" stroke-width="2"/><path d="M 66.03125190734863,459 L 61.03125190734863,459" fill="none" stroke="#131300" stroke-width="2"/></g><g class="title"><text x="0" y="0" fill="#131300" font-size="16" dominant-baseline="text-before-edge" text-anchor="middle" transform="translate(5, 255.05078125) rotate(270)">Sales (units)</text></g></g></g><g class="mermaid-tmp-group"/></svg>