<?xml version="1.0" encoding="UTF-8"?>
<svg xmlns="http://www.w3.org/2000/svg" width="734" height="178" viewBox="-5 -5 734 178" class="mermaid">
  <style>

.block-node {
  cursor: pointer;
}
.block-label {
  font-family: trebuchet ms, verdana, arial, sans-serif;
  fill: #333333;
}
.node-bkg {
  fill: #ECECFF;
  stroke: #9370DB;
  stroke-width: 1px;
}
.node-bkg-inner {
  stroke: #9370DB;
  stroke-width: 1px;
}
.block-edge {
  stroke: #333333;
  stroke-width: 1px;
  fill: none;
}
.edge-label {
  font-family: trebuchet ms, verdana, arial, sans-serif;
  fill: #333333;
  font-size: 12px;
}
.block-edges marker {
  fill: #333333;
}
.block-composite {
  fill: #ffffde;
  stroke: #9370DB;
  stroke-width: 1px;
  stroke-dasharray: 5,5;
}
.blue .node-bkg { fill:#66f;stroke:#333;stroke-width:2px }


  </style>
  <defs>
    <marker id="arrow_point" viewBox="0 0 10 10" refX="10" refY="5" markerWidth="8" markerHeight="8" orient="auto" markerUnits="userSpaceOnUse">
      <path d="M 0 0 L 10 5 L 0 10 z"/>
    </marker>
    <marker id="arrow_point_start" viewBox="0 0 10 10" refX="4.5" refY="5" markerWidth="8" markerHeight="8" orient="auto" markerUnits="userSpaceOnUse">
      <path d="M 0 5 L 10 10 L 10 0 z"/>
    </marker>
    <marker id="arrow_cross" viewBox="0 0 11 11" refX="12" refY="5.2" markerWidth="11" markerHeight="11" orient="auto" markerUnits="userSpaceOnUse">
      <path d="M 1 1 L 10 10 M 10 1 L 1 10" stroke-width="2" fill="none"/>
    </marker>
    <marker id="arrow_cross_start" viewBox="0 0 11 11" refX="-1" refY="5.2" markerWidth="11" markerHeight="11" orient="auto" markerUnits="userSpaceOnUse">
      <path d="M 1 1 L 10 10 M 10 1 L 1 10" fill="none" stroke-width="2"/>
    </marker>
    <marker id="arrow_circle" viewBox="0 0 10 10" refX="11" refY="5" markerWidth="11" markerHeight="11" orient="auto" markerUnits="userSpaceOnUse">
      <circle cx="5" cy="5" r="5"/>
    </marker>
    <marker id="arrow_circle_start" viewBox="0 0 10 10" refX="-1" refY="5" markerWidth="11" markerHeight="11" orient="auto" markerUnits="userSpaceOnUse">
      <circle cx="5" cy="5" r="5"/>
    </marker>
  </defs>
  <g class="root">
    <g class="clusters">
      <g class="block-nodes">
        <g class="node block-node block-composite" id="block-container" transform="translate(0, 60)">
          <rect x="0" y="0" width="236" height="60" class="block-composite"/>
          <g class="label">
            <rect x="0" y="0" width="0" height="0"/>
            <text x="118" y="30" class="block-label" dominant-baseline="middle" text-anchor="middle" font-size="14px"></text>
          </g>
        </g>
      </g>
    </g>
    <g class="edgePaths">
      <g class="block-edges">
        <path d="M 118 128 Q 118 90 118 52" class="block-edge" stroke-width="1" marker-end="url(#arrowhead)" fill="none"/>
        <path d="M 480 26 Q 484 26 488 26" class="block-edge" fill="none" stroke-width="1" marker-end="url(#arrowhead)"/>
        <path d="M 114 90 Q 118 90 122 90" class="block-edge" stroke-width="1" marker-end="url(#arrowhead)" fill="none"/>
        <text x="118" y="80" class="edge-label" font-size="12px" text-anchor="middle" dominant-baseline="middle">labeled</text>
      </g>
    </g>
    <g class="edgeLabels">

    </g>
    <g class="nodes">
      <g class="block-nodes">
        <g class="node block-node block-square blue" transform="translate(0, 0)" id="block-A">
          <rect x="0" y="0" width="236" height="52" class="node-bkg"/>
          <g class="label">
            <rect x="0" y="0" width="0" height="0"/>
            <text x="118" y="26" class="block-label" font-size="14px" text-anchor="middle" dominant-baseline="middle">Square Block</text>
          </g>
        </g>
        <g class="node block-node block-round" transform="translate(244, 0)" id="block-B">
          <rect x="0" y="0" width="236" height="52" rx="10" ry="10" class="node-bkg" style="fill:#f9F;stroke:#333;stroke-width:4px"/>
          <g class="label">
            <rect x="0" y="0" width="0" height="0"/>
            <text x="118" y="26" class="block-label" font-size="14px" text-anchor="middle" dominant-baseline="middle">Rounded Block</text>
          </g>
        </g>
        <g class="node block-node block-diamond" transform="translate(488, 0)" id="block-C">
          <polygon points="118,0 236,26 118,52 0,26" class="node-bkg"/>
          <g class="label">
            <rect x="0" y="0" width="0" height="0"/>
            <text x="118" y="26" class="block-label" font-size="14px" text-anchor="middle" dominant-baseline="middle">Diamond</text>
          </g>
        </g>
        <g class="node block-node block-square" transform="translate(8, 68)" id="block-D">
          <rect x="0" y="0" width="106" height="44" class="node-bkg"/>
          <g class="label">
            <rect x="0" y="0" width="0" height="0"/>
            <text x="53" y="22" class="block-label" dominant-baseline="middle" font-size="14px" text-anchor="middle">Nested 1</text>
          </g>
        </g>
        <g class="node block-node block-square" transform="translate(122, 68)" id="block-E">
          <rect x="0" y="0" width="106" height="44" class="node-bkg"/>
          <g class="label">
            <rect x="0" y="0" width="0" height="0"/>
            <text x="53" y="22" class="block-label" font-size="14px" text-anchor="middle" dominant-baseline="middle">Nested 2</text>
          </g>
        </g>
        <g class="node block-node block-stadium" transform="translate(488, 60)" id="block-F">
          <rect x="0" y="0" width="236" height="60" rx="30" ry="30" class="node-bkg"/>
          <g class="label">
            <rect x="0" y="0" width="0" height="0"/>
            <text x="118" y="30" class="block-label" dominant-baseline="middle" text-anchor="middle" font-size="14px">Stadium</text>
          </g>
        </g>
        <g class="node block-node block-square" id="block-G" transform="translate(0, 128)">
          <rect x="0" y="0" width="236" height="40" class="node-bkg"/>
          <g class="label">
            <rect x="0" y="0" width="0" height="0"/>
            <text x="118" y="20" class="block-label" dominant-baseline="middle" font-size="14px" text-anchor="middle">G</text>
          </g>
        </g>
      </g>
    </g>
  </g>
</svg>
