<?xml version="1.0" encoding="UTF-8"?>
<svg xmlns="http://www.w3.org/2000/svg" width="1230.9999999999998" height="1173.1999999999998" viewBox="-8 -27.999999999999993 1230.9999999999998 1173.1999999999998" class="mermaid">
  <style>

.mermaid {
  font-family: trebuchet ms, verdana, arial, sans-serif;
  font-size: 16px;
}

.node rect,
.node polygon,
.node circle,
.node ellipse,
.node path {
  fill: #ECECFF;
  stroke: #9370DB;
  stroke-width: 1px;
}

.node line {
  stroke: #9370DB;
  stroke-width: 1px;
}

.node .label {
  fill: #333333;
}

.node text {
  fill: #333333;
  font-family: trebuchet ms, verdana, arial, sans-serif;
  font-size: 16px;
}

.edge-path {
  fill: none;
  stroke: #333333;
  stroke-width: 1px;
}

.edge-label {
  fill: #333333;
  font-family: trebuchet ms, verdana, arial, sans-serif;
}

.edge-label-bg {
  fill: rgba(232, 232, 232, 0.8);
}

.subgraph {
  fill: #ffffde;
  stroke: #aaaa33;
  stroke-width: 1px;
}

.subgraph-title {
  fill: #333333;
  font-weight: bold;
}

.cluster rect {
  fill: #ffffde;
  stroke: #aaaa33;
  stroke-width: 1px;
  rx: 5px;
  ry: 5px;
}

.cluster-label {
  fill: #333333;
  font-family: trebuchet ms, verdana, arial, sans-serif;
  font-size: 16px;
  font-weight: bold;
}

marker path {
  fill: #333333;
  stroke: #333333;
}

  </style>
  <defs>
    <marker id="arrow_point" viewBox="0 0 10 10" refX="10" refY="5" markerWidth="8" markerHeight="8" orient="auto" markerUnits="userSpaceOnUse">
      <path d="M 0 0 L 10 5 L 0 10 z"/>
    </marker>
    <marker id="arrow_point_start" viewBox="0 0 10 10" refX="4.5" refY="5" markerWidth="8" markerHeight="8" orient="auto" markerUnits="userSpaceOnUse">
      <path d="M 0 5 L 10 10 L 10 0 z"/>
    </marker>
    <marker id="arrow_cross" viewBox="0 0 11 11" refX="12" refY="5.2" markerWidth="11" markerHeight="11" orient="auto" markerUnits="userSpaceOnUse">
      <path d="M 1 1 L 10 10 M 10 1 L 1 10" fill="none" stroke-width="2"/>
    </marker>
    <marker id="arrow_cross_start" viewBox="0 0 11 11" refX="-1" refY="5.2" markerWidth="11" markerHeight="11" orient="auto" markerUnits="userSpaceOnUse">
      <path d="M 1 1 L 10 10 M 10 1 L 1 10" fill="none" stroke-width="2"/>
    </marker>
    <marker id="arrow_circle" viewBox="0 0 10 10" refX="11" refY="5" markerWidth="11" markerHeight="11" orient="auto" markerUnits="userSpaceOnUse">
      <circle cx="5" cy="5" r="5"/>
    </marker>
    <marker id="arrow_circle_start" viewBox="0 0 10 10" refX="-1" refY="5" markerWidth="11" markerHeight="11" orient="auto" markerUnits="userSpaceOnUse">
      <circle cx="5" cy="5" r="5"/>
    </marker>
  </defs>
  <g class="root">
    <g class="clusters">
      <g class="subgraph" id="subgraph-">
        <rect x="48.600000000000094" y="-19.999999999999993" width="824.5999999999998" height="1152.1999999999998" class="cluster"/>
        <text x="460.9" y="-3.999999999999993" class="cluster-label" text-anchor="middle"></text>
      </g>
      <g class="subgraph" id="subgraph-">
        <rect x="469.4" y="-19.999999999999993" width="725.5999999999998" height="774.6" class="cluster"/>
        <text x="832.1999999999998" y="-3.999999999999993" class="cluster-label" text-anchor="middle"></text>
      </g>
    </g>
    <g class="edgePaths">
      <g class="edge" id="edge-L-A1-B1-0">
        <path d="M 159.00 77.80 C 159.00 86.13, 159.00 94.47, 159.00 108.93 C 159.00 123.40, 159.00 144.00, 159.00 164.60" class="edge-path" fill="none" stroke-width="1" marker-end="url(#arrow_point)"/>
      </g>
      <g class="edge" id="edge-L-B1-C1-0">
        <path d="M 159.00 217.40 C 159.00 238.00, 159.00 258.60, 159.00 282.67 C 159.00 306.73, 159.00 334.27, 159.00 361.80" class="edge-path" fill="none" marker-end="url(#arrow_point)" stroke-width="1"/>
      </g>
      <g class="edge" id="edge-L-C1-D1-0">
        <path d="M 159.00 414.60 C 159.00 445.47, 159.00 476.33, 170.80 500.67 C 182.60 525.00, 206.20 542.80, 229.80 560.60" class="edge-path" stroke-width="1" marker-end="url(#arrow_point)" fill="none"/>
      </g>
      <g class="edge" id="edge-L-D1-E1-0">
        <path d="M 264.80 613.40 C 264.80 627.87, 264.80 642.33, 264.80 653.73 C 264.80 665.13, 264.80 673.47, 264.80 681.80" class="edge-path" marker-end="url(#arrow_point)" fill="none" stroke-width="1"/>
      </g>
      <g class="edge" id="edge-L-E1-F1-0">
        <path d="M 264.80 734.60 C 264.80 742.93, 264.80 751.27, 264.80 759.60 C 264.80 767.93, 264.80 776.27, 264.80 784.60" class="edge-path" stroke-width="1" marker-end="url(#arrow_point)" fill="none"/>
      </g>
      <g class="edge" id="edge-L-F1-G1-0">
        <path d="M 225.75 913.55 L 161.40 1022.60" class="edge-path" marker-end="url(#arrow_point)" fill="none" stroke-width="1"/>
      </g>
      <g class="edge" id="edge-L-F1-H1-0">
        <path d="M 333.26 884.14 C 485.24 918.62, 637.22 953.11, 713.21 979.26 C 789.20 1005.40, 789.20 1023.20, 789.20 1041.00" class="edge-path" fill="none" stroke-width="1" marker-end="url(#arrow_point)"/>
      </g>
      <g class="edge" id="edge-L-I1-D1-0">
        <path d="M 365.80 414.60 C 365.80 445.47, 365.80 476.33, 354.54 500.67 C 343.27 525.00, 320.74 542.80, 298.21 560.60" class="edge-path" stroke-width="2" fill="none" stroke-dasharray="3,3" marker-end="url(#arrow_point)"/>
      </g>
      <g class="edge" id="edge-L-A2-B2-0">
        <path d="M 914.00 77.80 C 914.00 86.13, 914.00 94.47, 914.00 108.93 C 914.00 123.40, 914.00 144.00, 914.00 164.60" class="edge-path" fill="none" stroke-width="1" marker-end="url(#arrow_point)"/>
      </g>
      <g class="edge" id="edge-L-B2-C2-0">
        <path d="M 914.00 217.40 C 914.00 238.00, 914.00 258.60, 914.00 273.07 C 914.00 287.53, 914.00 295.87, 914.00 304.20" class="edge-path" fill="none" stroke-width="1" marker-end="url(#arrow_point)"/>
      </g>
      <g class="edge" id="edge-L-C2-D2-0">
        <path d="M 868.68 426.88 C 837.32 453.66, 805.96 480.43, 790.28 499.65 C 774.60 518.87, 774.60 530.53, 774.60 542.20" class="edge-path" marker-end="url(#arrow_point)" stroke-width="1" fill="none"/>
      </g>
      <g class="edge" id="edge-L-C2-E2-0">
        <path d="M 959.32 426.88 C 990.68 453.66, 1022.04 480.43, 1037.72 499.65 C 1053.40 518.87, 1053.40 530.53, 1053.40 542.20" class="edge-path" fill="none" stroke-width="1" marker-end="url(#arrow_point)"/>
      </g>
      <g class="edge" id="edge-L-D2-F2-0">
        <path d="M 774.60 631.80 C 774.60 640.13, 774.60 648.47, 785.90 656.80 C 797.20 665.13, 819.80 673.47, 842.40 681.80" class="edge-path" stroke-width="1" fill="none" marker-end="url(#arrow_point)"/>
      </g>
      <g class="edge" id="edge-L-E2-F2-0">
        <path d="M 1053.40 631.80 C 1053.40 640.13, 1053.40 648.47, 1042.10 656.80 C 1030.80 665.13, 1008.20 673.47, 985.60 681.80" class="edge-path" fill="none" marker-end="url(#arrow_point)" stroke-width="1"/>
      </g>
      <g class="edge" id="edge-L-G2-H2-0">
        <path d="M 615.80 77.80 C 615.80 86.13, 615.80 94.47, 615.80 102.80 C 615.80 111.13, 615.80 119.47, 615.80 127.80" class="edge-path" stroke-width="1" fill="none" marker-end="url(#arrow_point)"/>
      </g>
      <g class="edge" id="edge-L-H2-I2-0">
        <path d="M 615.80 254.20 C 615.80 262.53, 615.80 270.87, 615.80 288.80 C 615.80 306.73, 615.80 334.27, 615.80 361.80" class="edge-path" fill="none" stroke-width="1" marker-end="url(#arrow_point)"/>
      </g>
    </g>
    <g class="edgeLabels">
      <g class="edgeLabel" id="edge-label-L-F1-G1-0">
        <rect x="167.29484182260165" y="952.7829189855939" width="29.599999999999998" height="22" class="edge-label-bg"/>
        <text x="182.09484182260167" y="963.7829189855939" class="edge-label" text-anchor="middle" dominant-baseline="central">Yes</text>
      </g>
      <g class="edgeLabel" id="edge-label-L-F1-H1-0">
        <rect x="576.0698899017582" y="930.7768056794607" width="22.4" height="22" class="edge-label-bg"/>
        <text x="587.2698899017582" y="941.7768056794607" class="edge-label" dominant-baseline="central" text-anchor="middle">No</text>
      </g>
      <g class="edgeLabel" id="edge-label-L-I1-D1-0">
        <rect x="289.79999999999995" y="492.9682319370339" width="152" height="22" class="edge-label-bg"/>
        <text x="365.79999999999995" y="503.9682319370339" class="edge-label" dominant-baseline="central" text-anchor="middle">Recalc ALL positions</text>
      </g>
      <g class="edgeLabel" id="edge-label-L-C2-D2-0">
        <rect x="789.9322264746245" y="467.4041969119059" width="36.8" height="22" class="edge-label-bg"/>
        <text x="808.3322264746245" y="478.4041969119059" class="edge-label" dominant-baseline="central" text-anchor="middle">Text</text>
      </g>
      <g class="edgeLabel" id="edge-label-L-C2-E2-0">
        <rect x="990.4677735253754" y="467.40419691190596" width="58.4" height="22" class="edge-label-bg"/>
        <text x="1019.6677735253754" y="478.40419691190596" class="edge-label" dominant-baseline="central" text-anchor="middle">Mermaid</text>
      </g>
    </g>
    <g class="nodes">
      <g class="node" id="node-A1">
        <rect x="71" y="25.000000000000007" width="176" height="52.8"/>
        <text x="159" y="51.400000000000006" class="label" text-anchor="middle" dominant-baseline="central">Message Content</text>
      </g>
      <g class="node" id="node-A2">
        <rect x="826" y="25.000000000000007" width="176" height="52.8"/>
        <text x="914" y="51.400000000000006" class="label" text-anchor="middle" dominant-baseline="central">Message Content</text>
      </g>
      <g class="node" id="node-B1">
        <rect x="80.6" y="164.6" width="156.8" height="52.8"/>
        <text x="159" y="191" class="label" dominant-baseline="central" text-anchor="middle">Parse Mermaid</text>
      </g>
      <g class="node" id="node-B2">
        <rect x="830.8" y="164.6" width="166.4" height="52.8"/>
        <text x="914" y="191" class="label" text-anchor="middle" dominant-baseline="central">Parse Segments</text>
      </g>
      <g class="node" id="node-C1">
        <rect x="80.6" y="361.8" width="156.8" height="52.8"/>
        <text x="159" y="388.2" class="label" dominant-baseline="central" text-anchor="middle">Render to PNG</text>
      </g>
      <g class="node" id="node-C2">
        <polygon points="914,304.2 998,388.2 914,472.2 830,388.2"/>
        <text x="914" y="388.2" class="label" dominant-baseline="central" text-anchor="middle">Segment Type</text>
      </g>
      <g class="node" id="node-D1">
        <rect x="114.79999999999995" y="560.6" width="300" height="52.8"/>
        <text x="264.79999999999995" y="587" class="label" dominant-baseline="central" text-anchor="middle">Calculate Absolute Pixel Coords</text>
      </g>
      <g class="node" id="node-D2">
        <rect x="667.3999999999999" y="542.2" width="214.4" height="89.6" style="fill:#9f9 !important;stroke:#0f0 !important"/>
        <text x="774.5999999999999" y="587" class="label" dominant-baseline="central" text-anchor="middle"><tspan x="774.5999999999999" y="587" dy="-0.6em">Normal Ratatui Flow</tspan><tspan x="774.5999999999999" dy="1.2em">Cell-based Layout</tspan></text>
      </g>
      <g class="node" id="node-E1">
        <rect x="138.39999999999998" y="681.8000000000001" width="252.79999999999998" height="52.8"/>
        <text x="264.79999999999995" y="708.2" class="label" text-anchor="middle" dominant-baseline="central">Kitty Graphics Protocol</text>
      </g>
      <g class="node" id="node-E2">
        <rect x="931.7999999999998" y="542.2" width="243.2" height="89.6" style="fill:#9f9 !important;stroke:#0f0 !important"/>
        <text x="1053.3999999999999" y="587" class="label" text-anchor="middle" dominant-baseline="central"><tspan x="1053.3999999999999" y="587" dy="-0.6em">Text Placeholder</tspan><tspan x="1053.3999999999999" dy="1.2em">&apos;rendering diagram...&apos;</tspan></text>
      </g>
      <g class="node" id="node-F1">
        <polygon points="264.79999999999995,784.6 348.79999999999995,868.6 264.79999999999995,952.6 180.79999999999995,868.6"/>
        <text x="264.79999999999995" y="868.6" class="label" text-anchor="middle" dominant-baseline="central">Inside tmux?</text>
      </g>
      <g class="node" id="node-F2">
        <rect x="830.8" y="681.8000000000001" width="166.4" height="52.8"/>
        <text x="914" y="708.2" class="label" dominant-baseline="central" text-anchor="middle">Ratatui Buffer</text>
      </g>
      <g class="node" id="node-G1">
        <rect x="68.6000000000001" y="1022.5999999999999" width="185.6" height="89.6" style="fill:#f99 !important;stroke:#f00 !important"/>
        <text x="161.4000000000001" y="1067.3999999999999" class="label" text-anchor="middle" dominant-baseline="central"><tspan x="161.4000000000001" y="1067.3999999999999" dy="-0.6em">DCS Passthrough</tspan><tspan x="161.4000000000001" dy="1.2em">Double ESC chars</tspan></text>
      </g>
      <g class="node" id="node-G2">
        <rect x="513.4" y="25.000000000000007" width="204.79999999999998" height="52.8"/>
        <text x="615.8" y="51.400000000000006" class="label" dominant-baseline="central" text-anchor="middle">User Opens Diagram</text>
      </g>
      <g class="node" id="node-H1">
        <rect x="725.1999999999999" y="1040.9999999999998" width="128" height="52.8"/>
        <text x="789.1999999999999" y="1067.3999999999999" class="label" dominant-baseline="central" text-anchor="middle">Direct APC</text>
      </g>
      <g class="node" id="node-H2">
        <rect x="513.4" y="127.80000000000001" width="204.79999999999998" height="126.39999999999999" style="fill:#9f9 !important;stroke:#0f0 !important"/>
        <text x="615.8" y="191" class="label" text-anchor="middle" dominant-baseline="central"><tspan x="615.8" y="191" dy="-1.2em">Fullscreen View</tspan><tspan x="615.8" dy="1.2em">Simple Context</tspan><tspan x="615.8" dy="1.2em">No Scroll Tracking</tspan></text>
      </g>
      <g class="node" id="node-I1">
        <rect x="292.19999999999993" y="361.8" width="147.2" height="52.8" style="fill:#f99 !important;stroke:#f00 !important"/>
        <text x="365.79999999999995" y="388.2" class="label" text-anchor="middle" dominant-baseline="central">User Scrolls</text>
      </g>
      <g class="node" id="node-I2">
        <rect x="489.4" y="361.8" width="252.79999999999998" height="52.8"/>
        <text x="615.8" y="388.2" class="label" dominant-baseline="central" text-anchor="middle">Kitty Graphics Protocol</text>
      </g>
    </g>
  </g>
</svg>
