<?xml version="1.0" encoding="UTF-8"?>
<svg xmlns="http://www.w3.org/2000/svg" width="898.5999999999999" height="763.1999999999999" viewBox="-8 -27.999999999999993 898.5999999999999 763.1999999999999" class="mermaid">
  <style>

.mermaid {
  font-family: trebuchet ms, verdana, arial, sans-serif;
  font-size: 16px;
}

.node rect,
.node polygon,
.node circle,
.node ellipse,
.node path {
  fill: #ECECFF;
  stroke: #9370DB;
  stroke-width: 1px;
}

.node line {
  stroke: #9370DB;
  stroke-width: 1px;
}

.node .label {
  fill: #333333;
}

.node text {
  fill: #333333;
  font-family: trebuchet ms, verdana, arial, sans-serif;
  font-size: 16px;
}

.edge-path {
  fill: none;
  stroke: #333333;
  stroke-width: 1px;
}

.edge-label {
  fill: #333333;
  font-family: trebuchet ms, verdana, arial, sans-serif;
}

.edge-label-bg {
  fill: rgba(232, 232, 232, 0.8);
}

.subgraph {
  fill: #ffffde;
  stroke: #aaaa33;
  stroke-width: 1px;
}

.subgraph-title {
  fill: #333333;
  font-weight: bold;
}

.cluster rect {
  fill: #ffffde;
  stroke: #aaaa33;
  stroke-width: 1px;
  rx: 5px;
  ry: 5px;
}

.cluster-label {
  fill: #333333;
  font-family: trebuchet ms, verdana, arial, sans-serif;
  font-size: 16px;
  font-weight: bold;
}

marker path {
  fill: #333333;
  stroke: #333333;
}

  </style>
  <defs>
    <marker id="arrow_point" viewBox="0 0 10 10" refX="10" refY="5" markerWidth="8" markerHeight="8" orient="auto" markerUnits="userSpaceOnUse">
      <path d="M 0 0 L 10 5 L 0 10 z"/>
    </marker>
    <marker id="arrow_point_start" viewBox="0 0 10 10" refX="4.5" refY="5" markerWidth="8" markerHeight="8" orient="auto" markerUnits="userSpaceOnUse">
      <path d="M 0 5 L 10 10 L 10 0 z"/>
    </marker>
    <marker id="arrow_cross" viewBox="0 0 11 11" refX="12" refY="5.2" markerWidth="11" markerHeight="11" orient="auto" markerUnits="userSpaceOnUse">
      <path d="M 1 1 L 10 10 M 10 1 L 1 10" stroke-width="2" fill="none"/>
    </marker>
    <marker id="arrow_cross_start" viewBox="0 0 11 11" refX="-1" refY="5.2" markerWidth="11" markerHeight="11" orient="auto" markerUnits="userSpaceOnUse">
      <path d="M 1 1 L 10 10 M 10 1 L 1 10" stroke-width="2" fill="none"/>
    </marker>
    <marker id="arrow_circle" viewBox="0 0 10 10" refX="11" refY="5" markerWidth="11" markerHeight="11" orient="auto" markerUnits="userSpaceOnUse">
      <circle cx="5" cy="5" r="5"/>
    </marker>
    <marker id="arrow_circle_start" viewBox="0 0 10 10" refX="-1" refY="5" markerWidth="11" markerHeight="11" orient="auto" markerUnits="userSpaceOnUse">
      <circle cx="5" cy="5" r="5"/>
    </marker>
  </defs>
  <g class="root">
    <g class="clusters">
      <g class="subgraph" id="subgraph-">
        <rect x="20" y="-19.999999999999993" width="340" height="742.1999999999999" class="cluster"/>
        <text x="190" y="-3.999999999999993" class="cluster-label" text-anchor="middle"></text>
      </g>
      <g class="subgraph" id="subgraph-">
        <rect x="382.2" y="-19.999999999999993" width="480.40000000000003" height="518.2" class="cluster"/>
        <text x="622.4" y="-3.999999999999993" class="cluster-label" text-anchor="middle"></text>
      </g>
    </g>
    <g class="edgePaths">
      <g class="edge" id="edge-L-A1-B1-0">
        <path d="M 190.00 77.80 C 190.00 86.13, 190.00 94.47, 190.00 105.87 C 190.00 117.27, 190.00 131.73, 190.00 146.20" class="edge-path" stroke-width="1" marker-end="url(#arrow_point)" fill="none"/>
      </g>
      <g class="edge" id="edge-L-B1-C1-0">
        <path d="M 190.00 199.00 C 190.00 213.47, 190.00 227.93, 190.00 242.40 C 190.00 256.87, 190.00 271.33, 190.00 285.80" class="edge-path" fill="none" marker-end="url(#arrow_point)" stroke-width="1"/>
      </g>
      <g class="edge" id="edge-L-C1-D1-0">
        <path d="M 190.00 338.60 C 190.00 353.07, 190.00 367.53, 190.00 378.93 C 190.00 390.33, 190.00 398.67, 190.00 407.00" class="edge-path" marker-end="url(#arrow_point)" fill="none" stroke-width="1"/>
      </g>
      <g class="edge" id="edge-L-D1-E1-0">
        <path d="M 190.00 496.60 C 190.00 504.93, 190.00 513.27, 190.00 521.60 C 190.00 529.93, 190.00 538.27, 190.00 546.60" class="edge-path" marker-end="url(#arrow_point)" fill="none" stroke-width="1"/>
      </g>
      <g class="edge" id="edge-L-E1-F1-0">
        <path d="M 190.00 599.40 C 190.00 607.73, 190.00 616.07, 190.00 624.40 C 190.00 632.73, 190.00 641.07, 190.00 649.40" class="edge-path" fill="none" marker-end="url(#arrow_point)" stroke-width="1"/>
      </g>
      <g class="edge" id="edge-L-A2-B2-0">
        <path d="M 593.60 77.80 C 593.60 86.13, 593.60 94.47, 593.60 102.80 C 593.60 111.13, 593.60 119.47, 593.60 127.80" class="edge-path" fill="none" marker-end="url(#arrow_point)" stroke-width="1"/>
      </g>
      <g class="edge" id="edge-L-B2-C2-0">
        <path d="M 514.91 217.40 L 471.00 267.40" class="edge-path" marker-end="url(#arrow_point)" stroke-width="1" fill="none"/>
      </g>
      <g class="edge" id="edge-L-B2-C3-0">
        <path d="M 672.29 217.40 L 716.20 267.40" class="edge-path" marker-end="url(#arrow_point)" fill="none" stroke-width="1"/>
      </g>
      <g class="edge" id="edge-L-C2-D2-0">
        <path d="M 471.00 357.00 C 471.00 365.33, 471.00 373.67, 471.00 385.07 C 471.00 396.47, 471.00 410.93, 471.00 425.40" class="edge-path" stroke-width="1" marker-end="url(#arrow_point)" fill="none"/>
      </g>
      <g class="edge" id="edge-L-C3-D3-0">
        <path d="M 716.20 357.00 C 716.20 365.33, 716.20 373.67, 716.20 385.07 C 716.20 396.47, 716.20 410.93, 716.20 425.40" class="edge-path" fill="none" stroke-width="1" marker-end="url(#arrow_point)"/>
      </g>
    </g>
    <g class="edgeLabels">

    </g>
    <g class="nodes">
      <g class="node" id="node-A1">
        <rect x="106.8" y="25.000000000000007" width="166.4" height="52.8"/>
        <text x="190" y="51.400000000000006" class="label" text-anchor="middle" dominant-baseline="central">Mermaid Source</text>
      </g>
      <g class="node" id="node-A2">
        <rect x="510.40000000000003" y="25.000000000000007" width="166.4" height="52.8"/>
        <text x="593.6" y="51.400000000000006" class="label" text-anchor="middle" dominant-baseline="central">Mermaid Source</text>
      </g>
      <g class="node" id="node-B1">
        <rect x="44.400000000000006" y="146.20000000000002" width="291.2" height="52.8"/>
        <text x="190" y="172.60000000000002" class="label" dominant-baseline="central" text-anchor="middle">selkie::render::render_text</text>
      </g>
      <g class="node" id="node-B2">
        <rect x="496" y="127.80000000000003" width="195.2" height="89.6" style="fill:#4a4 !important;stroke:#282 !important"/>
        <text x="593.6" y="172.60000000000002" class="label" dominant-baseline="central" text-anchor="middle"><tspan x="593.6" y="172.60000000000002" dy="-0.6em">selkie parser</tspan><tspan x="593.6" dy="1.2em">single parse step</tspan></text>
      </g>
      <g class="node" id="node-C1">
        <rect x="126" y="285.8" width="128" height="52.8"/>
        <text x="190" y="312.2" class="label" text-anchor="middle" dominant-baseline="central">SVG String</text>
      </g>
      <g class="node" id="node-C2">
        <rect x="402.2" y="267.4" width="137.6" height="89.6"/>
        <text x="471" y="312.2" class="label" text-anchor="middle" dominant-baseline="central"><tspan x="471" y="312.2" dy="-0.6em">render_text</tspan><tspan x="471" dy="1.2em">SVG output</tspan></text>
      </g>
      <g class="node" id="node-C3">
        <rect x="599.4000000000001" y="267.4" width="233.6" height="89.6"/>
        <text x="716.2" y="312.2" class="label" dominant-baseline="central" text-anchor="middle"><tspan x="716.2" y="312.2" dy="-0.6em">render_text_ascii</tspan><tspan x="716.2" dy="1.2em">box-drawing + braille</tspan></text>
      </g>
      <g class="node" id="node-D1">
        <rect x="40" y="407" width="300" height="89.6" style="fill:#a44 !important;stroke:#822 !important"/>
        <text x="190" y="451.8" class="label" text-anchor="middle" dominant-baseline="central"><tspan x="190" y="451.8" dy="-0.6em">svg_to_png</tspan><tspan x="190" dy="1.2em">resvg + usvg + tiny-skia + fontdb</tspan></text>
      </g>
      <g class="node" id="node-D2">
        <rect x="402.2" y="425.40000000000003" width="137.6" height="52.8"/>
        <text x="471" y="451.8" class="label" text-anchor="middle" dominant-baseline="central">Web browser</text>
      </g>
      <g class="node" id="node-D3">
        <rect x="589.8000000000001" y="425.40000000000003" width="252.79999999999998" height="52.8"/>
        <text x="716.2" y="451.8" class="label" dominant-baseline="central" text-anchor="middle">Terminal inline display</text>
      </g>
      <g class="node" id="node-E1">
        <rect x="130.8" y="546.6" width="118.39999999999999" height="52.8"/>
        <text x="190" y="573" class="label" text-anchor="middle" dominant-baseline="central">PNG bytes</text>
      </g>
      <g class="node" id="node-F1">
        <rect x="68.4" y="649.4" width="243.2" height="52.8"/>
        <text x="190" y="675.8" class="label" dominant-baseline="central" text-anchor="middle">Kitty terminal display</text>
      </g>
    </g>
  </g>
</svg>
