<?xml version="1.0" encoding="UTF-8"?>
<svg xmlns="http://www.w3.org/2000/svg" width="1140.2" height="2549.7999999999997" viewBox="-8 -27.999999999999993 1140.2 2549.7999999999997" class="mermaid">
  <style>

.mermaid {
  font-family: trebuchet ms, verdana, arial, sans-serif;
  font-size: 16px;
}

.node rect,
.node polygon,
.node circle,
.node ellipse,
.node path {
  fill: #ECECFF;
  stroke: #9370DB;
  stroke-width: 1px;
}

.node line {
  stroke: #9370DB;
  stroke-width: 1px;
}

.node .label {
  fill: #333333;
}

.node text {
  fill: #333333;
  font-family: trebuchet ms, verdana, arial, sans-serif;
  font-size: 16px;
}

.edge-path {
  fill: none;
  stroke: #333333;
  stroke-width: 1px;
}

.edge-label {
  fill: #333333;
  font-family: trebuchet ms, verdana, arial, sans-serif;
}

.edge-label-bg {
  fill: rgba(232, 232, 232, 0.8);
}

.subgraph {
  fill: #ffffde;
  stroke: #aaaa33;
  stroke-width: 1px;
}

.subgraph-title {
  fill: #333333;
  font-weight: bold;
}

.cluster rect {
  fill: #ffffde;
  stroke: #aaaa33;
  stroke-width: 1px;
  rx: 5px;
  ry: 5px;
}

.cluster-label {
  fill: #333333;
  font-family: trebuchet ms, verdana, arial, sans-serif;
  font-size: 16px;
  font-weight: bold;
}

marker path {
  fill: #333333;
  stroke: #333333;
}

  </style>
  <defs>
    <marker id="arrow_point" viewBox="0 0 10 10" refX="10" refY="5" markerWidth="8" markerHeight="8" orient="auto" markerUnits="userSpaceOnUse">
      <path d="M 0 0 L 10 5 L 0 10 z"/>
    </marker>
    <marker id="arrow_point_start" viewBox="0 0 10 10" refX="4.5" refY="5" markerWidth="8" markerHeight="8" orient="auto" markerUnits="userSpaceOnUse">
      <path d="M 0 5 L 10 10 L 10 0 z"/>
    </marker>
    <marker id="arrow_cross" viewBox="0 0 11 11" refX="12" refY="5.2" markerWidth="11" markerHeight="11" orient="auto" markerUnits="userSpaceOnUse">
      <path d="M 1 1 L 10 10 M 10 1 L 1 10" fill="none" stroke-width="2"/>
    </marker>
    <marker id="arrow_cross_start" viewBox="0 0 11 11" refX="-1" refY="5.2" markerWidth="11" markerHeight="11" orient="auto" markerUnits="userSpaceOnUse">
      <path d="M 1 1 L 10 10 M 10 1 L 1 10" stroke-width="2" fill="none"/>
    </marker>
    <marker id="arrow_circle" viewBox="0 0 10 10" refX="11" refY="5" markerWidth="11" markerHeight="11" orient="auto" markerUnits="userSpaceOnUse">
      <circle cx="5" cy="5" r="5"/>
    </marker>
    <marker id="arrow_circle_start" viewBox="0 0 10 10" refX="-1" refY="5" markerWidth="11" markerHeight="11" orient="auto" markerUnits="userSpaceOnUse">
      <circle cx="5" cy="5" r="5"/>
    </marker>
  </defs>
  <g class="root">
    <g class="clusters">
      <g class="subgraph" id="subgraph-Tick1">
        <rect x="432.19999999999993" y="-19.999999999999993" width="672.0000000000001" height="1376.7999999999997" class="cluster"/>
        <text x="768.2" y="-3.999999999999993" class="cluster-label" text-anchor="middle"> Tick 1 - Assignment Generated</text>
      </g>
      <g class="subgraph" id="subgraph-Tick2">
        <rect x="273.79999999999995" y="1411.7999999999997" width="662" height="1097" class="cluster"/>
        <text x="604.8" y="1427.7999999999997" class="cluster-label" text-anchor="middle"> Tick 2 - Deduplication Check</text>
      </g>
      <g class="subgraph" id="subgraph-Test">
        <rect x="20" y="-19.999999999999993" width="340" height="797.8" class="cluster"/>
        <text x="190" y="-3.999999999999993" class="cluster-label" text-anchor="middle"> E2E Test Coverage</text>
      </g>
    </g>
    <g class="edgePaths">
      <g class="edge" id="edge-L-T1_Start-T1_Snap-0">
        <path d="M 766.00 77.80 C 766.00 86.13, 766.00 94.47, 766.00 102.80 C 766.00 111.13, 766.00 119.47, 766.00 127.80" class="edge-path" marker-end="url(#arrow_point)" fill="none" stroke-width="1"/>
      </g>
      <g class="edge" id="edge-L-T1_Snap-T1_Eval-0">
        <path d="M 766.00 180.60 C 766.00 188.93, 766.00 197.27, 766.00 205.60 C 766.00 213.93, 766.00 222.27, 766.00 230.60" class="edge-path" marker-end="url(#arrow_point)" fill="none" stroke-width="1"/>
      </g>
      <g class="edge" id="edge-L-T1_Eval-T1_Loop-0">
        <path d="M 766.00 283.40 C 766.00 291.73, 766.00 300.07, 766.00 308.40 C 766.00 316.73, 766.00 325.07, 766.00 333.40" class="edge-path" stroke-width="1" marker-end="url(#arrow_point)" fill="none"/>
      </g>
      <g class="edge" id="edge-L-T1_Loop-T1_Task1-0">
        <path d="M 692.12 575.81 L 597.80 705.00" class="edge-path" marker-end="url(#arrow_point)" fill="none" stroke-width="1"/>
      </g>
      <g class="edge" id="edge-L-T1_Task1-T1_Assign1-0">
        <path d="M 597.80 757.80 C 597.80 766.13, 597.80 774.47, 597.80 782.80 C 597.80 791.13, 597.80 799.47, 597.80 807.80 C 597.80 824.47, 597.80 832.80, 597.80 832.80" class="edge-path" marker-end="url(#arrow_point)" fill="none" stroke-width="1"/>
      </g>
      <g class="edge" id="edge-L-T1_Assign1-T1_Effect1-0">
        <path d="M 597.80 885.60 C 597.80 897.27, 597.80 908.93, 597.80 920.60 C 597.80 932.27, 597.80 943.93, 597.80 955.60" class="edge-path" marker-end="url(#arrow_point)" fill="none" stroke-width="1"/>
      </g>
      <g class="edge" id="edge-L-T1_Loop-T1_Task2-0">
        <path d="M 839.88 575.81 L 934.20 705.00" class="edge-path" stroke-width="1" fill="none" marker-end="url(#arrow_point)"/>
      </g>
      <g class="edge" id="edge-L-T1_Task2-T1_Check-0">
        <path d="M 934.20 757.80 C 934.20 766.13, 934.20 774.47, 934.20 782.80 C 934.20 791.13, 934.20 799.47, 934.20 807.80 C 934.20 824.47, 934.20 832.80, 934.20 832.80" class="edge-path" stroke-width="1" fill="none" marker-end="url(#arrow_point)"/>
      </g>
      <g class="edge" id="edge-L-T1_Check-T1_Skip-0">
        <path d="M 934.20 885.60 C 934.20 897.27, 934.20 908.93, 934.20 920.60 C 934.20 932.27, 934.20 943.93, 934.20 955.60" class="edge-path" fill="none" marker-end="url(#arrow_point)" stroke-width="1"/>
      </g>
      <g class="edge" id="edge-L-T1_Effect1-T1_Mark-0">
        <path d="M 597.80 1008.40 C 597.80 1016.73, 597.80 1025.07, 597.80 1033.40 C 597.80 1041.73, 597.80 1050.07, 597.80 1058.40" class="edge-path" stroke-width="1" fill="none" marker-end="url(#arrow_point)"/>
      </g>
      <g class="edge" id="edge-L-T1_Mark-T1_Execute-0">
        <path d="M 597.80 1111.20 C 597.80 1119.53, 597.80 1127.87, 597.80 1136.20 C 597.80 1144.53, 597.80 1152.87, 597.80 1161.20" class="edge-path" fill="none" stroke-width="1" marker-end="url(#arrow_point)"/>
      </g>
      <g class="edge" id="edge-L-T1_Execute-T1_End-0">
        <path d="M 597.80 1214.00 C 597.80 1225.67, 597.80 1237.33, 597.80 1249.00 C 597.80 1260.67, 597.80 1272.33, 597.80 1284.00" class="edge-path" fill="none" marker-end="url(#arrow_point)" stroke-width="1"/>
      </g>
      <g class="edge" id="edge-L-T2_Start-T2_Snap-0">
        <path d="M 597.80 1546.40 C 597.80 1554.73, 597.80 1563.07, 597.80 1571.40 C 597.80 1579.73, 597.80 1588.07, 597.80 1596.40" class="edge-path" marker-end="url(#arrow_point)" stroke-width="1" fill="none"/>
      </g>
      <g class="edge" id="edge-L-T2_Snap-T2_Still-0">
        <path d="M 597.80 1649.20 C 597.80 1657.53, 597.80 1665.87, 597.80 1674.20 C 597.80 1682.53, 597.80 1690.87, 597.80 1699.20" class="edge-path" marker-end="url(#arrow_point)" stroke-width="1" fill="none"/>
      </g>
      <g class="edge" id="edge-L-T2_Still-T2_Eval-0">
        <path d="M 597.80 1788.80 C 597.80 1797.13, 597.80 1805.47, 597.80 1813.80 C 597.80 1822.13, 597.80 1830.47, 597.80 1838.80" class="edge-path" fill="none" stroke-width="1" marker-end="url(#arrow_point)"/>
      </g>
      <g class="edge" id="edge-L-T2_Eval-T2_Check-0">
        <path d="M 597.80 1891.60 C 597.80 1899.93, 597.80 1908.27, 597.80 1916.60 C 597.80 1924.93, 597.80 1933.27, 597.80 1941.60" class="edge-path" fill="none" marker-end="url(#arrow_point)" stroke-width="1"/>
      </g>
      <g class="edge" id="edge-L-T2_Check-T2_Skip-0">
        <path d="M 525.93 2186.16 L 429.80 2333.20" class="edge-path" fill="none" stroke-width="1" marker-end="url(#arrow_point)"/>
      </g>
      <g class="edge" id="edge-L-T2_Check-T2_Bug-0">
        <path d="M 669.67 2186.16 L 765.80 2333.20" class="edge-path" fill="none" stroke-width="1" marker-end="url(#arrow_point)"/>
      </g>
      <g class="edge" id="edge-L-T2_Skip-T2_End-0">
        <path d="M 429.80 2386.00 C 429.80 2394.33, 429.80 2402.67, 429.80 2411.00 C 429.80 2419.33, 429.80 2427.67, 429.80 2436.00" class="edge-path" stroke-width="1" fill="none" marker-end="url(#arrow_point)"/>
      </g>
      <g class="edge" id="edge-L-T1_End-T2_Start-0">
        <path d="M 597.80 1336.80 C 597.80 1345.13, 597.80 1353.47, 597.80 1363.47 C 597.80 1373.47, 597.80 1385.13, 597.80 1396.80 C 597.80 1408.47, 597.80 1420.13, 597.80 1430.13 C 597.80 1448.47, 597.80 1456.80, 597.80 1456.80" class="edge-path" marker-end="url(#arrow_point)" fill="none" stroke-width="2" stroke-dasharray="3,3"/>
      </g>
      <g class="edge" id="edge-L-TestSetup-TestTick1-0">
        <path d="M 190.00 77.80 C 190.00 86.13, 190.00 94.47, 190.00 102.80 C 190.00 111.13, 190.00 119.47, 190.00 127.80" class="edge-path" fill="none" marker-end="url(#arrow_point)" stroke-width="1"/>
      </g>
      <g class="edge" id="edge-L-TestTick1-TestMark-0">
        <path d="M 190.00 180.60 C 190.00 188.93, 190.00 197.27, 190.00 205.60 C 190.00 213.93, 190.00 222.27, 190.00 230.60" class="edge-path" stroke-width="1" fill="none" marker-end="url(#arrow_point)"/>
      </g>
      <g class="edge" id="edge-L-TestMark-TestTick2-0">
        <path d="M 190.00 283.40 C 190.00 291.73, 190.00 300.07, 190.00 330.80 C 190.00 361.53, 190.00 414.67, 190.00 467.80" class="edge-path" marker-end="url(#arrow_point)" stroke-width="1" fill="none"/>
      </g>
      <g class="edge" id="edge-L-TestTick2-TestAssert-0">
        <path d="M 190.00 520.60 C 190.00 573.73, 190.00 626.87, 190.00 657.60 C 190.00 688.33, 190.00 696.67, 190.00 705.00" class="edge-path" fill="none" stroke-width="1" marker-end="url(#arrow_point)"/>
      </g>
    </g>
    <g class="edgeLabels">
      <g class="edgeLabel" id="edge-label-L-T1_Check-T1_Skip-0">
        <rect x="919.4000000000001" y="909.5999999999999" width="29.599999999999998" height="22" class="edge-label-bg"/>
        <text x="934.2" y="920.5999999999999" class="edge-label" dominant-baseline="central" text-anchor="middle">YES</text>
      </g>
      <g class="edgeLabel" id="edge-label-L-T1_Execute-T1_End-0">
        <rect x="518.1999999999999" y="1238" width="159.2" height="22" class="edge-label-bg"/>
        <text x="597.8" y="1249" class="edge-label" dominant-baseline="central" text-anchor="middle">disk write pending...</text>
      </g>
      <g class="edgeLabel" id="edge-label-L-T2_Check-T2_Skip-0">
        <rect x="451.67110588349254" y="2244.4606992143576" width="29.599999999999998" height="22" class="edge-label-bg"/>
        <text x="466.47110588349256" y="2255.4606992143576" class="edge-label" text-anchor="middle" dominant-baseline="central">YES</text>
      </g>
      <g class="edgeLabel" id="edge-label-L-T2_Check-T2_Bug-0">
        <rect x="717.9288941165073" y="2244.4606992143576" width="22.4" height="22" class="edge-label-bg"/>
        <text x="729.1288941165074" y="2255.4606992143576" class="edge-label" text-anchor="middle" dominant-baseline="central">NO</text>
      </g>
      <g class="edgeLabel" id="edge-label-L-T1_End-T2_Start-0">
        <rect x="543.4" y="1385.7999999999997" width="108.8" height="22" class="edge-label-bg"/>
        <text x="597.8" y="1396.7999999999997" class="edge-label" text-anchor="middle" dominant-baseline="central">race condition</text>
      </g>
    </g>
    <g class="nodes">
      <g class="node" id="node-T1_Assign1">
        <rect x="471.4" y="832.8" width="252.79999999999998" height="52.8" style="fill:#90EE90 !important"/>
        <text x="597.8" y="859.1999999999999" class="label" text-anchor="middle" dominant-baseline="central">assigned_this_tick: Set</text>
      </g>
      <g class="node" id="node-T1_Check">
        <rect x="784.2" y="832.8" width="300" height="52.8"/>
        <text x="934.2" y="859.1999999999999" class="label" text-anchor="middle" dominant-baseline="central">assigned_this_tick: Contains coworker?</text>
      </g>
      <g class="node" id="node-T1_Effect1">
        <rect x="452.19999999999993" y="955.5999999999999" width="291.2" height="52.8"/>
        <text x="597.8" y="981.9999999999999" class="label" text-anchor="middle" dominant-baseline="central">Generate AssignAndSpawn #42</text>
      </g>
      <g class="node" id="node-T1_End">
        <rect x="509.79999999999995" y="1283.9999999999998" width="176" height="52.8"/>
        <text x="597.8" y="1310.3999999999999" class="label" dominant-baseline="central" text-anchor="middle">Tick 1 Complete</text>
      </g>
      <g class="node" id="node-T1_Eval">
        <rect x="687.6" y="230.6" width="156.8" height="52.8"/>
        <text x="766" y="257" class="label" dominant-baseline="central" text-anchor="middle">evaluate_tick</text>
      </g>
      <g class="node" id="node-T1_Execute">
        <rect x="509.79999999999995" y="1161.1999999999998" width="176" height="52.8"/>
        <text x="597.8" y="1187.6" class="label" text-anchor="middle" dominant-baseline="central">execute_effects</text>
      </g>
      <g class="node" id="node-T1_Loop">
        <polygon points="766,333.40000000000003 916,494.20000000000005 766,655 616,494.20000000000005"/>
        <text x="766" y="494.20000000000005" class="label" text-anchor="middle" dominant-baseline="central">spawn_for_pending_tasks loop</text>
      </g>
      <g class="node" id="node-T1_Mark">
        <rect x="456.99999999999994" y="1058.3999999999999" width="281.6" height="52.8"/>
        <text x="597.8" y="1084.8" class="label" text-anchor="middle" dominant-baseline="central">mark_in_flight_spawns: #42</text>
      </g>
      <g class="node" id="node-T1_Skip">
        <rect x="793.4000000000001" y="955.5999999999999" width="281.6" height="52.8" style="fill:#FFB6C1 !important"/>
        <text x="934.2" y="981.9999999999999" class="label" text-anchor="middle" dominant-baseline="central">Skip duplicate within tick</text>
      </g>
      <g class="node" id="node-T1_Snap">
        <rect x="673.2" y="127.80000000000001" width="185.6" height="52.8"/>
        <text x="766" y="154.20000000000002" class="label" text-anchor="middle" dominant-baseline="central">collect_snapshot</text>
      </g>
      <g class="node" id="node-T1_Start">
        <rect x="644.4" y="25.000000000000007" width="243.2" height="52.8"/>
        <text x="766" y="51.400000000000006" class="label" dominant-baseline="central" text-anchor="middle">TaskDispatchTick fires</text>
      </g>
      <g class="node" id="node-T1_Task1">
        <rect x="452.19999999999993" y="705" width="291.2" height="52.8"/>
        <text x="597.8" y="731.4" class="label" text-anchor="middle" dominant-baseline="central">Task #42: pending, no owner</text>
      </g>
      <g class="node" id="node-T1_Task2">
        <rect x="807.8000000000001" y="705" width="252.79999999999998" height="52.8"/>
        <text x="934.2" y="731.4" class="label" dominant-baseline="central" text-anchor="middle">Task #43: same coworker</text>
      </g>
      <g class="node" id="node-T2_Bug">
        <rect x="615.8" y="2333.1999999999994" width="300" height="52.8" style="fill:#FF6B6B !important"/>
        <text x="765.8" y="2359.5999999999995" class="label" dominant-baseline="central" text-anchor="middle">BUG: Generate duplicate effect</text>
      </g>
      <g class="node" id="node-T2_Check">
        <polygon points="597.8,1941.5999999999997 747.8,2102.3999999999996 597.8,2263.2 447.79999999999995,2102.3999999999996"/>
        <text x="597.8" y="2102.3999999999996" class="label" text-anchor="middle" dominant-baseline="central">is_task_spawn_in_flight #42?</text>
      </g>
      <g class="node" id="node-T2_End">
        <rect x="322.59999999999997" y="2435.9999999999995" width="214.4" height="52.8"/>
        <text x="429.79999999999995" y="2462.3999999999996" class="label" text-anchor="middle" dominant-baseline="central">No duplicate effect</text>
      </g>
      <g class="node" id="node-T2_Eval">
        <rect x="519.4" y="1838.7999999999995" width="156.8" height="52.8"/>
        <text x="597.8" y="1865.1999999999996" class="label" text-anchor="middle" dominant-baseline="central">evaluate_tick</text>
      </g>
      <g class="node" id="node-T2_Skip">
        <rect x="293.79999999999995" y="2333.1999999999994" width="272" height="52.8" style="fill:#90EE90 !important"/>
        <text x="429.79999999999995" y="2359.5999999999995" class="label" dominant-baseline="central" text-anchor="middle">Skip cross-tick duplicate</text>
      </g>
      <g class="node" id="node-T2_Snap">
        <rect x="504.99999999999994" y="1596.3999999999996" width="185.6" height="52.8"/>
        <text x="597.8" y="1622.7999999999997" class="label" text-anchor="middle" dominant-baseline="central">collect_snapshot</text>
      </g>
      <g class="node" id="node-T2_Start">
        <rect x="447.79999999999995" y="1456.7999999999997" width="300" height="89.6"/>
        <text x="597.8" y="1501.5999999999997" class="label" dominant-baseline="central" text-anchor="middle"><tspan x="597.8" y="1501.5999999999997" dy="-0.6em">TaskDispatchTick fires</tspan><tspan x="597.8" dy="1.2em">before Tick 1 effect completes</tspan></text>
      </g>
      <g class="node" id="node-T2_Still">
        <rect x="485.79999999999995" y="1699.1999999999996" width="224" height="89.6"/>
        <text x="597.8" y="1743.9999999999995" class="label" text-anchor="middle" dominant-baseline="central"><tspan x="597.8" y="1743.9999999999995" dy="-0.6em">Task #42 still shows</tspan><tspan x="597.8" dy="1.2em">pending on disk</tspan></text>
      </g>
      <g class="node" id="node-TestAssert">
        <rect x="40" y="705" width="300" height="52.8" style="fill:#87CEEB !important"/>
        <text x="190" y="731.4" class="label" dominant-baseline="central" text-anchor="middle">Assert: is_task_spawn_in_flight returns true</text>
      </g>
      <g class="node" id="node-TestMark">
        <rect x="40" y="230.6" width="300" height="52.8"/>
        <text x="190" y="257" class="label" dominant-baseline="central" text-anchor="middle">Verify in_flight_spawns has #42</text>
      </g>
      <g class="node" id="node-TestSetup">
        <rect x="63.60000000000001" y="25.000000000000007" width="252.79999999999998" height="52.8"/>
        <text x="190" y="51.400000000000006" class="label" dominant-baseline="central" text-anchor="middle">Setup: Task #42 pending</text>
      </g>
      <g class="node" id="node-TestTick1">
        <rect x="54" y="127.80000000000001" width="272" height="52.8"/>
        <text x="190" y="154.20000000000002" class="label" text-anchor="middle" dominant-baseline="central">Simulate Tick 1 iteration</text>
      </g>
      <g class="node" id="node-TestTick2">
        <rect x="54" y="467.80000000000007" width="272" height="52.8"/>
        <text x="190" y="494.20000000000005" class="label" dominant-baseline="central" text-anchor="middle">Simulate Tick 2 iteration</text>
      </g>
    </g>
  </g>
</svg>
