<?xml version="1.0" encoding="UTF-8"?>
<svg xmlns="http://www.w3.org/2000/svg" width="588" height="636" viewBox="0 0 588 636" class="mermaid">
  <style>

.mermaid {
  font-family: trebuchet ms, verdana, arial, sans-serif;
  font-size: 16px;
}

.node rect,
.node polygon,
.node circle,
.node ellipse,
.node path {
  fill: #ECECFF;
  stroke: #9370DB;
  stroke-width: 1px;
}

.node line {
  stroke: #9370DB;
  stroke-width: 1px;
}

.node .label {
  fill: #333333;
}

.node text {
  fill: #333333;
  font-family: trebuchet ms, verdana, arial, sans-serif;
  font-size: 16px;
}

.edge-path {
  fill: none;
  stroke: #333333;
  stroke-width: 1px;
}

.edge-label {
  fill: #333333;
  font-family: trebuchet ms, verdana, arial, sans-serif;
}

.edge-label-bg {
  fill: rgba(232, 232, 232, 0.8);
}

.subgraph {
  fill: #ffffde;
  stroke: #aaaa33;
  stroke-width: 1px;
}

.subgraph-title {
  fill: #333333;
  font-weight: bold;
}

.cluster rect {
  fill: #ffffde;
  stroke: #aaaa33;
  stroke-width: 1px;
  rx: 5px;
  ry: 5px;
}

.cluster-label {
  fill: #333333;
  font-family: trebuchet ms, verdana, arial, sans-serif;
  font-size: 16px;
  font-weight: bold;
}

marker path {
  fill: #333333;
  stroke: #333333;
}


.class-box {
  stroke: #333333;
}

.class-box-bg {
  fill: #ECECFF;
}

.class-divider {
  stroke: #333333;
}

.class-name {
  fill: #333333;
  font-weight: bold;
}

.class-annotation {
  fill: #666666;
  font-style: italic;
}

.class-member {
  fill: #333333;
}

.class-method {
  fill: #333333;
}

.relation-line {
  stroke: #333333;
}

.relation-label {
  fill: #333333;
}

.note-box {
  fill: #FFFFCC;
  stroke: #333333;
}

.note-text {
  fill: #333333;
}

  </style>
  <defs>
    <marker id="aggregation-start" viewBox="0 0 20 14" refX="18" refY="7" markerWidth="18" markerHeight="14" orient="auto">
      <path d="M 18 7 L 9 13 L 1 7 L 9 1 Z" fill="none" stroke="#333333" stroke-width="1"/>
    </marker>
    <marker id="aggregation-end" viewBox="0 0 20 14" refX="1" refY="7" markerWidth="18" markerHeight="14" orient="auto">
      <path d="M 18 7 L 9 13 L 1 7 L 9 1 Z" fill="none" stroke="#333333" stroke-width="1"/>
    </marker>
    <marker id="inheritance-start" viewBox="0 0 20 14" refX="1" refY="7" markerWidth="20" markerHeight="28" orient="auto">
      <path d="M 1 7 L 18 13 V 1 Z" stroke-width="1" stroke="#333333" fill="#ECECFF"/>
    </marker>
    <marker id="inheritance-end" viewBox="0 0 20 14" refX="18" refY="7" markerWidth="20" markerHeight="28" orient="auto">
      <path d="M 18 7 L 1 13 V 1 Z" stroke-width="1" fill="#ECECFF" stroke="#333333"/>
    </marker>
    <marker id="composition-start" viewBox="0 0 20 14" refX="18" refY="7" markerWidth="18" markerHeight="14" orient="auto">
      <path d="M 18 7 L 9 13 L 1 7 L 9 1 Z" fill="#333333" stroke="#333333" stroke-width="1"/>
    </marker>
    <marker id="composition-end" viewBox="0 0 20 14" refX="1" refY="7" markerWidth="18" markerHeight="14" orient="auto">
      <path d="M 18 7 L 9 13 L 1 7 L 9 1 Z" fill="#333333" stroke="#333333" stroke-width="1"/>
    </marker>
    <marker id="dependency-start" viewBox="0 0 20 20" refX="0" refY="10" markerWidth="10" markerHeight="10" orient="auto">
      <path d="M 0 10 L 20 0 L 20 20 Z" stroke="#333333" stroke-width="1" fill="none"/>
    </marker>
    <marker id="dependency-end" viewBox="0 0 20 20" refX="20" refY="10" markerWidth="10" markerHeight="10" orient="auto">
      <path d="M 20 10 L 0 0 L 0 20 Z" stroke="#333333" fill="none" stroke-width="1"/>
    </marker>
    <marker id="lollipop-start" viewBox="0 0 20 20" refX="13" refY="10" markerWidth="14" markerHeight="14" orient="auto">
      <circle cx="10" cy="10" r="8" stroke="#333333" stroke-width="1" fill="#FFFFFF"/>
    </marker>
    <marker id="lollipop-end" viewBox="0 0 20 20" refX="1" refY="10" markerWidth="14" markerHeight="14" orient="auto">
      <circle cx="10" cy="10" r="8" stroke="#333333" stroke-width="1" fill="#FFFFFF"/>
    </marker>
  </defs>
  <g class="root">
    <g class="clusters">

    </g>
    <g class="edgePaths">
      <path d="M 234.00 96.00 C 184.40 141.33, 134.80 186.67, 110.00 216.00 C 85.20 245.33, 85.20 258.67, 85.20 272.00" class="relation relation-line" stroke="#333333" fill="none" marker-start="url(#inheritance-start)" stroke-width="1"/>
      <path d="M 308.40 192.00 C 308.40 205.33, 308.40 218.67, 308.40 234.00 C 308.40 249.33, 308.40 266.67, 308.40 284.00" class="relation relation-line" marker-start="url(#inheritance-start)" fill="none" stroke-width="1" stroke="#333333"/>
      <path d="M 382.80 96.00 C 427.60 141.33, 472.40 186.67, 494.80 218.00 C 517.20 249.33, 517.20 266.67, 517.20 284.00" class="relation relation-line" stroke-width="1" fill="none" stroke="#333333" marker-start="url(#inheritance-start)"/>
      <path d="M 85.20 440.00 C 85.20 456.67, 85.20 473.33, 85.20 490.00 C 85.20 506.67, 85.20 523.33, 85.20 540.00" class="relation relation-line" stroke="#333333" fill="none" stroke-width="1" marker-start="url(#composition-start)"/>
    </g>
    <g class="edgeLabels">
      <text x="73.20000000000005" y="460" class="cardinality-label" font-size="11" text-anchor="middle">1</text>
      <text x="73.20000000000005" y="520" class="cardinality-label" font-size="11" text-anchor="middle">many</text>
      <text x="85.20000000000005" y="490" class="relation-label" font-size="11" text-anchor="middle" dominant-baseline="central">has</text>
    </g>
    <g class="nodes">
      <g class="class-node" id="class-Duck">
        <path d="M 3.000000000000057 272 H 167.40000000000003 A 3 3 0 0 1 170.40000000000003 275 V 437 A 3 3 0 0 1 167.40000000000003 440 H 3.000000000000057 A 3 3 0 0 1 0.00000000000005684341886080802 437 V 275 A 3 3 0 0 1 3.000000000000057 272 Z" class="class-box-bg" fill="#ECECFF" stroke="none"/>
        <path d="M 3.000000000000057 272 H 167.40000000000003 A 3 3 0 0 1 170.40000000000003 275 V 437 A 3 3 0 0 1 167.40000000000003 440 H 3.000000000000057 A 3 3 0 0 1 0.00000000000005684341886080802 437 V 275 A 3 3 0 0 1 3.000000000000057 272 Z" class="class-box" stroke="#333333" stroke-width="1" fill="none"/>
        <path d="M 0.00000000000005684341886080802 320 L 170.40000000000003 320" class="class-divider" stroke="#333333" stroke-width="1"/>
        <path d="M 0.00000000000005684341886080802 368 L 170.40000000000003 368" class="class-divider" stroke="#333333" stroke-width="1"/>
        <text x="85.20000000000005" y="296" text-anchor="middle" font-size="16" font-weight="bold" dominant-baseline="middle">Duck</text>
        <text x="24.000000000000057" y="332" text-anchor="start" dominant-baseline="middle" font-size="16">+String beakColor</text>
        <text x="24.000000000000057" y="380" font-size="16" text-anchor="start" dominant-baseline="middle">+swim()</text>
        <text x="24.000000000000057" y="404" text-anchor="start" dominant-baseline="middle" font-size="16">+quack()</text>
      </g>
      <g class="class-node" id="class-Fish">
        <path d="M 233.40000000000003 284 H 383.40000000000003 A 3 3 0 0 1 386.40000000000003 287 V 425 A 3 3 0 0 1 383.40000000000003 428 H 233.40000000000003 A 3 3 0 0 1 230.40000000000003 425 V 287 A 3 3 0 0 1 233.40000000000003 284 Z" class="class-box-bg" stroke="none" fill="#ECECFF"/>
        <path d="M 233.40000000000003 284 H 383.40000000000003 A 3 3 0 0 1 386.40000000000003 287 V 425 A 3 3 0 0 1 383.40000000000003 428 H 233.40000000000003 A 3 3 0 0 1 230.40000000000003 425 V 287 A 3 3 0 0 1 233.40000000000003 284 Z" class="class-box" fill="none" stroke-width="1" stroke="#333333"/>
        <path d="M 230.40000000000003 332 L 386.40000000000003 332" class="class-divider" stroke-width="1" stroke="#333333"/>
        <path d="M 230.40000000000003 380 L 386.40000000000003 380" class="class-divider" stroke-width="1" stroke="#333333"/>
        <text x="308.40000000000003" y="308" text-anchor="middle" font-weight="bold" dominant-baseline="middle" font-size="16">Fish</text>
        <text x="254.40000000000003" y="344" text-anchor="start" dominant-baseline="middle" font-size="16">-int sizeInFeet</text>
        <text x="254.40000000000003" y="392" dominant-baseline="middle" font-size="16" text-anchor="start">-canEat()</text>
      </g>
      <g class="class-node" id="class-Zebra">
        <path d="M 449.40000000000003 284 H 585 A 3 3 0 0 1 588 287 V 425 A 3 3 0 0 1 585 428 H 449.40000000000003 A 3 3 0 0 1 446.40000000000003 425 V 287 A 3 3 0 0 1 449.40000000000003 284 Z" class="class-box-bg" stroke="none" fill="#ECECFF"/>
        <path d="M 449.40000000000003 284 H 585 A 3 3 0 0 1 588 287 V 425 A 3 3 0 0 1 585 428 H 449.40000000000003 A 3 3 0 0 1 446.40000000000003 425 V 287 A 3 3 0 0 1 449.40000000000003 284 Z" class="class-box" stroke="#333333" stroke-width="1" fill="none"/>
        <path d="M 446.40000000000003 332 L 588 332" class="class-divider" stroke-width="1" stroke="#333333"/>
        <path d="M 446.40000000000003 380 L 588 380" class="class-divider" stroke="#333333" stroke-width="1"/>
        <text x="517.2" y="308" dominant-baseline="middle" font-size="16" font-weight="bold" text-anchor="middle">Zebra</text>
        <text x="470.40000000000003" y="344" text-anchor="start" dominant-baseline="middle" font-size="16">+bool is_wild</text>
        <text x="470.40000000000003" y="392" dominant-baseline="middle" font-size="16" text-anchor="start">+run()</text>
      </g>
      <g class="class-node" id="class-Animal">
        <path d="M 237.00000000000003 0 H 379.80000000000007 A 3 3 0 0 1 382.80000000000007 3 V 189 A 3 3 0 0 1 379.80000000000007 192 H 237.00000000000003 A 3 3 0 0 1 234.00000000000003 189 V 3 A 3 3 0 0 1 237.00000000000003 0 Z" class="class-box-bg" stroke="none" fill="#ECECFF"/>
        <path d="M 237.00000000000003 0 H 379.80000000000007 A 3 3 0 0 1 382.80000000000007 3 V 189 A 3 3 0 0 1 379.80000000000007 192 H 237.00000000000003 A 3 3 0 0 1 234.00000000000003 189 V 3 A 3 3 0 0 1 237.00000000000003 0 Z" class="class-box" stroke-width="1" fill="none" stroke="#333333"/>
        <path d="M 234.00000000000003 48 L 382.80000000000007 48" class="class-divider" stroke="#333333" stroke-width="1"/>
        <path d="M 234.00000000000003 120 L 382.80000000000007 120" class="class-divider" stroke-width="1" stroke="#333333"/>
        <text x="308.40000000000003" y="24" text-anchor="middle" font-weight="bold" font-size="16" dominant-baseline="middle">Animal</text>
        <text x="258" y="60" text-anchor="start" dominant-baseline="middle" font-size="16">+int age</text>
        <text x="258" y="84" font-size="16" dominant-baseline="middle" text-anchor="start">+String gender</text>
        <text x="258" y="132" dominant-baseline="middle" font-size="16" text-anchor="start">+isMammal()</text>
        <text x="258" y="156" text-anchor="start" dominant-baseline="middle" font-size="16">+mate()</text>
      </g>
      <g class="class-node" id="class-Egg">
        <path d="M 38.200000000000045 540 H 132.20000000000005 A 3 3 0 0 1 135.20000000000005 543 V 633 A 3 3 0 0 1 132.20000000000005 636 H 38.200000000000045 A 3 3 0 0 1 35.200000000000045 633 V 543 A 3 3 0 0 1 38.200000000000045 540 Z" class="class-box-bg" stroke="none" fill="#ECECFF"/>
        <path d="M 38.200000000000045 540 H 132.20000000000005 A 3 3 0 0 1 135.20000000000005 543 V 633 A 3 3 0 0 1 132.20000000000005 636 H 38.200000000000045 A 3 3 0 0 1 35.200000000000045 633 V 543 A 3 3 0 0 1 38.200000000000045 540 Z" class="class-box" stroke="#333333" stroke-width="1" fill="none"/>
        <path d="M 35.200000000000045 588 L 135.20000000000005 588" class="class-divider" stroke-width="1" stroke="#333333"/>
        <path d="M 35.200000000000045 636 L 135.20000000000005 636" class="class-divider" stroke="#333333" stroke-width="1"/>
        <text x="85.20000000000005" y="564" font-weight="bold" text-anchor="middle" font-size="16" dominant-baseline="middle">Egg</text>
      </g>
    </g>
  </g>
</svg>
