<?xml version="1.0" encoding="UTF-8"?>
<svg xmlns="http://www.w3.org/2000/svg" width="1042.1000000000001" height="2033.5" viewBox="0 0 1042.1000000000001 2033.5" class="mermaid">
  <style>

.mermaid {
  font-family: trebuchet ms, verdana, arial, sans-serif;
  font-size: 16px;
}

.node rect,
.node polygon,
.node circle,
.node ellipse,
.node path {
  fill: #ECECFF;
  stroke: #9370DB;
  stroke-width: 1px;
}

.node line {
  stroke: #9370DB;
  stroke-width: 1px;
}

.node .label {
  fill: #333333;
}

.node text {
  fill: #333333;
  font-family: trebuchet ms, verdana, arial, sans-serif;
  font-size: 16px;
}

.edge-path {
  fill: none;
  stroke: #333333;
  stroke-width: 1px;
}

.edge-label {
  fill: #333333;
  font-family: trebuchet ms, verdana, arial, sans-serif;
}

.edge-label-bg {
  fill: rgba(232, 232, 232, 0.8);
}

.subgraph {
  fill: #ffffde;
  stroke: #aaaa33;
  stroke-width: 1px;
}

.subgraph-title {
  fill: #333333;
  font-weight: bold;
}

.cluster rect {
  fill: #ffffde;
  stroke: #aaaa33;
  stroke-width: 1px;
  rx: 5px;
  ry: 5px;
}

.cluster-label {
  fill: #333333;
  font-family: trebuchet ms, verdana, arial, sans-serif;
  font-size: 16px;
  font-weight: bold;
}

marker path {
  fill: #333333;
  stroke: #333333;
}


.er-title {
  fill: #333333;
}

.entity-box {
  fill: #ECECFF;
  stroke: #9370DB;
}

.entity-header {
  fill: #9370DB;
  stroke: #9370DB;
}

.entity-name {
  fill: #333333;
  font-weight: bold;
}

.entity-attr {
  fill: #333333;
}

.relationshipLine {
  stroke: #333333;
  stroke-width: 1;
  fill: none;
}

.relationship-label {
  fill: #9370DB;
  font-size: 14px;
}

.relationship-label-background {
  fill: #f9ffec;
  opacity: 0.7;
}

.marker {
  fill: none;
  stroke: #333333;
  stroke-width: 1;
}

.marker circle {
  fill: white;
}

.row-rect-odd {
  fill: white;
}

.row-rect-even {
  fill: #ECECFF;
}

.divider {
  stroke: #9370DB;
}

  </style>
  <defs>
    <marker id="er-onlyOneStart" viewBox="0 0 18 18" refX="0" refY="9" markerWidth="18" markerHeight="18" orient="auto">
      <path d="M9,0 L9,18 M15,0 L15,18" class="marker"/>
    </marker>
    <marker id="er-onlyOneEnd" viewBox="0 0 18 18" refX="18" refY="9" markerWidth="18" markerHeight="18" orient="auto">
      <path d="M3,0 L3,18 M9,0 L9,18" class="marker"/>
    </marker>
    <marker id="er-zeroOrOneStart" viewBox="0 0 30 18" refX="0" refY="9" markerWidth="30" markerHeight="18" orient="auto">
      <circle cx="21" cy="9" r="6" class="marker" fill="white"/>
      <path d="M9,0 L9,18" class="marker"/>
    </marker>
    <marker id="er-zeroOrOneEnd" viewBox="0 0 30 18" refX="30" refY="9" markerWidth="30" markerHeight="18" orient="auto">
      <circle cx="9" cy="9" r="6" class="marker" fill="white"/>
      <path d="M21,0 L21,18" class="marker"/>
    </marker>
    <marker id="er-oneOrMoreStart" viewBox="0 0 45 36" refX="18" refY="18" markerWidth="45" markerHeight="36" orient="auto">
      <path d="M0,18 Q 18,0 36,18 Q 18,36 0,18 M42,9 L42,27" class="marker"/>
    </marker>
    <marker id="er-oneOrMoreEnd" viewBox="0 0 45 36" refX="27" refY="18" markerWidth="45" markerHeight="36" orient="auto">
      <path d="M3,9 L3,27 M9,18 Q27,0 45,18 Q27,36 9,18" class="marker"/>
    </marker>
    <marker id="er-zeroOrMoreStart" viewBox="0 0 57 36" refX="18" refY="18" markerWidth="57" markerHeight="36" orient="auto">
      <circle cx="48" cy="18" r="6" class="marker" fill="white"/>
      <path d="M0,18 Q18,0 36,18 Q18,36 0,18" class="marker"/>
    </marker>
    <marker id="er-zeroOrMoreEnd" viewBox="0 0 57 36" refX="39" refY="18" markerWidth="57" markerHeight="36" orient="auto">
      <circle cx="9" cy="18" r="6" class="marker" fill="white"/>
      <path d="M21,18 Q39,0 57,18 Q39,36 21,18" class="marker"/>
    </marker>
  </defs>
  <g class="root">
    <g class="clusters">

    </g>
    <g class="edgePaths">

    </g>
    <g class="edgeLabels">

    </g>
    <g class="nodes">

    </g>
    <g class="relationship">
      <path d="M 372.50 315.25 C 362.70 331.92, 352.90 348.58, 351.00 365.25 C 349.10 381.92, 355.09 398.58, 361.09 415.25" class="relationshipLine" marker-start="url(#er-onlyOneStart)" marker-end="url(#er-zeroOrMoreEnd)"/>
      <rect x="319.33359448512465" y="351.15233370209666" width="50" height="23" rx="0" ry="0" class="relationship-label-background"/>
      <text x="344.33359448512465" y="367.15233370209666" class="relationship-label" font-size="14" text-anchor="middle">places</text>
    </g>
    <g class="relationship">
      <path d="M 232.10 672.17 C 191.73 708.28, 151.37 744.39, 138.85 781.47 C 126.33 818.54, 141.67 856.58, 157.00 894.62" class="relationshipLine" marker-end="url(#er-oneOrMoreEnd)" marker-start="url(#er-onlyOneStart)"/>
      <rect x="93.69617221155804" y="755.3535426306561" width="64" height="23" rx="0" ry="0" class="relationship-label-background"/>
      <text x="125.69617221155804" y="771.3535426306561" class="relationship-label" font-size="14" text-anchor="middle">contains</text>
    </g>
    <g class="relationship">
      <path d="M 111.00 1167.12 C 111.00 1205.17, 111.00 1243.21, 111.00 1270.56 C 111.00 1297.92, 111.00 1314.58, 111.00 1331.25" class="relationshipLine" marker-start="url(#er-oneOrMoreStart)" marker-end="url(#er-onlyOneEnd)"/>
      <rect x="72" y="1237.1875" width="78" height="23" rx="0" ry="0" class="relationship-label-background"/>
      <text x="111" y="1253.1875" class="relationship-label" font-size="14" text-anchor="middle">references</text>
    </g>
    <g class="relationship">
      <path d="M 111.00 1689.25 L 151.15 1789.25" class="relationshipLine" marker-end="url(#er-zeroOrMoreEnd)" marker-start="url(#er-onlyOneStart)"/>
      <rect x="76.42074083047767" y="1732.7559335415772" width="78" height="23" rx="0" ry="0" class="relationship-label-background"/>
      <text x="115.42074083047767" y="1748.7559335415772" class="relationship-label" font-size="14" text-anchor="middle">belongs_to</text>
    </g>
    <g class="relationship">
      <path d="M 465.20 1625.12 C 465.20 1663.17, 465.20 1701.21, 436.18 1740.58 C 407.17 1779.96, 349.13 1820.67, 291.10 1861.38" class="relationshipLine" marker-start="url(#er-onlyOneStart)" marker-end="url(#er-zeroOrMoreEnd)"/>
      <rect x="392.8652540233294" y="1755.543399496846" width="64" height="23" rx="0" ry="0" class="relationship-label-background"/>
      <text x="424.8652540233294" y="1771.543399496846" class="relationship-label" font-size="14" text-anchor="middle">contains</text>
    </g>
    <g class="relationship">
      <path d="M 572.30 214.28 C 667.43 264.60, 762.57 314.93, 810.13 409.30 C 857.70 503.67, 857.70 642.08, 810.13 741.63 C 667.43 901.87, 572.30 962.56, 572.30 962.56" class="relationshipLine" marker-end="url(#er-zeroOrMoreEnd)" marker-start="url(#er-onlyOneStart)"/>
      <rect x="843.2" y="568.7010105890027" width="29" height="23" rx="0" ry="0" class="relationship-label-background"/>
      <text x="857.7" y="584.7010105890027" class="relationship-label" font-size="14" text-anchor="middle">has</text>
    </g>
    <g class="relationship">
      <path d="M 353.80 730.50 L 390.89 830.50" class="relationshipLine" marker-end="url(#er-onlyOneEnd)" marker-start="url(#er-onlyOneStart)"/>
      <rect x="328.0430874098155" y="772.7194893425078" width="64" height="23" rx="0" ry="0" class="relationship-label-background"/>
      <text x="360.0430874098155" y="788.7194893425078" class="relationship-label" text-anchor="middle" font-size="14">ships_to</text>
    </g>
    <g class="relationship">
      <path d="M 454.10 634.15 C 542.47 682.93, 630.83 731.72, 673.87 777.48 C 716.90 823.23, 714.60 865.97, 712.30 908.70" class="relationshipLine" marker-start="url(#er-onlyOneStart)" marker-end="url(#er-zeroOrOneEnd)"/>
      <rect x="614.3481354970055" y="726.3501572256469" width="57" height="23" rx="0" ry="0" class="relationship-label-background"/>
      <text x="642.8481354970055" y="742.3501572256469" class="relationship-label" text-anchor="middle" font-size="14">paid_by</text>
    </g>
    <g class="entity-node" id="entity-ADDRESS-6">
      <rect x="358.1" y="830.5" width="214.20000000000002" height="400.75" rx="0" ry="0" class="entity-box" stroke-width="1.3"/>
      <rect x="358.1" y="873.25" width="214.20000000000002" height="42.75" rx="0" ry="0" class="row-rect-odd" stroke-width="1.3"/>
      <rect x="358.1" y="916" width="214.20000000000002" height="42.75" rx="0" ry="0" class="row-rect-even" stroke-width="1.3"/>
      <rect x="358.1" y="958.75" width="214.20000000000002" height="42.75" rx="0" ry="0" class="row-rect-odd" stroke-width="1.3"/>
      <rect x="358.1" y="1001.5" width="214.20000000000002" height="42.75" rx="0" ry="0" class="row-rect-even" stroke-width="1.3"/>
      <rect x="358.1" y="1044.25" width="214.20000000000002" height="42.75" rx="0" ry="0" class="row-rect-odd" stroke-width="1.3"/>
      <rect x="358.1" y="1087" width="214.20000000000002" height="42.75" rx="0" ry="0" class="row-rect-even" stroke-width="1.3"/>
      <rect x="358.1" y="1129.75" width="214.20000000000002" height="42.75" rx="0" ry="0" class="row-rect-odd" stroke-width="1.3"/>
      <rect x="358.1" y="1172.5" width="214.20000000000002" height="42.75" rx="0" ry="0" class="row-rect-even" stroke-width="1.3"/>
      <line x1="358.1" y1="873.25" x2="572.3000000000001" y2="873.25" class="divider" stroke-width="1.3"/>
      <line x1="426.90000000000003" y1="873.25" x2="426.90000000000003" y2="1231.25" class="divider" stroke-width="1.3"/>
      <line x1="534.7" y1="873.25" x2="534.7" y2="1231.25" class="divider" stroke-width="1.3"/>
      <text x="465.20000000000005" y="856.875" class="entity-name" font-size="14" text-anchor="middle">ADDRESS</text>
      <text x="370.1" y="898.625" class="entity-attr attribute-type" text-anchor="start" font-size="12">uuid</text>
      <text x="438.90000000000003" y="898.625" class="entity-attr attribute-name" font-size="12" text-anchor="start">id</text>
      <text x="546.7" y="898.625" class="entity-attr attribute-key" text-anchor="start" font-size="12">PK</text>
      <text x="370.1" y="941.375" class="entity-attr attribute-type" text-anchor="start" font-size="12">uuid</text>
      <text x="438.90000000000003" y="941.375" class="entity-attr attribute-name" font-size="12" text-anchor="start">customer_id</text>
      <text x="546.7" y="941.375" class="entity-attr attribute-key" font-size="12" text-anchor="start">FK</text>
      <text x="370.1" y="984.125" class="entity-attr attribute-type" text-anchor="start" font-size="12">string</text>
      <text x="438.90000000000003" y="984.125" class="entity-attr attribute-name" text-anchor="start" font-size="12">type</text>
      <text x="370.1" y="1026.875" class="entity-attr attribute-type" text-anchor="start" font-size="12">string</text>
      <text x="438.90000000000003" y="1026.875" class="entity-attr attribute-name" text-anchor="start" font-size="12">street</text>
      <text x="370.1" y="1069.625" class="entity-attr attribute-type" text-anchor="start" font-size="12">string</text>
      <text x="438.90000000000003" y="1069.625" class="entity-attr attribute-name" text-anchor="start" font-size="12">city</text>
      <text x="370.1" y="1112.375" class="entity-attr attribute-type" text-anchor="start" font-size="12">string</text>
      <text x="438.90000000000003" y="1112.375" class="entity-attr attribute-name" font-size="12" text-anchor="start">state</text>
      <text x="370.1" y="1155.125" class="entity-attr attribute-type" text-anchor="start" font-size="12">string</text>
      <text x="438.90000000000003" y="1155.125" class="entity-attr attribute-name" text-anchor="start" font-size="12">zip</text>
      <text x="370.1" y="1197.875" class="entity-attr attribute-type" font-size="12" text-anchor="start">string</text>
      <text x="438.90000000000003" y="1197.875" class="entity-attr attribute-name" font-size="12" text-anchor="start">country</text>
    </g>
    <g class="entity-node" id="entity-CATEGORY-5">
      <rect x="362" y="1395.375" width="206.4" height="229.75" rx="0" ry="0" class="entity-box" stroke-width="1.3"/>
      <rect x="362" y="1438.125" width="206.4" height="42.75" rx="0" ry="0" class="row-rect-odd" stroke-width="1.3"/>
      <rect x="362" y="1480.875" width="206.4" height="42.75" rx="0" ry="0" class="row-rect-even" stroke-width="1.3"/>
      <rect x="362" y="1523.625" width="206.4" height="42.75" rx="0" ry="0" class="row-rect-odd" stroke-width="1.3"/>
      <rect x="362" y="1566.375" width="206.4" height="42.75" rx="0" ry="0" class="row-rect-even" stroke-width="1.3"/>
      <line x1="362" y1="1438.125" x2="568.4" y2="1438.125" class="divider" stroke-width="1.3"/>
      <line x1="430.8" y1="1438.125" x2="430.8" y2="1625.125" class="divider" stroke-width="1.3"/>
      <line x1="530.8" y1="1438.125" x2="530.8" y2="1625.125" class="divider" stroke-width="1.3"/>
      <text x="465.2" y="1421.75" class="entity-name" text-anchor="middle" font-size="14">CATEGORY</text>
      <text x="374" y="1463.5" class="entity-attr attribute-type" text-anchor="start" font-size="12">uuid</text>
      <text x="442.8" y="1463.5" class="entity-attr attribute-name" text-anchor="start" font-size="12">id</text>
      <text x="542.8" y="1463.5" class="entity-attr attribute-key" text-anchor="start" font-size="12">PK</text>
      <text x="374" y="1506.25" class="entity-attr attribute-type" text-anchor="start" font-size="12">string</text>
      <text x="442.8" y="1506.25" class="entity-attr attribute-name" text-anchor="start" font-size="12">name</text>
      <text x="542.8" y="1506.25" class="entity-attr attribute-key" font-size="12" text-anchor="start">UK</text>
      <text x="374" y="1549" class="entity-attr attribute-type" text-anchor="start" font-size="12">uuid</text>
      <text x="442.8" y="1549" class="entity-attr attribute-name" text-anchor="start" font-size="12">parent_id</text>
      <text x="542.8" y="1549" class="entity-attr attribute-key" font-size="12" text-anchor="start">FK</text>
      <text x="374" y="1591.75" class="entity-attr attribute-type" font-size="12" text-anchor="start">int</text>
      <text x="442.8" y="1591.75" class="entity-attr attribute-name" text-anchor="start" font-size="12">sort_order</text>
    </g>
    <g class="entity-node" id="entity-CUSTOMER-0">
      <rect x="358.1" y="0" width="214.20000000000002" height="315.25" rx="0" ry="0" class="entity-box" stroke-width="1.3"/>
      <rect x="358.1" y="42.75" width="214.20000000000002" height="42.75" rx="0" ry="0" class="row-rect-odd" stroke-width="1.3"/>
      <rect x="358.1" y="85.5" width="214.20000000000002" height="42.75" rx="0" ry="0" class="row-rect-even" stroke-width="1.3"/>
      <rect x="358.1" y="128.25" width="214.20000000000002" height="42.75" rx="0" ry="0" class="row-rect-odd" stroke-width="1.3"/>
      <rect x="358.1" y="171" width="214.20000000000002" height="42.75" rx="0" ry="0" class="row-rect-even" stroke-width="1.3"/>
      <rect x="358.1" y="213.75" width="214.20000000000002" height="42.75" rx="0" ry="0" class="row-rect-odd" stroke-width="1.3"/>
      <rect x="358.1" y="256.5" width="214.20000000000002" height="42.75" rx="0" ry="0" class="row-rect-even" stroke-width="1.3"/>
      <line x1="358.1" y1="42.75" x2="572.3000000000001" y2="42.75" class="divider" stroke-width="1.3"/>
      <line x1="434.70000000000005" y1="42.75" x2="434.70000000000005" y2="315.25" class="divider" stroke-width="1.3"/>
      <line x1="534.7" y1="42.75" x2="534.7" y2="315.25" class="divider" stroke-width="1.3"/>
      <text x="465.20000000000005" y="26.375" class="entity-name" text-anchor="middle" font-size="14">CUSTOMER</text>
      <text x="370.1" y="68.125" class="entity-attr attribute-type" font-size="12" text-anchor="start">uuid</text>
      <text x="446.70000000000005" y="68.125" class="entity-attr attribute-name" font-size="12" text-anchor="start">id</text>
      <text x="546.7" y="68.125" class="entity-attr attribute-key" font-size="12" text-anchor="start">PK</text>
      <text x="370.1" y="110.875" class="entity-attr attribute-type" text-anchor="start" font-size="12">string</text>
      <text x="446.70000000000005" y="110.875" class="entity-attr attribute-name" text-anchor="start" font-size="12">email</text>
      <text x="546.7" y="110.875" class="entity-attr attribute-key" text-anchor="start" font-size="12">UK</text>
      <text x="370.1" y="153.625" class="entity-attr attribute-type" font-size="12" text-anchor="start">string</text>
      <text x="446.70000000000005" y="153.625" class="entity-attr attribute-name" font-size="12" text-anchor="start">name</text>
      <text x="370.1" y="196.375" class="entity-attr attribute-type" text-anchor="start" font-size="12">string</text>
      <text x="446.70000000000005" y="196.375" class="entity-attr attribute-name" font-size="12" text-anchor="start">phone</text>
      <text x="370.1" y="239.125" class="entity-attr attribute-type" font-size="12" text-anchor="start">date</text>
      <text x="446.70000000000005" y="239.125" class="entity-attr attribute-name" font-size="12" text-anchor="start">created_at</text>
      <text x="370.1" y="281.875" class="entity-attr attribute-type" font-size="12" text-anchor="start">boolean</text>
      <text x="446.70000000000005" y="281.875" class="entity-attr attribute-name" font-size="12" text-anchor="start">active</text>
    </g>
    <g class="entity-node" id="entity-ORDER-1">
      <rect x="232.10000000000002" y="415.25" width="222.00000000000003" height="315.25" rx="0" ry="0" class="entity-box" stroke-width="1.3"/>
      <rect x="232.10000000000002" y="458" width="222.00000000000003" height="42.75" rx="0" ry="0" class="row-rect-odd" stroke-width="1.3"/>
      <rect x="232.10000000000002" y="500.75" width="222.00000000000003" height="42.75" rx="0" ry="0" class="row-rect-even" stroke-width="1.3"/>
      <rect x="232.10000000000002" y="543.5" width="222.00000000000003" height="42.75" rx="0" ry="0" class="row-rect-odd" stroke-width="1.3"/>
      <rect x="232.10000000000002" y="586.25" width="222.00000000000003" height="42.75" rx="0" ry="0" class="row-rect-even" stroke-width="1.3"/>
      <rect x="232.10000000000002" y="629" width="222.00000000000003" height="42.75" rx="0" ry="0" class="row-rect-odd" stroke-width="1.3"/>
      <rect x="232.10000000000002" y="671.75" width="222.00000000000003" height="42.75" rx="0" ry="0" class="row-rect-even" stroke-width="1.3"/>
      <line x1="232.10000000000002" y1="458" x2="454.1" y2="458" class="divider" stroke-width="1.3"/>
      <line x1="308.70000000000005" y1="458" x2="308.70000000000005" y2="730.5" class="divider" stroke-width="1.3"/>
      <line x1="416.50000000000006" y1="458" x2="416.50000000000006" y2="730.5" class="divider" stroke-width="1.3"/>
      <text x="343.1" y="441.625" class="entity-name" font-size="14" text-anchor="middle">ORDER</text>
      <text x="244.10000000000002" y="483.375" class="entity-attr attribute-type" font-size="12" text-anchor="start">uuid</text>
      <text x="320.70000000000005" y="483.375" class="entity-attr attribute-name" font-size="12" text-anchor="start">id</text>
      <text x="428.50000000000006" y="483.375" class="entity-attr attribute-key" text-anchor="start" font-size="12">PK</text>
      <text x="244.10000000000002" y="526.125" class="entity-attr attribute-type" text-anchor="start" font-size="12">uuid</text>
      <text x="320.70000000000005" y="526.125" class="entity-attr attribute-name" font-size="12" text-anchor="start">customer_id</text>
      <text x="428.50000000000006" y="526.125" class="entity-attr attribute-key" font-size="12" text-anchor="start">FK</text>
      <text x="244.10000000000002" y="568.875" class="entity-attr attribute-type" text-anchor="start" font-size="12">decimal</text>
      <text x="320.70000000000005" y="568.875" class="entity-attr attribute-name" text-anchor="start" font-size="12">total</text>
      <text x="244.10000000000002" y="611.625" class="entity-attr attribute-type" font-size="12" text-anchor="start">string</text>
      <text x="320.70000000000005" y="611.625" class="entity-attr attribute-name" text-anchor="start" font-size="12">status</text>
      <text x="244.10000000000002" y="654.375" class="entity-attr attribute-type" text-anchor="start" font-size="12">date</text>
      <text x="320.70000000000005" y="654.375" class="entity-attr attribute-name" text-anchor="start" font-size="12">ordered_at</text>
      <text x="244.10000000000002" y="697.125" class="entity-attr attribute-type" font-size="12" text-anchor="start">date</text>
      <text x="320.70000000000005" y="697.125" class="entity-attr attribute-name" text-anchor="start" font-size="12">shipped_at</text>
    </g>
    <g class="entity-node" id="entity-ORDER_ITEM-2">
      <rect x="3.8999999999999915" y="894.625" width="214.20000000000002" height="272.5" rx="0" ry="0" class="entity-box" stroke-width="1.3"/>
      <rect x="3.8999999999999915" y="937.375" width="214.20000000000002" height="42.75" rx="0" ry="0" class="row-rect-odd" stroke-width="1.3"/>
      <rect x="3.8999999999999915" y="980.125" width="214.20000000000002" height="42.75" rx="0" ry="0" class="row-rect-even" stroke-width="1.3"/>
      <rect x="3.8999999999999915" y="1022.875" width="214.20000000000002" height="42.75" rx="0" ry="0" class="row-rect-odd" stroke-width="1.3"/>
      <rect x="3.8999999999999915" y="1065.625" width="214.20000000000002" height="42.75" rx="0" ry="0" class="row-rect-even" stroke-width="1.3"/>
      <rect x="3.8999999999999915" y="1108.375" width="214.20000000000002" height="42.75" rx="0" ry="0" class="row-rect-odd" stroke-width="1.3"/>
      <line x1="3.8999999999999915" y1="937.375" x2="218.10000000000002" y2="937.375" class="divider" stroke-width="1.3"/>
      <line x1="80.5" y1="937.375" x2="80.5" y2="1167.125" class="divider" stroke-width="1.3"/>
      <line x1="180.5" y1="937.375" x2="180.5" y2="1167.125" class="divider" stroke-width="1.3"/>
      <text x="111" y="921" class="entity-name" text-anchor="middle" font-size="14">ORDER_ITEM</text>
      <text x="15.899999999999991" y="962.75" class="entity-attr attribute-type" font-size="12" text-anchor="start">uuid</text>
      <text x="92.5" y="962.75" class="entity-attr attribute-name" text-anchor="start" font-size="12">id</text>
      <text x="192.5" y="962.75" class="entity-attr attribute-key" text-anchor="start" font-size="12">PK</text>
      <text x="15.899999999999991" y="1005.5" class="entity-attr attribute-type" font-size="12" text-anchor="start">uuid</text>
      <text x="92.5" y="1005.5" class="entity-attr attribute-name" font-size="12" text-anchor="start">order_id</text>
      <text x="192.5" y="1005.5" class="entity-attr attribute-key" font-size="12" text-anchor="start">FK</text>
      <text x="15.899999999999991" y="1048.25" class="entity-attr attribute-type" text-anchor="start" font-size="12">uuid</text>
      <text x="92.5" y="1048.25" class="entity-attr attribute-name" font-size="12" text-anchor="start">product_id</text>
      <text x="192.5" y="1048.25" class="entity-attr attribute-key" text-anchor="start" font-size="12">FK</text>
      <text x="15.899999999999991" y="1091" class="entity-attr attribute-type" text-anchor="start" font-size="12">int</text>
      <text x="92.5" y="1091" class="entity-attr attribute-name" font-size="12" text-anchor="start">quantity</text>
      <text x="15.899999999999991" y="1133.75" class="entity-attr attribute-type" text-anchor="start" font-size="12">decimal</text>
      <text x="92.5" y="1133.75" class="entity-attr attribute-name" font-size="12" text-anchor="start">price</text>
    </g>
    <g class="entity-node" id="entity-PAYMENT-7">
      <rect x="712.3000000000001" y="873.25" width="229.8" height="315.25" rx="0" ry="0" class="entity-box" stroke-width="1.3"/>
      <rect x="712.3000000000001" y="916" width="229.8" height="42.75" rx="0" ry="0" class="row-rect-odd" stroke-width="1.3"/>
      <rect x="712.3000000000001" y="958.75" width="229.8" height="42.75" rx="0" ry="0" class="row-rect-even" stroke-width="1.3"/>
      <rect x="712.3000000000001" y="1001.5" width="229.8" height="42.75" rx="0" ry="0" class="row-rect-odd" stroke-width="1.3"/>
      <rect x="712.3000000000001" y="1044.25" width="229.8" height="42.75" rx="0" ry="0" class="row-rect-even" stroke-width="1.3"/>
      <rect x="712.3000000000001" y="1087" width="229.8" height="42.75" rx="0" ry="0" class="row-rect-odd" stroke-width="1.3"/>
      <rect x="712.3000000000001" y="1129.75" width="229.8" height="42.75" rx="0" ry="0" class="row-rect-even" stroke-width="1.3"/>
      <line x1="712.3000000000001" y1="916" x2="942.1000000000001" y2="916" class="divider" stroke-width="1.3"/>
      <line x1="788.9000000000001" y1="916" x2="788.9000000000001" y2="1188.5" class="divider" stroke-width="1.3"/>
      <line x1="904.5000000000001" y1="916" x2="904.5000000000001" y2="1188.5" class="divider" stroke-width="1.3"/>
      <text x="827.2" y="899.625" class="entity-name" font-size="14" text-anchor="middle">PAYMENT</text>
      <text x="724.3000000000001" y="941.375" class="entity-attr attribute-type" font-size="12" text-anchor="start">uuid</text>
      <text x="800.9000000000001" y="941.375" class="entity-attr attribute-name" text-anchor="start" font-size="12">id</text>
      <text x="916.5000000000001" y="941.375" class="entity-attr attribute-key" text-anchor="start" font-size="12">PK</text>
      <text x="724.3000000000001" y="984.125" class="entity-attr attribute-type" font-size="12" text-anchor="start">uuid</text>
      <text x="800.9000000000001" y="984.125" class="entity-attr attribute-name" text-anchor="start" font-size="12">order_id</text>
      <text x="916.5000000000001" y="984.125" class="entity-attr attribute-key" font-size="12" text-anchor="start">FK</text>
      <text x="724.3000000000001" y="1026.875" class="entity-attr attribute-type" font-size="12" text-anchor="start">string</text>
      <text x="800.9000000000001" y="1026.875" class="entity-attr attribute-name" text-anchor="start" font-size="12">method</text>
      <text x="724.3000000000001" y="1069.625" class="entity-attr attribute-type" font-size="12" text-anchor="start">decimal</text>
      <text x="800.9000000000001" y="1069.625" class="entity-attr attribute-name" text-anchor="start" font-size="12">amount</text>
      <text x="724.3000000000001" y="1112.375" class="entity-attr attribute-type" text-anchor="start" font-size="12">string</text>
      <text x="800.9000000000001" y="1112.375" class="entity-attr attribute-name" text-anchor="start" font-size="12">status</text>
      <text x="724.3000000000001" y="1155.125" class="entity-attr attribute-type" text-anchor="start" font-size="12">date</text>
      <text x="800.9000000000001" y="1155.125" class="entity-attr attribute-name" text-anchor="start" font-size="12">processed_at</text>
    </g>
    <g class="entity-node" id="entity-PRODUCT-3">
      <rect x="-0.000000000000014210854715202004" y="1331.25" width="222.00000000000003" height="358" rx="0" ry="0" class="entity-box" stroke-width="1.3"/>
      <rect x="-0.000000000000014210854715202004" y="1374" width="222.00000000000003" height="42.75" rx="0" ry="0" class="row-rect-odd" stroke-width="1.3"/>
      <rect x="-0.000000000000014210854715202004" y="1416.75" width="222.00000000000003" height="42.75" rx="0" ry="0" class="row-rect-even" stroke-width="1.3"/>
      <rect x="-0.000000000000014210854715202004" y="1459.5" width="222.00000000000003" height="42.75" rx="0" ry="0" class="row-rect-odd" stroke-width="1.3"/>
      <rect x="-0.000000000000014210854715202004" y="1502.25" width="222.00000000000003" height="42.75" rx="0" ry="0" class="row-rect-even" stroke-width="1.3"/>
      <rect x="-0.000000000000014210854715202004" y="1545" width="222.00000000000003" height="42.75" rx="0" ry="0" class="row-rect-odd" stroke-width="1.3"/>
      <rect x="-0.000000000000014210854715202004" y="1587.75" width="222.00000000000003" height="42.75" rx="0" ry="0" class="row-rect-even" stroke-width="1.3"/>
      <rect x="-0.000000000000014210854715202004" y="1630.5" width="222.00000000000003" height="42.75" rx="0" ry="0" class="row-rect-odd" stroke-width="1.3"/>
      <line x1="-0.000000000000014210854715202004" y1="1374" x2="222" y2="1374" class="divider" stroke-width="1.3"/>
      <line x1="76.6" y1="1374" x2="76.6" y2="1689.25" class="divider" stroke-width="1.3"/>
      <line x1="184.4" y1="1374" x2="184.4" y2="1689.25" class="divider" stroke-width="1.3"/>
      <text x="111" y="1357.625" class="entity-name" font-size="14" text-anchor="middle">PRODUCT</text>
      <text x="11.999999999999986" y="1399.375" class="entity-attr attribute-type" font-size="12" text-anchor="start">uuid</text>
      <text x="88.6" y="1399.375" class="entity-attr attribute-name" font-size="12" text-anchor="start">id</text>
      <text x="196.4" y="1399.375" class="entity-attr attribute-key" font-size="12" text-anchor="start">PK</text>
      <text x="11.999999999999986" y="1442.125" class="entity-attr attribute-type" font-size="12" text-anchor="start">string</text>
      <text x="88.6" y="1442.125" class="entity-attr attribute-name" text-anchor="start" font-size="12">sku</text>
      <text x="196.4" y="1442.125" class="entity-attr attribute-key" font-size="12" text-anchor="start">UK</text>
      <text x="11.999999999999986" y="1484.875" class="entity-attr attribute-type" text-anchor="start" font-size="12">string</text>
      <text x="88.6" y="1484.875" class="entity-attr attribute-name" text-anchor="start" font-size="12">name</text>
      <text x="11.999999999999986" y="1527.625" class="entity-attr attribute-type" font-size="12" text-anchor="start">text</text>
      <text x="88.6" y="1527.625" class="entity-attr attribute-name" text-anchor="start" font-size="12">description</text>
      <text x="11.999999999999986" y="1570.375" class="entity-attr attribute-type" font-size="12" text-anchor="start">decimal</text>
      <text x="88.6" y="1570.375" class="entity-attr attribute-name" text-anchor="start" font-size="12">price</text>
      <text x="11.999999999999986" y="1613.125" class="entity-attr attribute-type" text-anchor="start" font-size="12">int</text>
      <text x="88.6" y="1613.125" class="entity-attr attribute-name" font-size="12" text-anchor="start">stock</text>
      <text x="11.999999999999986" y="1655.875" class="entity-attr attribute-type" font-size="12" text-anchor="start">boolean</text>
      <text x="88.6" y="1655.875" class="entity-attr attribute-name" text-anchor="start" font-size="12">available</text>
    </g>
    <g class="entity-node" id="entity-PRODUCT_CATEGORY-4">
      <rect x="69.10000000000002" y="1789.25" width="222" height="144.25" rx="0" ry="0" class="entity-box" stroke-width="1.3"/>
      <rect x="69.10000000000002" y="1832" width="222" height="42.75" rx="0" ry="0" class="row-rect-odd" stroke-width="1.3"/>
      <rect x="69.10000000000002" y="1874.75" width="222" height="42.75" rx="0" ry="0" class="row-rect-even" stroke-width="1.3"/>
      <line x1="69.10000000000002" y1="1832" x2="291.1" y2="1832" class="divider" stroke-width="1.3"/>
      <line x1="122.30000000000003" y1="1832" x2="122.30000000000003" y2="1933.5" class="divider" stroke-width="1.3"/>
      <line x1="230.10000000000002" y1="1832" x2="230.10000000000002" y2="1933.5" class="divider" stroke-width="1.3"/>
      <text x="180.10000000000002" y="1815.625" class="entity-name" text-anchor="middle" font-size="14">PRODUCT_CATEGORY</text>
      <text x="81.10000000000002" y="1857.375" class="entity-attr attribute-type" text-anchor="start" font-size="12">uuid</text>
      <text x="134.3" y="1857.375" class="entity-attr attribute-name" text-anchor="start" font-size="12">product_id</text>
      <text x="242.10000000000002" y="1857.375" class="entity-attr attribute-key" font-size="12" text-anchor="start">PK,FK</text>
      <text x="81.10000000000002" y="1900.125" class="entity-attr attribute-type" font-size="12" text-anchor="start">uuid</text>
      <text x="134.3" y="1900.125" class="entity-attr attribute-name" font-size="12" text-anchor="start">category_id</text>
      <text x="242.10000000000002" y="1900.125" class="entity-attr attribute-key" font-size="12" text-anchor="start">PK,FK</text>
    </g>
  </g>
</svg>
