<svg id="mermaid-1768345881776" width="100%" xmlns="http://www.w3.org/2000/svg" xmlns:xlink="http://www.w3.org/1999/xlink" class="erDiagram" style="max-width: 153.65625px;" viewBox="0 0 153.65625 562.5" role="graphics-document document" aria-roledescription="er"><style>#mermaid-1768345881776{font-family:"trebuchet ms",verdana,arial,sans-serif;font-size:16px;fill:#333;}@keyframes edge-animation-frame{from{stroke-dashoffset:0;}}@keyframes dash{to{stroke-dashoffset:0;}}#mermaid-1768345881776 .edge-animation-slow{stroke-dasharray:9,5!important;stroke-dashoffset:900;animation:dash 50s linear infinite;stroke-linecap:round;}#mermaid-1768345881776 .edge-animation-fast{stroke-dasharray:9,5!important;stroke-dashoffset:900;animation:dash 20s linear infinite;stroke-linecap:round;}#mermaid-1768345881776 .error-icon{fill:#552222;}#mermaid-1768345881776 .error-text{fill:#552222;stroke:#552222;}#mermaid-1768345881776 .edge-thickness-normal{stroke-width:1px;}#mermaid-1768345881776 .edge-thickness-thick{stroke-width:3.5px;}#mermaid-1768345881776 .edge-pattern-solid{stroke-dasharray:0;}#mermaid-1768345881776 .edge-thickness-invisible{stroke-width:0;fill:none;}#mermaid-1768345881776 .edge-pattern-dashed{stroke-dasharray:3;}#mermaid-1768345881776 .edge-pattern-dotted{stroke-dasharray:2;}#mermaid-1768345881776 .marker{fill:#333333;stroke:#333333;}#mermaid-1768345881776 .marker.cross{stroke:#333333;}#mermaid-1768345881776 svg{font-family:"trebuchet ms",verdana,arial,sans-serif;font-size:16px;}#mermaid-1768345881776 p{margin:0;}#mermaid-1768345881776 .entityBox{fill:#ECECFF;stroke:#9370DB;}#mermaid-1768345881776 .relationshipLabelBox{fill:hsl(80, 100%, 96.2745098039%);opacity:0.7;background-color:hsl(80, 100%, 96.2745098039%);}#mermaid-1768345881776 .relationshipLabelBox rect{opacity:0.5;}#mermaid-1768345881776 .labelBkg{background-color:rgba(248.6666666666, 255, 235.9999999999, 0.5);}#mermaid-1768345881776 .edgeLabel .label{fill:#9370DB;font-size:14px;}#mermaid-1768345881776 .label{font-family:"trebuchet ms",verdana,arial,sans-serif;color:#333;}#mermaid-1768345881776 .edge-pattern-dashed{stroke-dasharray:8,8;}#mermaid-1768345881776 .node rect,#mermaid-1768345881776 .node circle,#mermaid-1768345881776 .node ellipse,#mermaid-1768345881776 .node polygon{fill:#ECECFF;stroke:#9370DB;stroke-width:1px;}#mermaid-1768345881776 .relationshipLine{stroke:#333333;stroke-width:1;fill:none;}#mermaid-1768345881776 .marker{fill:none!important;stroke:#333333!important;stroke-width:1;}#mermaid-1768345881776 :root{--mermaid-font-family:"trebuchet ms",verdana,arial,sans-serif;}</style><g><defs><marker id="mermaid-1768345881776_er-onlyOneStart" class="marker onlyOne er" refX="0" refY="9" markerWidth="18" markerHeight="18" orient="auto"><path d="M9,0 L9,18 M15,0 L15,18"></path></marker></defs><defs><marker id="mermaid-1768345881776_er-onlyOneEnd" class="marker onlyOne er" refX="18" refY="9" markerWidth="18" markerHeight="18" orient="auto"><path d="M3,0 L3,18 M9,0 L9,18"></path></marker></defs><defs><marker id="mermaid-1768345881776_er-zeroOrOneStart" class="marker zeroOrOne er" refX="0" refY="9" markerWidth="30" markerHeight="18" orient="auto"><circle fill="white" cx="21" cy="9" r="6"></circle><path d="M9,0 L9,18"></path></marker></defs><defs><marker id="mermaid-1768345881776_er-zeroOrOneEnd" class="marker zeroOrOne er" refX="30" refY="9" markerWidth="30" markerHeight="18" orient="auto"><circle fill="white" cx="9" cy="9" r="6"></circle><path d="M21,0 L21,18"></path></marker></defs><defs><marker id="mermaid-1768345881776_er-oneOrMoreStart" class="marker oneOrMore er" refX="18" refY="18" markerWidth="45" markerHeight="36" orient="auto"><path d="M0,18 Q 18,0 36,18 Q 18,36 0,18 M42,9 L42,27"></path></marker></defs><defs><marker id="mermaid-1768345881776_er-oneOrMoreEnd" class="marker oneOrMore er" refX="27" refY="18" markerWidth="45" markerHeight="36" orient="auto"><path d="M3,9 L3,27 M9,18 Q27,0 45,18 Q27,36 9,18"></path></marker></defs><defs><marker id="mermaid-1768345881776_er-zeroOrMoreStart" class="marker zeroOrMore er" refX="18" refY="18" markerWidth="57" markerHeight="36" orient="auto"><circle fill="white" cx="48" cy="18" r="6"></circle><path d="M0,18 Q18,0 36,18 Q18,36 0,18"></path></marker></defs><defs><marker id="mermaid-1768345881776_er-zeroOrMoreEnd" class="marker zeroOrMore er" refX="39" refY="18" markerWidth="57" markerHeight="36" orient="auto"><circle fill="white" cx="9" cy="18" r="6"></circle><path d="M21,18 Q39,0 57,18 Q39,36 21,18"></path></marker></defs><g class="root"><g class="clusters"></g><g class="edgePaths"><path d="M76.828,136.25L76.828,144.833C76.828,153.417,76.828,170.583,76.828,187.75C76.828,204.917,76.828,222.083,76.828,230.667L76.828,239.25" id="id_entity-CUSTOMER-0_entity-ORDER-1_0" class=" edge-thickness-normal edge-pattern-solid relationshipLine" style="undefined;;;undefined" data-edge="true" data-et="edge" data-id="id_entity-CUSTOMER-0_entity-ORDER-1_0" data-points="W3sieCI6NzYuODI4MTI1LCJ5IjoxMzYuMjV9LHsieCI6NzYuODI4MTI1LCJ5IjoxODcuNzV9LHsieCI6NzYuODI4MTI1LCJ5IjoyMzkuMjV9XQ==" marker-start="url(#mermaid-1768345881776_er-onlyOneStart)" marker-end="url(#mermaid-1768345881776_er-zeroOrMoreEnd)"></path><path d="M76.828,367.5L76.828,376.083C76.828,384.667,76.828,401.833,76.828,419C76.828,436.167,76.828,453.333,76.828,461.917L76.828,470.5" id="id_entity-ORDER-1_entity-ITEM-2_1" class=" edge-thickness-normal edge-pattern-solid relationshipLine" style="undefined;;;undefined" data-edge="true" data-et="edge" data-id="id_entity-ORDER-1_entity-ITEM-2_1" data-points="W3sieCI6NzYuODI4MTI1LCJ5IjozNjcuNX0seyJ4Ijo3Ni44MjgxMjUsInkiOjQxOX0seyJ4Ijo3Ni44MjgxMjUsInkiOjQ3MC41fV0=" marker-start="url(#mermaid-1768345881776_er-onlyOneStart)" marker-end="url(#mermaid-1768345881776_er-oneOrMoreEnd)"></path></g><g class="edgeLabels"><g class="edgeLabel" transform="translate(76.828125, 187.75)"><g class="label" data-id="id_entity-CUSTOMER-0_entity-ORDER-1_0" transform="translate(-24.5859375, -11.5)"><g><rect class="background" style="" x="-2" y="-1" width="49.171875" height="23"></rect><text y="-10.1" style=""><tspan class="text-outer-tspan" x="0" y="-0.1em" dy="1.1em"><tspan font-style="normal" class="text-inner-tspan" font-weight="normal">places</tspan></tspan></text></g></g></g><g class="edgeLabel" transform="translate(76.828125, 419)"><g class="label" data-id="id_entity-ORDER-1_entity-ITEM-2_1" transform="translate(-31.890625, -11.5)"><g><rect class="background" style="" x="-2" y="-1" width="63.78125" height="23"></rect><text y="-10.1" style=""><tspan class="text-outer-tspan" x="0" y="-0.1em" dy="1.1em"><tspan font-style="normal" class="text-inner-tspan" font-weight="normal">contains</tspan></tspan></text></g></g></g></g><g class="nodes"><g class="node default " id="entity-CUSTOMER-0" transform="translate(76.828125, 72.125)"><g style=""><path d="M-65.0390625 -64.125 L65.0390625 -64.125 L65.0390625 64.125 L-65.0390625 64.125" stroke="none" stroke-width="0" fill="#ECECFF"></path><path d="M-65.0390625 -64.125 C-38.05269137419724 -64.125, -11.066320248394483 -64.125, 65.0390625 -64.125 M-65.0390625 -64.125 C-37.41699746048998 -64.125, -9.794932420979954 -64.125, 65.0390625 -64.125 M65.0390625 -64.125 C65.0390625 -33.30266044965705, 65.0390625 -2.480320899314094, 65.0390625 64.125 M65.0390625 -64.125 C65.0390625 -28.486878518858944, 65.0390625 7.151242962282112, 65.0390625 64.125 M65.0390625 64.125 C26.123912840649766 64.125, -12.791236818700469 64.125, -65.0390625 64.125 M65.0390625 64.125 C30.99685775483517 64.125, -3.045346990329662 64.125, -65.0390625 64.125 M-65.0390625 64.125 C-65.0390625 15.32223884717034, -65.0390625 -33.48052230565932, -65.0390625 -64.125 M-65.0390625 64.125 C-65.0390625 15.888045568764461, -65.0390625 -32.34890886247108, -65.0390625 -64.125" stroke="#9370DB" stroke-width="1.3" fill="none" stroke-dasharray="0 0"></path></g><g style="" class="row-rect-odd"><path d="M-65.0390625 -21.375 L65.0390625 -21.375 L65.0390625 21.375 L-65.0390625 21.375" stroke="none" stroke-width="0" fill="hsl(240, 100%, 100%)"></path><path d="M-65.0390625 -21.375 C-34.13092944572797 -21.375, -3.222796391455951 -21.375, 65.0390625 -21.375 M-65.0390625 -21.375 C-18.421426350458084 -21.375, 28.19620979908383 -21.375, 65.0390625 -21.375 M65.0390625 -21.375 C65.0390625 -7.110215741339983, 65.0390625 7.154568517320033, 65.0390625 21.375 M65.0390625 -21.375 C65.0390625 -8.741922127588076, 65.0390625 3.8911557448238483, 65.0390625 21.375 M65.0390625 21.375 C17.726173944368348 21.375, -29.586714611263304 21.375, -65.0390625 21.375 M65.0390625 21.375 C14.88313253200834 21.375, -35.27279743598332 21.375, -65.0390625 21.375 M-65.0390625 21.375 C-65.0390625 11.33521765157594, -65.0390625 1.29543530315188, -65.0390625 -21.375 M-65.0390625 21.375 C-65.0390625 5.506149000395057, -65.0390625 -10.362701999209886, -65.0390625 -21.375" stroke="#9370DB" stroke-width="1.3" fill="none" stroke-dasharray="0 0"></path></g><g style="" class="row-rect-even"><path d="M-65.0390625 21.375 L65.0390625 21.375 L65.0390625 64.125 L-65.0390625 64.125" stroke="none" stroke-width="0" fill="hsl(240, 100%, 97.2745098039%)"></path><path d="M-65.0390625 21.375 C-29.27769231216547 21.375, 6.483677875669059 21.375, 65.0390625 21.375 M-65.0390625 21.375 C-15.232036381173629 21.375, 34.57498973765274 21.375, 65.0390625 21.375 M65.0390625 21.375 C65.0390625 32.17756394320837, 65.0390625 42.980127886416746, 65.0390625 64.125 M65.0390625 21.375 C65.0390625 34.809709693341404, 65.0390625 48.244419386682814, 65.0390625 64.125 M65.0390625 64.125 C14.701398341612943 64.125, -35.63626581677411 64.125, -65.0390625 64.125 M65.0390625 64.125 C14.94705693097832 64.125, -35.14494863804336 64.125, -65.0390625 64.125 M-65.0390625 64.125 C-65.0390625 48.87690378623106, -65.0390625 33.62880757246212, -65.0390625 21.375 M-65.0390625 64.125 C-65.0390625 48.10702715515998, -65.0390625 32.08905431031996, -65.0390625 21.375" stroke="#9370DB" stroke-width="1.3" fill="none" stroke-dasharray="0 0"></path></g><g class="label name" transform="translate(-38.03125, -54.75)" style=""><foreignObject width="76.0625" height="24"><div xmlns="http://www.w3.org/1999/xhtml" style="display: table-cell; white-space: nowrap; line-height: 1.5; max-width: 191px; text-align: start;"><span class="nodeLabel "><p>CUSTOMER</p></span></div></foreignObject></g><g class="label attribute-type" transform="translate(-52.5390625, -12)" style=""><foreignObject width="40.375" height="24"><div xmlns="http://www.w3.org/1999/xhtml" style="display: table-cell; white-space: nowrap; line-height: 1.5; max-width: 139px; text-align: start;"><span class="nodeLabel "><p>string</p></span></div></foreignObject></g><g class="label attribute-name" transform="translate(12.8359375, -12)" style=""><foreignObject width="39.15625" height="24"><div xmlns="http://www.w3.org/1999/xhtml" style="display: table-cell; white-space: nowrap; line-height: 1.5; max-width: 140px; text-align: start;"><span class="nodeLabel "><p>name</p></span></div></foreignObject></g><g class="label attribute-keys" transform="translate(77.5390625, -12)" style=""><foreignObject width="0" height="0"><div xmlns="http://www.w3.org/1999/xhtml" style="display: table-cell; white-space: nowrap; line-height: 1.5; max-width: 100px; text-align: start;"><span class="nodeLabel "></span></div></foreignObject></g><g class="label attribute-comment" transform="translate(77.5390625, -12)" style=""><foreignObject width="0" height="0"><div xmlns="http://www.w3.org/1999/xhtml" style="display: table-cell; white-space: nowrap; line-height: 1.5; max-width: 100px; text-align: start;"><span class="nodeLabel "></span></div></foreignObject></g><g class="label attribute-type" transform="translate(-52.5390625, 30.75)" style=""><foreignObject width="40.375" height="24"><div xmlns="http://www.w3.org/1999/xhtml" style="display: table-cell; white-space: nowrap; line-height: 1.5; max-width: 139px; text-align: start;"><span class="nodeLabel "><p>string</p></span></div></foreignObject></g><g class="label attribute-name" transform="translate(12.8359375, 30.75)" style=""><foreignObject width="39.703125" height="24"><div xmlns="http://www.w3.org/1999/xhtml" style="display: table-cell; white-space: nowrap; line-height: 1.5; max-width: 138px; text-align: start;"><span class="nodeLabel "><p>email</p></span></div></foreignObject></g><g class="label attribute-keys" transform="translate(77.5390625, 30.75)" style=""><foreignObject width="0" height="0"><div xmlns="http://www.w3.org/1999/xhtml" style="display: table-cell; white-space: nowrap; line-height: 1.5; max-width: 100px; text-align: start;"><span class="nodeLabel "></span></div></foreignObject></g><g class="label attribute-comment" transform="translate(77.5390625, 30.75)" style=""><foreignObject width="0" height="0"><div xmlns="http://www.w3.org/1999/xhtml" style="display: table-cell; white-space: nowrap; line-height: 1.5; max-width: 100px; text-align: start;"><span class="nodeLabel "></span></div></foreignObject></g><g class="divider"><path d="M-65.0390625 -21.375 C-21.03582806372941 -21.375, 22.967406372541177 -21.375, 65.0390625 -21.375 M-65.0390625 -21.375 C-18.996006119140944 -21.375, 27.047050261718113 -21.375, 65.0390625 -21.375" stroke="#9370DB" stroke-width="1.3" fill="none" stroke-dasharray="0 0"></path></g><g class="divider"><path d="M0.3359375 -21.375 C0.3359375 10.027585474068633, 0.3359375 41.43017094813727, 0.3359375 64.125 M0.3359375 -21.375 C0.3359375 -2.571320639123307, 0.3359375 16.232358721753386, 0.3359375 64.125" stroke="#9370DB" stroke-width="1.3" fill="none" stroke-dasharray="0 0"></path></g><g class="divider"><path d="M-65.0390625 -21.375 C-17.912530630992464 -21.375, 29.214001238015072 -21.375, 65.0390625 -21.375 M-65.0390625 -21.375 C-28.2969121275031 -21.375, 8.445238244993803 -21.375, 65.0390625 -21.375" stroke="#9370DB" stroke-width="1.3" fill="none" stroke-dasharray="0 0"></path></g></g><g class="node default " id="entity-ORDER-1" transform="translate(76.828125, 303.375)"><g style=""><path d="M-68.828125 -64.125 L68.828125 -64.125 L68.828125 64.125 L-68.828125 64.125" stroke="none" stroke-width="0" fill="#ECECFF"></path><path d="M-68.828125 -64.125 C-16.53374496359872 -64.125, 35.76063507280256 -64.125, 68.828125 -64.125 M-68.828125 -64.125 C-33.09134238826546 -64.125, 2.6454402234690804 -64.125, 68.828125 -64.125 M68.828125 -64.125 C68.828125 -16.99892707236802, 68.828125 30.12714585526396, 68.828125 64.125 M68.828125 -64.125 C68.828125 -31.281287828712415, 68.828125 1.56242434257517, 68.828125 64.125 M68.828125 64.125 C30.57636623494708 64.125, -7.675392530105839 64.125, -68.828125 64.125 M68.828125 64.125 C18.358056542889706 64.125, -32.11201191422059 64.125, -68.828125 64.125 M-68.828125 64.125 C-68.828125 26.76917566157084, -68.828125 -10.586648676858317, -68.828125 -64.125 M-68.828125 64.125 C-68.828125 13.727072963905101, -68.828125 -36.6708540721898, -68.828125 -64.125" stroke="#9370DB" stroke-width="1.3" fill="none" stroke-dasharray="0 0"></path></g><g style="" class="row-rect-odd"><path d="M-68.828125 -21.375 L68.828125 -21.375 L68.828125 21.375 L-68.828125 21.375" stroke="none" stroke-width="0" fill="hsl(240, 100%, 100%)"></path><path d="M-68.828125 -21.375 C-30.37910547549331 -21.375, 8.069914049013377 -21.375, 68.828125 -21.375 M-68.828125 -21.375 C-26.71819385744272 -21.375, 15.391737285114559 -21.375, 68.828125 -21.375 M68.828125 -21.375 C68.828125 -5.1489677656864785, 68.828125 11.077064468627043, 68.828125 21.375 M68.828125 -21.375 C68.828125 -12.776689350484178, 68.828125 -4.178378700968356, 68.828125 21.375 M68.828125 21.375 C22.396864249132854 21.375, -24.034396501734292 21.375, -68.828125 21.375 M68.828125 21.375 C36.69046731227684 21.375, 4.552809624553674 21.375, -68.828125 21.375 M-68.828125 21.375 C-68.828125 9.000456980743138, -68.828125 -3.374086038513724, -68.828125 -21.375 M-68.828125 21.375 C-68.828125 5.111281652667287, -68.828125 -11.152436694665425, -68.828125 -21.375" stroke="#9370DB" stroke-width="1.3" fill="none" stroke-dasharray="0 0"></path></g><g style="" class="row-rect-even"><path d="M-68.828125 21.375 L68.828125 21.375 L68.828125 64.125 L-68.828125 64.125" stroke="none" stroke-width="0" fill="hsl(240, 100%, 97.2745098039%)"></path><path d="M-68.828125 21.375 C-34.56888097081076 21.375, -0.30963694162151967 21.375, 68.828125 21.375 M-68.828125 21.375 C-24.641953278107067 21.375, 19.544218443785866 21.375, 68.828125 21.375 M68.828125 21.375 C68.828125 30.66481345076223, 68.828125 39.95462690152446, 68.828125 64.125 M68.828125 21.375 C68.828125 36.64143263035905, 68.828125 51.90786526071809, 68.828125 64.125 M68.828125 64.125 C15.175091401228713 64.125, -38.477942197542575 64.125, -68.828125 64.125 M68.828125 64.125 C32.44902751210414 64.125, -3.9300699757917243 64.125, -68.828125 64.125 M-68.828125 64.125 C-68.828125 51.749661348383746, -68.828125 39.37432269676749, -68.828125 21.375 M-68.828125 64.125 C-68.828125 54.360773040479636, -68.828125 44.59654608095927, -68.828125 21.375" stroke="#9370DB" stroke-width="1.3" fill="none" stroke-dasharray="0 0"></path></g><g class="label name" transform="translate(-23.8984375, -54.75)" style=""><foreignObject width="47.796875" height="24"><div xmlns="http://www.w3.org/1999/xhtml" style="display: table-cell; white-space: nowrap; line-height: 1.5; max-width: 158px; text-align: start;"><span class="nodeLabel "><p>ORDER</p></span></div></foreignObject></g><g class="label attribute-type" transform="translate(-56.328125, -12)" style=""><foreignObject width="19.65625" height="24"><div xmlns="http://www.w3.org/1999/xhtml" style="display: table-cell; white-space: nowrap; line-height: 1.5; max-width: 117px; text-align: start;"><span class="nodeLabel "><p>int</p></span></div></foreignObject></g><g class="label attribute-name" transform="translate(1.0625, -12)" style=""><foreignObject width="13.484375" height="24"><div xmlns="http://www.w3.org/1999/xhtml" style="display: table-cell; white-space: nowrap; line-height: 1.5; max-width: 112px; text-align: start;"><span class="nodeLabel "><p>id</p></span></div></foreignObject></g><g class="label attribute-keys" transform="translate(81.328125, -12)" style=""><foreignObject width="0" height="0"><div xmlns="http://www.w3.org/1999/xhtml" style="display: table-cell; white-space: nowrap; line-height: 1.5; max-width: 100px; text-align: start;"><span class="nodeLabel "></span></div></foreignObject></g><g class="label attribute-comment" transform="translate(81.328125, -12)" style=""><foreignObject width="0" height="0"><div xmlns="http://www.w3.org/1999/xhtml" style="display: table-cell; white-space: nowrap; line-height: 1.5; max-width: 100px; text-align: start;"><span class="nodeLabel "></span></div></foreignObject></g><g class="label attribute-type" transform="translate(-56.328125, 30.75)" style=""><foreignObject width="32.390625" height="24"><div xmlns="http://www.w3.org/1999/xhtml" style="display: table-cell; white-space: nowrap; line-height: 1.5; max-width: 131px; text-align: start;"><span class="nodeLabel "><p>date</p></span></div></foreignObject></g><g class="label attribute-name" transform="translate(1.0625, 30.75)" style=""><foreignObject width="55.265625" height="24"><div xmlns="http://www.w3.org/1999/xhtml" style="display: table-cell; white-space: nowrap; line-height: 1.5; max-width: 153px; text-align: start;"><span class="nodeLabel "><p>created</p></span></div></foreignObject></g><g class="label attribute-keys" transform="translate(81.328125, 30.75)" style=""><foreignObject width="0" height="0"><div xmlns="http://www.w3.org/1999/xhtml" style="display: table-cell; white-space: nowrap; line-height: 1.5; max-width: 100px; text-align: start;"><span class="nodeLabel "></span></div></foreignObject></g><g class="label attribute-comment" transform="translate(81.328125, 30.75)" style=""><foreignObject width="0" height="0"><div xmlns="http://www.w3.org/1999/xhtml" style="display: table-cell; white-space: nowrap; line-height: 1.5; max-width: 100px; text-align: start;"><span class="nodeLabel "></span></div></foreignObject></g><g class="divider"><path d="M-68.828125 -21.375 C-26.065188459256674 -21.375, 16.69774808148665 -21.375, 68.828125 -21.375 M-68.828125 -21.375 C-22.061036790212256 -21.375, 24.706051419575488 -21.375, 68.828125 -21.375" stroke="#9370DB" stroke-width="1.3" fill="none" stroke-dasharray="0 0"></path></g><g class="divider"><path d="M-11.4375 -21.375 C-11.4375 7.938710006354686, -11.4375 37.25242001270937, -11.4375 64.125 M-11.4375 -21.375 C-11.4375 4.116362114830675, -11.4375 29.60772422966135, -11.4375 64.125" stroke="#9370DB" stroke-width="1.3" fill="none" stroke-dasharray="0 0"></path></g><g class="divider"><path d="M-68.828125 -21.375 C-40.92767856574348 -21.375, -13.027232131486954 -21.375, 68.828125 -21.375 M-68.828125 -21.375 C-37.88181033724631 -21.375, -6.935495674492621 -21.375, 68.828125 -21.375" stroke="#9370DB" stroke-width="1.3" fill="none" stroke-dasharray="0 0"></path></g></g><g class="node default " id="entity-ITEM-2" transform="translate(76.828125, 512.5)"><rect class="basic label-container" style="" x="-50" y="-42" width="100" height="84"></rect><g class="label" style="" transform="translate(-16.8359375, -12)"><rect></rect><foreignObject width="33.671875" height="24"><div xmlns="http://www.w3.org/1999/xhtml" style="display: table-cell; white-space: nowrap; line-height: 1.5; max-width: 100px; text-align: center;"><span class="nodeLabel "><p>ITEM</p></span></div></foreignObject></g></g></g></g></g></svg>
