<svg id="mermaid-1768350510786" width="100%" xmlns="http://www.w3.org/2000/svg" xmlns:xlink="http://www.w3.org/1999/xlink" class="erDiagram" style="max-width: 153.65625px;" viewBox="0 0 153.65625 562.5" role="graphics-document document" aria-roledescription="er"><style>#mermaid-1768350510786{font-family:"trebuchet ms",verdana,arial,sans-serif;font-size:16px;fill:#333;}@keyframes edge-animation-frame{from{stroke-dashoffset:0;}}@keyframes dash{to{stroke-dashoffset:0;}}#mermaid-1768350510786 .edge-animation-slow{stroke-dasharray:9,5!important;stroke-dashoffset:900;animation:dash 50s linear infinite;stroke-linecap:round;}#mermaid-1768350510786 .edge-animation-fast{stroke-dasharray:9,5!important;stroke-dashoffset:900;animation:dash 20s linear infinite;stroke-linecap:round;}#mermaid-1768350510786 .error-icon{fill:#552222;}#mermaid-1768350510786 .error-text{fill:#552222;stroke:#552222;}#mermaid-1768350510786 .edge-thickness-normal{stroke-width:1px;}#mermaid-1768350510786 .edge-thickness-thick{stroke-width:3.5px;}#mermaid-1768350510786 .edge-pattern-solid{stroke-dasharray:0;}#mermaid-1768350510786 .edge-thickness-invisible{stroke-width:0;fill:none;}#mermaid-1768350510786 .edge-pattern-dashed{stroke-dasharray:3;}#mermaid-1768350510786 .edge-pattern-dotted{stroke-dasharray:2;}#mermaid-1768350510786 .marker{fill:#333333;stroke:#333333;}#mermaid-1768350510786 .marker.cross{stroke:#333333;}#mermaid-1768350510786 svg{font-family:"trebuchet ms",verdana,arial,sans-serif;font-size:16px;}#mermaid-1768350510786 p{margin:0;}#mermaid-1768350510786 .entityBox{fill:#ECECFF;stroke:#9370DB;}#mermaid-1768350510786 .relationshipLabelBox{fill:hsl(80, 100%, 96.2745098039%);opacity:0.7;background-color:hsl(80, 100%, 96.2745098039%);}#mermaid-1768350510786 .relationshipLabelBox rect{opacity:0.5;}#mermaid-1768350510786 .labelBkg{background-color:rgba(248.6666666666, 255, 235.9999999999, 0.5);}#mermaid-1768350510786 .edgeLabel .label{fill:#9370DB;font-size:14px;}#mermaid-1768350510786 .label{font-family:"trebuchet ms",verdana,arial,sans-serif;color:#333;}#mermaid-1768350510786 .edge-pattern-dashed{stroke-dasharray:8,8;}#mermaid-1768350510786 .node rect,#mermaid-1768350510786 .node circle,#mermaid-1768350510786 .node ellipse,#mermaid-1768350510786 .node polygon{fill:#ECECFF;stroke:#9370DB;stroke-width:1px;}#mermaid-1768350510786 .relationshipLine{stroke:#333333;stroke-width:1;fill:none;}#mermaid-1768350510786 .marker{fill:none!important;stroke:#333333!important;stroke-width:1;}#mermaid-1768350510786 :root{--mermaid-font-family:"trebuchet ms",verdana,arial,sans-serif;}</style><g><defs><marker id="mermaid-1768350510786_er-onlyOneStart" class="marker onlyOne er" refX="0" refY="9" markerWidth="18" markerHeight="18" orient="auto"><path d="M9,0 L9,18 M15,0 L15,18"></path></marker></defs><defs><marker id="mermaid-1768350510786_er-onlyOneEnd" class="marker onlyOne er" refX="18" refY="9" markerWidth="18" markerHeight="18" orient="auto"><path d="M3,0 L3,18 M9,0 L9,18"></path></marker></defs><defs><marker id="mermaid-1768350510786_er-zeroOrOneStart" class="marker zeroOrOne er" refX="0" refY="9" markerWidth="30" markerHeight="18" orient="auto"><circle fill="white" cx="21" cy="9" r="6"></circle><path d="M9,0 L9,18"></path></marker></defs><defs><marker id="mermaid-1768350510786_er-zeroOrOneEnd" class="marker zeroOrOne er" refX="30" refY="9" markerWidth="30" markerHeight="18" orient="auto"><circle fill="white" cx="9" cy="9" r="6"></circle><path d="M21,0 L21,18"></path></marker></defs><defs><marker id="mermaid-1768350510786_er-oneOrMoreStart" class="marker oneOrMore er" refX="18" refY="18" markerWidth="45" markerHeight="36" orient="auto"><path d="M0,18 Q 18,0 36,18 Q 18,36 0,18 M42,9 L42,27"></path></marker></defs><defs><marker id="mermaid-1768350510786_er-oneOrMoreEnd" class="marker oneOrMore er" refX="27" refY="18" markerWidth="45" markerHeight="36" orient="auto"><path d="M3,9 L3,27 M9,18 Q27,0 45,18 Q27,36 9,18"></path></marker></defs><defs><marker id="mermaid-1768350510786_er-zeroOrMoreStart" class="marker zeroOrMore er" refX="18" refY="18" markerWidth="57" markerHeight="36" orient="auto"><circle fill="white" cx="48" cy="18" r="6"></circle><path d="M0,18 Q18,0 36,18 Q18,36 0,18"></path></marker></defs><defs><marker id="mermaid-1768350510786_er-zeroOrMoreEnd" class="marker zeroOrMore er" refX="39" refY="18" markerWidth="57" markerHeight="36" orient="auto"><circle fill="white" cx="9" cy="18" r="6"></circle><path d="M21,18 Q39,0 57,18 Q39,36 21,18"></path></marker></defs><g class="root"><g class="clusters"></g><g class="edgePaths"><path d="M76.828,136.25L76.828,144.833C76.828,153.417,76.828,170.583,76.828,187.75C76.828,204.917,76.828,222.083,76.828,230.667L76.828,239.25" id="id_entity-CUSTOMER-0_entity-ORDER-1_0" class=" edge-thickness-normal edge-pattern-solid relationshipLine" style="undefined;;;undefined" data-edge="true" data-et="edge" data-id="id_entity-CUSTOMER-0_entity-ORDER-1_0" data-points="W3sieCI6NzYuODI4MTI1LCJ5IjoxMzYuMjV9LHsieCI6NzYuODI4MTI1LCJ5IjoxODcuNzV9LHsieCI6NzYuODI4MTI1LCJ5IjoyMzkuMjV9XQ==" marker-start="url(#mermaid-1768350510786_er-onlyOneStart)" marker-end="url(#mermaid-1768350510786_er-zeroOrMoreEnd)"></path><path d="M76.828,367.5L76.828,376.083C76.828,384.667,76.828,401.833,76.828,419C76.828,436.167,76.828,453.333,76.828,461.917L76.828,470.5" id="id_entity-ORDER-1_entity-ITEM-2_1" class=" edge-thickness-normal edge-pattern-solid relationshipLine" style="undefined;;;undefined" data-edge="true" data-et="edge" data-id="id_entity-ORDER-1_entity-ITEM-2_1" data-points="W3sieCI6NzYuODI4MTI1LCJ5IjozNjcuNX0seyJ4Ijo3Ni44MjgxMjUsInkiOjQxOX0seyJ4Ijo3Ni44MjgxMjUsInkiOjQ3MC41fV0=" marker-start="url(#mermaid-1768350510786_er-onlyOneStart)" marker-end="url(#mermaid-1768350510786_er-oneOrMoreEnd)"></path></g><g class="edgeLabels"><g class="edgeLabel" transform="translate(76.828125, 187.75)"><g class="label" data-id="id_entity-CUSTOMER-0_entity-ORDER-1_0" transform="translate(-24.5859375, -11.5)"><g><rect class="background" style="" x="-2" y="-1" width="49.171875" height="23"></rect><text y="-10.1" style=""><tspan class="text-outer-tspan" x="0" y="-0.1em" dy="1.1em"><tspan font-style="normal" class="text-inner-tspan" font-weight="normal">places</tspan></tspan></text></g></g></g><g class="edgeLabel" transform="translate(76.828125, 419)"><g class="label" data-id="id_entity-ORDER-1_entity-ITEM-2_1" transform="translate(-31.890625, -11.5)"><g><rect class="background" style="" x="-2" y="-1" width="63.78125" height="23"></rect><text y="-10.1" style=""><tspan class="text-outer-tspan" x="0" y="-0.1em" dy="1.1em"><tspan font-style="normal" class="text-inner-tspan" font-weight="normal">contains</tspan></tspan></text></g></g></g></g><g class="nodes"><g class="node default " id="entity-CUSTOMER-0" transform="translate(76.828125, 72.125)"><g style=""><path d="M-65.0390625 -64.125 L65.0390625 -64.125 L65.0390625 64.125 L-65.0390625 64.125" stroke="none" stroke-width="0" fill="#ECECFF"></path><path d="M-65.0390625 -64.125 C-30.509762865214896 -64.125, 4.019536769570209 -64.125, 65.0390625 -64.125 M-65.0390625 -64.125 C-36.741489385898745 -64.125, -8.443916271797484 -64.125, 65.0390625 -64.125 M65.0390625 -64.125 C65.0390625 -37.6004777943874, 65.0390625 -11.07595558877481, 65.0390625 64.125 M65.0390625 -64.125 C65.0390625 -27.305296780266076, 65.0390625 9.514406439467848, 65.0390625 64.125 M65.0390625 64.125 C30.114315562863283 64.125, -4.810431374273435 64.125, -65.0390625 64.125 M65.0390625 64.125 C20.848062813256654 64.125, -23.342936873486693 64.125, -65.0390625 64.125 M-65.0390625 64.125 C-65.0390625 14.94359904755673, -65.0390625 -34.23780190488654, -65.0390625 -64.125 M-65.0390625 64.125 C-65.0390625 23.633386092184345, -65.0390625 -16.85822781563131, -65.0390625 -64.125" stroke="#9370DB" stroke-width="1.3" fill="none" stroke-dasharray="0 0"></path></g><g style="" class="row-rect-odd"><path d="M-65.0390625 -21.375 L65.0390625 -21.375 L65.0390625 21.375 L-65.0390625 21.375" stroke="none" stroke-width="0" fill="hsl(240, 100%, 100%)"></path><path d="M-65.0390625 -21.375 C-17.907484849485975 -21.375, 29.22409280102805 -21.375, 65.0390625 -21.375 M-65.0390625 -21.375 C-37.49297278353859 -21.375, -9.94688306707718 -21.375, 65.0390625 -21.375 M65.0390625 -21.375 C65.0390625 -5.4470907626906495, 65.0390625 10.480818474618701, 65.0390625 21.375 M65.0390625 -21.375 C65.0390625 -11.972697390286056, 65.0390625 -2.570394780572112, 65.0390625 21.375 M65.0390625 21.375 C34.956140863713415 21.375, 4.873219227426837 21.375, -65.0390625 21.375 M65.0390625 21.375 C23.389909190919276 21.375, -18.259244118161448 21.375, -65.0390625 21.375 M-65.0390625 21.375 C-65.0390625 10.223384625598136, -65.0390625 -0.9282307488037276, -65.0390625 -21.375 M-65.0390625 21.375 C-65.0390625 12.583284412398706, -65.0390625 3.7915688247974124, -65.0390625 -21.375" stroke="#9370DB" stroke-width="1.3" fill="none" stroke-dasharray="0 0"></path></g><g style="" class="row-rect-even"><path d="M-65.0390625 21.375 L65.0390625 21.375 L65.0390625 64.125 L-65.0390625 64.125" stroke="none" stroke-width="0" fill="hsl(240, 100%, 97.2745098039%)"></path><path d="M-65.0390625 21.375 C-28.63745370896566 21.375, 7.764155082068683 21.375, 65.0390625 21.375 M-65.0390625 21.375 C-17.251240300047264 21.375, 30.53658189990547 21.375, 65.0390625 21.375 M65.0390625 21.375 C65.0390625 34.62420316876714, 65.0390625 47.87340633753428, 65.0390625 64.125 M65.0390625 21.375 C65.0390625 36.47706648192548, 65.0390625 51.57913296385097, 65.0390625 64.125 M65.0390625 64.125 C18.631608559336144 64.125, -27.775845381327713 64.125, -65.0390625 64.125 M65.0390625 64.125 C33.0163136835578 64.125, 0.9935648671155946 64.125, -65.0390625 64.125 M-65.0390625 64.125 C-65.0390625 51.56199045798089, -65.0390625 38.99898091596178, -65.0390625 21.375 M-65.0390625 64.125 C-65.0390625 52.0928064202913, -65.0390625 40.06061284058261, -65.0390625 21.375" stroke="#9370DB" stroke-width="1.3" fill="none" stroke-dasharray="0 0"></path></g><g class="label name" transform="translate(-38.03125, -54.75)" style=""><foreignObject width="76.0625" height="24"><div xmlns="http://www.w3.org/1999/xhtml" style="display: table-cell; white-space: nowrap; line-height: 1.5; max-width: 191px; text-align: start;"><span class="nodeLabel "><p>CUSTOMER</p></span></div></foreignObject></g><g class="label attribute-type" transform="translate(-52.5390625, -12)" style=""><foreignObject width="40.375" height="24"><div xmlns="http://www.w3.org/1999/xhtml" style="display: table-cell; white-space: nowrap; line-height: 1.5; max-width: 139px; text-align: start;"><span class="nodeLabel "><p>string</p></span></div></foreignObject></g><g class="label attribute-name" transform="translate(12.8359375, -12)" style=""><foreignObject width="39.15625" height="24"><div xmlns="http://www.w3.org/1999/xhtml" style="display: table-cell; white-space: nowrap; line-height: 1.5; max-width: 140px; text-align: start;"><span class="nodeLabel "><p>name</p></span></div></foreignObject></g><g class="label attribute-keys" transform="translate(77.5390625, -12)" style=""><foreignObject width="0" height="0"><div xmlns="http://www.w3.org/1999/xhtml" style="display: table-cell; white-space: nowrap; line-height: 1.5; max-width: 100px; text-align: start;"><span class="nodeLabel "></span></div></foreignObject></g><g class="label attribute-comment" transform="translate(77.5390625, -12)" style=""><foreignObject width="0" height="0"><div xmlns="http://www.w3.org/1999/xhtml" style="display: table-cell; white-space: nowrap; line-height: 1.5; max-width: 100px; text-align: start;"><span class="nodeLabel "></span></div></foreignObject></g><g class="label attribute-type" transform="translate(-52.5390625, 30.75)" style=""><foreignObject width="40.375" height="24"><div xmlns="http://www.w3.org/1999/xhtml" style="display: table-cell; white-space: nowrap; line-height: 1.5; max-width: 139px; text-align: start;"><span class="nodeLabel "><p>string</p></span></div></foreignObject></g><g class="label attribute-name" transform="translate(12.8359375, 30.75)" style=""><foreignObject width="39.703125" height="24"><div xmlns="http://www.w3.org/1999/xhtml" style="display: table-cell; white-space: nowrap; line-height: 1.5; max-width: 138px; text-align: start;"><span class="nodeLabel "><p>email</p></span></div></foreignObject></g><g class="label attribute-keys" transform="translate(77.5390625, 30.75)" style=""><foreignObject width="0" height="0"><div xmlns="http://www.w3.org/1999/xhtml" style="display: table-cell; white-space: nowrap; line-height: 1.5; max-width: 100px; text-align: start;"><span class="nodeLabel "></span></div></foreignObject></g><g class="label attribute-comment" transform="translate(77.5390625, 30.75)" style=""><foreignObject width="0" height="0"><div xmlns="http://www.w3.org/1999/xhtml" style="display: table-cell; white-space: nowrap; line-height: 1.5; max-width: 100px; text-align: start;"><span class="nodeLabel "></span></div></foreignObject></g><g class="divider"><path d="M-65.0390625 -21.375 C-26.979318969505485 -21.375, 11.08042456098903 -21.375, 65.0390625 -21.375 M-65.0390625 -21.375 C-31.14794375539978 -21.375, 2.7431749892004405 -21.375, 65.0390625 -21.375" stroke="#9370DB" stroke-width="1.3" fill="none" stroke-dasharray="0 0"></path></g><g class="divider"><path d="M0.3359375 -21.375 C0.3359375 -1.7987620523701473, 0.3359375 17.777475895259705, 0.3359375 64.125 M0.3359375 -21.375 C0.3359375 7.497852128067137, 0.3359375 36.370704256134275, 0.3359375 64.125" stroke="#9370DB" stroke-width="1.3" fill="none" stroke-dasharray="0 0"></path></g><g class="divider"><path d="M-65.0390625 -21.375 C-31.495616243871524 -21.375, 2.047830012256952 -21.375, 65.0390625 -21.375 M-65.0390625 -21.375 C-34.23428457554267 -21.375, -3.429506651085333 -21.375, 65.0390625 -21.375" stroke="#9370DB" stroke-width="1.3" fill="none" stroke-dasharray="0 0"></path></g></g><g class="node default " id="entity-ORDER-1" transform="translate(76.828125, 303.375)"><g style=""><path d="M-68.828125 -64.125 L68.828125 -64.125 L68.828125 64.125 L-68.828125 64.125" stroke="none" stroke-width="0" fill="#ECECFF"></path><path d="M-68.828125 -64.125 C-36.34856456744629 -64.125, -3.8690041348925774 -64.125, 68.828125 -64.125 M-68.828125 -64.125 C-20.2880216465677 -64.125, 28.2520817068646 -64.125, 68.828125 -64.125 M68.828125 -64.125 C68.828125 -25.076524453533153, 68.828125 13.971951092933693, 68.828125 64.125 M68.828125 -64.125 C68.828125 -14.927098760181039, 68.828125 34.27080247963792, 68.828125 64.125 M68.828125 64.125 C24.884518401677852 64.125, -19.059088196644296 64.125, -68.828125 64.125 M68.828125 64.125 C26.705673783981418 64.125, -15.416777432037165 64.125, -68.828125 64.125 M-68.828125 64.125 C-68.828125 25.562651277070962, -68.828125 -12.999697445858075, -68.828125 -64.125 M-68.828125 64.125 C-68.828125 34.17283250399639, -68.828125 4.220665007992785, -68.828125 -64.125" stroke="#9370DB" stroke-width="1.3" fill="none" stroke-dasharray="0 0"></path></g><g style="" class="row-rect-odd"><path d="M-68.828125 -21.375 L68.828125 -21.375 L68.828125 21.375 L-68.828125 21.375" stroke="none" stroke-width="0" fill="hsl(240, 100%, 100%)"></path><path d="M-68.828125 -21.375 C-20.26814696325451 -21.375, 28.291831073490982 -21.375, 68.828125 -21.375 M-68.828125 -21.375 C-34.70502613896324 -21.375, -0.5819272779264821 -21.375, 68.828125 -21.375 M68.828125 -21.375 C68.828125 -11.62140053876208, 68.828125 -1.8678010775241596, 68.828125 21.375 M68.828125 -21.375 C68.828125 -6.376547762555701, 68.828125 8.621904474888598, 68.828125 21.375 M68.828125 21.375 C27.460201610349188 21.375, -13.907721779301625 21.375, -68.828125 21.375 M68.828125 21.375 C31.572401381205395 21.375, -5.683322237589209 21.375, -68.828125 21.375 M-68.828125 21.375 C-68.828125 7.0650035320913105, -68.828125 -7.244992935817379, -68.828125 -21.375 M-68.828125 21.375 C-68.828125 10.02318307425606, -68.828125 -1.3286338514878793, -68.828125 -21.375" stroke="#9370DB" stroke-width="1.3" fill="none" stroke-dasharray="0 0"></path></g><g style="" class="row-rect-even"><path d="M-68.828125 21.375 L68.828125 21.375 L68.828125 64.125 L-68.828125 64.125" stroke="none" stroke-width="0" fill="hsl(240, 100%, 97.2745098039%)"></path><path d="M-68.828125 21.375 C-40.06500268471726 21.375, -11.301880369434507 21.375, 68.828125 21.375 M-68.828125 21.375 C-21.22236814023394 21.375, 26.38338871953212 21.375, 68.828125 21.375 M68.828125 21.375 C68.828125 37.67861811125495, 68.828125 53.9822362225099, 68.828125 64.125 M68.828125 21.375 C68.828125 33.35596574549968, 68.828125 45.33693149099936, 68.828125 64.125 M68.828125 64.125 C25.306665572792497 64.125, -18.214793854415007 64.125, -68.828125 64.125 M68.828125 64.125 C35.22495191227373 64.125, 1.6217788245474622 64.125, -68.828125 64.125 M-68.828125 64.125 C-68.828125 51.643953434191985, -68.828125 39.16290686838397, -68.828125 21.375 M-68.828125 64.125 C-68.828125 50.44021536346075, -68.828125 36.7554307269215, -68.828125 21.375" stroke="#9370DB" stroke-width="1.3" fill="none" stroke-dasharray="0 0"></path></g><g class="label name" transform="translate(-23.8984375, -54.75)" style=""><foreignObject width="47.796875" height="24"><div xmlns="http://www.w3.org/1999/xhtml" style="display: table-cell; white-space: nowrap; line-height: 1.5; max-width: 158px; text-align: start;"><span class="nodeLabel "><p>ORDER</p></span></div></foreignObject></g><g class="label attribute-type" transform="translate(-56.328125, -12)" style=""><foreignObject width="19.65625" height="24"><div xmlns="http://www.w3.org/1999/xhtml" style="display: table-cell; white-space: nowrap; line-height: 1.5; max-width: 117px; text-align: start;"><span class="nodeLabel "><p>int</p></span></div></foreignObject></g><g class="label attribute-name" transform="translate(1.0625, -12)" style=""><foreignObject width="13.484375" height="24"><div xmlns="http://www.w3.org/1999/xhtml" style="display: table-cell; white-space: nowrap; line-height: 1.5; max-width: 112px; text-align: start;"><span class="nodeLabel "><p>id</p></span></div></foreignObject></g><g class="label attribute-keys" transform="translate(81.328125, -12)" style=""><foreignObject width="0" height="0"><div xmlns="http://www.w3.org/1999/xhtml" style="display: table-cell; white-space: nowrap; line-height: 1.5; max-width: 100px; text-align: start;"><span class="nodeLabel "></span></div></foreignObject></g><g class="label attribute-comment" transform="translate(81.328125, -12)" style=""><foreignObject width="0" height="0"><div xmlns="http://www.w3.org/1999/xhtml" style="display: table-cell; white-space: nowrap; line-height: 1.5; max-width: 100px; text-align: start;"><span class="nodeLabel "></span></div></foreignObject></g><g class="label attribute-type" transform="translate(-56.328125, 30.75)" style=""><foreignObject width="32.390625" height="24"><div xmlns="http://www.w3.org/1999/xhtml" style="display: table-cell; white-space: nowrap; line-height: 1.5; max-width: 131px; text-align: start;"><span class="nodeLabel "><p>date</p></span></div></foreignObject></g><g class="label attribute-name" transform="translate(1.0625, 30.75)" style=""><foreignObject width="55.265625" height="24"><div xmlns="http://www.w3.org/1999/xhtml" style="display: table-cell; white-space: nowrap; line-height: 1.5; max-width: 153px; text-align: start;"><span class="nodeLabel "><p>created</p></span></div></foreignObject></g><g class="label attribute-keys" transform="translate(81.328125, 30.75)" style=""><foreignObject width="0" height="0"><div xmlns="http://www.w3.org/1999/xhtml" style="display: table-cell; white-space: nowrap; line-height: 1.5; max-width: 100px; text-align: start;"><span class="nodeLabel "></span></div></foreignObject></g><g class="label attribute-comment" transform="translate(81.328125, 30.75)" style=""><foreignObject width="0" height="0"><div xmlns="http://www.w3.org/1999/xhtml" style="display: table-cell; white-space: nowrap; line-height: 1.5; max-width: 100px; text-align: start;"><span class="nodeLabel "></span></div></foreignObject></g><g class="divider"><path d="M-68.828125 -21.375 C-17.284188418672542 -21.375, 34.259748162654915 -21.375, 68.828125 -21.375 M-68.828125 -21.375 C-34.314324040288824 -21.375, 0.19947691942235224 -21.375, 68.828125 -21.375" stroke="#9370DB" stroke-width="1.3" fill="none" stroke-dasharray="0 0"></path></g><g class="divider"><path d="M-11.4375 -21.375 C-11.4375 -2.4176746617406586, -11.4375 16.539650676518683, -11.4375 64.125 M-11.4375 -21.375 C-11.4375 9.180211097089508, -11.4375 39.735422194179016, -11.4375 64.125" stroke="#9370DB" stroke-width="1.3" fill="none" stroke-dasharray="0 0"></path></g><g class="divider"><path d="M-68.828125 -21.375 C-13.906927408474772 -21.375, 41.014270183050456 -21.375, 68.828125 -21.375 M-68.828125 -21.375 C-16.59923019332969 -21.375, 35.62966461334062 -21.375, 68.828125 -21.375" stroke="#9370DB" stroke-width="1.3" fill="none" stroke-dasharray="0 0"></path></g></g><g class="node default " id="entity-ITEM-2" transform="translate(76.828125, 512.5)"><rect class="basic label-container" style="" x="-50" y="-42" width="100" height="84"></rect><g class="label" style="" transform="translate(-16.8359375, -12)"><rect></rect><foreignObject width="33.671875" height="24"><div xmlns="http://www.w3.org/1999/xhtml" style="display: table-cell; white-space: nowrap; line-height: 1.5; max-width: 100px; text-align: center;"><span class="nodeLabel "><p>ITEM</p></span></div></foreignObject></g></g></g></g></g></svg>
