<?xml version="1.0" encoding="UTF-8"?>
<svg xmlns="http://www.w3.org/2000/svg" width="1403.0400000000002" height="560.8" viewBox="-8 -28.000000000000014 1403.0400000000002 560.8" class="mermaid">
  <style>

.mermaid {
  font-family: trebuchet ms, verdana, arial, sans-serif;
  font-size: 16px;
}

.node rect,
.node polygon,
.node circle,
.node ellipse,
.node path {
  fill: #ECECFF;
  stroke: #9370DB;
  stroke-width: 1px;
}

.node line {
  stroke: #9370DB;
  stroke-width: 1px;
}

.node .label {
  fill: #333333;
}

.node text {
  fill: #333333;
  font-family: trebuchet ms, verdana, arial, sans-serif;
  font-size: 16px;
}

.edge-path {
  fill: none;
  stroke: #333333;
  stroke-width: 1px;
}

.edge-label {
  fill: #333333;
  font-family: trebuchet ms, verdana, arial, sans-serif;
}

.edge-label-bg {
  fill: rgba(232, 232, 232, 0.8);
}

.subgraph {
  fill: #ffffde;
  stroke: #aaaa33;
  stroke-width: 1px;
}

.subgraph-title {
  fill: #333333;
  font-weight: bold;
}

.cluster rect {
  fill: #ffffde;
  stroke: #aaaa33;
  stroke-width: 1px;
  rx: 5px;
  ry: 5px;
}

.cluster-label {
  fill: #333333;
  font-family: trebuchet ms, verdana, arial, sans-serif;
  font-size: 16px;
  font-weight: bold;
}

marker path {
  fill: #333333;
  stroke: #333333;
}

  </style>
  <defs>
    <marker id="arrow_point" viewBox="0 0 10 10" refX="10" refY="5" markerWidth="8" markerHeight="8" orient="auto" markerUnits="userSpaceOnUse">
      <path d="M 0 0 L 10 5 L 0 10 z"/>
    </marker>
    <marker id="arrow_point_start" viewBox="0 0 10 10" refX="4.5" refY="5" markerWidth="8" markerHeight="8" orient="auto" markerUnits="userSpaceOnUse">
      <path d="M 0 5 L 10 10 L 10 0 z"/>
    </marker>
    <marker id="arrow_cross" viewBox="0 0 11 11" refX="12" refY="5.2" markerWidth="11" markerHeight="11" orient="auto" markerUnits="userSpaceOnUse">
      <path d="M 1 1 L 10 10 M 10 1 L 1 10" fill="none" stroke-width="2"/>
    </marker>
    <marker id="arrow_cross_start" viewBox="0 0 11 11" refX="-1" refY="5.2" markerWidth="11" markerHeight="11" orient="auto" markerUnits="userSpaceOnUse">
      <path d="M 1 1 L 10 10 M 10 1 L 1 10" stroke-width="2" fill="none"/>
    </marker>
    <marker id="arrow_circle" viewBox="0 0 10 10" refX="11" refY="5" markerWidth="11" markerHeight="11" orient="auto" markerUnits="userSpaceOnUse">
      <circle cx="5" cy="5" r="5"/>
    </marker>
    <marker id="arrow_circle_start" viewBox="0 0 10 10" refX="-1" refY="5" markerWidth="11" markerHeight="11" orient="auto" markerUnits="userSpaceOnUse">
      <circle cx="5" cy="5" r="5"/>
    </marker>
  </defs>
  <g class="root">
    <g class="clusters">
      <g class="subgraph" id="subgraph-A">
        <rect x="20.000000000000014" y="-20.000000000000014" width="574.04" height="532.8" class="cluster"/>
        <text x="307.02" y="-4.000000000000014" class="cluster-label" text-anchor="middle">A</text>
      </g>
    </g>
    <g class="edgePaths">
      <g class="edge" id="edge-L-sq-ci-0">
        <path d="M 1313.44 158.60 C 1313.44 193.87, 1313.44 229.13, 1313.44 252.60 C 1313.44 276.07, 1313.44 287.73, 1313.44 305.00 C 1313.44 345.13, 1313.44 368.00, 1313.44 368.00" class="edge-path" fill="none" marker-end="url(#arrow_point)" stroke-width="1"/>
      </g>
      <g class="edge" id="edge-L-od-ro-0">
        <path d="M 508.92 158.60 C 508.92 205.53, 508.92 252.47, 490.75 290.85 C 472.59 329.23, 436.25 359.05, 399.92 388.88" class="edge-path" fill="none" stroke-width="1" marker-end="url(#arrow_point)"/>
      </g>
      <g class="edge" id="edge-L-di-ro-0">
        <path d="M 147.20 239.40 C 147.20 259.40, 147.20 279.40, 172.79 305.80 C 198.37 332.20, 249.55 365.00, 300.72 397.81" class="edge-path" stroke-width="2" marker-end="url(#arrow_point)" stroke-dasharray="3,3" fill="none"/>
      </g>
      <g class="edge" id="edge-L-di-ro2-0">
        <path d="M 254.40000000000003 132.2 L 169.8 132.2" class="edge-path" marker-end="url(#arrow_point)" fill="none" stroke-width="3.5"/>
      </g>
      <g class="edge" id="edge-L-e-od3-0">
        <path d="M 1022.76 180.08 C 977.75 208.19, 932.73 236.29, 910.23 270.41 C 887.72 304.53, 887.72 344.67, 887.72 384.80" class="edge-path" marker-end="url(#arrow_point)" fill="none" stroke-width="1"/>
      </g>
      <g class="edge" id="edge-L-e-f-0">
        <path d="M 1115.59 221.15 L 1123.44 403.20" class="edge-path" marker-end="url(#arrow_point)" stroke-width="1" fill="none"/>
      </g>
      <g class="edge" id="edge-L-cyr-cyr2-0">
        <path d="M 592.52 158.60 C 592.52 193.87, 592.52 229.13, 592.52 252.60 C 592.52 276.07, 592.52 287.73, 592.52 299.40 C 592.52 322.73, 592.52 334.40, 592.52 334.40" class="edge-path" marker-end="url(#arrow_point)" fill="none" stroke-width="1"/>
      </g>
    </g>
    <g class="edgeLabels">
      <g class="edgeLabel" id="edge-label-L-od-ro-0">
        <rect x="461.6331476116933" y="279.4713000060374" width="94.39999999999999" height="40" class="edge-label-bg"/>
        <text x="508.8331476116933" y="299.4713000060374" class="edge-label" text-anchor="middle" dominant-baseline="central"><tspan x="508.8331476116933" y="299.4713000060374" dy="-0.6em">Two line</tspan><tspan x="508.8331476116933" dy="1.2em">edge comment</tspan></text>
      </g>
    </g>
    <g class="nodes">
      <g class="node" id="node-ci">
        <circle cx="1313.44" cy="429.6" r="61.599999999999994"/>
        <text x="1313.44" y="429.6" class="label" text-anchor="middle" dominant-baseline="central">Circle shape</text>
      </g>
      <g class="node" id="node-cyr">
        <rect x="538.1199999999999" y="105.79999999999998" width="108.8" height="52.8"/>
        <text x="592.5199999999999" y="132.2" class="label" text-anchor="middle" dominant-baseline="central">Cyrillic</text>
      </g>
      <g class="node" id="node-cyr2">
        <circle cx="592.5199999999999" cy="429.59999999999997" r="95.2"/>
        <text x="592.5199999999999" y="429.59999999999997" class="label" dominant-baseline="central" text-anchor="middle">Circle shape Начало</text>
      </g>
      <g class="node" id="node-di">
        <polygon points="147.20000000000002,24.999999999999986 254.40000000000003,132.2 147.20000000000002,239.39999999999998 40.000000000000014,132.2" style="fill:#f96 !important;stroke:#333 !important;stroke-width:4px !important"/>
        <text x="147.20000000000002" y="132.2" class="label" dominant-baseline="central" text-anchor="middle"><tspan x="147.20000000000002" y="132.2" dy="-0.6em">Diamond with </tspan><tspan x="147.20000000000002" dy="1.2em"> line break</tspan></text>
      </g>
      <g class="node" id="node-e">
        <circle cx="1099.44" cy="132.2" r="90.39999999999999" style="fill:#9f6 !important;stroke:#333 !important;stroke-width:2px !important"/>
        <text x="1099.44" y="132.2" class="label" text-anchor="middle" dominant-baseline="central"><tspan x="1099.44" y="132.2" dy="-1.2em">Inner / circle</tspan><tspan x="1099.44" dy="1.2em">and some odd </tspan><tspan x="1099.44" dy="1.2em">special characters</tspan></text>
      </g>
      <g class="node" id="node-f">
        <path d="M 1074.04 403.2 H 1172.84 A 5 5 0 0 1 1177.84 408.2 V 451 A 5 5 0 0 1 1172.84 456 H 1074.04 A 5 5 0 0 1 1069.04 451 V 408.2 A 5 5 0 0 1 1074.04 403.2 Z"/>
        <text x="1123.44" y="429.59999999999997" class="label" text-anchor="middle" dominant-baseline="central">,.?!+-*ز</text>
      </g>
      <g class="node" id="node-od">
        <path d="M 443.79999999999995 105.79999999999998 L 574.04 105.79999999999998 L 554.5039999999999 132.2 L 574.04 158.59999999999997 L 443.79999999999995 158.59999999999997 Z"/>
        <text x="508.91999999999996" y="132.2" class="label" dominant-baseline="central" text-anchor="middle">Odd shape</text>
      </g>
      <g class="node" id="node-od3">
        <path d="M 737.7199999999999 384.79999999999995 L 1037.7199999999998 384.79999999999995 L 992.7199999999998 429.59999999999997 L 1037.7199999999998 474.4 L 737.7199999999999 474.4 Z"/>
        <text x="887.7199999999999" y="429.59999999999997" class="label" text-anchor="middle" dominant-baseline="central"><tspan x="887.7199999999999" y="429.59999999999997" dy="-0.6em">Really long text with linebreak</tspan><tspan x="887.7199999999999" dy="1.2em">in an Odd shape</tspan></text>
      </g>
      <g class="node" id="node-ro">
        <path d="M 305.72 366.4 H 394.92 A 5 5 0 0 1 399.92 371.4 V 487.79999999999995 A 5 5 0 0 1 394.92 492.79999999999995 H 305.72 A 5 5 0 0 1 300.72 487.79999999999995 V 371.4 A 5 5 0 0 1 305.72 366.4 Z"/>
        <text x="350.32000000000005" y="429.59999999999997" class="label" text-anchor="middle" dominant-baseline="central"><tspan x="350.32000000000005" y="429.59999999999997" dy="-1.2em">Rounded</tspan><tspan x="350.32000000000005" dy="1.2em">square</tspan><tspan x="350.32000000000005" dy="1.2em">shape</tspan></text>
      </g>
      <g class="node" id="node-ro2">
        <path d="M 174.8 105.79999999999998 H 388.8 A 5 5 0 0 1 393.8 110.79999999999998 V 153.59999999999997 A 5 5 0 0 1 388.8 158.59999999999997 H 174.8 A 5 5 0 0 1 169.8 153.59999999999997 V 110.79999999999998 A 5 5 0 0 1 174.8 105.79999999999998 Z"/>
        <text x="281.8" y="132.2" class="label" text-anchor="middle" dominant-baseline="central">Rounded square shape</text>
      </g>
      <g class="node" id="node-sq">
        <rect x="1239.8400000000001" y="105.79999999999998" width="147.2" height="52.8" style="fill:#9f6 !important;stroke:#333 !important;stroke-width:2px !important"/>
        <text x="1313.44" y="132.2" class="label" dominant-baseline="central" text-anchor="middle">Square shape</text>
      </g>
    </g>
  </g>
</svg>
