<?xml version="1.0" encoding="UTF-8"?>
<svg xmlns="http://www.w3.org/2000/svg" width="846" height="1960.2399999999996" viewBox="-8 -27.999999999999993 846 1960.2399999999996" class="mermaid">
  <style>

.mermaid {
  font-family: trebuchet ms, verdana, arial, sans-serif;
  font-size: 16px;
}

.node rect,
.node polygon,
.node circle,
.node ellipse,
.node path {
  fill: #ECECFF;
  stroke: #9370DB;
  stroke-width: 1px;
}

.node line {
  stroke: #9370DB;
  stroke-width: 1px;
}

.node .label {
  fill: #333333;
}

.node text {
  fill: #333333;
  font-family: trebuchet ms, verdana, arial, sans-serif;
  font-size: 16px;
}

.edge-path {
  fill: none;
  stroke: #333333;
  stroke-width: 1px;
}

.edge-label {
  fill: #333333;
  font-family: trebuchet ms, verdana, arial, sans-serif;
}

.edge-label-bg {
  fill: rgba(232, 232, 232, 0.8);
}

.subgraph {
  fill: #ffffde;
  stroke: #aaaa33;
  stroke-width: 1px;
}

.subgraph-title {
  fill: #333333;
  font-weight: bold;
}

.cluster rect {
  fill: #ffffde;
  stroke: #aaaa33;
  stroke-width: 1px;
  rx: 5px;
  ry: 5px;
}

.cluster-label {
  fill: #333333;
  font-family: trebuchet ms, verdana, arial, sans-serif;
  font-size: 16px;
  font-weight: bold;
}

marker path {
  fill: #333333;
  stroke: #333333;
}

  </style>
  <defs>
    <marker id="arrow_point" viewBox="0 0 10 10" refX="10" refY="5" markerWidth="8" markerHeight="8" orient="auto" markerUnits="userSpaceOnUse">
      <path d="M 0 0 L 10 5 L 0 10 z"/>
    </marker>
    <marker id="arrow_point_start" viewBox="0 0 10 10" refX="4.5" refY="5" markerWidth="8" markerHeight="8" orient="auto" markerUnits="userSpaceOnUse">
      <path d="M 0 5 L 10 10 L 10 0 z"/>
    </marker>
    <marker id="arrow_cross" viewBox="0 0 11 11" refX="12" refY="5.2" markerWidth="11" markerHeight="11" orient="auto" markerUnits="userSpaceOnUse">
      <path d="M 1 1 L 10 10 M 10 1 L 1 10" fill="none" stroke-width="2"/>
    </marker>
    <marker id="arrow_cross_start" viewBox="0 0 11 11" refX="-1" refY="5.2" markerWidth="11" markerHeight="11" orient="auto" markerUnits="userSpaceOnUse">
      <path d="M 1 1 L 10 10 M 10 1 L 1 10" stroke-width="2" fill="none"/>
    </marker>
    <marker id="arrow_circle" viewBox="0 0 10 10" refX="11" refY="5" markerWidth="11" markerHeight="11" orient="auto" markerUnits="userSpaceOnUse">
      <circle cx="5" cy="5" r="5"/>
    </marker>
    <marker id="arrow_circle_start" viewBox="0 0 10 10" refX="-1" refY="5" markerWidth="11" markerHeight="11" orient="auto" markerUnits="userSpaceOnUse">
      <circle cx="5" cy="5" r="5"/>
    </marker>
  </defs>
  <g class="root">
    <g class="clusters">
      <g class="subgraph" id="subgraph-main">
        <rect x="219" y="-19.999999999999993" width="390" height="718.4399999999999" class="cluster"/>
        <text x="414" y="-3.999999999999993" class="cluster-label" text-anchor="middle">Main Flow</text>
      </g>
      <g class="subgraph" id="subgraph-shapes">
        <rect x="300.92" y="733.4399999999999" width="228.16000000000003" height="930.1999999999997" class="cluster"/>
        <text x="415" y="749.4399999999999" class="cluster-label" text-anchor="middle">All Shapes</text>
      </g>
      <g class="subgraph" id="subgraph-edges">
        <rect x="20" y="1698.6399999999996" width="790" height="220.5999999999999" class="cluster"/>
        <text x="415" y="1714.6399999999996" class="cluster-label" text-anchor="middle">Edge Types</text>
      </g>
    </g>
    <g class="edgePaths">
      <g class="edge" id="edge-L-A-B-0">
        <path d="M 415.00 77.80 C 415.00 86.13, 415.00 94.47, 415.00 102.80 C 415.00 111.13, 415.00 119.47, 415.00 127.80" class="edge-path" fill="none" stroke-width="1" marker-end="url(#arrow_point)"/>
      </g>
      <g class="edge" id="edge-L-B-C-0">
        <path d="M 415.00 180.60 C 415.00 188.93, 415.00 197.27, 415.00 205.60 C 415.00 213.93, 415.00 222.27, 415.00 230.60" class="edge-path" stroke-width="1" marker-end="url(#arrow_point)" fill="none"/>
      </g>
      <g class="edge" id="edge-L-C-D-0">
        <path d="M 371.68 393.68 L 315.00 507.00" class="edge-path" marker-end="url(#arrow_point)" fill="none" stroke-width="1"/>
      </g>
      <g class="edge" id="edge-L-C-E-0">
        <path d="M 458.32 393.68 L 515.00 507.00" class="edge-path" fill="none" stroke-width="1" marker-end="url(#arrow_point)"/>
      </g>
      <g class="edge" id="edge-L-D-F-0">
        <path d="M 315.00 559.80 L 357.14 609.80" class="edge-path" marker-end="url(#arrow_point)" stroke-width="1" fill="none"/>
      </g>
      <g class="edge" id="edge-L-E-F-0">
        <path d="M 515.00 559.80 L 472.86 609.80" class="edge-path" fill="none" marker-end="url(#arrow_point)" stroke-width="1"/>
      </g>
      <g class="edge" id="edge-L-G-H-0">
        <path d="M 415.00 844.04 C 415.00 852.37, 415.00 860.71, 415.00 869.04 C 415.00 877.37, 415.00 885.71, 415.00 894.04" class="edge-path" stroke-width="1" marker-end="url(#arrow_point)" fill="none"/>
      </g>
      <g class="edge" id="edge-L-H-I-0">
        <path d="M 415.00 946.84 C 415.00 955.17, 415.00 963.51, 415.00 971.84 C 415.00 980.17, 415.00 988.51, 415.00 996.84" class="edge-path" stroke-width="1" fill="none" marker-end="url(#arrow_point)"/>
      </g>
      <g class="edge" id="edge-L-I-J-0">
        <path d="M 415.00 1049.64 C 415.00 1057.97, 415.00 1066.31, 415.00 1074.64 C 415.00 1082.97, 415.00 1091.31, 415.00 1099.64" class="edge-path" marker-end="url(#arrow_point)" fill="none" stroke-width="1"/>
      </g>
      <g class="edge" id="edge-L-J-K-0">
        <path d="M 415.00 1152.44 C 415.00 1160.77, 415.00 1169.11, 415.00 1177.44 C 415.00 1185.77, 415.00 1194.11, 415.00 1202.44" class="edge-path" fill="none" stroke-width="1" marker-end="url(#arrow_point)"/>
      </g>
      <g class="edge" id="edge-L-K-L-0">
        <path d="M 415.00 1255.24 C 415.00 1263.57, 415.00 1271.91, 415.00 1280.24 C 415.00 1288.57, 415.00 1296.91, 415.00 1305.24" class="edge-path" fill="none" stroke-width="1" marker-end="url(#arrow_point)"/>
      </g>
      <g class="edge" id="edge-L-L-M-0">
        <path d="M 415.00 1358.04 C 415.00 1366.37, 415.00 1374.71, 415.00 1383.04 C 415.00 1391.37, 415.00 1399.71, 415.00 1408.04" class="edge-path" fill="none" stroke-width="1" marker-end="url(#arrow_point)"/>
      </g>
      <g class="edge" id="edge-L-M-N-0">
        <path d="M 415.00 1460.84 C 415.00 1469.17, 415.00 1477.51, 415.00 1485.84 C 415.00 1494.17, 415.00 1502.51, 415.00 1510.84" class="edge-path" stroke-width="1" marker-end="url(#arrow_point)" fill="none"/>
      </g>
      <g class="edge" id="edge-L-O-P-0">
        <path d="M 390.00 1773.71 C 281.67 1789.62, 173.33 1805.53, 119.17 1817.65 C 65.00 1829.77, 65.00 1838.11, 65.00 1846.44" class="edge-path" stroke-width="1" marker-end="url(#arrow_point)" fill="none"/>
      </g>
      <g class="edge" id="edge-L-O-Q-0">
        <path d="M 390.00 1775.18 C 315.00 1790.60, 240.00 1806.02, 202.50 1817.90 C 165.00 1829.77, 165.00 1838.11, 165.00 1846.44" class="edge-path" stroke-width="1" fill="none"/>
      </g>
      <g class="edge" id="edge-L-O-R-0">
        <path d="M 390.00 1778.61 C 348.33 1792.88, 306.67 1807.16, 285.83 1818.47 C 265.00 1829.77, 265.00 1838.11, 265.00 1846.44" class="edge-path" stroke-dasharray="3,3" fill="none" stroke-width="2"/>
      </g>
      <g class="edge" id="edge-L-O-S-0">
        <path d="M 390.00 1795.74 L 365.00 1846.44" class="edge-path" fill="none" stroke-width="2" marker-end="url(#arrow_point)" stroke-dasharray="3,3"/>
      </g>
      <g class="edge" id="edge-L-O-T-0">
        <path d="M 440.00 1795.74 L 465.00 1846.44" class="edge-path" fill="none" stroke-width="3.5" marker-end="url(#arrow_point)"/>
      </g>
      <g class="edge" id="edge-L-O-U-0">
        <path d="M 440.00 1778.61 C 481.67 1792.88, 523.33 1807.16, 544.17 1818.47 C 565.00 1829.77, 565.00 1838.11, 565.00 1846.44" class="edge-path" stroke-width="1" fill="none" marker-end="url(#arrow_point)" marker-start="url(#arrow_point_start)"/>
      </g>
      <g class="edge" id="edge-L-O-V-0">
        <path d="M 440.00 1775.18 C 515.00 1790.60, 590.00 1806.02, 627.50 1817.90 C 665.00 1829.77, 665.00 1838.11, 665.00 1846.44" class="edge-path" fill="none" stroke-width="1" marker-start="url(#arrow_cross_start)" marker-end="url(#arrow_cross)"/>
      </g>
      <g class="edge" id="edge-L-O-W-0">
        <path d="M 440.00 1773.71 C 548.33 1789.62, 656.67 1805.53, 710.83 1817.65 C 765.00 1829.77, 765.00 1838.11, 765.00 1846.44" class="edge-path" stroke-width="1" fill="none" marker-end="url(#arrow_circle)" marker-start="url(#arrow_circle_start)"/>
      </g>
      <g class="edge" id="edge-L-F-G-0">
        <path d="M 415.00 678.44 C 415.00 686.77, 415.00 695.11, 415.00 703.44 C 415.00 711.77, 415.00 720.11, 415.00 728.44 C 415.00 736.77, 415.00 745.11, 415.00 753.44 C 415.00 770.11, 415.00 778.44, 415.00 778.44" class="edge-path" stroke-width="1" marker-end="url(#arrow_point)" fill="none"/>
      </g>
      <g class="edge" id="edge-L-N-O-0">
        <path d="M 415.00 1643.64 C 415.00 1651.97, 415.00 1660.31, 415.00 1668.64 C 415.00 1676.97, 415.00 1685.31, 415.00 1693.64 C 415.00 1701.97, 415.00 1710.31, 415.00 1718.64 C 415.00 1735.31, 415.00 1743.64, 415.00 1743.64" class="edge-path" marker-end="url(#arrow_point)" fill="none" stroke-width="1"/>
      </g>
    </g>
    <g class="edgeLabels">
      <g class="edgeLabel" id="edge-label-L-C-D-0">
        <rect x="318.2787158405461" y="436.01521470836525" width="29.599999999999998" height="22" class="edge-label-bg"/>
        <text x="333.0787158405461" y="447.01521470836525" class="edge-label" text-anchor="middle" dominant-baseline="central">Yes</text>
      </g>
      <g class="edgeLabel" id="edge-label-L-C-E-0">
        <rect x="485.7212841594539" y="436.01521470836525" width="22.4" height="22" class="edge-label-bg"/>
        <text x="496.9212841594539" y="447.01521470836525" class="edge-label" text-anchor="middle" dominant-baseline="central">No</text>
      </g>
    </g>
    <g class="nodes">
      <g class="node" id="node-A">
        <rect x="355.8" y="25.000000000000007" width="118.39999999999999" height="52.8"/>
        <text x="415" y="51.400000000000006" class="label" dominant-baseline="central" text-anchor="middle">Rectangle</text>
      </g>
      <g class="node" id="node-B">
        <path d="M 370.4 127.80000000000001 H 459.59999999999997 A 5 5 0 0 1 464.59999999999997 132.8 V 175.60000000000002 A 5 5 0 0 1 459.59999999999997 180.60000000000002 H 370.4 A 5 5 0 0 1 365.4 175.60000000000002 V 132.8 A 5 5 0 0 1 370.4 127.80000000000001 Z"/>
        <text x="415" y="154.20000000000002" class="label" text-anchor="middle" dominant-baseline="central">Rounded</text>
      </g>
      <g class="node" id="node-C">
        <polygon points="415,230.60000000000002 518.2,333.8 415,437 311.8,333.8"/>
        <text x="415" y="333.8" class="label" text-anchor="middle" dominant-baseline="central">Diamond Decision</text>
      </g>
      <g class="node" id="node-D">
        <path d="M 265.4 507 H 364.6 A 26.4 26.4 0 0 1 364.6 559.8 H 265.4 A 26.4 26.4 0 0 1 265.4 507 Z"/>
        <text x="315" y="533.4" class="label" text-anchor="middle" dominant-baseline="central">Stadium</text>
      </g>
      <g class="node" id="node-E">
        <polygon points="451,507 579,507 579,559.8 451,559.8 451,507 441,507 589,507 589,559.8 441,559.8 441,507"/>
        <text x="515" y="533.4" class="label" text-anchor="middle" dominant-baseline="central">Subroutine</text>
      </g>
      <g class="node" id="node-F">
        <path d="M 346.2 620.096 a 68.8 10.296 0 0 0 137.6 0 a 68.8 10.296 0 0 0 -137.6 0 l 0 48.048 a 68.8 10.296 0 0 0 137.6 0 l 0 -48.048"/>
        <text x="415" y="644.12" class="label" dominant-baseline="central" text-anchor="middle">Cylinder DB</text>
      </g>
      <g class="node" id="node-G">
        <circle cx="415" cy="811.2399999999999" r="32.8"/>
        <text x="415" y="811.2399999999999" class="label" text-anchor="middle" dominant-baseline="central">Circle</text>
      </g>
      <g class="node" id="node-H">
        <path d="M 344.6 894.04 L 485.40000000000003 894.04 L 464.28000000000003 920.4399999999999 L 485.40000000000003 946.8399999999999 L 344.6 946.8399999999999 Z"/>
        <text x="415" y="920.4399999999999" class="label" text-anchor="middle" dominant-baseline="central">Asymmetric</text>
      </g>
      <g class="node" id="node-I">
        <polygon points="349.144,996.84 509.08000000000004,996.84 480.85600000000005,1049.64 320.92,1049.64"/>
        <text x="415" y="1023.24" class="label" dominant-baseline="central" text-anchor="middle">Parallelogram</text>
      </g>
      <g class="node" id="node-J">
        <polygon points="326.68,1099.6399999999999 476.824,1099.6399999999999 503.32,1152.4399999999998 353.176,1152.4399999999998"/>
        <text x="415" y="1126.04" class="label" text-anchor="middle" dominant-baseline="central">Reverse Para</text>
      </g>
      <g class="node" id="node-K">
        <polygon points="365.27200000000005,1202.4399999999998 464.728,1202.4399999999998 486.04,1255.2399999999998 343.96000000000004,1255.2399999999998"/>
        <text x="415" y="1228.84" class="label" text-anchor="middle" dominant-baseline="central">Trapezoid</text>
      </g>
      <g class="node" id="node-L">
        <polygon points="320.92,1305.2399999999998 509.08000000000004,1305.2399999999998 480.85600000000005,1358.0399999999997 349.144,1358.0399999999997"/>
        <text x="415" y="1331.6399999999999" class="label" text-anchor="middle" dominant-baseline="central">Inv Trapezoid</text>
      </g>
      <g class="node" id="node-M">
        <path d="M 373.336 1408.0399999999997 L 456.664 1408.0399999999997 L 474.52 1434.4399999999998 L 456.664 1460.8399999999997 L 373.336 1460.8399999999997 L 355.48 1434.4399999999998 Z"/>
        <text x="415" y="1434.4399999999998" class="label" dominant-baseline="central" text-anchor="middle">Hexagon</text>
      </g>
      <g class="node" id="node-N">
        <g>
          <circle cx="415" cy="1577.2399999999998" r="66.4"/>
          <circle cx="415" cy="1577.2399999999998" r="62.400000000000006"/>
        </g>
        <text x="415" y="1577.2399999999998" class="label" text-anchor="middle" dominant-baseline="central">Double Circle</text>
      </g>
      <g class="node" id="node-O">
        <rect x="390" y="1743.6399999999996" width="50" height="52.8"/>
        <text x="415" y="1770.0399999999997" class="label" text-anchor="middle" dominant-baseline="central">O</text>
      </g>
      <g class="node" id="node-P">
        <rect x="40" y="1846.4399999999996" width="50" height="52.8"/>
        <text x="65" y="1872.8399999999997" class="label" dominant-baseline="central" text-anchor="middle">P</text>
      </g>
      <g class="node" id="node-Q">
        <rect x="140" y="1846.4399999999996" width="50" height="52.8"/>
        <text x="165" y="1872.8399999999997" class="label" text-anchor="middle" dominant-baseline="central">Q</text>
      </g>
      <g class="node" id="node-R">
        <rect x="240" y="1846.4399999999996" width="50" height="52.8"/>
        <text x="265" y="1872.8399999999997" class="label" text-anchor="middle" dominant-baseline="central">R</text>
      </g>
      <g class="node" id="node-S">
        <rect x="340" y="1846.4399999999996" width="50" height="52.8"/>
        <text x="365" y="1872.8399999999997" class="label" text-anchor="middle" dominant-baseline="central">S</text>
      </g>
      <g class="node" id="node-T">
        <rect x="440" y="1846.4399999999996" width="50" height="52.8"/>
        <text x="465" y="1872.8399999999997" class="label" dominant-baseline="central" text-anchor="middle">T</text>
      </g>
      <g class="node" id="node-U">
        <rect x="540" y="1846.4399999999996" width="50" height="52.8"/>
        <text x="565" y="1872.8399999999997" class="label" dominant-baseline="central" text-anchor="middle">U</text>
      </g>
      <g class="node" id="node-V">
        <rect x="640" y="1846.4399999999996" width="50" height="52.8"/>
        <text x="665" y="1872.8399999999997" class="label" text-anchor="middle" dominant-baseline="central">V</text>
      </g>
      <g class="node" id="node-W">
        <rect x="740" y="1846.4399999999996" width="50" height="52.8"/>
        <text x="765" y="1872.8399999999997" class="label" text-anchor="middle" dominant-baseline="central">W</text>
      </g>
    </g>
  </g>
</svg>
