<?xml version="1.0" encoding="UTF-8"?>
<svg xmlns="http://www.w3.org/2000/svg" width="1230.3999999999999" height="171.59999999999997" viewBox="-8 -8 1230.3999999999999 171.59999999999997" class="mermaid">
  <style>

.mermaid {
  font-family: trebuchet ms, verdana, arial, sans-serif;
  font-size: 16px;
}

.node rect,
.node polygon,
.node circle,
.node ellipse,
.node path {
  fill: #ECECFF;
  stroke: #9370DB;
  stroke-width: 1px;
}

.node line {
  stroke: #9370DB;
  stroke-width: 1px;
}

.node .label {
  fill: #333333;
}

.node text {
  fill: #333333;
  font-family: trebuchet ms, verdana, arial, sans-serif;
  font-size: 16px;
}

.edge-path {
  fill: none;
  stroke: #333333;
  stroke-width: 1px;
}

.edge-label {
  fill: #333333;
  font-family: trebuchet ms, verdana, arial, sans-serif;
  font-size: 12px;
}

.edge-label-bg {
  fill: #ffffff;
}

.subgraph {
  fill: #ffffde;
  stroke: #aaaa33;
  stroke-width: 1px;
}

.subgraph-title {
  fill: #333333;
  font-weight: bold;
}

.cluster rect {
  fill: #ffffde;
  stroke: #aaaa33;
  stroke-width: 1px;
  rx: 5px;
  ry: 5px;
}

.cluster-label {
  fill: #333333;
  font-family: trebuchet ms, verdana, arial, sans-serif;
  font-size: 16px;
  font-weight: bold;
}

marker path {
  fill: #333333;
  stroke: #333333;
}

  </style>
  <defs>
    <marker id="arrow_point" viewBox="0 0 10 10" refX="10" refY="5" markerWidth="8" markerHeight="8" orient="auto" markerUnits="userSpaceOnUse">
      <path d="M 0 0 L 10 5 L 0 10 z"/>
    </marker>
    <marker id="arrow_point_start" viewBox="0 0 10 10" refX="4.5" refY="5" markerWidth="8" markerHeight="8" orient="auto" markerUnits="userSpaceOnUse">
      <path d="M 0 5 L 10 10 L 10 0 z"/>
    </marker>
    <marker id="arrow_cross" viewBox="0 0 11 11" refX="12" refY="5.2" markerWidth="11" markerHeight="11" orient="auto" markerUnits="userSpaceOnUse">
      <path d="M 1 1 L 10 10 M 10 1 L 1 10" stroke-width="2" fill="none"/>
    </marker>
    <marker id="arrow_cross_start" viewBox="0 0 11 11" refX="-1" refY="5.2" markerWidth="11" markerHeight="11" orient="auto" markerUnits="userSpaceOnUse">
      <path d="M 1 1 L 10 10 M 10 1 L 1 10" fill="none" stroke-width="2"/>
    </marker>
    <marker id="arrow_circle" viewBox="0 0 10 10" refX="11" refY="5" markerWidth="11" markerHeight="11" orient="auto" markerUnits="userSpaceOnUse">
      <circle cx="5" cy="5" r="5"/>
    </marker>
    <marker id="arrow_circle_start" viewBox="0 0 10 10" refX="-1" refY="5" markerWidth="11" markerHeight="11" orient="auto" markerUnits="userSpaceOnUse">
      <circle cx="5" cy="5" r="5"/>
    </marker>
  </defs>
  <g class="root">
    <g class="clusters">

    </g>
    <g class="edgePaths">
      <g class="edge" id="edge-L-A-B-0">
        <path d="M 80.00 77.80 C 88.33 77.80, 96.67 77.80, 105.00 77.80 C 113.33 77.80, 121.67 77.80, 130.00 77.80" class="edge-path" stroke-width="1" fill="none" marker-end="url(#arrow_point)"/>
      </g>
      <g class="edge" id="edge-L-B-C-0">
        <path d="M 245.94 64.14 C 263.82 59.36, 281.71 54.58, 297.32 50.54 C 312.93 46.49, 326.27 43.19, 339.60 39.88" class="edge-path" fill="none" marker-end="url(#arrow_point)" stroke-width="1"/>
      </g>
      <g class="edge" id="edge-L-B-D-0">
        <path d="M 245.94 91.46 C 263.82 96.24, 281.71 101.02, 297.32 105.06 C 312.93 109.11, 326.27 112.41, 339.60 115.72" class="edge-path" stroke-width="1" marker-end="url(#arrow_point)" fill="none"/>
      </g>
      <g class="edge" id="edge-L-C-E-0">
        <path d="M 448.40 42.43 C 456.73 44.89, 465.07 47.34, 473.40 50.68 C 481.73 54.01, 490.07 58.22, 498.40 62.44" class="edge-path" stroke-width="1" marker-end="url(#arrow_point)" fill="none"/>
      </g>
      <g class="edge" id="edge-L-D-E-0">
        <path d="M 448.40 113.17 C 456.73 110.71, 465.07 108.26, 473.40 104.92 C 481.73 101.59, 490.07 97.38, 498.40 93.16" class="edge-path" stroke-width="1" marker-end="url(#arrow_point)" fill="none"/>
      </g>
      <g class="edge" id="edge-L-E-F-0">
        <path d="M 559.20 77.80 C 567.53 77.80, 575.87 77.80, 584.20 77.80 C 592.53 77.80, 600.87 77.80, 609.20 77.80" class="edge-path" fill="none" stroke-width="1" marker-end="url(#arrow_point)"/>
      </g>
      <g class="edge" id="edge-L-F-G-0">
        <path d="M 742.00 77.80 C 750.33 77.80, 758.67 77.80, 767.00 77.80 C 775.33 77.80, 783.67 77.80, 792.00 77.80" class="edge-path" fill="none" stroke-width="1" marker-end="url(#arrow_point)"/>
      </g>
      <g class="edge" id="edge-L-G-H-0">
        <path d="M 940.00 77.80 C 948.33 77.80, 956.67 77.80, 965.00 77.80 C 973.33 77.80, 981.67 77.80, 990.00 77.80" class="edge-path" marker-end="url(#arrow_point)" stroke-width="1" fill="none"/>
      </g>
      <g class="edge" id="edge-L-H-I-0">
        <path d="M 1098.80 77.80 C 1107.13 77.80, 1115.47 77.80, 1123.80 77.80 C 1132.13 77.80, 1140.47 77.80, 1148.80 77.80" class="edge-path" marker-end="url(#arrow_circle)" fill="none" stroke-width="1" marker-start="url(#arrow_circle_start)"/>
      </g>
    </g>
    <g class="edgeLabels">
      <g class="edgeLabel" id="edge-label-L-B-C-0">
        <text x="272.76867469879517" y="56.968674698795176" class="edge-label" dominant-baseline="central" text-anchor="middle">Yes</text>
      </g>
      <g class="edgeLabel" id="edge-label-L-B-D-0">
        <text x="272.76867469879517" y="98.63132530120481" class="edge-label" dominant-baseline="central" text-anchor="middle">No</text>
      </g>
    </g>
    <g class="nodes">
      <g class="node" id="node-A">
        <rect x="0" y="51.4" width="80" height="52.8"/>
        <text x="40" y="77.8" class="label" text-anchor="middle" dominant-baseline="central">Start</text>
      </g>
      <g class="node" id="node-B">
        <polygon points="194.8,13 259.6,77.8 194.8,142.6 130,77.8"/>
        <text x="194.8" y="77.8" class="label" text-anchor="middle" dominant-baseline="central">Decision</text>
      </g>
      <g class="node" id="node-C">
        <rect x="339.6" y="0" width="108.8" height="52.8"/>
        <text x="394" y="26.4" class="label" dominant-baseline="central" text-anchor="middle">Action 1</text>
      </g>
      <g class="node" id="node-D">
        <rect x="339.6" y="102.79999999999998" width="108.8" height="52.8"/>
        <text x="394" y="129.2" class="label" text-anchor="middle" dominant-baseline="central">Action 2</text>
      </g>
      <g class="node" id="node-E">
        <rect x="498.4000000000001" y="51.4" width="60.8" height="52.8"/>
        <text x="528.8000000000001" y="77.8" class="label" text-anchor="middle" dominant-baseline="central">End</text>
      </g>
      <g class="node" id="node-F">
        <path d="M 635.6 51.4 H 715.6 A 26.4 26.4 0 0 1 715.6 104.19999999999999 H 635.6 A 26.4 26.4 0 0 1 635.6 51.4 Z"/>
        <text x="675.6" y="77.8" class="label" dominant-baseline="central" text-anchor="middle">Round</text>
      </g>
      <g class="node" id="node-G">
        <polygon points="802,51.4 930,51.4 930,104.19999999999999 802,104.19999999999999 802,51.4 792,51.4 940,51.4 940,104.19999999999999 792,104.19999999999999 792,51.4"/>
        <text x="866" y="77.8" class="label" text-anchor="middle" dominant-baseline="central">Subroutine</text>
      </g>
      <g class="node" id="node-H">
        <path d="M 990.0000000000001 53.775999999999996 a 54.4 10.296 0 0 0 108.8 0 a 54.4 10.296 0 0 0 -108.8 0 l 0 48.048 a 54.4 10.296 0 0 0 108.8 0 l 0 -48.048"/>
        <text x="1044.4" y="77.8" class="label" text-anchor="middle" dominant-baseline="central">Database</text>
      </g>
      <g class="node" id="node-I">
        <circle cx="1181.6" cy="77.8" r="32.8"/>
        <text x="1181.6" y="77.8" class="label" dominant-baseline="central" text-anchor="middle">Circle</text>
      </g>
    </g>
  </g>
</svg>
