<?xml version="1.0" encoding="UTF-8"?>
<svg xmlns="http://www.w3.org/2000/svg" width="1502.1" height="1111.68" viewBox="-8 -28 1502.1 1111.68" class="mermaid">
  <style>

.mermaid {
  font-family: trebuchet ms, verdana, arial, sans-serif;
  font-size: 16px;
}

.node rect,
.node polygon,
.node circle,
.node ellipse,
.node path {
  fill: #ECECFF;
  stroke: #9370DB;
  stroke-width: 1px;
}

.node line {
  stroke: #9370DB;
  stroke-width: 1px;
}

.node .label {
  fill: #333333;
}

.node text {
  fill: #333333;
  font-family: trebuchet ms, verdana, arial, sans-serif;
  font-size: 16px;
}

.edge-path {
  fill: none;
  stroke: #333333;
  stroke-width: 1px;
}

.edge-label {
  fill: #333333;
  font-family: trebuchet ms, verdana, arial, sans-serif;
}

.edge-label-bg {
  fill: rgba(232, 232, 232, 0.8);
}

.subgraph {
  fill: #ffffde;
  stroke: #aaaa33;
  stroke-width: 1px;
}

.subgraph-title {
  fill: #333333;
  font-weight: bold;
}

.cluster rect {
  fill: #ffffde;
  stroke: #aaaa33;
  stroke-width: 1px;
  rx: 5px;
  ry: 5px;
}

.cluster-label {
  fill: #333333;
  font-family: trebuchet ms, verdana, arial, sans-serif;
  font-size: 16px;
  font-weight: bold;
}

marker path {
  fill: #333333;
  stroke: #333333;
}

  </style>
  <defs>
    <marker id="arrow_point" viewBox="0 0 10 10" refX="10" refY="5" markerWidth="8" markerHeight="8" orient="auto" markerUnits="userSpaceOnUse">
      <path d="M 0 0 L 10 5 L 0 10 z"/>
    </marker>
    <marker id="arrow_point_start" viewBox="0 0 10 10" refX="4.5" refY="5" markerWidth="8" markerHeight="8" orient="auto" markerUnits="userSpaceOnUse">
      <path d="M 0 5 L 10 10 L 10 0 z"/>
    </marker>
    <marker id="arrow_cross" viewBox="0 0 11 11" refX="12" refY="5.2" markerWidth="11" markerHeight="11" orient="auto" markerUnits="userSpaceOnUse">
      <path d="M 1 1 L 10 10 M 10 1 L 1 10" stroke-width="2" fill="none"/>
    </marker>
    <marker id="arrow_cross_start" viewBox="0 0 11 11" refX="-1" refY="5.2" markerWidth="11" markerHeight="11" orient="auto" markerUnits="userSpaceOnUse">
      <path d="M 1 1 L 10 10 M 10 1 L 1 10" fill="none" stroke-width="2"/>
    </marker>
    <marker id="arrow_circle" viewBox="0 0 10 10" refX="11" refY="5" markerWidth="11" markerHeight="11" orient="auto" markerUnits="userSpaceOnUse">
      <circle cx="5" cy="5" r="5"/>
    </marker>
    <marker id="arrow_circle_start" viewBox="0 0 10 10" refX="-1" refY="5" markerWidth="11" markerHeight="11" orient="auto" markerUnits="userSpaceOnUse">
      <circle cx="5" cy="5" r="5"/>
    </marker>
  </defs>
  <g class="root">
    <g class="clusters">
      <g class="subgraph" id="subgraph-Frontend">
        <rect x="157.00000000000009" y="-20" width="533.6" height="117.8" class="cluster"/>
        <text x="423.80000000000007" y="-4" class="cluster-label" text-anchor="middle">Frontend Layer</text>
      </g>
      <g class="subgraph" id="subgraph-API">
        <rect x="286.20000000000005" y="132.79999999999998" width="321" height="518.64" class="cluster"/>
        <text x="446.70000000000005" y="148.79999999999998" class="cluster-label" text-anchor="middle">API Gateway</text>
      </g>
      <g class="subgraph" id="subgraph-Services">
        <rect x="687.2000000000002" y="525.72" width="738.5999999999998" height="273.51999999999987" class="cluster"/>
        <text x="1056.5" y="541.72" class="cluster-label" text-anchor="middle">Microservices</text>
      </g>
      <g class="subgraph" id="subgraph-Data">
        <rect x="672.4000000000002" y="834.2399999999999" width="720.1999999999997" height="133.64" class="cluster"/>
        <text x="1032.5" y="850.2399999999999" class="cluster-label" text-anchor="middle">Data Layer</text>
      </g>
    </g>
    <g class="edgePaths">
      <g class="edge" id="edge-L-UI-Auth-0">
        <path d="M 592.20 77.80 L 457.71 235.71" class="edge-path" marker-end="url(#arrow_point)" fill="none" stroke-width="1"/>
      </g>
      <g class="edge" id="edge-L-Mobile-Auth-0">
        <path d="M 399.80 77.80 C 399.80 86.13, 399.80 94.47, 399.80 102.80 C 399.80 111.13, 399.80 119.47, 399.80 127.80 C 399.80 136.13, 399.80 144.47, 399.80 152.80 C 399.80 169.47, 399.80 177.80, 399.80 177.80" class="edge-path" stroke-width="1" marker-end="url(#arrow_point)" fill="none"/>
      </g>
      <g class="edge" id="edge-L-CLI-Auth-0">
        <path d="M 231.40 77.80 L 344.88 232.72" class="edge-path" stroke-width="1" marker-end="url(#arrow_point)" fill="none"/>
      </g>
      <g class="edge" id="edge-L-Auth-Rate-0">
        <path d="M 443.74 321.06 L 513.60 435.00" class="edge-path" marker-end="url(#arrow_point)" fill="none" stroke-width="1"/>
      </g>
      <g class="edge" id="edge-L-Auth-Reject-0">
        <path d="M 355.80 321.00 C 332.43 347.33, 309.07 373.67, 277.50 392.86 C 245.93 412.06, 206.17 424.12, 166.40 436.17" class="edge-path" stroke-width="1" marker-end="url(#arrow_point)" fill="none"/>
      </g>
      <g class="edge" id="edge-L-Rate-Cache-0">
        <path d="M 513.60 487.80 C 513.60 496.13, 513.60 504.47, 513.60 512.80 C 513.60 521.13, 513.60 529.47, 513.60 537.80 C 513.60 554.47, 513.60 562.80, 513.60 562.80" class="edge-path" marker-end="url(#arrow_point)" fill="none" stroke-width="1"/>
      </g>
      <g class="edge" id="edge-L-Cache-Response-0">
        <path d="M 444.80 627.11 C 422.37 636.88, 399.93 646.66, 388.72 663.22 C 377.50 679.77, 377.50 703.11, 377.50 726.44" class="edge-path" fill="none" stroke-width="1" marker-end="url(#arrow_point)"/>
      </g>
      <g class="edge" id="edge-L-Cache-UserSvc-0">
        <path d="M 533.44 631.44 C 538.26 639.77, 543.08 648.11, 584.31 658.11 C 625.53 668.11, 703.17 679.77, 741.98 691.44 C 780.80 714.77, 780.80 726.44, 780.80 726.44" class="edge-path" fill="none" stroke-width="1" marker-end="url(#arrow_point)"/>
      </g>
      <g class="edge" id="edge-L-UserSvc-DB-0">
        <path d="M 825.07 779.24 L 907.54 879.24" class="edge-path" fill="none" marker-end="url(#arrow_point)" stroke-width="1"/>
      </g>
      <g class="edge" id="edge-L-UserSvc-Search-0">
        <path d="M 775.66 779.24 C 774.04 787.57, 772.42 795.91, 771.61 804.24 C 770.80 812.57, 770.80 820.91, 770.80 829.24 C 770.80 837.57, 770.80 845.91, 770.80 854.24 C 770.80 870.91, 770.80 879.24, 770.80 879.24" class="edge-path" fill="none" stroke-width="1" marker-end="url(#arrow_point)"/>
      </g>
      <g class="edge" id="edge-L-OrderSvc-DB-0">
        <path d="M 1249.00 770.85 C 1200.57 781.98, 1152.13 793.11, 1127.92 807.01 C 1103.70 820.91, 1103.70 837.57, 1090.95 851.29 C 1052.70 875.77, 1027.20 886.54, 1027.20 886.54" class="edge-path" fill="none" stroke-width="1" marker-end="url(#arrow_point)"/>
      </g>
      <g class="edge" id="edge-L-OrderSvc-Queue-0">
        <path d="M 1346.25 779.24 L 1334.64 879.24" class="edge-path" fill="none" marker-end="url(#arrow_point)" stroke-width="1"/>
      </g>
      <g class="edge" id="edge-L-PaymentSvc-DB-0">
        <path d="M 1003.15 623.52 C 982.10 634.49, 961.05 645.47, 952.16 688.09 C 943.26 730.71, 946.52 804.97, 949.78 879.24" class="edge-path" stroke-width="1" fill="none" marker-end="url(#arrow_point)"/>
      </g>
      <g class="edge" id="edge-L-PaymentSvc-NotifySvc-0">
        <path d="M 1068.58 623.52 L 1087.00 726.44" class="edge-path" stroke-width="1" marker-end="url(#arrow_point)" fill="none"/>
      </g>
      <g class="edge" id="edge-L-NotifySvc-Queue-0">
        <path d="M 1126.55 779.24 L 1218.87 879.24" class="edge-path" fill="none" stroke-width="1" marker-end="url(#arrow_point)"/>
      </g>
      <g class="edge" id="edge-L-Queue-EmailWorker-0">
        <path d="M 1215.80 927.94 C 1134.13 942.92, 1052.47 957.90, 1011.63 973.72 C 970.80 989.55, 970.80 1006.21, 970.80 1022.88" class="edge-path" marker-end="url(#arrow_point)" fill="none" stroke-width="1"/>
      </g>
      <g class="edge" id="edge-L-Queue-SMSWorker-0">
        <path d="M 1357.96 947.88 L 1404.40 1022.88" class="edge-path" fill="none" marker-end="url(#arrow_point)" stroke-width="1"/>
      </g>
    </g>
    <g class="edgeLabels">
      <g class="edgeLabel" id="edge-label-L-Auth-Rate-0">
        <rect x="468.2685287700144" y="362.6342073798229" width="44" height="22" class="edge-label-bg"/>
        <text x="490.2685287700144" y="373.6342073798229" class="edge-label" text-anchor="middle" dominant-baseline="central">Valid</text>
      </g>
      <g class="edgeLabel" id="edge-label-L-Auth-Reject-0">
        <rect x="247.38679776994456" y="391.7632129230884" width="58.4" height="22" class="edge-label-bg"/>
        <text x="276.58679776994455" y="402.7632129230884" class="edge-label" text-anchor="middle" dominant-baseline="central">Invalid</text>
      </g>
      <g class="edgeLabel" id="edge-label-L-Cache-Response-0">
        <rect x="342.6651541359024" y="644.7578181973421" width="72.8" height="22" class="edge-label-bg"/>
        <text x="379.0651541359024" y="655.7578181973421" class="edge-label" text-anchor="middle" dominant-baseline="central">Cache Hit</text>
      </g>
      <g class="edgeLabel" id="edge-label-L-Cache-UserSvc-0">
        <rect x="627.3768177708341" y="663.3948674194039" width="80" height="22" class="edge-label-bg"/>
        <text x="667.3768177708341" y="674.3948674194039" class="edge-label" text-anchor="middle" dominant-baseline="central">Cache Miss</text>
      </g>
    </g>
    <g class="nodes">
      <g class="node" id="node-Auth">
        <polygon points="399.80000000000007,177.79999999999998 493.40000000000003,271.4 399.80000000000007,365 306.20000000000005,271.4"/>
        <text x="399.80000000000007" y="271.4" class="label" dominant-baseline="central" text-anchor="middle">Authentication</text>
      </g>
      <g class="node" id="node-CLI">
        <rect x="177.00000000000009" y="25" width="108.8" height="52.8"/>
        <text x="231.4000000000001" y="51.4" class="label" dominant-baseline="central" text-anchor="middle">CLI Tool</text>
      </g>
      <g class="node" id="node-Cache">
        <path d="M 444.8 573.096 a 68.8 10.296 0 0 0 137.6 0 a 68.8 10.296 0 0 0 -137.6 0 l 0 48.048 a 68.8 10.296 0 0 0 137.6 0 l 0 -48.048"/>
        <text x="513.6" y="597.12" class="label" text-anchor="middle" dominant-baseline="central">Redis Cache</text>
      </g>
      <g class="node" id="node-DB">
        <path d="M 899.2 889.536 a 64 10.296 0 0 0 128 0 a 64 10.296 0 0 0 -128 0 l 0 48.048 a 64 10.296 0 0 0 128 0 l 0 -48.048"/>
        <text x="963.2" y="913.56" class="label" dominant-baseline="central" text-anchor="middle">PostgreSQL</text>
      </g>
      <g class="node" id="node-EmailWorker">
        <rect x="897.2000000000002" y="1022.88" width="147.2" height="52.8"/>
        <text x="970.8000000000002" y="1049.28" class="label" text-anchor="middle" dominant-baseline="central">Email Worker</text>
      </g>
      <g class="node" id="node-Mobile">
        <rect x="335.80000000000007" y="25" width="128" height="52.8"/>
        <text x="399.80000000000007" y="51.4" class="label" dominant-baseline="central" text-anchor="middle">Mobile App</text>
      </g>
      <g class="node" id="node-NotifySvc">
        <rect x="975" y="726.4399999999999" width="224" height="52.8"/>
        <text x="1087" y="752.8399999999999" class="label" text-anchor="middle" dominant-baseline="central">Notification Service</text>
      </g>
      <g class="node" id="node-OrderSvc">
        <rect x="1249" y="726.4399999999999" width="156.8" height="52.8"/>
        <text x="1327.4" y="752.8399999999999" class="label" dominant-baseline="central" text-anchor="middle">Order Service</text>
      </g>
      <g class="node" id="node-PaymentSvc">
        <rect x="965.8000000000002" y="570.72" width="176" height="52.8"/>
        <text x="1053.8000000000002" y="597.12" class="label" dominant-baseline="central" text-anchor="middle">Payment Service</text>
      </g>
      <g class="node" id="node-Queue">
        <path d="M 1215.8 889.536 a 78.4 10.296 0 0 0 156.8 0 a 78.4 10.296 0 0 0 -156.8 0 l 0 48.048 a 78.4 10.296 0 0 0 156.8 0 l 0 -48.048"/>
        <text x="1294.2" y="913.56" class="label" dominant-baseline="central" text-anchor="middle">Message Queue</text>
      </g>
      <g class="node" id="node-Rate">
        <rect x="440" y="435" width="147.2" height="52.8"/>
        <text x="513.6" y="461.4" class="label" dominant-baseline="central" text-anchor="middle">Rate Limiter</text>
      </g>
      <g class="node" id="node-Reject">
        <rect x="0.00000000000004263256414560601" y="435" width="166.4" height="52.8"/>
        <text x="83.20000000000005" y="461.4" class="label" text-anchor="middle" dominant-baseline="central">Reject Request</text>
      </g>
      <g class="node" id="node-Response">
        <rect x="289.5" y="726.4399999999999" width="176" height="52.8"/>
        <text x="377.5" y="752.8399999999999" class="label" text-anchor="middle" dominant-baseline="central">Return Response</text>
      </g>
      <g class="node" id="node-SMSWorker">
        <rect x="1340.4" y="1022.88" width="128" height="52.8"/>
        <text x="1404.4" y="1049.28" class="label" dominant-baseline="central" text-anchor="middle">SMS Worker</text>
      </g>
      <g class="node" id="node-Search">
        <path d="M 692.4000000000002 889.536 a 78.4 10.296 0 0 0 156.8 0 a 78.4 10.296 0 0 0 -156.8 0 l 0 48.048 a 78.4 10.296 0 0 0 156.8 0 l 0 -48.048"/>
        <text x="770.8000000000002" y="913.56" class="label" text-anchor="middle" dominant-baseline="central">Elasticsearch</text>
      </g>
      <g class="node" id="node-UI">
        <rect x="513.8000000000001" y="25" width="156.8" height="52.8"/>
        <text x="592.2" y="51.4" class="label" text-anchor="middle" dominant-baseline="central">Web Interface</text>
      </g>
      <g class="node" id="node-UserSvc">
        <rect x="707.2000000000002" y="726.4399999999999" width="147.2" height="52.8"/>
        <text x="780.8000000000002" y="752.8399999999999" class="label" dominant-baseline="central" text-anchor="middle">User Service</text>
      </g>
    </g>
  </g>
</svg>
