<?xml version="1.0" encoding="UTF-8"?>
<svg xmlns="http://www.w3.org/2000/svg" width="1361.2000000000003" height="1111.68" viewBox="-8 -28 1361.2000000000003 1111.68" class="mermaid">
  <style>

.mermaid {
  font-family: trebuchet ms, verdana, arial, sans-serif;
  font-size: 16px;
}

.node rect,
.node polygon,
.node circle,
.node ellipse,
.node path {
  fill: #ECECFF;
  stroke: #9370DB;
  stroke-width: 1px;
}

.node line {
  stroke: #9370DB;
  stroke-width: 1px;
}

.node .label {
  fill: #333333;
}

.node text {
  fill: #333333;
  font-family: trebuchet ms, verdana, arial, sans-serif;
  font-size: 16px;
}

.edge-path {
  fill: none;
  stroke: #333333;
  stroke-width: 1px;
}

.edge-label {
  fill: #333333;
  font-family: trebuchet ms, verdana, arial, sans-serif;
}

.edge-label-bg {
  fill: rgba(232, 232, 232, 0.8);
}

.subgraph {
  fill: #ffffde;
  stroke: #aaaa33;
  stroke-width: 1px;
}

.subgraph-title {
  fill: #333333;
  font-weight: bold;
}

.cluster rect {
  fill: #ffffde;
  stroke: #aaaa33;
  stroke-width: 1px;
  rx: 5px;
  ry: 5px;
}

.cluster-label {
  fill: #333333;
  font-family: trebuchet ms, verdana, arial, sans-serif;
  font-size: 16px;
  font-weight: bold;
}

marker path {
  fill: #333333;
  stroke: #333333;
}

  </style>
  <defs>
    <marker id="arrow_point" viewBox="0 0 10 10" refX="10" refY="5" markerWidth="8" markerHeight="8" orient="auto" markerUnits="userSpaceOnUse">
      <path d="M 0 0 L 10 5 L 0 10 z"/>
    </marker>
    <marker id="arrow_point_start" viewBox="0 0 10 10" refX="4.5" refY="5" markerWidth="8" markerHeight="8" orient="auto" markerUnits="userSpaceOnUse">
      <path d="M 0 5 L 10 10 L 10 0 z"/>
    </marker>
    <marker id="arrow_cross" viewBox="0 0 11 11" refX="12" refY="5.2" markerWidth="11" markerHeight="11" orient="auto" markerUnits="userSpaceOnUse">
      <path d="M 1 1 L 10 10 M 10 1 L 1 10" stroke-width="2" fill="none"/>
    </marker>
    <marker id="arrow_cross_start" viewBox="0 0 11 11" refX="-1" refY="5.2" markerWidth="11" markerHeight="11" orient="auto" markerUnits="userSpaceOnUse">
      <path d="M 1 1 L 10 10 M 10 1 L 1 10" fill="none" stroke-width="2"/>
    </marker>
    <marker id="arrow_circle" viewBox="0 0 10 10" refX="11" refY="5" markerWidth="11" markerHeight="11" orient="auto" markerUnits="userSpaceOnUse">
      <circle cx="5" cy="5" r="5"/>
    </marker>
    <marker id="arrow_circle_start" viewBox="0 0 10 10" refX="-1" refY="5" markerWidth="11" markerHeight="11" orient="auto" markerUnits="userSpaceOnUse">
      <circle cx="5" cy="5" r="5"/>
    </marker>
  </defs>
  <g class="root">
    <g class="clusters">
      <g class="subgraph" id="subgraph-Frontend">
        <rect x="166.70000000000013" y="-20" width="533.6" height="117.8" class="cluster"/>
        <text x="433.5000000000001" y="-4" class="cluster-label" text-anchor="middle">Frontend Layer</text>
      </g>
      <g class="subgraph" id="subgraph-API">
        <rect x="249.19999999999993" y="132.79999999999998" width="297.9" height="518.64" class="cluster"/>
        <text x="398.1499999999999" y="148.79999999999998" class="cluster-label" text-anchor="middle">API Gateway</text>
      </g>
      <g class="subgraph" id="subgraph-Services">
        <rect x="572.6" y="525.72" width="752.5999999999998" height="273.51999999999987" class="cluster"/>
        <text x="948.8999999999999" y="541.72" class="cluster-label" text-anchor="middle">Microservices</text>
      </g>
      <g class="subgraph" id="subgraph-Data">
        <rect x="557.8000000000001" y="834.2399999999999" width="693.3999999999997" height="133.64" class="cluster"/>
        <text x="904.5" y="850.2399999999999" class="cluster-label" text-anchor="middle">Data Layer</text>
      </g>
    </g>
    <g class="edgePaths">
      <g class="edge" id="edge-L-UI-Auth-0">
        <path d="M 601.90 77.80 C 601.90 102.80, 601.90 127.80, 572.48 154.89 C 543.06 181.99, 484.21 211.18, 425.37 240.37" class="edge-path" marker-end="url(#arrow_point)" stroke-width="1" fill="none"/>
      </g>
      <g class="edge" id="edge-L-Mobile-Auth-0">
        <path d="M 409.50 77.80 L 389.24 204.24" class="edge-path" fill="none" marker-end="url(#arrow_point)" stroke-width="1"/>
      </g>
      <g class="edge" id="edge-L-CLI-Auth-0">
        <path d="M 241.10 77.80 L 315.40 225.20" class="edge-path" marker-end="url(#arrow_point)" stroke-width="1" fill="none"/>
      </g>
      <g class="edge" id="edge-L-Auth-Rate-0">
        <path d="M 401.51 326.29 L 453.50 435.00" class="edge-path" marker-end="url(#arrow_point)" stroke-width="1" fill="none"/>
      </g>
      <g class="edge" id="edge-L-Auth-Reject-0">
        <path d="M 334.19 336.39 C 324.86 357.60, 315.53 378.80, 287.57 395.81 C 259.60 412.83, 213.00 425.66, 166.40 438.49" class="edge-path" fill="none" stroke-width="1" marker-end="url(#arrow_point)"/>
      </g>
      <g class="edge" id="edge-L-Rate-Cache-0">
        <path d="M 453.50 487.80 C 453.50 496.13, 453.50 504.47, 453.50 512.80 C 453.50 521.13, 453.50 529.47, 453.50 537.80 C 453.50 554.47, 453.50 562.80, 453.50 562.80" class="edge-path" fill="none" stroke-width="1" marker-end="url(#arrow_point)"/>
      </g>
      <g class="edge" id="edge-L-Cache-Response-0">
        <path d="M 400.85 631.44 L 362.50 726.44" class="edge-path" fill="none" stroke-width="1" marker-end="url(#arrow_point)"/>
      </g>
      <g class="edge" id="edge-L-Cache-UserSvc-0">
        <path d="M 516.39 631.44 C 566.33 651.44, 616.26 671.44, 641.23 687.27 C 666.20 703.11, 666.20 714.77, 666.20 726.44" class="edge-path" marker-end="url(#arrow_point)" fill="none" stroke-width="1"/>
      </g>
      <g class="edge" id="edge-L-UserSvc-DB-0">
        <path d="M 715.61 779.24 L 798.73 879.24" class="edge-path" fill="none" marker-end="url(#arrow_point)" stroke-width="1"/>
      </g>
      <g class="edge" id="edge-L-UserSvc-Search-0">
        <path d="M 661.06 779.24 C 659.44 787.57, 657.82 795.91, 657.01 804.24 C 656.20 812.57, 656.20 820.91, 656.20 829.24 C 656.20 837.57, 656.20 845.91, 656.20 854.24 C 656.20 870.91, 656.20 879.24, 656.20 879.24" class="edge-path" marker-end="url(#arrow_point)" fill="none" stroke-width="1"/>
      </g>
      <g class="edge" id="edge-L-OrderSvc-DB-0">
        <path d="M 1148.40 766.64 C 1077.20 779.17, 1006.00 791.71, 964.35 810.47 C 922.69 829.24, 910.58 854.24, 898.47 879.24" class="edge-path" stroke-width="1" marker-end="url(#arrow_point)" fill="none"/>
      </g>
      <g class="edge" id="edge-L-OrderSvc-Queue-0">
        <path d="M 1226.80 779.24 L 1195.61 879.24" class="edge-path" marker-end="url(#arrow_point)" fill="none" stroke-width="1"/>
      </g>
      <g class="edge" id="edge-L-PaymentSvc-DB-0">
        <path d="M 880.19 623.52 L 843.28 879.24" class="edge-path" fill="none" stroke-width="1" marker-end="url(#arrow_point)"/>
      </g>
      <g class="edge" id="edge-L-PaymentSvc-NotifySvc-0">
        <path d="M 945.61 623.52 L 986.40 726.44" class="edge-path" fill="none" stroke-width="1" marker-end="url(#arrow_point)"/>
      </g>
      <g class="edge" id="edge-L-NotifySvc-Queue-0">
        <path d="M 986.40 779.24 C 986.40 804.24, 986.40 829.24, 1001.07 846.97 C 1015.73 864.70, 1045.07 875.15, 1074.40 885.61" class="edge-path" fill="none" stroke-width="1" marker-end="url(#arrow_point)"/>
      </g>
      <g class="edge" id="edge-L-Queue-EmailWorker-0">
        <path d="M 1074.40 926.81 C 983.57 942.17, 892.73 957.52, 847.32 973.54 C 801.90 989.55, 801.90 1006.21, 801.90 1022.88" class="edge-path" fill="none" stroke-width="1" marker-end="url(#arrow_point)"/>
      </g>
      <g class="edge" id="edge-L-Queue-SMSWorker-0">
        <path d="M 1195.61 947.88 L 1226.80 1022.88" class="edge-path" marker-end="url(#arrow_point)" fill="none" stroke-width="1"/>
      </g>
    </g>
    <g class="edgeLabels">
      <g class="edgeLabel" id="edge-label-L-Auth-Rate-0">
        <rect x="415.5922301020454" y="366.4449921843775" width="44" height="22" class="edge-label-bg"/>
        <text x="437.5922301020454" y="377.4449921843775" class="edge-label" text-anchor="middle" dominant-baseline="central">Valid</text>
      </g>
      <g class="edgeLabel" id="edge-label-L-Auth-Reject-0">
        <rect x="240.60016784660485" y="399.0221959381994" width="58.4" height="22" class="edge-label-bg"/>
        <text x="269.80016784660484" y="410.0221959381994" class="edge-label" text-anchor="middle" dominant-baseline="central">Invalid</text>
      </g>
      <g class="edgeLabel" id="edge-label-L-Cache-Response-0">
        <rect x="326.1" y="657.5499183338633" width="72.8" height="22" class="edge-label-bg"/>
        <text x="362.5" y="668.5499183338633" class="edge-label" text-anchor="middle" dominant-baseline="central">Cache Hit</text>
      </g>
      <g class="edgeLabel" id="edge-label-L-Cache-UserSvc-0">
        <rect x="566.0546670620357" y="660.1987821843388" width="80" height="22" class="edge-label-bg"/>
        <text x="606.0546670620357" y="671.1987821843388" class="edge-label" dominant-baseline="central" text-anchor="middle">Cache Miss</text>
      </g>
    </g>
    <g class="nodes">
      <g class="node" id="node-Auth">
        <polygon points="362.79999999999995,177.79999999999998 456.3999999999999,271.4 362.79999999999995,365 269.19999999999993,271.4"/>
        <text x="362.79999999999995" y="271.4" class="label" text-anchor="middle" dominant-baseline="central">Authentication</text>
      </g>
      <g class="node" id="node-CLI">
        <rect x="186.70000000000013" y="25" width="108.8" height="52.8"/>
        <text x="241.10000000000014" y="51.4" class="label" text-anchor="middle" dominant-baseline="central">CLI Tool</text>
      </g>
      <g class="node" id="node-Cache">
        <path d="M 384.7 573.096 a 68.8 10.296 0 0 0 137.6 0 a 68.8 10.296 0 0 0 -137.6 0 l 0 48.048 a 68.8 10.296 0 0 0 137.6 0 l 0 -48.048"/>
        <text x="453.5" y="597.12" class="label" text-anchor="middle" dominant-baseline="central">Redis Cache</text>
      </g>
      <g class="node" id="node-DB">
        <path d="M 784.6 889.536 a 64 10.296 0 0 0 128 0 a 64 10.296 0 0 0 -128 0 l 0 48.048 a 64 10.296 0 0 0 128 0 l 0 -48.048"/>
        <text x="848.6" y="913.56" class="label" text-anchor="middle" dominant-baseline="central">PostgreSQL</text>
      </g>
      <g class="node" id="node-EmailWorker">
        <rect x="728.3000000000001" y="1022.88" width="147.2" height="52.8"/>
        <text x="801.9000000000001" y="1049.28" class="label" text-anchor="middle" dominant-baseline="central">Email Worker</text>
      </g>
      <g class="node" id="node-Mobile">
        <rect x="345.5" y="25" width="128" height="52.8"/>
        <text x="409.5" y="51.4" class="label" text-anchor="middle" dominant-baseline="central">Mobile App</text>
      </g>
      <g class="node" id="node-NotifySvc">
        <rect x="874.4" y="726.4399999999999" width="224" height="52.8"/>
        <text x="986.4" y="752.8399999999999" class="label" dominant-baseline="central" text-anchor="middle">Notification Service</text>
      </g>
      <g class="node" id="node-OrderSvc">
        <rect x="1148.3999999999999" y="726.4399999999999" width="156.8" height="52.8"/>
        <text x="1226.8" y="752.8399999999999" class="label" text-anchor="middle" dominant-baseline="central">Order Service</text>
      </g>
      <g class="node" id="node-PaymentSvc">
        <rect x="824.9" y="570.72" width="176" height="52.8"/>
        <text x="912.9" y="597.12" class="label" text-anchor="middle" dominant-baseline="central">Payment Service</text>
      </g>
      <g class="node" id="node-Queue">
        <path d="M 1074.3999999999999 889.536 a 78.4 10.296 0 0 0 156.8 0 a 78.4 10.296 0 0 0 -156.8 0 l 0 48.048 a 78.4 10.296 0 0 0 156.8 0 l 0 -48.048"/>
        <text x="1152.8" y="913.56" class="label" dominant-baseline="central" text-anchor="middle">Message Queue</text>
      </g>
      <g class="node" id="node-Rate">
        <rect x="379.9" y="435" width="147.2" height="52.8"/>
        <text x="453.5" y="461.4" class="label" dominant-baseline="central" text-anchor="middle">Rate Limiter</text>
      </g>
      <g class="node" id="node-Reject">
        <rect x="0.00000000000004263256414560601" y="435" width="166.4" height="52.8"/>
        <text x="83.20000000000005" y="461.4" class="label" text-anchor="middle" dominant-baseline="central">Reject Request</text>
      </g>
      <g class="node" id="node-Response">
        <rect x="274.5" y="726.4399999999999" width="176" height="52.8"/>
        <text x="362.5" y="752.8399999999999" class="label" dominant-baseline="central" text-anchor="middle">Return Response</text>
      </g>
      <g class="node" id="node-SMSWorker">
        <rect x="1162.8" y="1022.88" width="128" height="52.8"/>
        <text x="1226.8" y="1049.28" class="label" text-anchor="middle" dominant-baseline="central">SMS Worker</text>
      </g>
      <g class="node" id="node-Search">
        <path d="M 577.8000000000001 889.536 a 78.4 10.296 0 0 0 156.8 0 a 78.4 10.296 0 0 0 -156.8 0 l 0 48.048 a 78.4 10.296 0 0 0 156.8 0 l 0 -48.048"/>
        <text x="656.2" y="913.56" class="label" text-anchor="middle" dominant-baseline="central">Elasticsearch</text>
      </g>
      <g class="node" id="node-UI">
        <rect x="523.5000000000001" y="25" width="156.8" height="52.8"/>
        <text x="601.9000000000001" y="51.4" class="label" text-anchor="middle" dominant-baseline="central">Web Interface</text>
      </g>
      <g class="node" id="node-UserSvc">
        <rect x="592.6" y="726.4399999999999" width="147.2" height="52.8"/>
        <text x="666.2" y="752.8399999999999" class="label" text-anchor="middle" dominant-baseline="central">User Service</text>
      </g>
    </g>
  </g>
</svg>
