<?xml version="1.0" encoding="UTF-8"?>
<svg xmlns="http://www.w3.org/2000/svg" width="732.2" height="338.5970461225621" viewBox="-124.2 -19.5 732.2 338.5970461225621" class="mermaid">
  <style>

.mermaid {
  font-family: trebuchet ms, verdana, arial, sans-serif;
  font-size: 16px;
}

.node rect,
.node polygon,
.node circle,
.node ellipse,
.node path {
  fill: #ECECFF;
  stroke: #9370DB;
  stroke-width: 1px;
}

.node line {
  stroke: #9370DB;
  stroke-width: 1px;
}

.node .label {
  fill: #333333;
}

.node text {
  fill: #333333;
  font-family: trebuchet ms, verdana, arial, sans-serif;
  font-size: 16px;
}

.edge-path {
  fill: none;
  stroke: #333333;
  stroke-width: 1px;
}

.edge-label {
  fill: #333333;
  font-family: trebuchet ms, verdana, arial, sans-serif;
}

.edge-label-bg {
  fill: rgba(232, 232, 232, 0.8);
}

.subgraph {
  fill: #ffffde;
  stroke: #aaaa33;
  stroke-width: 1px;
}

.subgraph-title {
  fill: #333333;
  font-weight: bold;
}

.cluster rect {
  fill: #ffffde;
  stroke: #aaaa33;
  stroke-width: 1px;
  rx: 5px;
  ry: 5px;
}

.cluster-label {
  fill: #333333;
  font-family: trebuchet ms, verdana, arial, sans-serif;
  font-size: 16px;
  font-weight: bold;
}

marker path {
  fill: #333333;
  stroke: #333333;
}

  .commit-id,
  .commit-msg,
  .branch-label {
    fill: lightgrey;
    color: lightgrey;
    font-family: var(--mermaid-font-family);
  }

        .branch-label0 { fill: #ffffff; }
        .commit0 { stroke: #0000ec; fill: #0000ec; }
        .commit-highlight0 { stroke: #131300; fill: #131300; }
        .label0  { fill: #0000ec; }
        .arrow0 { stroke: #0000ec; }

        .branch-label1 { fill: #000000; }
        .commit1 { stroke: #dede00; fill: #dede00; }
        .commit-highlight1 { stroke: #2121ff; fill: #2121ff; }
        .label1  { fill: #dede00; }
        .arrow1 { stroke: #dede00; }

        .branch-label2 { fill: #000000; }
        .commit2 { stroke: #a1ec00; fill: #a1ec00; }
        .commit-highlight2 { stroke: #5e13ff; fill: #5e13ff; }
        .label2  { fill: #a1ec00; }
        .arrow2 { stroke: #a1ec00; }

        .branch-label3 { fill: #ffffff; }
        .commit3 { stroke: #007cec; fill: #007cec; }
        .commit-highlight3 { stroke: #ff8313; fill: #ff8313; }
        .label3  { fill: #007cec; }
        .arrow3 { stroke: #007cec; }

        .branch-label4 { fill: #000000; }
        .commit4 { stroke: #00ecec; fill: #00ecec; }
        .commit-highlight4 { stroke: #ff1313; fill: #ff1313; }
        .label4  { fill: #00ecec; }
        .arrow4 { stroke: #00ecec; }

        .branch-label5 { fill: #000000; }
        .commit5 { stroke: #00ec7c; fill: #00ec7c; }
        .commit-highlight5 { stroke: #ff1383; fill: #ff1383; }
        .label5  { fill: #00ec7c; }
        .arrow5 { stroke: #00ec7c; }

        .branch-label6 { fill: #000000; }
        .commit6 { stroke: #ec00ec; fill: #ec00ec; }
        .commit-highlight6 { stroke: #13ff13; fill: #13ff13; }
        .label6  { fill: #ec00ec; }
        .arrow6 { stroke: #ec00ec; }

        .branch-label7 { fill: #000000; }
        .commit7 { stroke: #ec0000; fill: #ec0000; }
        .commit-highlight7 { stroke: #13ffff; fill: #13ffff; }
        .label7  { fill: #ec0000; }
        .arrow7 { stroke: #ec0000; }

  .branch {
    stroke-width: 1;
    stroke: #333333;
    stroke-dasharray: 2;
  }
  .commit-label { font-size: 10px; fill: #000021; }
  .commit-label-bkg { font-size: 10px; fill: #ffffde; opacity: 0.5; }
  .tag-label { font-size: 10px; fill: #131300; }
  .tag-label-bkg { fill: #ECECFF; stroke: #c7c7f1; }
  .tag-hole { fill: #333333; }
  .commit-merge {
    stroke: #ECECFF;
    fill: #ECECFF;
  }
  .commit-reverse {
    stroke: #ECECFF;
    fill: #ECECFF;
    stroke-width: 3;
  }
  .commit-highlight-inner {
    stroke: #ECECFF;
    fill: #ECECFF;
  }
  .arrow { stroke-width: 8; stroke-linecap: round; fill: none }
  .gitTitleText {
    text-anchor: middle;
    font-size: 18px;
    fill: #333333;
  }

  </style>
  <g class="root">
    <g class="clusters">

    </g>
    <g class="edgePaths">

    </g>
    <g class="edgeLabels">

    </g>
    <g class="nodes">

    </g>
    <g class="branches">
      <line x1="0" y1="0" x2="600" y2="0" class="branch branch0"/>
      <rect x="-87.4" y="-11.5" width="56.4" height="23" rx="4" ry="4" class="branchLabelBkg label0"/>
      <line x1="0" y1="90" x2="600" y2="90" class="branch branch1"/>
      <rect x="-116.2" y="78.5" width="85.2" height="23" rx="4" ry="4" class="branchLabelBkg label1"/>
      <line x1="0" y1="180" x2="600" y2="180" class="branch branch2"/>
      <rect x="-106.6" y="168.5" width="75.6" height="23" rx="4" ry="4" class="branchLabelBkg label2"/>
      <line x1="0" y1="270" x2="600" y2="270" class="branch branch3"/>
      <rect x="-116.2" y="258.5" width="85.2" height="23" rx="4" ry="4" class="branchLabelBkg label3"/>
      <text x="-59.2" y="0" class="branch-label0" text-anchor="middle" dominant-baseline="middle">main</text>
      <text x="-73.6" y="90" class="branch-label1" text-anchor="middle" dominant-baseline="middle">feature</text>
      <text x="-68.8" y="180" class="branch-label2" text-anchor="middle" dominant-baseline="middle">hotfix</text>
      <text x="-73.6" y="270" class="branch-label3" dominant-baseline="middle" text-anchor="middle">release</text>
    </g>
    <g class="commit-arrows">
      <path d="M 410 0 L 560 0" class="arrow arrow0"/>
      <path d="M 510 270 L 540 270 A 20 20, 0, 0, 0, 560 250 L 560 0" class="arrow arrow3"/>
      <path d="M 210 0 L 260 0" class="arrow arrow0"/>
      <path d="M 160 90 L 240 90 A 20 20, 0, 0, 0, 260 70 L 260 0" class="arrow arrow1"/>
      <path d="M 360 0 L 410 0" class="arrow arrow0"/>
      <path d="M 260 0 L 260 160 A 20 20, 0, 0, 0, 280 180 L 310 180" class="arrow arrow2"/>
      <path d="M 110 90 L 160 90" class="arrow arrow1"/>
      <path d="M 260 0 L 360 0" class="arrow arrow0"/>
      <path d="M 310 180 L 340 180 A 20 20, 0, 0, 0, 360 160 L 360 0" class="arrow arrow2"/>
      <path d="M 60 0 L 210 0" class="arrow arrow0"/>
      <path d="M 410 0 L 410 250 A 20 20, 0, 0, 0, 430 270 L 460 270" class="arrow arrow3"/>
      <path d="M 60 0 L 60 70 A 20 20, 0, 0, 0, 80 90 L 110 90" class="arrow arrow1"/>
      <path d="M 10 0 L 60 0" class="arrow arrow0"/>
      <path d="M 460 270 L 510 270" class="arrow arrow3"/>
    </g>
    <g class="commits">
      <g class="commit-bullets">
        <circle cx="10" cy="0" r="10" class="commit A commit0"/>
        <circle cx="60" cy="0" r="10" class="commit B commit0"/>
        <circle cx="110" cy="90" r="10" class="commit C commit1"/>
        <circle cx="160" cy="90" r="10" class="commit D commit1"/>
        <circle cx="210" cy="0" r="10" class="commit E commit0"/>
        <circle cx="260" cy="0" r="9" class="commit 5-30e3f613 commit0"/>
        <circle cx="260" cy="0" r="6" class="commit commit-merge 5-30e3f613 commit0"/>
        <circle cx="310" cy="180" r="10" class="commit F commit2"/>
        <circle cx="360" cy="0" r="9" class="commit 7-30e3fde3 commit0"/>
        <circle cx="360" cy="0" r="6" class="commit commit-merge 7-30e3fde3 commit0"/>
        <circle cx="410" cy="0" r="10" class="commit G commit0"/>
        <circle cx="460" cy="270" r="10" class="commit H commit3"/>
        <circle cx="510" cy="270" r="10" class="commit I commit3"/>
        <circle cx="560" cy="0" r="9" class="commit 11-30e4099b commit0"/>
        <circle cx="560" cy="0" r="6" class="commit commit-merge 11-30e4099b commit0"/>
      </g>
      <g class="commit-labels">
        <rect x="5" y="13.5" width="10" height="14" class="commit-label-bkg" transform="translate(-13.58, 12.04) rotate(-45, 10, 0)"/>
        <rect x="55" y="13.5" width="10" height="14" class="commit-label-bkg" transform="translate(-13.58, 12.04) rotate(-45, 60, 0)"/>
        <rect x="105" y="103.5" width="10" height="14" class="commit-label-bkg" transform="translate(-13.58, 12.04) rotate(-45, 110, 90)"/>
        <rect x="155" y="103.5" width="10" height="14" class="commit-label-bkg" transform="translate(-13.58, 12.04) rotate(-45, 160, 90)"/>
        <rect x="205" y="13.5" width="10" height="14" class="commit-label-bkg" transform="translate(-13.58, 12.04) rotate(-45, 210, 0)"/>
        <rect x="305" y="193.5" width="10" height="14" class="commit-label-bkg" transform="translate(-13.58, 12.04) rotate(-45, 310, 180)"/>
        <rect x="405" y="13.5" width="10" height="14" class="commit-label-bkg" transform="translate(-13.58, 12.04) rotate(-45, 410, 0)"/>
        <rect x="455" y="283.5" width="10" height="14" class="commit-label-bkg" transform="translate(-13.58, 12.04) rotate(-45, 460, 270)"/>
        <rect x="505" y="283.5" width="10" height="14" class="commit-label-bkg" transform="translate(-13.58, 12.04) rotate(-45, 510, 270)"/>
        <text x="7" y="25" class="commit-label" transform="translate(-13.58, 12.04) rotate(-45, 10, 0)">A</text>
        <text x="57" y="25" class="commit-label" transform="translate(-13.58, 12.04) rotate(-45, 60, 0)">B</text>
        <text x="107" y="115" class="commit-label" transform="translate(-13.58, 12.04) rotate(-45, 110, 90)">C</text>
        <text x="157" y="115" class="commit-label" transform="translate(-13.58, 12.04) rotate(-45, 160, 90)">D</text>
        <text x="207" y="25" class="commit-label" transform="translate(-13.58, 12.04) rotate(-45, 210, 0)">E</text>
        <text x="307" y="205" class="commit-label" transform="translate(-13.58, 12.04) rotate(-45, 310, 180)">F</text>
        <text x="407" y="25" class="commit-label" transform="translate(-13.58, 12.04) rotate(-45, 410, 0)">G</text>
        <text x="457" y="295" class="commit-label" transform="translate(-13.58, 12.04) rotate(-45, 460, 270)">H</text>
        <text x="507" y="295" class="commit-label" transform="translate(-13.58, 12.04) rotate(-45, 510, 270)">I</text>
      </g>
    </g>
  </g>
</svg>
