<?xml version="1.0" encoding="UTF-8"?>
<svg xmlns="http://www.w3.org/2000/svg" width="1011.2" height="214" viewBox="-553.6 -107 1011.2 214" class="mermaid">
  <style>

.mindmap-node {
  cursor: pointer;
}
.mindmap-node-label {
  font-family: trebuchet ms, verdana, arial, sans-serif;
}
.node-bkg {
  stroke: #333333;
  stroke-width: 1px;
}
.edge {
  fill: none;
  stroke-width: 3px;
}
.icon-container {
  height: 100%;
  display: flex;
  justify-content: center;
  align-items: center;
}
.icon-container i {
  font-size: 40px;
}

.section-root rect, .section-root path, .section-root circle, .section-root polygon {
  fill: #ECECFF;
}
.section-root text {
  fill: #333333;
}
.section-edge-root {
  stroke: #ECECFF;
}

.section-0 rect, .section-0 path, .section-0 circle, .section-0 polygon {
  fill: hsl(240, 100%, 96.27450980392157%);
}
.section-0 text {
  fill: #333333;
}
.section-edge-0 {
  stroke: hsl(240, 100%, 96.27450980392157%);
}
.edge-depth-0 {
  stroke-width: 17;
}

.section-1 rect, .section-1 path, .section-1 circle, .section-1 polygon {
  fill: hsl(60, 100%, 93.52941176470588%);
}
.section-1 text {
  fill: #333333;
}
.section-edge-1 {
  stroke: hsl(60, 100%, 93.52941176470588%);
}
.edge-depth-1 {
  stroke-width: 14;
}

.section-2 rect, .section-2 path, .section-2 circle, .section-2 polygon {
  fill: hsl(0, 0%, 58.03921568627452%);
}
.section-2 text {
  fill: #333333;
}
.section-edge-2 {
  stroke: hsl(0, 0%, 58.03921568627452%);
}
.edge-depth-2 {
  stroke-width: 11;
}

.section-3 rect, .section-3 path, .section-3 circle, .section-3 polygon {
  fill: hsl(240, 100%, 86.27450980392157%);
}
.section-3 text {
  fill: #333333;
}
.section-edge-3 {
  stroke: hsl(240, 100%, 86.27450980392157%);
}
.edge-depth-3 {
  stroke-width: 8;
}

.section-4 rect, .section-4 path, .section-4 circle, .section-4 polygon {
  fill: hsl(60, 100%, 63.52941176470588%);
}
.section-4 text {
  fill: #333333;
}
.section-edge-4 {
  stroke: hsl(60, 100%, 63.52941176470588%);
}
.edge-depth-4 {
  stroke-width: 5;
}

.section-5 rect, .section-5 path, .section-5 circle, .section-5 polygon {
  fill: hsl(0, 0%, 78.03921568627452%);
}
.section-5 text {
  fill: #333333;
}
.section-edge-5 {
  stroke: hsl(0, 0%, 78.03921568627452%);
}
.edge-depth-5 {
  stroke-width: 2;
}

.section-6 rect, .section-6 path, .section-6 circle, .section-6 polygon {
  fill: hsl(300, 100%, 76.27450980392156%);
}
.section-6 text {
  fill: #333333;
}
.section-edge-6 {
  stroke: hsl(300, 100%, 76.27450980392156%);
}
.edge-depth-6 {
  stroke-width: -1;
}

.section-7 rect, .section-7 path, .section-7 circle, .section-7 polygon {
  fill: hsl(180, 100%, 56.27450980392157%);
}
.section-7 text {
  fill: #333333;
}
.section-edge-7 {
  stroke: hsl(180, 100%, 56.27450980392157%);
}
.edge-depth-7 {
  stroke-width: -4;
}

.section-8 rect, .section-8 path, .section-8 circle, .section-8 polygon {
  fill: hsl(0, 100%, 56.27450980392157%);
}
.section-8 text {
  fill: #333333;
}
.section-edge-8 {
  stroke: hsl(0, 100%, 56.27450980392157%);
}
.edge-depth-8 {
  stroke-width: -7;
}

.section-9 rect, .section-9 path, .section-9 circle, .section-9 polygon {
  fill: hsl(300, 100%, 56.27450980392157%);
}
.section-9 text {
  fill: #333333;
}
.section-edge-9 {
  stroke: hsl(300, 100%, 56.27450980392157%);
}
.edge-depth-9 {
  stroke-width: -10;
}

.section-10 rect, .section-10 path, .section-10 circle, .section-10 polygon {
  fill: hsl(150, 100%, 56.27450980392157%);
}
.section-10 text {
  fill: #333333;
}
.section-edge-10 {
  stroke: hsl(150, 100%, 56.27450980392157%);
}
.edge-depth-10 {
  stroke-width: -13;
}


  </style>
  <g class="root">
    <g class="clusters">

    </g>
    <g class="edgePaths">
      <g class="mindmap-edges">
        <path d="M 45.6 0 Q 71.8 0 105.6 -68" class="edge section-edge-0" fill="none" stroke-width="3"/>
        <path d="M 181.6 -68 Q 221.60000000000002 -68 241.6 -68" class="edge section-edge-0" fill="none" stroke-width="3"/>
        <path d="M 45.6 0 Q 73.8 0 105.6 34" class="edge section-edge-1" fill="none" stroke-width="3"/>
        <path d="M 189.6 34 Q 235.60000000000002 34 249.6 0" class="edge section-edge-1" fill="none" stroke-width="3"/>
        <path d="M 189.6 34 Q 245.60000000000002 34 249.6 68" class="edge section-edge-1" stroke-width="3" fill="none"/>
        <path d="M 45.6 0 Q -159.8 0 -349.6 0" class="edge section-edge-2" stroke-width="3" fill="none"/>
        <path d="M -289.6 0 Q -395.6 0 -533.6 -34" class="edge section-edge-2" stroke-width="3" fill="none"/>
        <path d="M -289.6 0 Q -383.6 0 -485.6 34" class="edge section-edge-2" fill="none" stroke-width="3"/>
      </g>
    </g>
    <g class="edgeLabels">

    </g>
    <g class="nodes">
      <g class="mindmap-nodes">
        <g class="mindmap-node section-0" id="node-Origins" transform="translate(105.6, -87)">
          <path d="M0 33 v-28 q0,-5 5,-5 h66 q5,0 5,5 v33 H0 Z" class="node-bkg node-default"/>
          <text x="38" y="19" class="mindmap-node-label" dominant-baseline="middle" font-size="14px" text-anchor="middle">Origins</text>
        </g>
        <g class="mindmap-node section-0" id="node-mindmap-node-1" transform="translate(241.6, -87)">
          <path d="M0 33 v-28 q0,-5 5,-5 h106 q5,0 5,5 v33 H0 Z" class="node-bkg node-default"/>
          <text x="58" y="19" class="mindmap-node-label" text-anchor="middle" dominant-baseline="middle" font-size="14px">Long history</text>
        </g>
        <g class="mindmap-node section-1" id="node-Research" transform="translate(105.6, 15)">
          <path d="M0 33 v-28 q0,-5 5,-5 h74 q5,0 5,5 v33 H0 Z" class="node-bkg node-default"/>
          <text x="42" y="19" class="mindmap-node-label" text-anchor="middle" dominant-baseline="middle" font-size="14px">Research</text>
        </g>
        <g class="mindmap-node section-1" transform="translate(249.6, -19)" id="node-mindmap-node-3">
          <path d="M0 33 v-28 q0,-5 5,-5 h138 q5,0 5,5 v33 H0 Z" class="node-bkg node-default"/>
          <text x="74" y="19" class="mindmap-node-label" font-size="14px" dominant-baseline="middle" text-anchor="middle">On effectiveness</text>
        </g>
        <g class="mindmap-node section-1" id="node-mindmap-node-4" transform="translate(249.6, 49)">
          <path d="M0 33 v-28 q0,-5 5,-5 h178 q5,0 5,5 v33 H0 Z" class="node-bkg node-default"/>
          <text x="94" y="19" class="mindmap-node-label" font-size="14px" text-anchor="middle" dominant-baseline="middle">On Automatic creation</text>
        </g>
        <g class="mindmap-node section-2" id="node-Tools" transform="translate(-349.6, -19)">
          <path d="M0 33 v-28 q0,-5 5,-5 h50 q5,0 5,5 v33 H0 Z" class="node-bkg node-default"/>
          <text x="30" y="19" class="mindmap-node-label" dominant-baseline="middle" text-anchor="middle" font-size="14px">Tools</text>
        </g>
        <g class="mindmap-node section-2" transform="translate(-533.6, -53)" id="node-mindmap-node-6">
          <path d="M0 33 v-28 q0,-5 5,-5 h114 q5,0 5,5 v33 H0 Z" class="node-bkg node-default"/>
          <text x="62" y="19" class="mindmap-node-label" text-anchor="middle" dominant-baseline="middle" font-size="14px">Pen and paper</text>
        </g>
        <g class="mindmap-node section-2" id="node-Mermaid" transform="translate(-485.6, 15)">
          <path d="M0 33 v-28 q0,-5 5,-5 h66 q5,0 5,5 v33 H0 Z" class="node-bkg node-default"/>
          <text x="38" y="19" class="mindmap-node-label" text-anchor="middle" dominant-baseline="middle" font-size="14px">Mermaid</text>
        </g>
        <g class="mindmap-node section-root" id="node-mindmap-root" transform="translate(-45.6, -45.6)">
          <circle cx="45.6" cy="45.6" r="45.6" class="node-bkg node-circle"/>
          <text x="45.6" y="45.6" class="mindmap-node-label" font-size="14px" text-anchor="middle" dominant-baseline="middle">mindmap</text>
        </g>
      </g>
    </g>
  </g>
</svg>
