<?xml version="1.0" encoding="UTF-8"?>
<svg xmlns="http://www.w3.org/2000/svg" width="629" height="450" viewBox="0 0 629 450" class="mermaid">
  <style>

.mermaid {
  font-family: trebuchet ms, verdana, arial, sans-serif;
  font-size: 16px;
}

.node rect,
.node polygon,
.node circle,
.node ellipse,
.node path {
  fill: #ECECFF;
  stroke: #9370DB;
  stroke-width: 1px;
}

.node line {
  stroke: #9370DB;
  stroke-width: 1px;
}

.node .label {
  fill: #333333;
}

.node text {
  fill: #333333;
  font-family: trebuchet ms, verdana, arial, sans-serif;
  font-size: 16px;
}

.edge-path {
  fill: none;
  stroke: #333333;
  stroke-width: 1px;
}

.edge-label {
  fill: #333333;
  font-family: trebuchet ms, verdana, arial, sans-serif;
}

.edge-label-bg {
  fill: rgba(232, 232, 232, 0.8);
}

.subgraph {
  fill: #ffffde;
  stroke: #aaaa33;
  stroke-width: 1px;
}

.subgraph-title {
  fill: #333333;
  font-weight: bold;
}

.cluster rect {
  fill: #ffffde;
  stroke: #aaaa33;
  stroke-width: 1px;
  rx: 5px;
  ry: 5px;
}

.cluster-label {
  fill: #333333;
  font-family: trebuchet ms, verdana, arial, sans-serif;
  font-size: 16px;
  font-weight: bold;
}

marker path {
  fill: #333333;
  stroke: #333333;
}


.pieCircle {
  stroke: black;
  stroke-width: 2px;
  opacity: 0.7;
}

.pieOuterCircle {
  stroke: black;
  stroke-width: 2px;
  fill: none;
}

.pieTitleText {
  text-anchor: middle;
  font-size: 25px;
  fill: black;
  font-family: trebuchet ms, verdana, arial, sans-serif;
}

.slice {
  font-family: trebuchet ms, verdana, arial, sans-serif;
  fill: #333;
  font-size: 17px;
}

.legend text {
  fill: black;
  font-family: trebuchet ms, verdana, arial, sans-serif;
  font-size: 17px;
}

  </style>
  <g class="root">
    <g class="clusters">

    </g>
    <g class="edgePaths">

    </g>
    <g class="edgeLabels">

    </g>
    <g class="nodes">

    </g>
    <g transform="translate(225,225)">
      <circle cx="0" cy="0" r="186" class="pieOuterCircle"/>
      <path d="M0.000,-185.000A185,185,0,0,1,108.740,149.668L0,0Z" class="pieCircle" fill="#ececff"/>
      <path d="M108.740,149.668A185,185,0,0,1,-149.668,108.740L0,0Z" class="pieCircle" fill="#ffffde"/>
      <path d="M-149.668,108.740A185,185,0,0,1,-149.668,-108.740L0,0Z" class="pieCircle" fill="hsl(80, 100%, 56.2745098039%)"/>
      <path d="M-149.668,-108.740A185,185,0,0,1,-0.000,-185.000L0,0Z" class="pieCircle" fill="hsl(240, 100%, 86.2745098039%)"/>
      <text x="0" y="0" class="slice" style="text-anchor: middle;" transform="translate(131.959,-42.876)">40%</text>
      <text x="0" y="0" class="slice" style="text-anchor: middle;" transform="translate(-21.705,137.042)">25%</text>
      <text x="0" y="0" class="slice" style="text-anchor: middle;" transform="translate(-138.750,0.000)">20%</text>
      <text x="0" y="0" class="slice" style="text-anchor: middle;" transform="translate(-62.991,-123.627)">15%</text>
      <text x="0" y="-200" class="pieTitleText">Project Distribution</text>
      <g class="legend" transform="translate(216,-44)">
        <rect x="0" y="0" width="18" height="18" style="fill: rgb(236, 236, 255); stroke: rgb(236, 236, 255);"/>
        <text x="22" y="14">Development</text>
      </g>
      <g class="legend" transform="translate(216,-22)">
        <rect x="0" y="0" width="18" height="18" style="fill: rgb(255, 255, 222); stroke: rgb(255, 255, 222);"/>
        <text x="22" y="14">Testing</text>
      </g>
      <g class="legend" transform="translate(216,0)">
        <rect x="0" y="0" width="18" height="18" style="fill: rgb(185, 185, 255); stroke: rgb(185, 185, 255);"/>
        <text x="22" y="14">Documentation</text>
      </g>
      <g class="legend" transform="translate(216,22)">
        <rect x="0" y="0" width="18" height="18" style="fill: rgb(181, 255, 32); stroke: rgb(181, 255, 32);"/>
        <text x="22" y="14">Design</text>
      </g>
    </g>
  </g>
</svg>
