<?xml version="1.0" encoding="UTF-8"?>
<svg xmlns="http://www.w3.org/2000/svg" width="710" height="450" viewBox="0 0 710 450" class="mermaid">
  <style>

.mermaid {
  font-family: trebuchet ms, verdana, arial, sans-serif;
  font-size: 16px;
}

.node rect,
.node polygon,
.node circle,
.node ellipse,
.node path {
  fill: #ECECFF;
  stroke: #9370DB;
  stroke-width: 1px;
}

.node line {
  stroke: #9370DB;
  stroke-width: 1px;
}

.node .label {
  fill: #333333;
}

.node text {
  fill: #333333;
  font-family: trebuchet ms, verdana, arial, sans-serif;
  font-size: 16px;
}

.edge-path {
  fill: none;
  stroke: #333333;
  stroke-width: 1px;
}

.edge-label {
  fill: #333333;
  font-family: trebuchet ms, verdana, arial, sans-serif;
}

.edge-label-bg {
  fill: rgba(232, 232, 232, 0.8);
}

.subgraph {
  fill: #ffffde;
  stroke: #aaaa33;
  stroke-width: 1px;
}

.subgraph-title {
  fill: #333333;
  font-weight: bold;
}

.cluster rect {
  fill: #ffffde;
  stroke: #aaaa33;
  stroke-width: 1px;
  rx: 5px;
  ry: 5px;
}

.cluster-label {
  fill: #333333;
  font-family: trebuchet ms, verdana, arial, sans-serif;
  font-size: 16px;
  font-weight: bold;
}

marker path {
  fill: #333333;
  stroke: #333333;
}


.pieCircle {
  stroke: black;
  stroke-width: 2px;
  opacity: 0.7;
}

.pieOuterCircle {
  stroke: black;
  stroke-width: 2px;
  fill: none;
}

.pieTitleText {
  text-anchor: middle;
  font-size: 25px;
  fill: black;
  font-family: trebuchet ms, verdana, arial, sans-serif;
}

.slice {
  font-family: trebuchet ms, verdana, arial, sans-serif;
  fill: #333;
  font-size: 17px;
}

.legend text {
  fill: black;
  font-family: trebuchet ms, verdana, arial, sans-serif;
  font-size: 17px;
}

  </style>
  <g class="root">
    <g class="clusters">

    </g>
    <g class="edgePaths">

    </g>
    <g class="edgeLabels">

    </g>
    <g class="nodes">

    </g>
    <g transform="translate(225,225)">
      <circle cx="0" cy="0" r="186" class="pieOuterCircle"/>
      <path d="M0.000,-185.000A185,185,0,0,1,149.668,108.740L0,0Z" class="pieCircle" fill="#ececff"/>
      <path d="M149.668,108.740A185,185,0,0,1,-78.769,167.393L0,0Z" class="pieCircle" fill="#ffffde"/>
      <path d="M-78.769,167.393A185,185,0,0,1,-185.000,0.000L0,0Z" class="pieCircle" fill="hsl(80, 100%, 56.2745098039%)"/>
      <path d="M-185.000,0.000A185,185,0,0,1,-162.117,-89.124L0,0Z" class="pieCircle" fill="hsl(240, 100%, 86.2745098039%)"/>
      <path d="M-162.117,-89.124A185,185,0,0,1,-117.923,-142.545L0,0Z" class="pieCircle" fill="hsl(60, 100%, 63.5294117647%)"/>
      <path d="M-117.923,-142.545A185,185,0,0,1,-68.103,-172.009L0,0Z" class="pieCircle" fill="hsl(80, 100%, 76.2745098039%)"/>
      <path d="M-68.103,-172.009A185,185,0,0,1,-23.187,-183.541L0,0Z" class="pieCircle" fill="hsl(300, 100%, 76.2745098039%)"/>
      <path d="M-23.187,-183.541A185,185,0,0,1,-0.000,-185.000L0,0Z" class="pieCircle" fill="hsl(180, 100%, 56.2745098039%)"/>
      <text x="0" y="0" class="slice" transform="translate(123.627,-62.991)" style="text-anchor: middle;">35%</text>
      <text x="0" y="0" class="slice" style="text-anchor: middle;" transform="translate(34.506,134.391)">22%</text>
      <text x="0" y="0" class="slice" transform="translate(-117.150,74.346)" style="text-anchor: middle;">18%</text>
      <text x="0" y="0" class="slice" style="text-anchor: middle;" transform="translate(-134.391,-34.506)">8%</text>
      <text x="0" y="0" class="slice" transform="translate(-106.909,-88.443)" style="text-anchor: middle;">6%</text>
      <text x="0" y="0" class="slice" transform="translate(-70.629,-119.428)" style="text-anchor: middle;">5%</text>
      <text x="0" y="0" class="slice" style="text-anchor: middle;" transform="translate(-34.506,-134.391)">4%</text>
      <text x="0" y="0" class="slice" style="text-anchor: middle;" transform="translate(-8.712,-138.476)">2%</text>
      <text x="0" y="-200" class="pieTitleText">Cloud Infrastructure Costs</text>
      <g class="legend" transform="translate(216,-88)">
        <rect x="0" y="0" width="18" height="18" style="fill: rgb(236, 236, 255); stroke: rgb(236, 236, 255);"/>
        <text x="22" y="14">Compute (EC2/GKE) [35]</text>
      </g>
      <g class="legend" transform="translate(216,-66)">
        <rect x="0" y="0" width="18" height="18" style="fill: rgb(181, 255, 32); stroke: rgb(181, 255, 32);"/>
        <text x="22" y="14">Storage (S3/GCS) [18]</text>
      </g>
      <g class="legend" transform="translate(216,-44)">
        <rect x="0" y="0" width="18" height="18" style="fill: rgb(255, 255, 222); stroke: rgb(255, 255, 222);"/>
        <text x="22" y="14">Database (RDS) [22]</text>
      </g>
      <g class="legend" transform="translate(216,-22)">
        <rect x="0" y="0" width="18" height="18" style="fill: rgb(185, 185, 255); stroke: rgb(185, 185, 255);"/>
        <text x="22" y="14">Networking [8]</text>
      </g>
      <g class="legend" transform="translate(216,0)">
        <rect x="0" y="0" width="18" height="18" style="fill: rgb(255, 255, 69); stroke: rgb(255, 255, 69);"/>
        <text x="22" y="14">CDN &amp; Edge [6]</text>
      </g>
      <g class="legend" transform="translate(216,22)">
        <rect x="0" y="0" width="18" height="18" style="fill: rgb(215, 255, 134); stroke: rgb(215, 255, 134);"/>
        <text x="22" y="14">Monitoring [5]</text>
      </g>
      <g class="legend" transform="translate(216,44)">
        <rect x="0" y="0" width="18" height="18" style="fill: rgb(255, 134, 255); stroke: rgb(255, 134, 255);"/>
        <text x="22" y="14">Security [4]</text>
      </g>
      <g class="legend" transform="translate(216,66)">
        <rect x="0" y="0" width="18" height="18" style="fill: rgb(32, 255, 255); stroke: rgb(32, 255, 255);"/>
        <text x="22" y="14">Other [2]</text>
      </g>
    </g>
  </g>
</svg>
