<?xml version="1.0" encoding="UTF-8"?>
<svg xmlns="http://www.w3.org/2000/svg" width="500" height="500" viewBox="0 0 500 500" class="mermaid">
  <style>

.mermaid {
  font-family: trebuchet ms, verdana, arial, sans-serif;
  font-size: 16px;
}

.node rect,
.node polygon,
.node circle,
.node ellipse,
.node path {
  fill: #ECECFF;
  stroke: #9370DB;
  stroke-width: 1px;
}

.node line {
  stroke: #9370DB;
  stroke-width: 1px;
}

.node .label {
  fill: #333333;
}

.node text {
  fill: #333333;
  font-family: trebuchet ms, verdana, arial, sans-serif;
  font-size: 16px;
}

.edge-path {
  fill: none;
  stroke: #333333;
  stroke-width: 1px;
}

.edge-label {
  fill: #333333;
  font-family: trebuchet ms, verdana, arial, sans-serif;
}

.edge-label-bg {
  fill: rgba(232, 232, 232, 0.8);
}

.subgraph {
  fill: #ffffde;
  stroke: #aaaa33;
  stroke-width: 1px;
}

.subgraph-title {
  fill: #333333;
  font-weight: bold;
}

.cluster rect {
  fill: #ffffde;
  stroke: #aaaa33;
  stroke-width: 1px;
  rx: 5px;
  ry: 5px;
}

.cluster-label {
  fill: #333333;
  font-family: trebuchet ms, verdana, arial, sans-serif;
  font-size: 16px;
  font-weight: bold;
}

marker path {
  fill: #333333;
  stroke: #333333;
}


.radarGraticule {
    fill: none;
    stroke: #999999;
    stroke-width: 1px;
    stroke-opacity: 0.3;
}

.radarAxisLine {
    stroke: #333333;
    stroke-width: 1px;
}

.radarAxisLabel {
    font-family: trebuchet ms, verdana, arial, sans-serif;
    font-size: 12px;
    fill: #333333;
}

.radarTitle {
    font-family: trebuchet ms, verdana, arial, sans-serif;
    font-size: 16px;
    font-weight: bold;
    fill: #333333;
}

.radarLegendText {
    font-family: trebuchet ms, verdana, arial, sans-serif;
    font-size: 12px;
    fill: #333333;
}

[class^="radarCurve-"] {
    fill-opacity: 0.3;
    stroke-width: 2px;
}

  </style>
  <g class="root">
    <g class="clusters">

    </g>
    <g class="edgePaths">

    </g>
    <g class="edgeLabels">

    </g>
    <g class="nodes">

    </g>
    <g transform="translate(250, 250)">
      <circle cx="0" cy="0" r="40" class="radarGraticule" stroke-width="1" stroke="#999999" fill="none" stroke-opacity="0.3"/>
      <circle cx="0" cy="0" r="80" class="radarGraticule" fill="none" stroke="#999999" stroke-width="1" stroke-opacity="0.3"/>
      <circle cx="0" cy="0" r="120" class="radarGraticule" stroke-width="1" fill="none" stroke="#999999" stroke-opacity="0.3"/>
      <circle cx="0" cy="0" r="160" class="radarGraticule" stroke-opacity="0.3" stroke="#999999" stroke-width="1" fill="none"/>
      <circle cx="0" cy="0" r="200" class="radarGraticule" fill="none" stroke-opacity="0.3" stroke-width="1" stroke="#999999"/>
      <line x1="0" y1="0" x2="0.000000000000010409497792752502" y2="-170" class="radarAxisLine" stroke-width="1" stroke="#333333"/>
      <text x="0.000000000000013471114790620887" y="-220.00000000000003" class="radarAxisLabel" dominant-baseline="middle" fill="#333333" text-anchor="middle" font-size="12">Performance</text>
      <line x1="0" y1="0" x2="147.22431864335456" y2="-85" class="radarAxisLine" stroke-width="1" stroke="#333333"/>
      <text x="190.52558883257652" y="-110.00000000000001" class="radarAxisLabel" text-anchor="middle" font-size="12" dominant-baseline="middle" fill="#333333">Ecosystem</text>
      <line x1="0" y1="0" x2="147.2243186433546" y2="84.99999999999997" class="radarAxisLine" stroke="#333333" stroke-width="1"/>
      <text x="190.52558883257655" y="109.99999999999997" class="radarAxisLabel" text-anchor="middle" dominant-baseline="middle" fill="#333333" font-size="12">Safety</text>
      <line x1="0" y1="0" x2="0.000000000000010409497792752502" y2="170" class="radarAxisLine" stroke-width="1" stroke="#333333"/>
      <text x="0.000000000000013471114790620887" y="220.00000000000003" class="radarAxisLabel" fill="#333333" text-anchor="middle" font-size="12" dominant-baseline="middle">Learning Curve</text>
      <line x1="0" y1="0" x2="-147.22431864335454" y2="85.00000000000006" class="radarAxisLine" stroke="#333333" stroke-width="1"/>
      <text x="-190.5255888325765" y="110.00000000000009" class="radarAxisLabel" text-anchor="middle" dominant-baseline="middle" font-size="12" fill="#333333">Tooling</text>
      <line x1="0" y1="0" x2="-147.22431864335456" y2="-85.00000000000001" class="radarAxisLine" stroke-width="1" stroke="#333333"/>
      <text x="-190.52558883257652" y="-110.00000000000004" class="radarAxisLabel" text-anchor="middle" font-size="12" fill="#333333" dominant-baseline="middle">Community</text>
      <path d="M0.000000000000012246467991473532,-200 C46.28039757824041,-200 109.63881611910992,-130.1 138.56406460551017,-80 C167.48931309191042,-29.9 196.34527954600796,73.27999999999997 173.20508075688775,99.99999999999997 C150.06488196776755,126.71999999999997 57.850496972800514,79.99999999999999 0.000000000000004898587196589413,80 C-57.8504969728005,80.00000000000001 -150.0648819677675,126.72000000000007 -173.2050807568877,100.00000000000007 C-196.3452795460079,73.28000000000007 -167.48931309191042,-29.9 -138.56406460551017,-80.00000000000001 C-109.63881611910992,-130.10000000000002 -46.28039757824038,-200 0.000000000000012246467991473532,-200 Z" class="radarCurve-0" fill-opacity="0.3" stroke-width="2" fill="#4C78A8" stroke="#4C78A8"/>
      <path d="M0.000000000000004898587196589413,-80 C57.850496972800514,-80 155.84993166504756,-123.38 173.20508075688772,-100 C190.5602298487279,-76.62 132.8482969405329,9.899999999999977 103.92304845413264,59.99999999999998 C74.99779996773239,110.09999999999998 40.49534788096037,196.66 0.000000000000012246467991473532,200 C-40.49534788096034,203.34 -109.63881611910992,130.10000000000005 -138.56406460551017,80.00000000000006 C-167.48931309191042,29.900000000000055 -196.34527954600793,-73.28000000000002 -173.20508075688772,-100.00000000000003 C-150.06488196776752,-126.72000000000004 -57.8504969728005,-80 0.000000000000004898587196589413,-80 Z" class="radarCurve-1" stroke-width="2" fill="#F58518" fill-opacity="0.3" stroke="#F58518"/>
      <path d="M0.000000000000009797174393178826,-160 C46.280397578240404,-160 115.42386581638996,-120.08 138.56406460551017,-80 C161.70426339463037,-39.92 161.7042633946304,39.919999999999966 138.5640646055102,79.99999999999997 C115.42386581638999,120.07999999999998 52.06544727552046,156.66 0.000000000000009797174393178826,160 C-52.06544727552045,163.34 -150.0648819677675,140.08000000000007 -173.2050807568877,100.00000000000007 C-196.3452795460079,59.920000000000066 -167.48931309191042,-36.580000000000005 -138.56406460551017,-80.00000000000001 C-109.63881611910992,-123.42000000000002 -46.28039757824039,-160 0.000000000000009797174393178826,-160 Z" class="radarCurve-2" fill-opacity="0.3" stroke="#E45756" fill="#E45756" stroke-width="2"/>
      <path d="M0.000000000000012246467991473532,-200 C52.06544727552047,-203.34 161.63498136232764,-140.08 173.20508075688772,-100 C184.7751801514478,-59.919999999999995 98.20728078915535,16.619999999999983 69.2820323027551,39.999999999999986 C40.35678381635485,63.37999999999999 28.92524848640025,36.65999999999999 0.0000000000000024492935982947065,40 C-28.925248486400243,43.34000000000001 -80.7828496650124,80.04000000000005 -103.92304845413261,60.00000000000004 C-127.06324724325282,39.960000000000036 -155.91921369735033,-36.580000000000005 -138.56406460551017,-80.00000000000001 C-121.20891551367002,-123.42000000000002 -52.06544727552044,-196.66 0.000000000000012246467991473532,-200 Z" class="radarCurve-3" stroke-width="2" fill-opacity="0.3" stroke="#72B7B2" fill="#72B7B2"/>
      <rect x="187.5" y="-187.5" width="12" height="12" class="radarLegendBox-0" fill="#4C78A8"/>
      <text x="203.5" y="-187.5" class="radarLegendText" dominant-baseline="hanging" font-size="12">Rust</text>
      <rect x="187.5" y="-167.5" width="12" height="12" class="radarLegendBox-1" fill="#F58518"/>
      <text x="203.5" y="-167.5" class="radarLegendText" dominant-baseline="hanging" font-size="12">Python</text>
      <rect x="187.5" y="-147.5" width="12" height="12" class="radarLegendBox-2" fill="#E45756"/>
      <text x="203.5" y="-147.5" class="radarLegendText" font-size="12" dominant-baseline="hanging">Go</text>
      <rect x="187.5" y="-127.5" width="12" height="12" class="radarLegendBox-3" fill="#72B7B2"/>
      <text x="203.5" y="-127.5" class="radarLegendText" font-size="12" dominant-baseline="hanging">C++</text>
      <text x="0" y="-230" class="radarTitle" font-size="16" font-weight="bold" fill="#333333" text-anchor="middle">Programming Language Comparison</text>
    </g>
  </g>
</svg>
