<?xml version="1.0" encoding="UTF-8"?>
<svg xmlns="http://www.w3.org/2000/svg" width="1250" height="1666" viewBox="0 0 1250 1666" class="mermaid">
  <style>

.mermaid {
  font-family: trebuchet ms, verdana, arial, sans-serif;
  font-size: 16px;
}

.node rect,
.node polygon,
.node circle,
.node ellipse,
.node path {
  fill: #ECECFF;
  stroke: #9370DB;
  stroke-width: 1px;
}

.node line {
  stroke: #9370DB;
  stroke-width: 1px;
}

.node .label {
  fill: #333333;
}

.node text {
  fill: #333333;
  font-family: trebuchet ms, verdana, arial, sans-serif;
  font-size: 16px;
}

.edge-path {
  fill: none;
  stroke: #333333;
  stroke-width: 1px;
}

.edge-label {
  fill: #333333;
  font-family: trebuchet ms, verdana, arial, sans-serif;
  font-size: 12px;
}

.edge-label-bg {
  fill: #ffffff;
}

.subgraph {
  fill: #ffffde;
  stroke: #aaaa33;
  stroke-width: 1px;
}

.subgraph-title {
  fill: #333333;
  font-weight: bold;
}

.cluster rect {
  fill: #ffffde;
  stroke: #aaaa33;
  stroke-width: 1px;
  rx: 5px;
  ry: 5px;
}

.cluster-label {
  fill: #333333;
  font-family: trebuchet ms, verdana, arial, sans-serif;
  font-size: 16px;
  font-weight: bold;
}

marker path {
  fill: #333333;
  stroke: #333333;
}


.sequence-title {
  fill: #333333;
}

.actor {
  stroke: #9370DB;
  fill: #ECECFF;
}

.actor-box {
  stroke: #9370DB;
  fill: #ECECFF;
}

/* Actor text - no stroke (avoid outlined appearance) */
text.actor, text.actor > tspan, text.actor-box, text.actor-label {
  fill: #333333;
  stroke: none;
}

.actor-line {
  stroke: #333333;
  stroke-width: 0.5px;
}

.messageLine0 {
  stroke-width: 1.5;
  stroke-dasharray: none;
  stroke: #333333;
}

.messageLine1 {
  stroke-width: 1.5;
  stroke-dasharray: 2, 2;
  stroke: #333333;
}

.message-line {
  stroke: #333333;
}

.messageText {
  fill: #333333;
  stroke: none;
}

.message-label {
  fill: #333333;
  stroke: none;
}

.note {
  stroke: #aaaa33;
  fill: #FFFFCC;
}

.noteText, .noteText > tspan {
  fill: #333333;
  stroke: none;
}

.note-text, .note-text > tspan {
  fill: #333333;
  stroke: none;
}

.activation {
  fill: #eaeaea;
  stroke: #333333;
}

.loopLine {
  stroke: #9370DB;
  fill: none;
  stroke-width: 2px;
  stroke-dasharray: 2, 2;
}

.loopText {
  fill: #333333;
}

.labelBox {
  stroke: #9370DB;
  fill: #ECECFF;
}

.sequence-marker-filled {
  fill: #333333;
  stroke: #333333;
}

.sequence-marker-open {
  fill: none;
  stroke: #333333;
}

.sequence-marker-cross {
  stroke: #333333;
}

.sequence-number {
  fill: #333333;
}

  </style>
  <defs>
    <marker id="arrow-filled" viewBox="0 0 10 10" refX="10" refY="5" markerWidth="6" markerHeight="6" orient="auto">
      <path d="M 0 0 L 10 5 L 0 10 z" class="sequence-marker-filled" stroke-width="1"/>
    </marker>
    <marker id="arrow-open" viewBox="0 0 10 10" refX="10" refY="5" markerWidth="6" markerHeight="6" orient="auto">
      <path d="M 0 0 L 10 5 L 0 10" class="sequence-marker-open" stroke-width="1"/>
    </marker>
    <marker id="arrow-cross" viewBox="0 0 10 10" refX="5" refY="5" markerWidth="6" markerHeight="6" orient="auto">
      <line x1="0" y1="0" x2="10" y2="10" class="sequence-marker-cross" stroke-width="2"/>
      <line x1="10" y1="0" x2="0" y2="10" class="sequence-marker-cross" stroke-width="2"/>
    </marker>
    <marker id="sequencenumber" viewBox="0 0 30 30" refX="15" refY="15" markerWidth="60" markerHeight="40" orient="auto">
      <circle cx="15" cy="15" r="6" class="sequence-number"/>
    </marker>
  </defs>
  <g class="root">
    <g class="clusters">
      <line x1="40" y1="603" x2="610" y2="603" class="loopLine" stroke-dasharray="3,3"/>
      <line x1="450" y1="823" x2="1200" y2="823" class="loopLine" stroke-dasharray="3,3"/>
      <rect x="450" y="669" width="750" height="220" rx="3" ry="3" class="loopLine" fill="none"/>
      <rect x="450" y="977" width="750" height="132" rx="3" ry="3" class="loopLine" fill="none"/>
      <rect x="40" y="449" width="1170" height="836" rx="3" ry="3" class="loopLine" fill="none"/>
    </g>
    <g class="edgePaths">

    </g>
    <g class="edgeLabels">

    </g>
    <g class="nodes">

    </g>
    <g class="actor">
      <rect x="50" y="10" width="150" height="65" rx="3" ry="3" class="actor actor-box" stroke-width="1"/>
      <text x="125" y="42.5" class="actor actor-box" font-size="16" dominant-baseline="central" text-anchor="middle">User</text>
    </g>
    <line x1="125" y1="75" x2="125" y2="1591" class="actor-line" stroke-width="0.5px"/>
    <g class="actor">
      <rect x="50" y="1591" width="150" height="65" rx="3" ry="3" class="actor actor-box" stroke-width="1"/>
      <text x="125" y="1623.5" class="actor actor-box" font-size="16" text-anchor="middle" dominant-baseline="central">User</text>
    </g>
    <g class="actor">
      <rect x="250" y="10" width="150" height="65" rx="3" ry="3" class="actor actor-box" stroke-width="1"/>
      <text x="325" y="42.5" class="actor actor-box" text-anchor="middle" font-size="16" dominant-baseline="central">Browser</text>
    </g>
    <line x1="325" y1="75" x2="325" y2="1591" class="actor-line" stroke-width="0.5px"/>
    <g class="actor">
      <rect x="250" y="1591" width="150" height="65" rx="3" ry="3" class="actor actor-box" stroke-width="1"/>
      <text x="325" y="1623.5" class="actor actor-box" dominant-baseline="central" font-size="16" text-anchor="middle">Browser</text>
    </g>
    <g class="actor">
      <rect x="450" y="10" width="150" height="65" rx="3" ry="3" class="actor actor-box" stroke-width="1"/>
      <text x="525" y="42.5" class="actor actor-box" font-size="16" text-anchor="middle" dominant-baseline="central">API</text>
    </g>
    <line x1="525" y1="75" x2="525" y2="1591" class="actor-line" stroke-width="0.5px"/>
    <g class="actor">
      <rect x="450" y="1591" width="150" height="65" rx="3" ry="3" class="actor actor-box" stroke-width="1"/>
      <text x="525" y="1623.5" class="actor actor-box" dominant-baseline="central" font-size="16" text-anchor="middle">API</text>
    </g>
    <g class="actor">
      <rect x="650" y="10" width="150" height="65" rx="3" ry="3" class="actor actor-box" stroke-width="1"/>
      <text x="725" y="42.5" class="actor actor-box" text-anchor="middle" dominant-baseline="central" font-size="16">Auth</text>
    </g>
    <line x1="725" y1="75" x2="725" y2="1591" class="actor-line" stroke-width="0.5px"/>
    <g class="actor">
      <rect x="650" y="1591" width="150" height="65" rx="3" ry="3" class="actor actor-box" stroke-width="1"/>
      <text x="725" y="1623.5" class="actor actor-box" text-anchor="middle" dominant-baseline="central" font-size="16">Auth</text>
    </g>
    <g class="actor">
      <rect x="850" y="10" width="150" height="65" rx="3" ry="3" class="actor actor-box" stroke-width="1"/>
      <text x="925" y="42.5" class="actor actor-box" font-size="16" text-anchor="middle" dominant-baseline="central">DB</text>
    </g>
    <line x1="925" y1="75" x2="925" y2="1591" class="actor-line" stroke-width="0.5px"/>
    <g class="actor">
      <rect x="850" y="1591" width="150" height="65" rx="3" ry="3" class="actor actor-box" stroke-width="1"/>
      <text x="925" y="1623.5" class="actor actor-box" dominant-baseline="central" font-size="16" text-anchor="middle">DB</text>
    </g>
    <g class="actor">
      <rect x="1050" y="10" width="150" height="65" rx="3" ry="3" class="actor actor-box" stroke-width="1"/>
      <text x="1125" y="42.5" class="actor actor-box" text-anchor="middle" dominant-baseline="central" font-size="16">Queue</text>
    </g>
    <line x1="1125" y1="75" x2="1125" y2="1591" class="actor-line" stroke-width="0.5px"/>
    <g class="actor">
      <rect x="1050" y="1591" width="150" height="65" rx="3" ry="3" class="actor actor-box" stroke-width="1"/>
      <text x="1125" y="1623.5" class="actor actor-box" text-anchor="middle" font-size="16" dominant-baseline="central">Queue</text>
    </g>
    <g class="note">
      <path d="M 115 99 L 1127 99 L 1135 107 L 1135 139 L 115 139 Z" class="note note-box" stroke-width="1"/>
      <path d="M 1127 99 L 1127 107 L 1135 107" class="note" stroke-width="1" fill="none"/>
      <text x="625" y="120" class="note-text" text-anchor="middle" font-size="11">E-Commerce Checkout Flow</text>
    </g>
    <g class="message">
      <line x1="125" y1="163" x2="325" y2="163" class="message-line" marker-end="url(#arrow-filled)" stroke-width="1"/>
      <text x="225" y="153" class="message-label" font-size="16" text-anchor="middle">Click Checkout</text>
    </g>
    <g class="message">
      <line x1="325" y1="207" x2="525" y2="207" class="message-line" stroke-width="1" marker-end="url(#arrow-filled)"/>
      <text x="425" y="197" class="message-label" font-size="16" text-anchor="middle">POST /checkout</text>
    </g>
    <g class="note">
      <path d="M 545 231 L 637 231 L 645 239 L 645 271 L 545 271 Z" class="note note-box" stroke-width="1"/>
      <path d="M 637 231 L 637 239 L 645 239" class="note" fill="none" stroke-width="1"/>
      <text x="595" y="252" class="note-text" font-size="11" text-anchor="middle">Validate cart items</text>
    </g>
    <g class="message">
      <line x1="525" y1="295" x2="725" y2="295" class="message-line" marker-end="url(#arrow-filled)" stroke-width="1"/>
      <text x="625" y="285" class="message-label" font-size="16" text-anchor="middle">Verify session</text>
    </g>
    <g class="message">
      <line x1="725" y1="339" x2="925" y2="339" class="message-line" stroke-width="1" marker-end="url(#arrow-filled)"/>
      <text x="825" y="329" class="message-label" font-size="16" text-anchor="middle">Query user</text>
    </g>
    <g class="message">
      <line x1="925" y1="383" x2="725" y2="383" class="message-line" stroke-width="1" marker-end="url(#arrow-filled)" stroke-dasharray="5,5"/>
      <text x="825" y="373" class="message-label" font-size="16" text-anchor="middle">User record</text>
    </g>
    <g class="message">
      <line x1="725" y1="427" x2="525" y2="427" class="message-line" stroke-width="1" marker-end="url(#arrow-filled)" stroke-dasharray="5,5"/>
      <text x="625" y="417" class="message-label" text-anchor="middle" font-size="16">Session valid</text>
    </g>
    <rect x="720" y="295" width="10" height="132" rx="1" ry="1" class="activation"/>
    <g class="message">
      <line x1="525" y1="515" x2="325" y2="515" class="message-line" stroke-width="1" marker-end="url(#arrow-filled)" stroke-dasharray="5,5"/>
      <text x="425" y="505" class="message-label" text-anchor="middle" font-size="16">Error: Empty cart</text>
    </g>
    <g class="message">
      <line x1="325" y1="559" x2="125" y2="559" class="message-line" marker-end="url(#arrow-filled)" stroke-dasharray="5,5" stroke-width="1"/>
      <text x="225" y="549" class="message-label" font-size="16" text-anchor="middle">Show error</text>
    </g>
    <text x="325" y="621" class="loopText" font-size="16" text-anchor="middle">[Cart Valid]</text>
    <g class="message">
      <line x1="525" y1="647" x2="925" y2="647" class="message-line" marker-end="url(#arrow-filled)" stroke-width="1"/>
      <text x="725" y="637" class="message-label" text-anchor="middle" font-size="16">Reserve inventory</text>
    </g>
    <g class="message">
      <line x1="525" y1="735" x2="1125" y2="735" class="message-line" stroke-width="1" marker-end="url(#arrow-filled)"/>
      <text x="825" y="725" class="message-label" font-size="16" text-anchor="middle">Queue payment job</text>
    </g>
    <g class="message">
      <line x1="1125" y1="779" x2="525" y2="779" class="message-line" stroke-dasharray="5,5" marker-end="url(#arrow-filled)" stroke-width="1"/>
      <text x="825" y="769" class="message-label" font-size="16" text-anchor="middle">Job queued</text>
    </g>
    <text x="825" y="841" class="loopText" text-anchor="middle" font-size="16">[Send Notifications]</text>
    <g class="message self-message">
      <path d="M 525 867 L 565 867 L 565 897 L 525 897" class="message-line" stroke-width="1" stroke-dasharray="5,5" fill="none" marker-end="url(#arrow-filled)"/>
      <text x="570" y="882" class="message-label" text-anchor="start" font-size="16">Queue email confirmation</text>
    </g>
    <polygon points="460,669 510,669 510,682 502,689 460,689" class="labelBox"/>
    <text x="485" y="682" class="labelText" font-size="16" text-anchor="middle">par</text>
    <text x="825" y="687" class="loopText" font-size="16" text-anchor="middle">[Process Payment]</text>
    <g class="message">
      <line x1="925" y1="955" x2="525" y2="955" class="message-line" marker-end="url(#arrow-filled)" stroke-width="1" stroke-dasharray="5,5"/>
      <text x="725" y="945" class="message-label" font-size="16" text-anchor="middle">Inventory reserved</text>
    </g>
    <rect x="920" y="647" width="10" height="308" rx="1" ry="1" class="activation"/>
    <g class="message">
      <line x1="525" y1="1043" x2="1125" y2="1043" class="message-line" stroke-width="1" marker-end="url(#arrow-filled)"/>
      <text x="825" y="1033" class="message-label" font-size="16" text-anchor="middle">Check payment status</text>
    </g>
    <g class="message">
      <line x1="1125" y1="1087" x2="525" y2="1087" class="message-line" marker-end="url(#arrow-filled)" stroke-dasharray="5,5" stroke-width="1"/>
      <text x="825" y="1077" class="message-label" text-anchor="middle" font-size="16">Payment pending</text>
    </g>
    <polygon points="460,977 510,977 510,990 502,997 460,997" class="labelBox"/>
    <text x="485" y="990" class="labelText" font-size="16" text-anchor="middle">loop</text>
    <text x="825" y="995" class="loopText" text-anchor="middle" font-size="16">[Retry up to 3 times]</text>
    <g class="note">
      <path d="M 515 1155 L 1127 1155 L 1135 1163 L 1135 1195 L 515 1195 Z" class="note note-box" stroke-width="1"/>
      <path d="M 1127 1155 L 1127 1163 L 1135 1163" class="note" fill="none" stroke-width="1"/>
      <text x="825" y="1176" class="note-text" text-anchor="middle" font-size="11">Payment confirmed</text>
    </g>
    <g class="message">
      <line x1="525" y1="1219" x2="325" y2="1219" class="message-line" stroke-dasharray="5,5" stroke-width="1" marker-end="url(#arrow-filled)"/>
      <text x="425" y="1209" class="message-label" text-anchor="middle" font-size="16">Order confirmed</text>
    </g>
    <rect x="520" y="207" width="10" height="1012" rx="1" ry="1" class="activation"/>
    <g class="message">
      <line x1="325" y1="1263" x2="125" y2="1263" class="message-line" stroke-width="1" marker-end="url(#arrow-filled)" stroke-dasharray="5,5"/>
      <text x="225" y="1253" class="message-label" text-anchor="middle" font-size="16">Show confirmation</text>
    </g>
    <polygon points="50,449 100,449 100,462 92,469 50,469" class="labelBox"/>
    <text x="75" y="462" class="labelText" text-anchor="middle" font-size="16">alt</text>
    <text x="625" y="467" class="loopText" text-anchor="middle" font-size="16">[Cart Empty]</text>
    <rect x="320" y="163" width="10" height="1100" rx="1" ry="1" class="activation"/>
  </g>
</svg>
