<?xml version="1.0" encoding="UTF-8"?>
<svg xmlns="http://www.w3.org/2000/svg" width="1305" height="1270" viewBox="-50 -10 1305 1270" class="mermaid">
  <style>

.mermaid {
  font-family: trebuchet ms, verdana, arial, sans-serif;
  font-size: 16px;
}

.node rect,
.node polygon,
.node circle,
.node ellipse,
.node path {
  fill: #ECECFF;
  stroke: #9370DB;
  stroke-width: 1px;
}

.node line {
  stroke: #9370DB;
  stroke-width: 1px;
}

.node .label {
  fill: #333333;
}

.node text {
  fill: #333333;
  font-family: trebuchet ms, verdana, arial, sans-serif;
  font-size: 16px;
}

.edge-path {
  fill: none;
  stroke: #333333;
  stroke-width: 1px;
}

.edge-label {
  fill: #333333;
  font-family: trebuchet ms, verdana, arial, sans-serif;
}

.edge-label-bg {
  fill: rgba(232, 232, 232, 0.8);
}

.subgraph {
  fill: #ffffde;
  stroke: #aaaa33;
  stroke-width: 1px;
}

.subgraph-title {
  fill: #333333;
  font-weight: bold;
}

.cluster rect {
  fill: #ffffde;
  stroke: #aaaa33;
  stroke-width: 1px;
  rx: 5px;
  ry: 5px;
}

.cluster-label {
  fill: #333333;
  font-family: trebuchet ms, verdana, arial, sans-serif;
  font-size: 16px;
  font-weight: bold;
}

marker path {
  fill: #333333;
  stroke: #333333;
}


.sequence-title {
  fill: #333333;
}

.actor {
  stroke: #9370DB;
  fill: #ECECFF;
}

.actor-box {
  stroke: #9370DB;
  fill: #ECECFF;
}

/* Actor text - no stroke (avoid outlined appearance) */
text.actor, text.actor > tspan, text.actor-box, text.actor-label {
  fill: #333333;
  stroke: none;
}

.actor-line {
  stroke: #333333;
  stroke-width: 0.5px;
}

.messageLine0 {
  stroke-width: 1.5;
  stroke-dasharray: none;
  stroke: #333333;
}

.messageLine1 {
  stroke-width: 1.5;
  stroke-dasharray: 2, 2;
  stroke: #333333;
}

.message-line {
  stroke: #333333;
}

.messageText {
  fill: #333333;
  stroke: none;
}

.message-label {
  fill: #333333;
  stroke: none;
}

.note {
  stroke: #aaaa33;
  fill: #FFFFCC;
}

.noteText, .noteText > tspan {
  fill: #333333;
  stroke: none;
}

.note-text, .note-text > tspan {
  fill: #333333;
  stroke: none;
}

.activation {
  fill: #eaeaea;
  stroke: #333333;
}

.loopLine {
  stroke: #9370DB;
  fill: none;
  stroke-width: 2px;
  stroke-dasharray: 2, 2;
}

.loopText {
  fill: #333333;
}

.labelBox {
  stroke: #9370DB;
  fill: #ECECFF;
}

.sequence-marker-filled {
  fill: #333333;
  stroke: #333333;
}

.sequence-marker-open {
  fill: none;
  stroke: #333333;
}

.sequence-marker-cross {
  stroke: #333333;
}

.sequence-number {
  fill: #333333;
}

.sequenceNumber-circle {
  fill: #333333;
  stroke: #333333;
}

.sequenceNumber {
  fill: white;
}

  </style>
  <defs>
    <marker id="arrow-filled" viewBox="0 0 10 10" refX="10" refY="5" markerWidth="12" markerHeight="12" orient="auto">
      <path d="M 0 0 L 10 5 L 0 10 z" class="sequence-marker-filled" stroke-width="1"/>
    </marker>
    <marker id="arrow-open" viewBox="0 0 10 10" refX="10" refY="5" markerWidth="12" markerHeight="12" orient="auto">
      <path d="M 0 0 L 10 5 L 0 10" class="sequence-marker-open" stroke-width="1"/>
    </marker>
    <marker id="arrow-cross" viewBox="0 0 10 10" refX="5" refY="5" markerWidth="12" markerHeight="12" orient="auto">
      <line x1="0" y1="0" x2="10" y2="10" class="sequence-marker-cross" stroke-width="2"/>
      <line x1="10" y1="0" x2="0" y2="10" class="sequence-marker-cross" stroke-width="2"/>
    </marker>
    <marker id="sequencenumber" refX="15" refY="15" markerWidth="60" markerHeight="40" orient="auto">
      <circle cx="15" cy="15" r="6" class="sequence-number"/>
    </marker>
  </defs>
  <g class="root">
    <g class="clusters">
      <line x1="-10" y1="593" x2="582" y2="593" class="loopLine" stroke-dasharray="3,3"/>
      <line x1="422" y1="813" x2="1205" y2="813" class="loopLine" stroke-dasharray="3,3"/>
      <rect x="422" y="659" width="783" height="220" rx="3" ry="3" class="loopLine" fill="none"/>
      <rect x="422" y="923" width="783" height="132" rx="3" ry="3" class="loopLine" fill="none"/>
      <rect x="-10" y="439" width="1225" height="748" rx="3" ry="3" class="loopLine" fill="none"/>
      <line x1="75" y1="65" x2="75" y2="1185" class="actor-line" stroke-width="0.5px"/>
      <line x1="286" y1="65" x2="286" y2="1185" class="actor-line" stroke-width="0.5px"/>
      <line x1="497" y1="65" x2="497" y2="1185" class="actor-line" stroke-width="0.5px"/>
      <line x1="708" y1="65" x2="708" y2="1185" class="actor-line" stroke-width="0.5px"/>
      <line x1="919" y1="65" x2="919" y2="1185" class="actor-line" stroke-width="0.5px"/>
      <line x1="1130" y1="65" x2="1130" y2="1185" class="actor-line" stroke-width="0.5px"/>
      <rect x="703" y="285" width="10" height="132" rx="1" ry="1" class="activation"/>
      <rect x="914" y="637" width="10" height="264" rx="1" ry="1" class="activation"/>
      <rect x="492" y="197" width="10" height="924" rx="1" ry="1" class="activation"/>
      <rect x="281" y="153" width="10" height="1012" rx="1" ry="1" class="activation"/>
    </g>
    <g class="edgePaths">
      <line x1="75" y1="153" x2="286" y2="153" class="message-line" marker-end="url(#arrow-filled)" stroke-width="1.5"/>
      <circle cx="75" cy="153" r="11" class="sequenceNumber-circle"/>
      <line x1="286" y1="197" x2="497" y2="197" class="message-line" stroke-width="1.5" marker-end="url(#arrow-filled)"/>
      <circle cx="286" cy="197" r="11" class="sequenceNumber-circle"/>
      <line x1="497" y1="285" x2="708" y2="285" class="message-line" marker-end="url(#arrow-filled)" stroke-width="1.5"/>
      <circle cx="497" cy="285" r="11" class="sequenceNumber-circle"/>
      <line x1="708" y1="329" x2="919" y2="329" class="message-line" marker-end="url(#arrow-filled)" stroke-width="1.5"/>
      <circle cx="708" cy="329" r="11" class="sequenceNumber-circle"/>
      <line x1="919" y1="373" x2="708" y2="373" class="message-line" stroke-width="1.5" stroke-dasharray="5,5" marker-end="url(#arrow-filled)"/>
      <circle cx="919" cy="373" r="11" class="sequenceNumber-circle"/>
      <line x1="708" y1="417" x2="497" y2="417" class="message-line" stroke-width="1.5" marker-end="url(#arrow-filled)" stroke-dasharray="5,5"/>
      <circle cx="708" cy="417" r="11" class="sequenceNumber-circle"/>
      <line x1="497" y1="505" x2="286" y2="505" class="message-line" stroke-dasharray="5,5" stroke-width="1.5" marker-end="url(#arrow-filled)"/>
      <circle cx="497" cy="505" r="11" class="sequenceNumber-circle"/>
      <line x1="286" y1="549" x2="75" y2="549" class="message-line" marker-end="url(#arrow-filled)" stroke-width="1.5" stroke-dasharray="5,5"/>
      <circle cx="286" cy="549" r="11" class="sequenceNumber-circle"/>
      <line x1="497" y1="637" x2="919" y2="637" class="message-line" marker-end="url(#arrow-filled)" stroke-width="1.5"/>
      <circle cx="497" cy="637" r="11" class="sequenceNumber-circle"/>
      <line x1="497" y1="725" x2="1130" y2="725" class="message-line" stroke-width="1.5" marker-end="url(#arrow-filled)"/>
      <circle cx="497" cy="725" r="11" class="sequenceNumber-circle"/>
      <line x1="1130" y1="769" x2="497" y2="769" class="message-line" marker-end="url(#arrow-filled)" stroke-dasharray="5,5" stroke-width="1.5"/>
      <circle cx="1130" cy="769" r="11" class="sequenceNumber-circle"/>
      <path d="M 497 857 L 537 857 L 537 887 L 497 887" class="message-line" stroke-dasharray="5,5" stroke-width="1.5" fill="none" marker-end="url(#arrow-filled)"/>
      <circle cx="497" cy="857" r="11" class="sequenceNumber-circle"/>
      <line x1="919" y1="901" x2="497" y2="901" class="message-line" stroke-dasharray="5,5" stroke-width="1.5" marker-end="url(#arrow-filled)"/>
      <circle cx="919" cy="901" r="11" class="sequenceNumber-circle"/>
      <line x1="497" y1="989" x2="1130" y2="989" class="message-line" stroke-width="1.5" marker-end="url(#arrow-filled)"/>
      <circle cx="497" cy="989" r="11" class="sequenceNumber-circle"/>
      <line x1="1130" y1="1033" x2="497" y2="1033" class="message-line" stroke-width="1.5" marker-end="url(#arrow-filled)" stroke-dasharray="5,5"/>
      <circle cx="1130" cy="1033" r="11" class="sequenceNumber-circle"/>
      <line x1="497" y1="1121" x2="286" y2="1121" class="message-line" marker-end="url(#arrow-filled)" stroke-width="1.5" stroke-dasharray="5,5"/>
      <circle cx="497" cy="1121" r="11" class="sequenceNumber-circle"/>
      <line x1="286" y1="1165" x2="75" y2="1165" class="message-line" stroke-dasharray="5,5" stroke-width="1.5" marker-end="url(#arrow-filled)"/>
      <circle cx="286" cy="1165" r="11" class="sequenceNumber-circle"/>
    </g>
    <g class="edgeLabels">
      <text x="75" y="157" class="sequenceNumber" font-size="12" text-anchor="middle" font-family="sans-serif">1</text>
      <text x="180.5" y="143" class="message-label" font-size="16" text-anchor="middle">Click Checkout</text>
      <text x="286" y="201" class="sequenceNumber" font-family="sans-serif" text-anchor="middle" font-size="12">2</text>
      <text x="391.5" y="187" class="message-label" font-size="16" text-anchor="middle">POST /checkout</text>
      <text x="497" y="289" class="sequenceNumber" text-anchor="middle" font-size="12" font-family="sans-serif">3</text>
      <text x="602.5" y="275" class="message-label" text-anchor="middle" font-size="16">Verify session</text>
      <text x="708" y="333" class="sequenceNumber" font-family="sans-serif" text-anchor="middle" font-size="12">4</text>
      <text x="813.5" y="319" class="message-label" font-size="16" text-anchor="middle">Query user</text>
      <text x="919" y="377" class="sequenceNumber" font-size="12" font-family="sans-serif" text-anchor="middle">5</text>
      <text x="813.5" y="363" class="message-label" font-size="16" text-anchor="middle">User record</text>
      <text x="708" y="421" class="sequenceNumber" text-anchor="middle" font-family="sans-serif" font-size="12">6</text>
      <text x="602.5" y="407" class="message-label" font-size="16" text-anchor="middle">Session valid</text>
      <text x="497" y="509" class="sequenceNumber" font-size="12" font-family="sans-serif" text-anchor="middle">7</text>
      <text x="391.5" y="495" class="message-label" text-anchor="middle" font-size="16">Error: Empty cart</text>
      <text x="286" y="553" class="sequenceNumber" font-family="sans-serif" text-anchor="middle" font-size="12">8</text>
      <text x="180.5" y="539" class="message-label" font-size="16" text-anchor="middle">Show error</text>
      <text x="286" y="611" class="loopText" text-anchor="middle" font-size="16">[Cart Valid]</text>
      <text x="497" y="641" class="sequenceNumber" font-size="12" font-family="sans-serif" text-anchor="middle">9</text>
      <text x="708" y="627" class="message-label" text-anchor="middle" font-size="16">Reserve inventory</text>
      <text x="497" y="729" class="sequenceNumber" text-anchor="middle" font-size="12" font-family="sans-serif">10</text>
      <text x="813.5" y="715" class="message-label" font-size="16" text-anchor="middle">Queue payment job</text>
      <text x="1130" y="773" class="sequenceNumber" font-family="sans-serif" text-anchor="middle" font-size="12">11</text>
      <text x="813.5" y="759" class="message-label" font-size="16" text-anchor="middle">Job queued</text>
      <text x="813.5" y="831" class="loopText" font-size="16" text-anchor="middle">[Send Notifications]</text>
      <text x="497" y="861" class="sequenceNumber" text-anchor="middle" font-size="12" font-family="sans-serif">12</text>
      <text x="542" y="872" class="message-label" text-anchor="start" font-size="16">Queue email confirmation</text>
      <polygon points="432,659 482,659 482,672 474,679 432,679" class="labelBox"/>
      <text x="457" y="672" class="labelText" text-anchor="middle" font-size="16">par</text>
      <text x="813.5" y="677" class="loopText" text-anchor="middle" font-size="16">[Process Payment]</text>
      <text x="919" y="905" class="sequenceNumber" text-anchor="middle" font-size="12" font-family="sans-serif">13</text>
      <text x="708" y="891" class="message-label" text-anchor="middle" font-size="16">Inventory reserved</text>
      <text x="497" y="993" class="sequenceNumber" font-family="sans-serif" font-size="12" text-anchor="middle">14</text>
      <text x="813.5" y="979" class="message-label" font-size="16" text-anchor="middle">Check payment status</text>
      <text x="1130" y="1037" class="sequenceNumber" text-anchor="middle" font-size="12" font-family="sans-serif">15</text>
      <text x="813.5" y="1023" class="message-label" text-anchor="middle" font-size="16">Payment pending</text>
      <polygon points="432,923 482,923 482,936 474,943 432,943" class="labelBox"/>
      <text x="457" y="936" class="labelText" font-size="16" text-anchor="middle">loop</text>
      <text x="813.5" y="941" class="loopText" font-size="16" text-anchor="middle">[Retry up to 3 times]</text>
      <text x="497" y="1125" class="sequenceNumber" text-anchor="middle" font-size="12" font-family="sans-serif">16</text>
      <text x="391.5" y="1111" class="message-label" font-size="16" text-anchor="middle">Order confirmed</text>
      <text x="286" y="1169" class="sequenceNumber" text-anchor="middle" font-family="sans-serif" font-size="12">17</text>
      <text x="180.5" y="1155" class="message-label" font-size="16" text-anchor="middle">Show confirmation</text>
      <polygon points="0,439 50,439 50,452 42,459 0,459" class="labelBox"/>
      <text x="25" y="452" class="labelText" font-size="16" text-anchor="middle">alt</text>
      <text x="602.5" y="457" class="loopText" text-anchor="middle" font-size="16">[Cart Empty]</text>
    </g>
    <g class="nodes">

    </g>
    <g class="actor">
      <rect x="0" y="0" width="150" height="65" rx="3" ry="3" class="actor actor-box" stroke-width="1" fill="#eaeaea" stroke="#666"/>
      <text x="75" y="32.5" class="actor actor-box" dominant-baseline="central" font-size="16" text-anchor="middle">User</text>
    </g>
    <g class="actor">
      <rect x="211" y="0" width="150" height="65" rx="3" ry="3" class="actor actor-box" fill="#eaeaea" stroke="#666" stroke-width="1"/>
      <text x="286" y="32.5" class="actor actor-box" dominant-baseline="central" text-anchor="middle" font-size="16">Browser</text>
    </g>
    <g class="actor">
      <rect x="422" y="0" width="150" height="65" rx="3" ry="3" class="actor actor-box" fill="#eaeaea" stroke="#666" stroke-width="1"/>
      <text x="497" y="32.5" class="actor actor-box" font-size="16" text-anchor="middle" dominant-baseline="central">API</text>
    </g>
    <g class="actor">
      <rect x="633" y="0" width="150" height="65" rx="3" ry="3" class="actor actor-box" stroke="#666" stroke-width="1" fill="#eaeaea"/>
      <text x="708" y="32.5" class="actor actor-box" text-anchor="middle" font-size="16" dominant-baseline="central">Auth</text>
    </g>
    <g class="actor">
      <rect x="844" y="0" width="150" height="65" rx="3" ry="3" class="actor actor-box" stroke-width="1" fill="#eaeaea" stroke="#666"/>
      <text x="919" y="32.5" class="actor actor-box" dominant-baseline="central" font-size="16" text-anchor="middle">DB</text>
    </g>
    <g class="actor">
      <rect x="1055" y="0" width="150" height="65" rx="3" ry="3" class="actor actor-box" fill="#eaeaea" stroke-width="1" stroke="#666"/>
      <text x="1130" y="32.5" class="actor actor-box" font-size="16" dominant-baseline="central" text-anchor="middle">Queue</text>
    </g>
    <g class="note">
      <path d="M 65 89 L 1132 89 L 1140 97 L 1140 129 L 65 129 Z" class="note note-box" stroke-width="1" stroke="#666" fill="#EDF2AE"/>
      <path d="M 1132 89 L 1132 97 L 1140 97" class="note" stroke-width="1" fill="none"/>
      <text x="602.5" y="115" class="note-text" font-size="16" text-anchor="middle">E-Commerce Checkout Flow</text>
    </g>
    <g class="note">
      <path d="M 517 221 L 609 221 L 617 229 L 617 261 L 517 261 Z" class="note note-box" fill="#EDF2AE" stroke="#666" stroke-width="1"/>
      <path d="M 609 221 L 609 229 L 617 229" class="note" fill="none" stroke-width="1"/>
      <text x="567" y="247" class="note-text" font-size="16" text-anchor="middle">Validate cart items</text>
    </g>
    <g class="note">
      <path d="M 487 1057 L 1132 1057 L 1140 1065 L 1140 1097 L 487 1097 Z" class="note note-box" stroke-width="1" stroke="#666" fill="#EDF2AE"/>
      <path d="M 1132 1057 L 1132 1065 L 1140 1065" class="note" fill="none" stroke-width="1"/>
      <text x="813.5" y="1083" class="note-text" text-anchor="middle" font-size="16">Payment confirmed</text>
    </g>
    <g class="actor">
      <rect x="0" y="1185" width="150" height="65" rx="3" ry="3" class="actor actor-box" stroke-width="1" fill="#eaeaea" stroke="#666"/>
      <text x="75" y="1217.5" class="actor actor-box" font-size="16" dominant-baseline="central" text-anchor="middle">User</text>
    </g>
    <g class="actor">
      <rect x="211" y="1185" width="150" height="65" rx="3" ry="3" class="actor actor-box" stroke="#666" fill="#eaeaea" stroke-width="1"/>
      <text x="286" y="1217.5" class="actor actor-box" dominant-baseline="central" text-anchor="middle" font-size="16">Browser</text>
    </g>
    <g class="actor">
      <rect x="422" y="1185" width="150" height="65" rx="3" ry="3" class="actor actor-box" stroke="#666" fill="#eaeaea" stroke-width="1"/>
      <text x="497" y="1217.5" class="actor actor-box" font-size="16" text-anchor="middle" dominant-baseline="central">API</text>
    </g>
    <g class="actor">
      <rect x="633" y="1185" width="150" height="65" rx="3" ry="3" class="actor actor-box" fill="#eaeaea" stroke-width="1" stroke="#666"/>
      <text x="708" y="1217.5" class="actor actor-box" font-size="16" text-anchor="middle" dominant-baseline="central">Auth</text>
    </g>
    <g class="actor">
      <rect x="844" y="1185" width="150" height="65" rx="3" ry="3" class="actor actor-box" stroke-width="1" fill="#eaeaea" stroke="#666"/>
      <text x="919" y="1217.5" class="actor actor-box" text-anchor="middle" font-size="16" dominant-baseline="central">DB</text>
    </g>
    <g class="actor">
      <rect x="1055" y="1185" width="150" height="65" rx="3" ry="3" class="actor actor-box" fill="#eaeaea" stroke="#666" stroke-width="1"/>
      <text x="1130" y="1217.5" class="actor actor-box" font-size="16" text-anchor="middle" dominant-baseline="central">Queue</text>
    </g>
  </g>
</svg>
