<?xml version="1.0" encoding="UTF-8"?>
<svg xmlns="http://www.w3.org/2000/svg" width="200.23237379305922" height="408" viewBox="3 -8 200.23237379305922 408" class="mermaid">
  <style>

.statediagram {
  font-family: trebuchet ms, verdana, arial, sans-serif;
  font-size: 16px;
  fill: #333333;
}

.error-icon {
  fill: #552222;
}

.error-text {
  fill: #552222;
  stroke: #552222;
}

.state-title {
  fill: #131300;
}

.state-box {
  fill: #ECECFF;
  stroke: #9370DB;
}

.state-label {
  fill: #131300;
}

.state-description {
  fill: #333333;
}

.state-start {
  fill: #333333;
}

.state-end-outer {
  fill: none;
  stroke: #9370DB;
  stroke-width: 2;
}

.state-end-inner {
  fill: #9370DB;
  stroke: #9370DB;
  stroke-width: 2;
}

.state-fork-join {
  fill: #333333;
}

.state-choice {
  fill: #ECECFF;
  stroke: #333333;
}

.state-divider {
  stroke: #333333;
  stroke-dasharray: 5, 5;
  fill: none;
}

.transition-path {
  stroke: #333333;
  fill: none;
}

.transition-label {
  fill: #333333;
}

.transition-label-bg {
  fill: rgba(232, 232, 232, 0.8);
  stroke: none;
}

.note-box {
  fill: #fff5ad;
  stroke: #aaaa33;
}

.note-text {
  fill: black;
}

.state-composite-outer {
  fill: #ECECFF;
  stroke: #9370DB;
  stroke-width: 1px;
}

.state-composite-inner {
  fill: white;
  stroke: none;
}

.state-composite-inner-alt {
  fill: #e0e0e0;
  stroke: none;
}

.state-composite-label {
  fill: #333333;
  font-weight: bold;
}

.state-composite-divider {
  stroke: #9370DB;
  stroke-width: 1px;
  fill: none;
}

  </style>
  <defs>
    <marker id="arrow" viewBox="0 0 20 14" refX="19" refY="7" markerWidth="20" markerHeight="14" orient="auto" markerUnits="userSpaceOnUse">
      <path d="M 19,7 L9,13 L14,7 L9,1 Z" stroke-width="1" fill="#333333" stroke="#333333"/>
    </marker>
  </defs>
  <g class="root">
    <g class="clusters">

    </g>
    <g class="edgePaths">

    </g>
    <g class="edgeLabels">

    </g>
    <g class="nodes">

    </g>
    <g class="state-node" id="state-Error">
      <path d="M 79.45503004305922 288 H 117.00971754305922 A 5 5 0 0 1 122.00971754305922 293 V 319 A 5 5 0 0 1 117.00971754305922 324 H 79.45503004305922 A 5 5 0 0 1 74.45503004305922 319 V 293 A 5 5 0 0 1 79.45503004305922 288 Z" class="state-box" stroke-width="1" stroke="#9370DB" fill="#ECECFF"/>
      <text x="98.23237379305922" y="311" class="state-label" font-size="16" text-anchor="middle">Error</text>
    </g>
    <g class="state-node" id="state-Idle">
      <path d="M 84.33393629305922 68 H 112.13081129305922 A 5 5 0 0 1 117.13081129305922 73 V 99 A 5 5 0 0 1 112.13081129305922 104 H 84.33393629305922 A 5 5 0 0 1 79.33393629305922 99 V 73 A 5 5 0 0 1 84.33393629305922 68 Z" class="state-box" fill="#ECECFF" stroke="#9370DB" stroke-width="1"/>
      <text x="98.23237379305922" y="91" class="state-label" text-anchor="middle" font-size="16">Idle</text>
    </g>
    <g class="state-node" id="state-Running">
      <path d="M 24.431592543059217 178 H 86.03315504305922 A 5 5 0 0 1 91.03315504305922 183 V 209 A 5 5 0 0 1 86.03315504305922 214 H 24.431592543059217 A 5 5 0 0 1 19.431592543059217 209 V 183 A 5 5 0 0 1 24.431592543059217 178 Z" class="state-box" stroke-width="1" fill="#ECECFF" stroke="#9370DB"/>
      <text x="55.23237379305922" y="201" class="state-label" font-size="16" text-anchor="middle">Running</text>
    </g>
    <g class="state-node" id="state-root_end">
      <path d="M 91.23237379305922 385 A 7 7 0 1 0 105.23237379305922 385 A 7 7 0 1 0 91.23237379305922 385 Z" class="state-end-outer" stroke="#9370DB" stroke-width="2" fill="none"/>
      <path d="M 95.71237379305923 385 A 2.52 2.52 0 1 0 100.75237379305922 385 A 2.52 2.52 0 1 0 95.71237379305923 385 Z" class="state-end-inner" stroke="#9370DB" stroke-width="2" fill="#9370DB"/>
    </g>
    <g class="state-node" id="state-root_start">
      <circle cx="98.23237379305922" cy="7" r="7" class="state-start" fill="#333333"/>
    </g>
    <g class="transition">
      <path d="M 98.23 14.00 C 98.23 23.00, 98.23 32.00, 98.23 41.00 C 98.23 50.00, 98.23 59.00, 98.23 68.00" class="transition-path" stroke-width="0.7" fill="none" marker-end="url(#arrow)"/>
    </g>
    <g class="transition">
      <path d="M 79.33 98.09 C 56.97 112.39, 34.60 126.70, 28.24 140.01 C 21.87 153.33, 31.52 165.67, 41.16 178.00" class="transition-path" fill="none" stroke-width="0.7" marker-end="url(#arrow)"/>
      <path d="M 6 121.3951227746309 H 46 A 2 2 0 0 1 48 123.3951227746309 V 140.99512277463091 A 2 2 0 0 1 46 142.99512277463091 H 6 A 2 2 0 0 1 4 140.99512277463091 V 123.3951227746309 A 2 2 0 0 1 6 121.3951227746309 Z" class="transition-label-bg"/>
      <text x="26" y="132.1951227746309" class="transition-label" text-anchor="middle" font-size="16" dominant-baseline="central">start</text>
    </g>
    <g class="transition">
      <path d="M 69.31 178.00 L 98.23 104.00" class="transition-path" marker-end="url(#arrow)" stroke-width="0.7" fill="none"/>
      <path d="M 79.16329380777736 134.1255674230349 H 111.16329380777736 A 2 2 0 0 1 113.16329380777736 136.1255674230349 V 153.7255674230349 A 2 2 0 0 1 111.16329380777736 155.7255674230349 H 79.16329380777736 A 2 2 0 0 1 77.16329380777736 153.7255674230349 V 136.1255674230349 A 2 2 0 0 1 79.16329380777736 134.1255674230349 Z" class="transition-label-bg"/>
      <text x="95.16329380777736" y="144.92556742303492" class="transition-label" font-size="16" dominant-baseline="central" text-anchor="middle">stop</text>
    </g>
    <g class="transition">
      <path d="M 55.23 214.00 L 84.16 288.00" class="transition-path" stroke-width="0.7" fill="none" marker-end="url(#arrow)"/>
      <path d="M 38.30145377834107 244.1255674230349 H 78.30145377834107 A 2 2 0 0 1 80.30145377834107 246.1255674230349 V 263.72556742303493 A 2 2 0 0 1 78.30145377834107 265.72556742303493 H 38.30145377834107 A 2 2 0 0 1 36.30145377834107 263.72556742303493 V 246.1255674230349 A 2 2 0 0 1 38.30145377834107 244.1255674230349 Z" class="transition-label-bg"/>
      <text x="58.30145377834107" y="254.92556742303492" class="transition-label" text-anchor="middle" font-size="16" dominant-baseline="central">error</text>
    </g>
    <g class="transition">
      <path d="M 122.01 290.05 C 141.42 277.03, 160.82 264.02, 170.53 239.18 C 180.23 214.33, 180.23 177.67, 169.72 152.28 C 138.16 112.78, 117.13 98.68, 117.13 98.68" class="transition-path" marker-end="url(#arrow)" fill="none" stroke-width="0.7"/>
      <path d="M 160.23237379305922 182.26262996485548 H 200.23237379305922 A 2 2 0 0 1 202.23237379305922 184.26262996485548 V 201.86262996485547 A 2 2 0 0 1 200.23237379305922 203.86262996485547 H 160.23237379305922 A 2 2 0 0 1 158.23237379305922 201.86262996485547 V 184.26262996485548 A 2 2 0 0 1 160.23237379305922 182.26262996485548 Z" class="transition-label-bg"/>
      <text x="180.23237379305922" y="193.0626299648555" class="transition-label" dominant-baseline="central" font-size="16" text-anchor="middle">reset</text>
    </g>
    <g class="transition">
      <path d="M 98.23 324.00 C 98.23 333.00, 98.23 342.00, 98.23 351.00 C 98.23 360.00, 98.23 369.00, 98.23 378.00" class="transition-path" marker-end="url(#arrow)" stroke-width="0.7" fill="none"/>
    </g>
  </g>
</svg>
