<?xml version="1.0" encoding="UTF-8"?>
<svg xmlns="http://www.w3.org/2000/svg" width="1285.8157187499999" height="1984" viewBox="-8 -8 1285.8157187499999 1984" class="mermaid">
  <style>

.mermaid {
  font-family: trebuchet ms, verdana, arial, sans-serif;
  font-size: 16px;
}

.node rect,
.node polygon,
.node circle,
.node ellipse,
.node path {
  fill: #ECECFF;
  stroke: #9370DB;
  stroke-width: 1px;
}

.node line {
  stroke: #9370DB;
  stroke-width: 1px;
}

.node .label {
  fill: #333333;
}

.node text {
  fill: #333333;
  font-family: trebuchet ms, verdana, arial, sans-serif;
  font-size: 16px;
}

.edge-path {
  fill: none;
  stroke: #333333;
  stroke-width: 1px;
}

.edge-label {
  fill: #333333;
  font-family: trebuchet ms, verdana, arial, sans-serif;
}

.edge-label-bg {
  fill: rgba(232, 232, 232, 0.8);
}

.subgraph {
  fill: #ffffde;
  stroke: #aaaa33;
  stroke-width: 1px;
}

.subgraph-title {
  fill: #333333;
  font-weight: bold;
}

.cluster rect {
  fill: #ffffde;
  stroke: #aaaa33;
  stroke-width: 1px;
  rx: 5px;
  ry: 5px;
}

.cluster-label {
  fill: #333333;
  font-family: trebuchet ms, verdana, arial, sans-serif;
  font-size: 16px;
  font-weight: bold;
}

marker path {
  fill: #333333;
  stroke: #333333;
}


.state-title {
  fill: #333333;
}

.state-box {
  fill: #ECECFF;
  stroke: #9370DB;
}

.state-label {
  fill: #333333;
}

.state-description {
  fill: #666666;
}

.state-start {
  fill: #333333;
}

.state-end-outer {
  fill: none;
  stroke: #9370DB;
  stroke-width: 2;
}

.state-end-inner {
  fill: #9370DB;
  stroke: #9370DB;
  stroke-width: 2;
}

.state-fork-join {
  fill: #333333;
}

.state-choice {
  fill: #ECECFF;
  stroke: #333333;
}

.state-divider {
  stroke: #333333;
  stroke-dasharray: 5, 5;
  fill: none;
}

.transition-path {
  stroke: #333333;
  fill: none;
}

.transition-label {
  fill: #333333;
}

.transition-label-bg {
  fill: rgba(232, 232, 232, 0.8);
  stroke: none;
}

.note-box {
  fill: #FFFFCC;
  stroke: #333333;
}

.note-text {
  fill: #333333;
}

.state-composite-outer {
  fill: #ECECFF;
  stroke: #9370DB;
  stroke-width: 1px;
}

.state-composite-inner {
  fill: #ffffff;
  stroke: none;
}

.state-composite-inner-alt {
  fill: #f0f0f0;
  stroke: none;
}

.state-composite-label {
  fill: #333333;
  font-weight: bold;
}

.state-composite-divider {
  stroke: #9370DB;
  stroke-width: 1px;
  fill: none;
}

  </style>
  <defs>
    <marker id="arrow" viewBox="0 0 20 14" refX="19" refY="7" markerWidth="20" markerHeight="14" orient="auto" markerUnits="userSpaceOnUse">
      <path d="M 19,7 L9,13 L14,7 L9,1 Z" fill="#333333" stroke-width="1" stroke="#333333"/>
    </marker>
  </defs>
  <g class="root">
    <g class="clusters">

    </g>
    <g class="edgePaths">

    </g>
    <g class="edgeLabels">

    </g>
    <g class="nodes">

    </g>
    <g class="composite-state" id="composite-Idle">
      <rect x="136.84804687499997" y="68" width="1186.8157187499999" height="1722" rx="5" ry="5" class="state-composite-outer"/>
      <rect x="137.84804687499997" y="89" width="1184.8157187499999" height="1697" rx="0" ry="0" class="state-composite-inner"/>
      <path d="M 136.84804687499997 89 L 1323.6637656249998 89" class="state-composite-divider"/>
      <text x="730.25590625" y="84" class="state-composite-label" text-anchor="middle" font-size="14">Idle</text>
    </g>
    <g class="composite-state" id="composite-Processing">
      <rect x="178.11653125" y="313" width="830.5826562499999" height="1465" rx="5" ry="5" class="state-composite-outer"/>
      <rect x="179.11653125" y="334" width="828.5826562499999" height="1440" rx="0" ry="0" class="state-composite-inner-alt"/>
      <path d="M 178.11653125 334 L 1008.6991874999999 334" class="state-composite-divider"/>
      <text x="593.4078593749999" y="329" class="state-composite-label" font-size="14" text-anchor="middle">Processing</text>
    </g>
    <g class="composite-state" id="composite-Paused">
      <rect x="481.4641093749999" y="1413" width="223.88750000000002" height="353" rx="5" ry="5" class="state-composite-outer"/>
      <rect x="482.4641093749999" y="1434" width="221.88750000000002" height="328" rx="0" ry="0" class="state-composite-inner-alt"/>
      <path d="M 481.4641093749999 1434 L 705.351609375 1434" class="state-composite-divider"/>
      <text x="593.4078593749999" y="1429" class="state-composite-label" font-size="14" text-anchor="middle">Paused</text>
    </g>
    <g class="composite-state" id="composite-Running">
      <rect x="515.5953593749999" y="728" width="155.625" height="581" rx="5" ry="5" class="state-composite-outer"/>
      <rect x="516.5953593749999" y="749" width="153.625" height="556" rx="0" ry="0" class="state-composite-inner-alt"/>
      <path d="M 515.5953593749999 749 L 671.2203593749999 749" class="state-composite-divider"/>
      <text x="593.4078593749999" y="744" class="state-composite-label" font-size="14" text-anchor="middle">Running</text>
    </g>
    <g class="state-node" id="state-Cancelled">
      <path d="M 556.8297343749999 1864 H 629.9859843749999 A 5 5 0 0 1 634.9859843749999 1869 V 1895 A 5 5 0 0 1 629.9859843749999 1900 H 556.8297343749999 A 5 5 0 0 1 551.8297343749999 1895 V 1869 A 5 5 0 0 1 556.8297343749999 1864 Z" class="state-box" stroke="#9370DB" fill="#ECECFF" stroke-width="1"/>
      <text x="593.4078593749999" y="1887" class="state-label" font-size="16" text-anchor="middle">Cancelled</text>
    </g>
    <g class="state-node" id="state-Completed">
      <path d="M 447.19067187499996 1571.5 H 526.5656718749999 A 5 5 0 0 1 531.5656718749999 1576.5 V 1602.5 A 5 5 0 0 1 526.5656718749999 1607.5 H 447.19067187499996 A 5 5 0 0 1 442.19067187499996 1602.5 V 1576.5 A 5 5 0 0 1 447.19067187499996 1571.5 Z" class="state-box" stroke-width="1" stroke="#9370DB" fill="#ECECFF"/>
      <text x="486.87817187499996" y="1594.5" class="state-label" text-anchor="middle" font-size="16">Completed</text>
    </g>
    <g class="state-node" id="state-Executing">
      <path d="M 557.2750468749999 1013 H 629.5406718749999 A 5 5 0 0 1 634.5406718749999 1018 V 1044 A 5 5 0 0 1 629.5406718749999 1049 H 557.2750468749999 A 5 5 0 0 1 552.2750468749999 1044 V 1018 A 5 5 0 0 1 557.2750468749999 1013 Z" class="state-box" stroke-width="1" fill="#ECECFF" stroke="#9370DB"/>
      <text x="593.4078593749999" y="1036" class="state-label" text-anchor="middle" font-size="16">Executing</text>
    </g>
    <g class="state-node" id="state-Failed">
      <path d="M 591.199265625 1571.5 H 636.777390625 A 5 5 0 0 1 641.777390625 1576.5 V 1602.5 A 5 5 0 0 1 636.777390625 1607.5 H 591.199265625 A 5 5 0 0 1 586.199265625 1602.5 V 1576.5 A 5 5 0 0 1 591.199265625 1571.5 Z" class="state-box" stroke-width="1" fill="#ECECFF" stroke="#9370DB"/>
      <text x="613.988328125" y="1594.5" class="state-label" text-anchor="middle" font-size="16">Failed</text>
    </g>
    <g class="state-node" id="state-Finalizing">
      <path d="M 558.6148906249999 1148 H 628.2008281249999 A 5 5 0 0 1 633.2008281249999 1153 V 1179 A 5 5 0 0 1 628.2008281249999 1184 H 558.6148906249999 A 5 5 0 0 1 553.6148906249999 1179 V 1153 A 5 5 0 0 1 558.6148906249999 1148 Z" class="state-box" fill="#ECECFF" stroke-width="1" stroke="#9370DB"/>
      <text x="593.4078593749999" y="1171" class="state-label" text-anchor="middle" font-size="16">Finalizing</text>
    </g>
    <g class="state-node" id="state-Idle_start">
      <circle cx="593.4078593749999" cy="112" r="7" class="state-start" fill="#333333"/>
    </g>
    <g class="state-node" id="state-Initializing">
      <path d="M 557.2789531249999 878 H 629.5367656249999 A 5 5 0 0 1 634.5367656249999 883 V 909 A 5 5 0 0 1 629.5367656249999 914 H 557.2789531249999 A 5 5 0 0 1 552.2789531249999 909 V 883 A 5 5 0 0 1 557.2789531249999 878 Z" class="state-box" fill="#ECECFF" stroke-width="1" stroke="#9370DB"/>
      <text x="593.4078593749999" y="901" class="state-label" text-anchor="middle" font-size="16">Initializing</text>
    </g>
    <g class="state-node" id="state-Paused_start">
      <circle cx="593.4078593749999" cy="1457" r="7" class="state-start" fill="#333333"/>
    </g>
    <g class="state-node" id="state-Processing_start">
      <circle cx="703.488328125" cy="357" r="7" class="state-start" fill="#333333"/>
    </g>
    <g class="state-node" id="state-Queued">
      <path d="M 584.519578125 588 H 643.457078125 A 5 5 0 0 1 648.457078125 593 V 619 A 5 5 0 0 1 643.457078125 624 H 584.519578125 A 5 5 0 0 1 579.519578125 619 V 593 A 5 5 0 0 1 584.519578125 588 Z" class="state-box" stroke-width="1" stroke="#9370DB" fill="#ECECFF"/>
      <text x="613.988328125" y="611" class="state-label" text-anchor="middle" font-size="16">Queued</text>
    </g>
    <g class="state-node" id="state-Ready">
      <path d="M 569.2828593749999 188 H 617.5328593749999 A 5 5 0 0 1 622.5328593749999 193 V 219 A 5 5 0 0 1 617.5328593749999 224 H 569.2828593749999 A 5 5 0 0 1 564.2828593749999 219 V 193 A 5 5 0 0 1 569.2828593749999 188 Z" class="state-box" fill="#ECECFF" stroke="#9370DB" stroke-width="1"/>
      <text x="593.4078593749999" y="211" class="state-label" font-size="16" text-anchor="middle">Ready</text>
    </g>
    <g class="state-node" id="state-Running_end">
      <path d="M 586.4078593749999 1290 A 7 7 0 1 0 600.4078593749999 1290 A 7 7 0 1 0 586.4078593749999 1290 Z" class="state-end-outer" stroke="#9370DB" stroke-width="2" fill="none"/>
      <path d="M 590.887859375 1290 A 2.52 2.52 0 1 0 595.9278593749999 1290 A 2.52 2.52 0 1 0 590.887859375 1290 Z" class="state-end-inner" stroke="#9370DB" stroke-width="2" fill="#9370DB"/>
    </g>
    <g class="state-node" id="state-Running_start">
      <circle cx="593.4078593749999" cy="772" r="7" class="state-start" fill="#333333"/>
    </g>
    <g class="state-node" id="state-Timeout">
      <path d="M 563.5094218749999 1718 H 623.3062968749999 A 5 5 0 0 1 628.3062968749999 1723 V 1749 A 5 5 0 0 1 623.3062968749999 1754 H 563.5094218749999 A 5 5 0 0 1 558.5094218749999 1749 V 1723 A 5 5 0 0 1 563.5094218749999 1718 Z" class="state-box" fill="#ECECFF" stroke-width="1" stroke="#9370DB"/>
      <text x="593.4078593749999" y="1741" class="state-label" font-size="16" text-anchor="middle">Timeout</text>
    </g>
    <g class="state-node" id="state-Validating">
      <path d="M 667.351609375 448 H 739.625046875 A 5 5 0 0 1 744.625046875 453 V 479 A 5 5 0 0 1 739.625046875 484 H 667.351609375 A 5 5 0 0 1 662.351609375 479 V 453 A 5 5 0 0 1 667.351609375 448 Z" class="state-box" stroke="#9370DB" stroke-width="1" fill="#ECECFF"/>
      <text x="703.488328125" y="471" class="state-label" text-anchor="middle" font-size="16">Validating</text>
    </g>
    <g class="state-node" id="state-WaitingResume">
      <path d="M 535.9430156249999 1563 H 650.8727031249999 A 5 5 0 0 1 655.8727031249999 1568 V 1594 A 5 5 0 0 1 650.8727031249999 1599 H 535.9430156249999 A 5 5 0 0 1 530.9430156249999 1594 V 1568 A 5 5 0 0 1 535.9430156249999 1563 Z" class="state-box" stroke-width="1" fill="#ECECFF" stroke="#9370DB"/>
      <text x="593.4078593749999" y="1586" class="state-label" text-anchor="middle" font-size="16">WaitingResume</text>
    </g>
    <g class="state-node" id="state-root_end">
      <path d="M 596.4078593749999 1961 A 7 7 0 1 0 610.4078593749999 1961 A 7 7 0 1 0 596.4078593749999 1961 Z" class="state-end-outer" stroke="#9370DB" fill="none" stroke-width="2"/>
      <path d="M 600.887859375 1961 A 2.52 2.52 0 1 0 605.9278593749999 1961 A 2.52 2.52 0 1 0 600.887859375 1961 Z" class="state-end-inner" stroke-width="2" fill="#9370DB" stroke="#9370DB"/>
    </g>
    <g class="state-node" id="state-root_start">
      <circle cx="730.25590625" cy="7" r="7" class="state-start" fill="#333333"/>
    </g>
    <g class="transition">
      <path d="M 730.26 14.00 C 730.26 23.00, 730.26 32.00, 730.26 41.00 C 730.26 50.00, 730.26 59.00, 730.26 68.00" class="transition-path" marker-end="url(#arrow)" stroke-width="1" fill="none"/>
    </g>
    <g class="transition">
      <path d="M 593.41 119.00 C 593.41 130.50, 593.41 142.00, 593.41 153.50 C 593.41 165.00, 593.41 176.50, 593.41 188.00" class="transition-path" marker-end="url(#arrow)" stroke-width="1" fill="none"/>
    </g>
    <g class="transition">
      <path d="M 593.41 224.00 C 593.41 238.83, 593.41 253.67, 593.41 268.50 C 593.41 283.33, 593.41 298.17, 593.41 313.00" class="transition-path" stroke-width="1" marker-end="url(#arrow)" fill="none"/>
      <path d="M 557.4078593749999 257.7 H 629.4078593749999 A 2 2 0 0 1 631.4078593749999 259.7 V 277.3 A 2 2 0 0 1 629.4078593749999 279.3 H 557.4078593749999 A 2 2 0 0 1 555.4078593749999 277.3 V 259.7 A 2 2 0 0 1 557.4078593749999 257.7 Z" class="transition-label-bg"/>
      <text x="593.4078593749999" y="268.5" class="transition-label" text-anchor="middle" dominant-baseline="central" font-size="16">Start Job</text>
    </g>
    <g class="transition">
      <path d="M 703.49 364.00 C 703.49 378.00, 703.49 392.00, 703.49 406.00 C 703.49 420.00, 703.49 434.00, 703.49 448.00" class="transition-path" fill="none" stroke-width="1" marker-end="url(#arrow)"/>
    </g>
    <g class="transition">
      <path d="M 680.47 484.00 C 658.31 501.33, 636.15 518.67, 625.07 536.00 C 613.99 553.33, 613.99 570.67, 613.99 588.00" class="transition-path" fill="none" stroke-width="1" marker-end="url(#arrow)"/>
      <path d="M 606.7512274793944 515.2178440803619 H 646.7512274793944 A 2 2 0 0 1 648.7512274793944 517.2178440803619 V 534.817844080362 A 2 2 0 0 1 646.7512274793944 536.817844080362 H 606.7512274793944 A 2 2 0 0 1 604.7512274793944 534.817844080362 V 517.2178440803619 A 2 2 0 0 1 606.7512274793944 515.2178440803619 Z" class="transition-label-bg"/>
      <text x="626.7512274793944" y="526.0178440803619" class="transition-label" text-anchor="middle" dominant-baseline="central" font-size="16">Valid</text>
    </g>
    <g class="transition">
      <path d="M 744.63 476.31 C 823.99 496.21, 903.36 516.10, 943.04 663.55 C 982.72 811.00, 982.72 1086.00, 925.90 1258.71 C 755.43 1501.85, 641.78 1572.28, 641.78 1572.28" class="transition-path" marker-end="url(#arrow)" stroke-width="1" fill="none"/>
      <path d="M 954.721140625 1015.5184827522255 H 1010.721140625 A 2 2 0 0 1 1012.721140625 1017.5184827522255 V 1035.1184827522254 A 2 2 0 0 1 1010.721140625 1037.1184827522254 H 954.721140625 A 2 2 0 0 1 952.721140625 1035.1184827522254 V 1017.5184827522255 A 2 2 0 0 1 954.721140625 1015.5184827522255 Z" class="transition-label-bg"/>
      <text x="982.721140625" y="1026.3184827522255" class="transition-label" dominant-baseline="central" font-size="16" text-anchor="middle">Invalid</text>
    </g>
    <g class="transition">
      <path d="M 613.99 624.00 L 593.41 728.00" class="transition-path" stroke-width="1" fill="none" marker-end="url(#arrow)"/>
      <path d="M 549.988328125 665.2 H 677.988328125 A 2 2 0 0 1 679.988328125 667.2 V 684.8000000000001 A 2 2 0 0 1 677.988328125 686.8000000000001 H 549.988328125 A 2 2 0 0 1 547.988328125 684.8000000000001 V 667.2 A 2 2 0 0 1 549.988328125 665.2 Z" class="transition-label-bg"/>
      <text x="613.988328125" y="676" class="transition-label" text-anchor="middle" font-size="16" dominant-baseline="central">Worker Available</text>
    </g>
    <g class="transition">
      <path d="M 593.41 1309.00 C 557.90 1326.33, 522.39 1343.67, 504.63 1387.42 C 486.88 1431.17, 486.88 1501.33, 486.88 1571.50" class="transition-path" stroke-width="1" fill="none" marker-end="url(#arrow)"/>
      <path d="M 458.87817187499996 1384.6070139109686 H 514.8781718749999 A 2 2 0 0 1 516.8781718749999 1386.6070139109686 V 1404.2070139109685 A 2 2 0 0 1 514.8781718749999 1406.2070139109685 H 458.87817187499996 A 2 2 0 0 1 456.87817187499996 1404.2070139109685 V 1386.6070139109686 A 2 2 0 0 1 458.87817187499996 1384.6070139109686 Z" class="transition-label-bg"/>
      <text x="486.87817187499996" y="1395.4070139109685" class="transition-label" dominant-baseline="central" font-size="16" text-anchor="middle">Success</text>
    </g>
    <g class="transition">
      <path d="M 593.41 1309.00 L 613.62 1571.50" class="transition-path" marker-end="url(#arrow)" stroke-width="1" fill="none"/>
      <path d="M 590.9618505448782 1429.4529653289485 H 630.9618505448782 A 2 2 0 0 1 632.9618505448782 1431.4529653289485 V 1449.0529653289484 A 2 2 0 0 1 630.9618505448782 1451.0529653289484 H 590.9618505448782 A 2 2 0 0 1 588.9618505448782 1449.0529653289484 V 1431.4529653289485 A 2 2 0 0 1 590.9618505448782 1429.4529653289485 Z" class="transition-label-bg"/>
      <text x="610.9618505448782" y="1440.2529653289484" class="transition-label" dominant-baseline="central" font-size="16" text-anchor="middle">Error</text>
    </g>
    <g class="transition">
      <path d="M 593.41 1309.00 C 650.01 1326.33, 706.62 1343.67, 706.62 1361.00 C 706.62 1378.33, 650.01 1395.67, 593.41 1413.00" class="transition-path" stroke-width="1" fill="none" marker-end="url(#arrow)"/>
      <path d="M 686.260281296468 1292.9130389302138 H 790.260281296468 A 2 2 0 0 1 792.260281296468 1294.9130389302138 V 1312.5130389302137 A 2 2 0 0 1 790.260281296468 1314.5130389302137 H 686.260281296468 A 2 2 0 0 1 684.260281296468 1312.5130389302137 V 1294.9130389302138 A 2 2 0 0 1 686.260281296468 1292.9130389302138 Z" class="transition-label-bg"/>
      <text x="738.260281296468" y="1303.7130389302138" class="transition-label" font-size="16" text-anchor="middle" dominant-baseline="central">Pause Request</text>
    </g>
    <g class="transition">
      <path d="M 730.26 779.00 C 730.26 795.50, 730.26 812.00, 730.26 828.50 C 730.26 845.00, 730.26 861.50, 730.26 878.00" class="transition-path" fill="none" stroke-width="1" marker-end="url(#arrow)"/>
    </g>
    <g class="transition">
      <path d="M 730.26 914.00 C 730.26 930.50, 730.26 947.00, 730.26 963.50 C 730.26 980.00, 730.26 996.50, 730.26 1013.00" class="transition-path" marker-end="url(#arrow)" stroke-width="1" fill="none"/>
    </g>
    <g class="transition">
      <path d="M 730.26 1049.00 C 730.26 1065.50, 730.26 1082.00, 730.26 1098.50 C 730.26 1115.00, 730.26 1131.50, 730.26 1148.00" class="transition-path" stroke-width="1" fill="none" marker-end="url(#arrow)"/>
    </g>
    <g class="transition">
      <path d="M 730.26 1184.00 C 730.26 1200.50, 730.26 1217.00, 730.26 1233.50 C 730.26 1250.00, 730.26 1266.50, 730.26 1283.00" class="transition-path" stroke-width="1" fill="none" marker-end="url(#arrow)"/>
    </g>
    <g class="transition">
      <path d="M 730.26 1464.00 C 730.26 1480.50, 730.26 1497.00, 730.26 1513.50 C 730.26 1530.00, 730.26 1546.50, 730.26 1563.00" class="transition-path" stroke-width="1" fill="none" marker-end="url(#arrow)"/>
    </g>
    <g class="transition">
      <path d="M 730.26 1599.00 C 730.26 1618.83, 730.26 1638.67, 730.26 1658.50 C 730.26 1678.33, 730.26 1698.17, 730.26 1718.00" class="transition-path" fill="none" marker-end="url(#arrow)" stroke-width="1"/>
      <path d="M 706.25590625 1647.7 H 754.25590625 A 2 2 0 0 1 756.25590625 1649.7 V 1667.3 A 2 2 0 0 1 754.25590625 1669.3 H 706.25590625 A 2 2 0 0 1 704.25590625 1667.3 V 1649.7 A 2 2 0 0 1 706.25590625 1647.7 Z" class="transition-label-bg"/>
      <text x="730.25590625" y="1658.5" class="transition-label" dominant-baseline="central" text-anchor="middle" font-size="16">1 hour</text>
    </g>
    <g class="transition">
      <path d="M 593.41 1766.00 C 690.68 1631.00, 787.95 1496.00, 787.95 1323.00 C 787.95 1150.00, 690.68 939.00, 593.41 728.00" class="transition-path" fill="none" marker-end="url(#arrow)" stroke-width="1"/>
      <path d="M 781.2177197113822 1249.1754542956926 H 829.2177197113822 A 2 2 0 0 1 831.2177197113822 1251.1754542956926 V 1268.7754542956925 A 2 2 0 0 1 829.2177197113822 1270.7754542956925 H 781.2177197113822 A 2 2 0 0 1 779.2177197113822 1268.7754542956925 V 1251.1754542956926 A 2 2 0 0 1 781.2177197113822 1249.1754542956926 Z" class="transition-label-bg"/>
      <text x="805.2177197113822" y="1259.9754542956925" class="transition-label" dominant-baseline="central" text-anchor="middle" font-size="16">Resume</text>
    </g>
    <g class="transition">
      <path d="M 593.41 1766.00 C 593.41 1782.33, 593.41 1798.67, 593.41 1815.00 C 593.41 1831.33, 593.41 1847.67, 593.41 1864.00" class="transition-path" fill="none" stroke-width="1" marker-end="url(#arrow)"/>
      <path d="M 537.4078593749999 1804.2 H 649.4078593749999 A 2 2 0 0 1 651.4078593749999 1806.2 V 1823.8 A 2 2 0 0 1 649.4078593749999 1825.8 H 537.4078593749999 A 2 2 0 0 1 535.4078593749999 1823.8 V 1806.2 A 2 2 0 0 1 537.4078593749999 1804.2 Z" class="transition-label-bg"/>
      <text x="593.4078593749999" y="1815" class="transition-label" font-size="16" dominant-baseline="central" text-anchor="middle">Cancel Request</text>
    </g>
    <g class="transition">
      <path d="M 593.41 1754.00 C 593.41 1772.33, 593.41 1790.67, 593.41 1809.00 C 593.41 1827.33, 593.41 1845.67, 593.41 1864.00" class="transition-path" fill="none" stroke-width="1" marker-end="url(#arrow)"/>
    </g>
    <g class="transition">
      <path d="M 486.88 1571.50 C 504.63 1607.92, 522.39 1644.33, 540.14 1680.75 C 557.90 1717.17, 575.65 1753.58, 593.41 1790.00" class="transition-path" stroke-width="1" fill="none" marker-end="url(#arrow)"/>
      <path d="M 520.143015625 1669.95 H 560.143015625 A 2 2 0 0 1 562.143015625 1671.95 V 1689.55 A 2 2 0 0 1 560.143015625 1691.55 H 520.143015625 A 2 2 0 0 1 518.143015625 1689.55 V 1671.95 A 2 2 0 0 1 520.143015625 1669.95 Z" class="transition-label-bg"/>
      <text x="540.143015625" y="1680.75" class="transition-label" text-anchor="middle" dominant-baseline="central" font-size="16">Reset</text>
    </g>
    <g class="transition">
      <path d="M 613.99 1571.50 C 610.56 1607.92, 607.13 1644.33, 603.70 1680.75 C 600.27 1717.17, 596.84 1753.58, 593.41 1790.00" class="transition-path" stroke-width="1" fill="none" marker-end="url(#arrow)"/>
      <path d="M 583.69809375 1669.95 H 623.69809375 A 2 2 0 0 1 625.69809375 1671.95 V 1689.55 A 2 2 0 0 1 623.69809375 1691.55 H 583.69809375 A 2 2 0 0 1 581.69809375 1689.55 V 1671.95 A 2 2 0 0 1 583.69809375 1669.95 Z" class="transition-label-bg"/>
      <text x="603.69809375" y="1680.75" class="transition-label" font-size="16" text-anchor="middle" dominant-baseline="central">Retry</text>
    </g>
    <g class="transition">
      <path d="M 605.35 1864.00 C 613.54 1851.67, 621.72 1839.33, 642.54 1540.00 C 663.36 1240.67, 696.81 654.33, 730.26 68.00" class="transition-path" stroke-width="1" fill="none" marker-end="url(#arrow)"/>
      <path d="M 607.868626218783 1819.2728170847104 H 647.868626218783 A 2 2 0 0 1 649.868626218783 1821.2728170847104 V 1838.8728170847103 A 2 2 0 0 1 647.868626218783 1840.8728170847103 H 607.868626218783 A 2 2 0 0 1 605.868626218783 1838.8728170847103 V 1821.2728170847104 A 2 2 0 0 1 607.868626218783 1819.2728170847104 Z" class="transition-label-bg"/>
      <text x="627.868626218783" y="1830.0728170847103" class="transition-label" text-anchor="middle" font-size="16" dominant-baseline="central">Reset</text>
    </g>
    <g class="transition">
      <path d="M 486.88 1607.50 C 505.95 1665.30, 525.02 1723.11, 544.10 1780.91 C 563.17 1838.71, 582.24 1896.52, 601.31 1954.32" class="transition-path" marker-end="url(#arrow)" stroke-width="1" fill="none"/>
    </g>
    <g class="transition">
      <path d="M 593.41 1900.00 C 593.41 1909.00, 593.41 1918.00, 594.75 1927.05 C 596.08 1936.09, 598.76 1945.19, 601.43 1954.28" class="transition-path" stroke-width="1" marker-end="url(#arrow)" fill="none"/>
    </g>
  </g>
</svg>
