<?xml version="1.0" encoding="UTF-8"?>
<svg xmlns="http://www.w3.org/2000/svg" width="250" height="358.40000000000003" viewBox="0 0 250 358.40000000000003" class="mermaid">
  <style>

.mermaid {
  font-family: trebuchet ms, verdana, arial, sans-serif;
  font-size: 16px;
}

.node rect,
.node polygon,
.node circle,
.node ellipse,
.node path {
  fill: #ECECFF;
  stroke: #9370DB;
  stroke-width: 1px;
}

.node line {
  stroke: #9370DB;
  stroke-width: 1px;
}

.node .label {
  fill: #333333;
}

.node text {
  fill: #333333;
  font-family: trebuchet ms, verdana, arial, sans-serif;
  font-size: 16px;
}

.edge-path {
  fill: none;
  stroke: #333333;
  stroke-width: 1px;
}

.edge-label {
  fill: #333333;
  font-family: trebuchet ms, verdana, arial, sans-serif;
  font-size: 12px;
}

.edge-label-bg {
  fill: #ffffff;
}

.subgraph {
  fill: #ffffde;
  stroke: #aaaa33;
  stroke-width: 1px;
}

.subgraph-title {
  fill: #333333;
  font-weight: bold;
}

.cluster rect {
  fill: #ffffde;
  stroke: #aaaa33;
  stroke-width: 1px;
  rx: 5px;
  ry: 5px;
}

.cluster-label {
  fill: #333333;
  font-family: trebuchet ms, verdana, arial, sans-serif;
  font-size: 16px;
  font-weight: bold;
}

marker path {
  fill: #333333;
  stroke: #333333;
}


.state-title {
  fill: #333333;
}

.state-box {
  fill: #ECECFF;
  stroke: #333333;
}

.state-label {
  fill: #333333;
}

.state-description {
  fill: #666666;
}

.state-start {
  fill: #333333;
}

.state-end-outer {
  stroke: #333333;
}

.state-end-inner {
  fill: #333333;
}

.state-fork-join {
  fill: #333333;
}

.state-choice {
  fill: #ECECFF;
  stroke: #333333;
}

.state-divider {
  stroke: #333333;
  stroke-dasharray: 5, 5;
}

.transition-path {
  stroke: #333333;
  fill: none;
}

.transition-label {
  fill: #333333;
}

.note-box {
  fill: #FFFFCC;
  stroke: #333333;
}

.note-text {
  fill: #333333;
}

  </style>
  <defs>
    <marker id="arrow" viewBox="0 0 10 10" refX="10" refY="5" markerWidth="6" markerHeight="6" orient="auto">
      <path d="M 0 0 L 10 5 L 0 10 z" stroke-width="1" stroke="#333333" fill="#333333"/>
    </marker>
  </defs>
  <g class="root">
    <g class="clusters">

    </g>
    <g class="edgePaths">

    </g>
    <g class="edgeLabels">

    </g>
    <g class="nodes">

    </g>
    <g class="state-node" id="state-Error">
      <rect x="0" y="132.8" width="80" height="52.8" rx="10" ry="10" class="state-box" stroke-width="1" stroke="#333333" fill="#ECECFF"/>
      <text x="40" y="164.20000000000002" class="state-label" text-anchor="middle" font-size="12">Error</text>
    </g>
    <g class="state-node" id="state-Idle">
      <rect x="102.00000000000001" y="265.6" width="70.4" height="52.8" rx="10" ry="10" class="state-box" stroke-width="1" stroke="#333333" fill="#ECECFF"/>
      <text x="137.20000000000002" y="297" class="state-label" font-size="12" text-anchor="middle">Idle</text>
    </g>
    <g class="state-node" id="state-Running">
      <rect x="36.799999999999976" y="0" width="99.2" height="52.8" rx="10" ry="10" class="state-box" stroke-width="1" fill="#ECECFF" stroke="#333333"/>
      <text x="86.39999999999998" y="31.4" class="state-label" text-anchor="middle" font-size="12">Running</text>
    </g>
    <g class="state-node" id="state-[*]_end_0">
      <circle cx="40" cy="292" r="12" class="state-end-outer" stroke="#333333" stroke-width="2" fill="none"/>
      <circle cx="40" cy="292" r="7.199999999999999" class="state-end-inner" fill="#333333"/>
    </g>
    <g class="state-node" id="state-[*]_start_0">
      <circle cx="198" cy="26.4" r="12" class="state-start" fill="#333333"/>
    </g>
    <g class="transition">
      <path d="M 198.00 38.40 C 198.00 56.53, 198.00 74.67, 198.00 94.80 C 198.00 114.93, 198.00 137.07, 198.00 159.20 C 198.00 181.33, 198.00 203.47, 191.90 221.20 C 173.58 252.27, 161.37 265.60, 161.37 265.60" class="transition-path" stroke-width="1" fill="none" marker-end="url(#arrow)" stroke="#333333"/>
    </g>
    <g class="transition">
      <path d="M 137.20 265.60 C 128.73 230.13, 120.27 194.67, 111.80 159.20 C 103.33 123.73, 94.87 88.27, 86.40 52.80" class="transition-path" stroke="#333333" marker-end="url(#arrow)" fill="none" stroke-width="1"/>
      <text x="111.8" y="154.20000000000002" class="transition-label" font-size="11" text-anchor="middle">start</text>
    </g>
    <g class="transition">
      <path d="M 101.95 52.80 C 109.80 66.13, 117.65 79.47, 122.16 97.20 C 126.67 114.93, 127.83 137.07, 132.25 159.20 C 136.67 181.33, 144.33 203.47, 146.68 221.20 C 146.06 252.27, 143.08 265.60, 143.08 265.60" class="transition-path" stroke-width="1" stroke="#333333" fill="none" marker-end="url(#arrow)"/>
      <text x="127.25" y="121" class="transition-label" font-size="11" text-anchor="middle">stop</text>
    </g>
    <g class="transition">
      <path d="M 67.95 52.80 C 58.63 66.13, 49.32 79.47, 44.66 92.80 C 40.00 106.13, 40.00 119.47, 40.00 132.80" class="transition-path" marker-end="url(#arrow)" stroke="#333333" fill="none" stroke-width="1"/>
      <text x="53.97590361445782" y="67.8" class="transition-label" font-size="11" text-anchor="middle">error</text>
    </g>
    <g class="transition">
      <path d="M 63.46 185.60 C 75.31 198.93, 87.15 212.27, 96.91 225.60 C 106.67 238.93, 114.34 252.27, 122.01 265.60" class="transition-path" marker-end="url(#arrow)" stroke-width="1" stroke="#333333" fill="none"/>
      <text x="81.22891566265059" y="200.60000000000002" class="transition-label" text-anchor="middle" font-size="11">reset</text>
    </g>
    <g class="transition">
      <path d="M 40.00 185.60 C 40.00 198.93, 40.00 212.27, 40.00 228.00 C 40.00 243.73, 40.00 261.87, 40.00 280.00" class="transition-path" fill="none" marker-end="url(#arrow)" stroke="#333333" stroke-width="1"/>
    </g>
  </g>
</svg>
