<?xml version="1.0" encoding="UTF-8"?>
<svg xmlns="http://www.w3.org/2000/svg" width="698.3999999999999" height="1170.3999999999999" viewBox="0 0 698.3999999999999 1170.3999999999999" class="mermaid">
  <style>

.mermaid {
  font-family: trebuchet ms, verdana, arial, sans-serif;
  font-size: 16px;
}

.node rect,
.node polygon,
.node circle,
.node ellipse,
.node path {
  fill: #ECECFF;
  stroke: #9370DB;
  stroke-width: 1px;
}

.node line {
  stroke: #9370DB;
  stroke-width: 1px;
}

.node .label {
  fill: #333333;
}

.node text {
  fill: #333333;
  font-family: trebuchet ms, verdana, arial, sans-serif;
  font-size: 16px;
}

.edge-path {
  fill: none;
  stroke: #333333;
  stroke-width: 1px;
}

.edge-label {
  fill: #333333;
  font-family: trebuchet ms, verdana, arial, sans-serif;
  font-size: 12px;
}

.edge-label-bg {
  fill: #ffffff;
}

.subgraph {
  fill: #ffffde;
  stroke: #aaaa33;
  stroke-width: 1px;
}

.subgraph-title {
  fill: #333333;
  font-weight: bold;
}

.cluster rect {
  fill: #ffffde;
  stroke: #aaaa33;
  stroke-width: 1px;
  rx: 5px;
  ry: 5px;
}

.cluster-label {
  fill: #333333;
  font-family: trebuchet ms, verdana, arial, sans-serif;
  font-size: 16px;
  font-weight: bold;
}

marker path {
  fill: #333333;
  stroke: #333333;
}


.state-title {
  fill: #333333;
}

.state-box {
  fill: #ECECFF;
  stroke: #333333;
}

.state-label {
  fill: #333333;
}

.state-description {
  fill: #666666;
}

.state-start {
  fill: #333333;
}

.state-end-outer {
  stroke: #333333;
}

.state-end-inner {
  fill: #333333;
}

.state-fork-join {
  fill: #333333;
}

.state-choice {
  fill: #ECECFF;
  stroke: #333333;
}

.state-divider {
  stroke: #333333;
  stroke-dasharray: 5, 5;
}

.transition-path {
  stroke: #333333;
  fill: none;
}

.transition-label {
  fill: #333333;
}

.note-box {
  fill: #FFFFCC;
  stroke: #333333;
}

.note-text {
  fill: #333333;
}

  </style>
  <defs>
    <marker id="arrow" viewBox="0 0 10 10" refX="10" refY="5" markerWidth="6" markerHeight="6" orient="auto">
      <path d="M 0 0 L 10 5 L 0 10 z" fill="#333333" stroke="#333333" stroke-width="1"/>
    </marker>
  </defs>
  <g class="root">
    <g class="clusters">

    </g>
    <g class="edgePaths">

    </g>
    <g class="edgeLabels">

    </g>
    <g class="nodes">

    </g>
    <g class="state-node" id="state-Cancelled">
      <rect x="328.4" y="615.2" width="118.39999999999999" height="52.8" rx="10" ry="10" class="state-box" stroke="#333333" fill="#ECECFF" stroke-width="1"/>
      <text x="387.59999999999997" y="646.6" class="state-label" text-anchor="middle" font-size="12">Cancelled</text>
    </g>
    <g class="state-node" id="state-Completed">
      <rect x="158.8" y="482.40000000000003" width="118.39999999999999" height="52.8" rx="10" ry="10" class="state-box" stroke-width="1" fill="#ECECFF" stroke="#333333"/>
      <text x="218" y="513.8" class="state-label" text-anchor="middle" font-size="12">Completed</text>
    </g>
    <g class="state-node" id="state-Executing">
      <rect x="525.5999999999999" y="880.8" width="118.39999999999999" height="52.8" rx="10" ry="10" class="state-box" fill="#ECECFF" stroke="#333333" stroke-width="1"/>
      <text x="584.8" y="912.1999999999999" class="state-label" text-anchor="middle" font-size="12">Executing</text>
    </g>
    <g class="state-node" id="state-Failed">
      <rect x="19.200000000000003" y="482.40000000000003" width="89.6" height="52.8" rx="10" ry="10" class="state-box" stroke="#333333" stroke-width="1" fill="#ECECFF"/>
      <text x="64" y="513.8" class="state-label" text-anchor="middle" font-size="12">Failed</text>
    </g>
    <g class="state-node" id="state-Finalizing">
      <rect x="511.69999999999993" y="993.5999999999999" width="128" height="52.8" rx="10" ry="10" class="state-box" stroke="#333333" stroke-width="1" fill="#ECECFF"/>
      <text x="575.6999999999999" y="1025" class="state-label" text-anchor="middle" font-size="12">Finalizing</text>
    </g>
    <g class="state-node" id="state-Idle">
      <rect x="176.60000000000002" y="748" width="70.4" height="52.8" rx="10" ry="10" class="state-box" stroke="#333333" stroke-width="1" fill="#ECECFF"/>
      <text x="211.8" y="779.4" class="state-label" text-anchor="middle" font-size="12">Idle</text>
    </g>
    <g class="state-node" id="state-Initializing">
      <rect x="511.19999999999993" y="748" width="147.2" height="52.8" rx="10" ry="10" class="state-box" fill="#ECECFF" stroke="#333333" stroke-width="1"/>
      <text x="584.8" y="779.4" class="state-label" text-anchor="middle" font-size="12">Initializing</text>
    </g>
    <g class="state-node" id="state-Paused">
      <rect x="367.2" y="482.40000000000003" width="89.6" height="52.8" rx="10" ry="10" class="state-box" fill="#ECECFF" stroke="#333333" stroke-width="1"/>
      <text x="412" y="513.8" class="state-label" text-anchor="middle" font-size="12">Paused</text>
    </g>
    <g class="state-node" id="state-Processing">
      <rect x="347.59999999999997" y="880.8" width="128" height="52.8" rx="10" ry="10" class="state-box" fill="#ECECFF" stroke="#333333" stroke-width="1"/>
      <text x="411.59999999999997" y="912.1999999999999" class="state-label" font-size="12" text-anchor="middle">Processing</text>
    </g>
    <g class="state-node" id="state-Queued">
      <rect x="84.00000000000001" y="216.8" width="89.6" height="52.8" rx="10" ry="10" class="state-box" fill="#ECECFF" stroke-width="1" stroke="#333333"/>
      <text x="128.8" y="248.20000000000002" class="state-label" text-anchor="middle" font-size="12">Queued</text>
    </g>
    <g class="state-node" id="state-Ready">
      <rect x="334" y="748" width="80" height="52.8" rx="10" ry="10" class="state-box" fill="#ECECFF" stroke="#333333" stroke-width="1"/>
      <text x="374" y="779.4" class="state-label" text-anchor="middle" font-size="12">Ready</text>
    </g>
    <g class="state-node" id="state-Running">
      <rect x="84" y="349.6" width="99.2" height="52.8" rx="10" ry="10" class="state-box" fill="#ECECFF" stroke="#333333" stroke-width="1"/>
      <text x="133.6" y="381" class="state-label" font-size="12" text-anchor="middle">Running</text>
    </g>
    <g class="state-node" id="state-Timeout">
      <rect x="397" y="482.40000000000003" width="99.2" height="52.8" rx="10" ry="10" class="state-box" fill="#ECECFF" stroke="#333333" stroke-width="1"/>
      <text x="446.6" y="513.8" class="state-label" font-size="12" text-anchor="middle">Timeout</text>
    </g>
    <g class="state-node" id="state-Validating">
      <rect x="0" y="84" width="128" height="52.8" rx="10" ry="10" class="state-box" fill="#ECECFF" stroke="#333333" stroke-width="1"/>
      <text x="64" y="115.4" class="state-label" font-size="12" text-anchor="middle">Validating</text>
    </g>
    <g class="state-node" id="state-WaitingResume">
      <rect x="233.20000000000002" y="349.6" width="156.8" height="52.8" rx="10" ry="10" class="state-box" stroke="#333333" fill="#ECECFF" stroke-width="1"/>
      <text x="311.6" y="381" class="state-label" font-size="12" text-anchor="middle">WaitingResume</text>
    </g>
    <g class="state-node" id="state-[*]_end_0">
      <circle cx="575.6999999999999" cy="1118.3999999999999" r="12" class="state-end-outer" stroke="#333333" fill="none" stroke-width="2"/>
      <circle cx="575.6999999999999" cy="1118.3999999999999" r="7.199999999999999" class="state-end-inner" fill="#333333"/>
    </g>
    <g class="state-node" id="state-[*]_end_1">
      <circle cx="229.4" cy="641.6" r="12" class="state-end-outer" fill="none" stroke-width="2" stroke="#333333"/>
      <circle cx="229.4" cy="641.6" r="7.199999999999999" class="state-end-inner" fill="#333333"/>
    </g>
    <g class="state-node" id="state-[*]_end_2">
      <circle cx="438.5" cy="774.4" r="12" class="state-end-outer" stroke-width="2" stroke="#333333" fill="none"/>
      <circle cx="438.5" cy="774.4" r="7.199999999999999" class="state-end-inner" fill="#333333"/>
    </g>
    <g class="state-node" id="state-[*]_start_0">
      <circle cx="387.59999999999997" cy="641.6" r="12" class="state-start" fill="#333333"/>
    </g>
    <g class="state-node" id="state-[*]_start_1">
      <circle cx="377" cy="641.6" r="12" class="state-start" fill="#333333"/>
    </g>
    <g class="state-node" id="state-[*]_start_2">
      <circle cx="64" cy="12" r="12" class="state-start" fill="#333333"/>
    </g>
    <g class="state-node" id="state-[*]_start_3">
      <circle cx="584.8" cy="641.6" r="12" class="state-start" fill="#333333"/>
    </g>
    <g class="state-node" id="state-[*]_start_4">
      <circle cx="235.6" cy="243.20000000000002" r="12" class="state-start" fill="#333333"/>
    </g>
    <g class="transition">
      <path d="M 379.74 650.67 C 363.20 669.78, 346.65 688.89, 324.52 706.22 C 302.40 723.55, 274.70 739.10, 247.00 754.64" class="transition-path" marker-end="url(#arrow)" fill="none" stroke-width="1" stroke="#333333"/>
    </g>
    <g class="transition">
      <path d="M 384.05 651.31 C 397.77 670.21, 411.48 689.10, 413.20 705.22 C 414.92 721.33, 404.64 734.67, 394.36 748.00" class="transition-path" marker-end="url(#arrow)" stroke-width="1" stroke="#333333" fill="none"/>
    </g>
    <g class="transition">
      <path d="M 405.05 800.80 C 420.73 814.13, 436.42 827.47, 440.19 840.80 C 443.97 854.13, 435.83 867.47, 427.70 880.80" class="transition-path" fill="none" marker-end="url(#arrow)" stroke="#333333" stroke-width="1"/>
      <text x="428.57590361445784" y="815.8" class="transition-label" text-anchor="middle" font-size="11">Start Job</text>
    </g>
    <g class="transition">
      <path d="M 64.00 24.00 C 64.00 34.00, 64.00 44.00, 64.00 54.00 C 64.00 64.00, 64.00 74.00, 64.00 84.00" class="transition-path" stroke-width="1" fill="none" stroke="#333333" marker-end="url(#arrow)"/>
    </g>
    <g class="transition">
      <path d="M 85.07 136.80 C 95.71 150.13, 106.36 163.47, 112.86 176.80 C 119.37 190.13, 121.74 203.47, 124.11 216.80" class="transition-path" fill="none" stroke="#333333" stroke-width="1" marker-end="url(#arrow)"/>
      <text x="101.03614457831326" y="151.8" class="transition-label" font-size="11" text-anchor="middle">Valid</text>
    </g>
    <g class="transition">
      <path d="M 64.00 136.80 C 64.00 150.13, 64.00 163.47, 64.00 181.20 C 64.00 198.93, 64.00 221.07, 64.00 243.20 C 64.00 265.33, 64.00 287.47, 64.00 309.60 C 64.00 331.73, 64.00 353.87, 64.00 376.00 C 64.00 398.13, 64.00 420.27, 64.00 438.00 C 64.00 469.07, 64.00 482.40, 64.00 482.40" class="transition-path" stroke-width="1" fill="none" marker-end="url(#arrow)" stroke="#333333"/>
      <text x="64" y="271.40000000000003" class="transition-label" text-anchor="middle" font-size="11">Invalid</text>
    </g>
    <g class="transition">
      <path d="M 157.90 269.60 C 172.60 282.93, 187.30 296.27, 187.78 309.60 C 188.27 322.93, 174.53 336.27, 160.80 349.60" class="transition-path" marker-end="url(#arrow)" stroke-width="1" fill="none" stroke="#333333"/>
      <text x="179.95180722891564" y="284.6" class="transition-label" text-anchor="middle" font-size="11">Worker Available</text>
    </g>
    <g class="transition">
      <path d="M 147.28 402.40 C 154.18 415.73, 161.09 429.07, 169.57 442.40 C 178.04 455.73, 188.08 469.07, 198.12 482.40" class="transition-path" marker-end="url(#arrow)" stroke-width="1" stroke="#333333" fill="none"/>
      <text x="157.63855421686748" y="417.4" class="transition-label" font-size="11" text-anchor="middle">Success</text>
    </g>
    <g class="transition">
      <path d="M 147.28 402.40 C 154.18 415.73, 161.09 429.07, 154.10 442.40 C 147.12 455.73, 126.23 469.07, 105.35 482.40" class="transition-path" marker-end="url(#arrow)" stroke="#333333" fill="none" stroke-width="1"/>
      <text x="157.63855421686748" y="417.4" class="transition-label" text-anchor="middle" font-size="11">Error</text>
    </g>
    <g class="transition">
      <path d="M 183.20 387.79 C 259.80 405.99, 336.40 424.20, 374.60 439.96 C 412.80 455.73, 412.60 469.07, 412.40 482.40" class="transition-path" stroke-width="1" marker-end="url(#arrow)" stroke="#333333" fill="none"/>
      <text x="298.1" y="410.0937723693629" class="transition-label" text-anchor="middle" font-size="11">Pause Request</text>
    </g>
    <g class="transition">
      <path d="M 583.17 653.49 C 580.68 671.66, 578.19 689.83, 577.86 705.58 C 577.53 721.33, 579.35 734.67, 581.18 748.00" class="transition-path" stroke-width="1" marker-end="url(#arrow)" fill="none" stroke="#333333"/>
    </g>
    <g class="transition">
      <path d="M 581.18 800.80 C 579.35 814.13, 577.53 827.47, 577.53 840.80 C 577.53 854.13, 579.35 867.47, 581.18 880.80" class="transition-path" stroke="#333333" marker-end="url(#arrow)" fill="none" stroke-width="1"/>
    </g>
    <g class="transition">
      <path d="M 580.54 933.60 C 578.93 943.60, 577.31 953.60, 576.51 963.60 C 575.70 973.60, 575.70 983.60, 575.70 993.60" class="transition-path" fill="none" stroke-width="1" marker-end="url(#arrow)" stroke="#333333"/>
    </g>
    <g class="transition">
      <path d="M 575.70 1046.40 C 575.70 1056.40, 575.70 1066.40, 575.70 1076.40 C 575.70 1086.40, 575.70 1096.40, 575.70 1106.40" class="transition-path" stroke="#333333" fill="none" stroke-width="1" marker-end="url(#arrow)"/>
    </g>
    <g class="transition">
      <path d="M 243.89 251.88 C 262.26 271.12, 280.63 290.36, 291.08 306.65 C 301.53 322.93, 304.06 336.27, 306.59 349.60" class="transition-path" stroke-width="1" stroke="#333333" marker-end="url(#arrow)" fill="none"/>
    </g>
    <g class="transition">
      <path d="M 333.23 402.40 C 344.15 415.73, 355.08 429.07, 368.63 442.40 C 382.18 455.73, 398.37 469.07, 414.55 482.40" class="transition-path" stroke="#333333" stroke-width="1" marker-end="url(#arrow)" fill="none"/>
      <text x="349.6144578313253" y="417.4" class="transition-label" text-anchor="middle" font-size="11">1 hour</text>
    </g>
    <g class="transition">
      <path d="M 356 442.40000000000003" class="transition-path" fill="none" stroke="#333333" marker-end="url(#arrow)" stroke-width="1"/>
      <text x="356" y="437.40000000000003" class="transition-label" text-anchor="middle" font-size="11">Resume</text>
    </g>
    <g class="transition">
      <path d="M 367.20 527.93 C 330.30 543.69, 293.40 559.44, 288.11 573.99 C 282.83 588.53, 309.15 601.87, 335.48 615.20" class="transition-path" stroke-width="1" stroke="#333333" marker-end="url(#arrow)" fill="none"/>
      <text x="311.85" y="546.5650160771704" class="transition-label" font-size="11" text-anchor="middle">Cancel Request</text>
    </g>
    <g class="transition">
      <path d="M 397.00 526.12 C 350.17 542.48, 303.33 558.84, 293.08 573.69 C 282.83 588.53, 309.15 601.87, 335.48 615.20" class="transition-path" marker-end="url(#arrow)" stroke="#333333" stroke-width="1" fill="none"/>
    </g>
    <g class="transition">
      <path d="M 192.12 535.20 C 179.04 548.53, 165.97 561.87, 161.35 579.60 C 156.73 597.33, 160.57 619.47, 160.57 641.60 C 160.57 663.73, 156.73 685.87, 160.73 703.60 C 176.55 734.67, 188.38 748.00, 188.38 748.00" class="transition-path" marker-end="url(#arrow)" fill="none" stroke="#333333" stroke-width="1"/>
      <text x="158.65" y="603.4000000000001" class="transition-label" text-anchor="middle" font-size="11">Reset</text>
    </g>
    <g class="transition">
      <path d="M 70.76 535.20 C 74.17 548.53, 77.59 561.87, 73.78 579.60 C 69.97 597.33, 58.93 619.47, 58.93 641.60 C 58.93 663.73, 69.97 685.87, 91.42 705.02 C 144.73 740.35, 176.60 756.53, 176.60 756.53" class="transition-path" stroke="#333333" stroke-width="1" fill="none" marker-end="url(#arrow)"/>
      <text x="64.45" y="603.4000000000001" class="transition-label" font-size="11" text-anchor="middle">Retry</text>
    </g>
    <g class="transition">
      <path d="M 328.40 667.03 C 296.60 680.68, 264.80 694.34, 246.77 707.84 C 228.74 721.33, 224.49 734.67, 220.23 748.00" class="transition-path" fill="none" stroke="#333333" marker-end="url(#arrow)" stroke-width="1"/>
      <text x="280.7" y="682.5130659767142" class="transition-label" text-anchor="middle" font-size="11">Reset</text>
    </g>
    <g class="transition">
      <path d="M 233.31 535.20 C 241.04 548.53, 248.77 561.87, 248.87 577.75 C 248.98 593.63, 241.46 612.06, 233.93 630.49" class="transition-path" stroke-width="1" fill="none" stroke="#333333" marker-end="url(#arrow)"/>
    </g>
    <g class="transition">
      <path d="M 382.23 668.00 C 379.52 681.33, 376.81 694.67, 384.80 710.96 C 392.78 727.26, 411.46 746.52, 430.15 765.79" class="transition-path" stroke-width="1" stroke="#333333" marker-end="url(#arrow)" fill="none"/>
    </g>
  </g>
</svg>
