<?xml version="1.0" encoding="UTF-8"?>
<svg xmlns="http://www.w3.org/2000/svg" width="1285.8157187499999" height="1924" viewBox="-8 -8 1285.8157187499999 1924" class="mermaid">
  <style>

.mermaid {
  font-family: trebuchet ms, verdana, arial, sans-serif;
  font-size: 16px;
}

.node rect,
.node polygon,
.node circle,
.node ellipse,
.node path {
  fill: #ECECFF;
  stroke: #9370DB;
  stroke-width: 1px;
}

.node line {
  stroke: #9370DB;
  stroke-width: 1px;
}

.node .label {
  fill: #333333;
}

.node text {
  fill: #333333;
  font-family: trebuchet ms, verdana, arial, sans-serif;
  font-size: 16px;
}

.edge-path {
  fill: none;
  stroke: #333333;
  stroke-width: 1px;
}

.edge-label {
  fill: #333333;
  font-family: trebuchet ms, verdana, arial, sans-serif;
}

.edge-label-bg {
  fill: rgba(232, 232, 232, 0.8);
}

.subgraph {
  fill: #ffffde;
  stroke: #aaaa33;
  stroke-width: 1px;
}

.subgraph-title {
  fill: #333333;
  font-weight: bold;
}

.cluster rect {
  fill: #ffffde;
  stroke: #aaaa33;
  stroke-width: 1px;
  rx: 5px;
  ry: 5px;
}

.cluster-label {
  fill: #333333;
  font-family: trebuchet ms, verdana, arial, sans-serif;
  font-size: 16px;
  font-weight: bold;
}

marker path {
  fill: #333333;
  stroke: #333333;
}


.state-title {
  fill: #333333;
}

.state-box {
  fill: #ECECFF;
  stroke: #9370DB;
}

.state-label {
  fill: #333333;
}

.state-description {
  fill: #666666;
}

.state-start {
  fill: #333333;
}

.state-end-outer {
  fill: none;
  stroke: #9370DB;
  stroke-width: 2;
}

.state-end-inner {
  fill: #9370DB;
  stroke: #9370DB;
  stroke-width: 2;
}

.state-fork-join {
  fill: #333333;
}

.state-choice {
  fill: #ECECFF;
  stroke: #333333;
}

.state-divider {
  stroke: #333333;
  stroke-dasharray: 5, 5;
  fill: none;
}

.transition-path {
  stroke: #333333;
  fill: none;
}

.transition-label {
  fill: #333333;
}

.transition-label-bg {
  fill: rgba(232, 232, 232, 0.8);
  stroke: none;
}

.note-box {
  fill: #FFFFCC;
  stroke: #333333;
}

.note-text {
  fill: #333333;
}

.state-composite-outer {
  fill: #ECECFF;
  stroke: #9370DB;
  stroke-width: 1px;
}

.state-composite-inner {
  fill: #ffffff;
  stroke: none;
}

.state-composite-inner-alt {
  fill: #f0f0f0;
  stroke: none;
}

.state-composite-label {
  fill: #333333;
  font-weight: bold;
}

.state-composite-divider {
  stroke: #9370DB;
  stroke-width: 1px;
  fill: none;
}

  </style>
  <defs>
    <marker id="arrow" viewBox="0 0 20 14" refX="19" refY="7" markerWidth="20" markerHeight="14" orient="auto" markerUnits="userSpaceOnUse">
      <path d="M 19,7 L9,13 L14,7 L9,1 Z" stroke-width="1" fill="#333333" stroke="#333333"/>
    </marker>
  </defs>
  <g class="root">
    <g class="clusters">

    </g>
    <g class="edgePaths">

    </g>
    <g class="edgeLabels">

    </g>
    <g class="nodes">

    </g>
    <g class="composite-state" id="composite-Idle">
      <rect x="136.84804687499997" y="64" width="1186.8157187499999" height="1674" rx="5" ry="5" class="state-composite-outer"/>
      <rect x="137.84804687499997" y="85" width="1184.8157187499999" height="1649" rx="0" ry="0" class="state-composite-inner"/>
      <path d="M 136.84804687499997 85 L 1323.6637656249998 85" class="state-composite-divider"/>
      <text x="730.25590625" y="80" class="state-composite-label" font-size="14" text-anchor="middle">Idle</text>
    </g>
    <g class="composite-state" id="composite-Processing">
      <rect x="178.11653125" y="301" width="830.5826562499999" height="1425" rx="5" ry="5" class="state-composite-outer"/>
      <rect x="179.11653125" y="322" width="828.5826562499999" height="1400" rx="0" ry="0" class="state-composite-inner-alt"/>
      <path d="M 178.11653125 322 L 1008.6991874999999 322" class="state-composite-divider"/>
      <text x="593.4078593749999" y="317" class="state-composite-label" font-size="14" text-anchor="middle">Processing</text>
    </g>
    <g class="composite-state" id="composite-Paused">
      <rect x="481.4641093749999" y="1369" width="223.88750000000002" height="345" rx="5" ry="5" class="state-composite-outer"/>
      <rect x="482.4641093749999" y="1390" width="221.88750000000002" height="320" rx="0" ry="0" class="state-composite-inner-alt"/>
      <path d="M 481.4641093749999 1390 L 705.351609375 1390" class="state-composite-divider"/>
      <text x="593.4078593749999" y="1385" class="state-composite-label" font-size="14" text-anchor="middle">Paused</text>
    </g>
    <g class="composite-state" id="composite-Running">
      <rect x="515.5953593749999" y="704" width="155.625" height="565" rx="5" ry="5" class="state-composite-outer"/>
      <rect x="516.5953593749999" y="725" width="153.625" height="540" rx="0" ry="0" class="state-composite-inner-alt"/>
      <path d="M 515.5953593749999 725 L 671.2203593749999 725" class="state-composite-divider"/>
      <text x="593.4078593749999" y="720" class="state-composite-label" font-size="14" text-anchor="middle">Running</text>
    </g>
    <g class="state-node" id="state-Cancelled">
      <path d="M 556.8297343749999 1808 H 629.9859843749999 A 5 5 0 0 1 634.9859843749999 1813 V 1839 A 5 5 0 0 1 629.9859843749999 1844 H 556.8297343749999 A 5 5 0 0 1 551.8297343749999 1839 V 1813 A 5 5 0 0 1 556.8297343749999 1808 Z" class="state-box" stroke-width="1" stroke="#9370DB" fill="#ECECFF"/>
      <text x="593.4078593749999" y="1831" class="state-label" font-size="16" text-anchor="middle">Cancelled</text>
    </g>
    <g class="state-node" id="state-Completed">
      <path d="M 447.19067187499996 1523.5 H 526.5656718749999 A 5 5 0 0 1 531.5656718749999 1528.5 V 1554.5 A 5 5 0 0 1 526.5656718749999 1559.5 H 447.19067187499996 A 5 5 0 0 1 442.19067187499996 1554.5 V 1528.5 A 5 5 0 0 1 447.19067187499996 1523.5 Z" class="state-box" fill="#ECECFF" stroke="#9370DB" stroke-width="1"/>
      <text x="486.87817187499996" y="1546.5" class="state-label" text-anchor="middle" font-size="16">Completed</text>
    </g>
    <g class="state-node" id="state-Executing">
      <path d="M 557.2750468749999 981 H 629.5406718749999 A 5 5 0 0 1 634.5406718749999 986 V 1012 A 5 5 0 0 1 629.5406718749999 1017 H 557.2750468749999 A 5 5 0 0 1 552.2750468749999 1012 V 986 A 5 5 0 0 1 557.2750468749999 981 Z" class="state-box" fill="#ECECFF" stroke="#9370DB" stroke-width="1"/>
      <text x="593.4078593749999" y="1004" class="state-label" text-anchor="middle" font-size="16">Executing</text>
    </g>
    <g class="state-node" id="state-Failed">
      <path d="M 591.199265625 1523.5 H 636.777390625 A 5 5 0 0 1 641.777390625 1528.5 V 1554.5 A 5 5 0 0 1 636.777390625 1559.5 H 591.199265625 A 5 5 0 0 1 586.199265625 1554.5 V 1528.5 A 5 5 0 0 1 591.199265625 1523.5 Z" class="state-box" stroke-width="1" fill="#ECECFF" stroke="#9370DB"/>
      <text x="613.988328125" y="1546.5" class="state-label" text-anchor="middle" font-size="16">Failed</text>
    </g>
    <g class="state-node" id="state-Finalizing">
      <path d="M 558.6148906249999 1112 H 628.2008281249999 A 5 5 0 0 1 633.2008281249999 1117 V 1143 A 5 5 0 0 1 628.2008281249999 1148 H 558.6148906249999 A 5 5 0 0 1 553.6148906249999 1143 V 1117 A 5 5 0 0 1 558.6148906249999 1112 Z" class="state-box" stroke="#9370DB" fill="#ECECFF" stroke-width="1"/>
      <text x="593.4078593749999" y="1135" class="state-label" font-size="16" text-anchor="middle">Finalizing</text>
    </g>
    <g class="state-node" id="state-Idle_start">
      <circle cx="593.4078593749999" cy="108" r="7" class="state-start" fill="#333333"/>
    </g>
    <g class="state-node" id="state-Initializing">
      <path d="M 557.2789531249999 850 H 629.5367656249999 A 5 5 0 0 1 634.5367656249999 855 V 881 A 5 5 0 0 1 629.5367656249999 886 H 557.2789531249999 A 5 5 0 0 1 552.2789531249999 881 V 855 A 5 5 0 0 1 557.2789531249999 850 Z" class="state-box" fill="#ECECFF" stroke="#9370DB" stroke-width="1"/>
      <text x="593.4078593749999" y="873" class="state-label" text-anchor="middle" font-size="16">Initializing</text>
    </g>
    <g class="state-node" id="state-Paused_start">
      <circle cx="593.4078593749999" cy="1413" r="7" class="state-start" fill="#333333"/>
    </g>
    <g class="state-node" id="state-Processing_start">
      <circle cx="703.488328125" cy="345" r="7" class="state-start" fill="#333333"/>
    </g>
    <g class="state-node" id="state-Queued">
      <path d="M 584.519578125 568 H 643.457078125 A 5 5 0 0 1 648.457078125 573 V 599 A 5 5 0 0 1 643.457078125 604 H 584.519578125 A 5 5 0 0 1 579.519578125 599 V 573 A 5 5 0 0 1 584.519578125 568 Z" class="state-box" stroke-width="1" fill="#ECECFF" stroke="#9370DB"/>
      <text x="613.988328125" y="591" class="state-label" text-anchor="middle" font-size="16">Queued</text>
    </g>
    <g class="state-node" id="state-Ready">
      <path d="M 569.2828593749999 180 H 617.5328593749999 A 5 5 0 0 1 622.5328593749999 185 V 211 A 5 5 0 0 1 617.5328593749999 216 H 569.2828593749999 A 5 5 0 0 1 564.2828593749999 211 V 185 A 5 5 0 0 1 569.2828593749999 180 Z" class="state-box" stroke="#9370DB" stroke-width="1" fill="#ECECFF"/>
      <text x="593.4078593749999" y="203" class="state-label" font-size="16" text-anchor="middle">Ready</text>
    </g>
    <g class="state-node" id="state-Running_end">
      <path d="M 586.4078593749999 1250 A 7 7 0 1 0 600.4078593749999 1250 A 7 7 0 1 0 586.4078593749999 1250 Z" class="state-end-outer" fill="none" stroke-width="2" stroke="#9370DB"/>
      <path d="M 590.887859375 1250 A 2.52 2.52 0 1 0 595.9278593749999 1250 A 2.52 2.52 0 1 0 590.887859375 1250 Z" class="state-end-inner" stroke-width="2" fill="#9370DB" stroke="#9370DB"/>
    </g>
    <g class="state-node" id="state-Running_start">
      <circle cx="593.4078593749999" cy="748" r="7" class="state-start" fill="#333333"/>
    </g>
    <g class="state-node" id="state-Timeout">
      <path d="M 563.5094218749999 1666 H 623.3062968749999 A 5 5 0 0 1 628.3062968749999 1671 V 1697 A 5 5 0 0 1 623.3062968749999 1702 H 563.5094218749999 A 5 5 0 0 1 558.5094218749999 1697 V 1671 A 5 5 0 0 1 563.5094218749999 1666 Z" class="state-box" stroke-width="1" fill="#ECECFF" stroke="#9370DB"/>
      <text x="593.4078593749999" y="1689" class="state-label" font-size="16" text-anchor="middle">Timeout</text>
    </g>
    <g class="state-node" id="state-Validating">
      <path d="M 667.351609375 432 H 739.625046875 A 5 5 0 0 1 744.625046875 437 V 463 A 5 5 0 0 1 739.625046875 468 H 667.351609375 A 5 5 0 0 1 662.351609375 463 V 437 A 5 5 0 0 1 667.351609375 432 Z" class="state-box" stroke="#9370DB" fill="#ECECFF" stroke-width="1"/>
      <text x="703.488328125" y="455" class="state-label" font-size="16" text-anchor="middle">Validating</text>
    </g>
    <g class="state-node" id="state-WaitingResume">
      <path d="M 535.9430156249999 1515 H 650.8727031249999 A 5 5 0 0 1 655.8727031249999 1520 V 1546 A 5 5 0 0 1 650.8727031249999 1551 H 535.9430156249999 A 5 5 0 0 1 530.9430156249999 1546 V 1520 A 5 5 0 0 1 535.9430156249999 1515 Z" class="state-box" fill="#ECECFF" stroke-width="1" stroke="#9370DB"/>
      <text x="593.4078593749999" y="1538" class="state-label" text-anchor="middle" font-size="16">WaitingResume</text>
    </g>
    <g class="state-node" id="state-root_end">
      <path d="M 596.4078593749999 1901 A 7 7 0 1 0 610.4078593749999 1901 A 7 7 0 1 0 596.4078593749999 1901 Z" class="state-end-outer" fill="none" stroke="#9370DB" stroke-width="2"/>
      <path d="M 600.887859375 1901 A 2.52 2.52 0 1 0 605.9278593749999 1901 A 2.52 2.52 0 1 0 600.887859375 1901 Z" class="state-end-inner" fill="#9370DB" stroke-width="2" stroke="#9370DB"/>
    </g>
    <g class="state-node" id="state-root_start">
      <circle cx="730.25590625" cy="7" r="7" class="state-start" fill="#333333"/>
    </g>
    <g class="transition">
      <path d="M 730.26 14.00 C 730.26 22.33, 730.26 30.67, 730.26 39.00 C 730.26 47.33, 730.26 55.67, 730.26 64.00" class="transition-path" marker-end="url(#arrow)" stroke-width="1" fill="none"/>
    </g>
    <g class="transition">
      <path d="M 593.41 115.00 C 593.41 125.83, 593.41 136.67, 593.41 147.50 C 593.41 158.33, 593.41 169.17, 593.41 180.00" class="transition-path" fill="none" marker-end="url(#arrow)" stroke-width="1"/>
    </g>
    <g class="transition">
      <path d="M 593.41 216.00 C 593.41 230.17, 593.41 244.33, 593.41 258.50 C 593.41 272.67, 593.41 286.83, 593.41 301.00" class="transition-path" fill="none" stroke-width="1" marker-end="url(#arrow)"/>
      <path d="M 557.4078593749999 247.7 H 629.4078593749999 A 2 2 0 0 1 631.4078593749999 249.7 V 267.3 A 2 2 0 0 1 629.4078593749999 269.3 H 557.4078593749999 A 2 2 0 0 1 555.4078593749999 267.3 V 249.7 A 2 2 0 0 1 557.4078593749999 247.7 Z" class="transition-label-bg"/>
      <text x="593.4078593749999" y="258.5" class="transition-label" text-anchor="middle" font-size="16" dominant-baseline="central">Start Job</text>
    </g>
    <g class="transition">
      <path d="M 703.49 352.00 C 703.49 365.33, 703.49 378.67, 703.49 392.00 C 703.49 405.33, 703.49 418.67, 703.49 432.00" class="transition-path" fill="none" marker-end="url(#arrow)" stroke-width="1"/>
    </g>
    <g class="transition">
      <path d="M 679.80 468.00 C 657.86 484.67, 635.92 501.33, 624.96 518.00 C 613.99 534.67, 613.99 551.33, 613.99 568.00" class="transition-path" fill="none" stroke-width="1" marker-end="url(#arrow)"/>
      <path d="M 606.986542286706 497.3242618659663 H 646.986542286706 A 2 2 0 0 1 648.986542286706 499.3242618659663 V 516.9242618659663 A 2 2 0 0 1 646.986542286706 518.9242618659663 H 606.986542286706 A 2 2 0 0 1 604.986542286706 516.9242618659663 V 499.3242618659663 A 2 2 0 0 1 606.986542286706 497.3242618659663 Z" class="transition-label-bg"/>
      <text x="626.986542286706" y="508.12426186596633" class="transition-label" text-anchor="middle" font-size="16" dominant-baseline="central">Valid</text>
    </g>
    <g class="transition">
      <path d="M 744.63 460.02 C 823.99 479.35, 903.36 498.67, 943.04 641.84 C 982.72 785.00, 982.72 1052.00, 925.90 1219.79 C 755.43 1456.15, 641.78 1524.73, 641.78 1524.73" class="transition-path" stroke-width="1" marker-end="url(#arrow)" fill="none"/>
      <path d="M 954.721140625 984.2758386278989 H 1010.721140625 A 2 2 0 0 1 1012.721140625 986.2758386278989 V 1003.8758386278989 A 2 2 0 0 1 1010.721140625 1005.8758386278989 H 954.721140625 A 2 2 0 0 1 952.721140625 1003.8758386278989 V 986.2758386278989 A 2 2 0 0 1 954.721140625 984.2758386278989 Z" class="transition-label-bg"/>
      <text x="982.721140625" y="995.0758386278989" class="transition-label" font-size="16" text-anchor="middle" dominant-baseline="central">Invalid</text>
    </g>
    <g class="transition">
      <path d="M 613.99 604.00 L 593.41 704.00" class="transition-path" fill="none" stroke-width="1" marker-end="url(#arrow)"/>
      <path d="M 549.988328125 643.2 H 677.988328125 A 2 2 0 0 1 679.988328125 645.2 V 662.8000000000001 A 2 2 0 0 1 677.988328125 664.8000000000001 H 549.988328125 A 2 2 0 0 1 547.988328125 662.8000000000001 V 645.2 A 2 2 0 0 1 549.988328125 643.2 Z" class="transition-label-bg"/>
      <text x="613.988328125" y="654" class="transition-label" text-anchor="middle" dominant-baseline="central" font-size="16">Worker Available</text>
    </g>
    <g class="transition">
      <path d="M 593.41 1269.00 C 557.90 1285.67, 522.39 1302.33, 504.63 1344.75 C 486.88 1387.17, 486.88 1455.33, 486.88 1523.50" class="transition-path" stroke-width="1" fill="none" marker-end="url(#arrow)"/>
      <path d="M 458.87817187499996 1341.4217243105106 H 514.8781718749999 A 2 2 0 0 1 516.8781718749999 1343.4217243105106 V 1361.0217243105105 A 2 2 0 0 1 514.8781718749999 1363.0217243105105 H 458.87817187499996 A 2 2 0 0 1 456.87817187499996 1361.0217243105105 V 1343.4217243105106 A 2 2 0 0 1 458.87817187499996 1341.4217243105106 Z" class="transition-label-bg"/>
      <text x="486.87817187499996" y="1352.2217243105106" class="transition-label" text-anchor="middle" dominant-baseline="central" font-size="16">Success</text>
    </g>
    <g class="transition">
      <path d="M 593.41 1269.00 L 613.61 1523.50" class="transition-path" fill="none" marker-end="url(#arrow)" stroke-width="1"/>
      <path d="M 590.9635387927733 1385.4529924434096 H 630.9635387927733 A 2 2 0 0 1 632.9635387927733 1387.4529924434096 V 1405.0529924434095 A 2 2 0 0 1 630.9635387927733 1407.0529924434095 H 590.9635387927733 A 2 2 0 0 1 588.9635387927733 1405.0529924434095 V 1387.4529924434096 A 2 2 0 0 1 590.9635387927733 1385.4529924434096 Z" class="transition-label-bg"/>
      <text x="610.9635387927733" y="1396.2529924434095" class="transition-label" dominant-baseline="central" font-size="16" text-anchor="middle">Error</text>
    </g>
    <g class="transition">
      <path d="M 593.41 1269.00 C 650.01 1285.67, 706.62 1302.33, 706.62 1319.00 C 706.62 1335.67, 650.01 1352.33, 593.41 1369.00" class="transition-path" fill="none" marker-end="url(#arrow)" stroke-width="1"/>
      <path d="M 686.1254630559454 1252.2852674963112 H 790.1254630559454 A 2 2 0 0 1 792.1254630559454 1254.2852674963112 V 1271.8852674963111 A 2 2 0 0 1 790.1254630559454 1273.8852674963111 H 686.1254630559454 A 2 2 0 0 1 684.1254630559454 1271.8852674963111 V 1254.2852674963112 A 2 2 0 0 1 686.1254630559454 1252.2852674963112 Z" class="transition-label-bg"/>
      <text x="738.1254630559454" y="1263.0852674963112" class="transition-label" font-size="16" text-anchor="middle" dominant-baseline="central">Pause Request</text>
    </g>
    <g class="transition">
      <path d="M 593.41 755.00 C 593.41 770.83, 593.41 786.67, 593.41 802.50 C 593.41 818.33, 593.41 834.17, 593.41 850.00" class="transition-path" stroke-width="1" marker-end="url(#arrow)" fill="none"/>
    </g>
    <g class="transition">
      <path d="M 593.41 886.00 C 593.41 901.83, 593.41 917.67, 593.41 933.50 C 593.41 949.33, 593.41 965.17, 593.41 981.00" class="transition-path" stroke-width="1" marker-end="url(#arrow)" fill="none"/>
    </g>
    <g class="transition">
      <path d="M 593.41 1017.00 C 593.41 1032.83, 593.41 1048.67, 593.41 1064.50 C 593.41 1080.33, 593.41 1096.17, 593.41 1112.00" class="transition-path" fill="none" marker-end="url(#arrow)" stroke-width="1"/>
    </g>
    <g class="transition">
      <path d="M 593.41 1148.00 C 593.41 1163.83, 593.41 1179.67, 593.41 1195.50 C 593.41 1211.33, 593.41 1227.17, 593.41 1243.00" class="transition-path" marker-end="url(#arrow)" stroke-width="1" fill="none"/>
    </g>
    <g class="transition">
      <path d="M 730.26 1420.00 C 730.26 1435.83, 730.26 1451.67, 730.26 1467.50 C 730.26 1483.33, 730.26 1499.17, 730.26 1515.00" class="transition-path" stroke-width="1" marker-end="url(#arrow)" fill="none"/>
    </g>
    <g class="transition">
      <path d="M 730.26 1551.00 C 730.26 1570.17, 730.26 1589.33, 730.26 1608.50 C 730.26 1627.67, 730.26 1646.83, 730.26 1666.00" class="transition-path" stroke-width="1" marker-end="url(#arrow)" fill="none"/>
      <path d="M 706.25590625 1597.7 H 754.25590625 A 2 2 0 0 1 756.25590625 1599.7 V 1617.3 A 2 2 0 0 1 754.25590625 1619.3 H 706.25590625 A 2 2 0 0 1 704.25590625 1617.3 V 1599.7 A 2 2 0 0 1 706.25590625 1597.7 Z" class="transition-label-bg"/>
      <text x="730.25590625" y="1608.5" class="transition-label" text-anchor="middle" dominant-baseline="central" font-size="16">1 hour</text>
    </g>
    <g class="transition">
      <path d="M 593.41 1714.00 C 690.68 1582.33, 787.95 1450.67, 787.95 1282.33 C 787.95 1114.00, 690.68 909.00, 593.41 704.00" class="transition-path" marker-end="url(#arrow)" stroke-width="1" fill="none"/>
      <path d="M 780.8966707323762 1209.7315072202136 H 828.8966707323762 A 2 2 0 0 1 830.8966707323762 1211.7315072202136 V 1229.3315072202136 A 2 2 0 0 1 828.8966707323762 1231.3315072202136 H 780.8966707323762 A 2 2 0 0 1 778.8966707323762 1229.3315072202136 V 1211.7315072202136 A 2 2 0 0 1 780.8966707323762 1209.7315072202136 Z" class="transition-label-bg"/>
      <text x="804.8966707323762" y="1220.5315072202136" class="transition-label" dominant-baseline="central" font-size="16" text-anchor="middle">Resume</text>
    </g>
    <g class="transition">
      <path d="M 593.41 1714.00 C 593.41 1729.67, 593.41 1745.33, 593.41 1761.00 C 593.41 1776.67, 593.41 1792.33, 593.41 1808.00" class="transition-path" fill="none" marker-end="url(#arrow)" stroke-width="1"/>
      <path d="M 537.4078593749999 1750.2 H 649.4078593749999 A 2 2 0 0 1 651.4078593749999 1752.2 V 1769.8 A 2 2 0 0 1 649.4078593749999 1771.8 H 537.4078593749999 A 2 2 0 0 1 535.4078593749999 1769.8 V 1752.2 A 2 2 0 0 1 537.4078593749999 1750.2 Z" class="transition-label-bg"/>
      <text x="593.4078593749999" y="1761" class="transition-label" dominant-baseline="central" font-size="16" text-anchor="middle">Cancel Request</text>
    </g>
    <g class="transition">
      <path d="M 593.41 1702.00 C 593.41 1719.67, 593.41 1737.33, 593.41 1755.00 C 593.41 1772.67, 593.41 1790.33, 593.41 1808.00" class="transition-path" fill="none" marker-end="url(#arrow)" stroke-width="1"/>
    </g>
    <g class="transition">
      <path d="M 486.88 1523.50 C 504.63 1559.25, 522.39 1595.00, 540.14 1630.75 C 557.90 1666.50, 575.65 1702.25, 593.41 1738.00" class="transition-path" stroke-width="1" fill="none" marker-end="url(#arrow)"/>
      <path d="M 520.143015625 1619.95 H 560.143015625 A 2 2 0 0 1 562.143015625 1621.95 V 1639.55 A 2 2 0 0 1 560.143015625 1641.55 H 520.143015625 A 2 2 0 0 1 518.143015625 1639.55 V 1621.95 A 2 2 0 0 1 520.143015625 1619.95 Z" class="transition-label-bg"/>
      <text x="540.143015625" y="1630.75" class="transition-label" font-size="16" text-anchor="middle" dominant-baseline="central">Reset</text>
    </g>
    <g class="transition">
      <path d="M 613.99 1523.50 C 610.56 1559.25, 607.13 1595.00, 603.70 1630.75 C 600.27 1666.50, 596.84 1702.25, 593.41 1738.00" class="transition-path" fill="none" marker-end="url(#arrow)" stroke-width="1"/>
      <path d="M 583.69809375 1619.95 H 623.69809375 A 2 2 0 0 1 625.69809375 1621.95 V 1639.55 A 2 2 0 0 1 623.69809375 1641.55 H 583.69809375 A 2 2 0 0 1 581.69809375 1639.55 V 1621.95 A 2 2 0 0 1 583.69809375 1619.95 Z" class="transition-label-bg"/>
      <text x="603.69809375" y="1630.75" class="transition-label" dominant-baseline="central" font-size="16" text-anchor="middle">Retry</text>
    </g>
    <g class="transition">
      <path d="M 605.80 1808.00 C 613.84 1796.33, 621.87 1784.67, 642.62 1494.00 C 663.36 1203.33, 696.81 633.67, 730.26 64.00" class="transition-path" fill="none" stroke-width="1" marker-end="url(#arrow)"/>
      <path d="M 607.7904565700014 1765.2745848949294 H 647.7904565700014 A 2 2 0 0 1 649.7904565700014 1767.2745848949294 V 1784.8745848949293 A 2 2 0 0 1 647.7904565700014 1786.8745848949293 H 607.7904565700014 A 2 2 0 0 1 605.7904565700014 1784.8745848949293 V 1767.2745848949294 A 2 2 0 0 1 607.7904565700014 1765.2745848949294 Z" class="transition-label-bg"/>
      <text x="627.7904565700014" y="1776.0745848949293" class="transition-label" text-anchor="middle" dominant-baseline="central" font-size="16">Reset</text>
    </g>
    <g class="transition">
      <path d="M 486.88 1559.50 C 505.94 1615.31, 525.00 1671.11, 544.06 1726.92 C 563.13 1782.73, 582.19 1838.53, 601.25 1894.34" class="transition-path" stroke-width="1" marker-end="url(#arrow)" fill="none"/>
    </g>
    <g class="transition">
      <path d="M 593.41 1844.00 C 593.41 1852.33, 593.41 1860.67, 594.73 1869.05 C 596.05 1877.44, 598.68 1885.88, 601.32 1894.32" class="transition-path" marker-end="url(#arrow)" stroke-width="1" fill="none"/>
    </g>
  </g>
</svg>
