<?xml version="1.0" encoding="UTF-8"?>
<svg xmlns="http://www.w3.org/2000/svg" width="652.8" height="1720.6000000000004" viewBox="-8 -8 652.8 1720.6000000000004" class="mermaid">
  <style>

.mermaid {
  font-family: trebuchet ms, verdana, arial, sans-serif;
  font-size: 16px;
}

.node rect,
.node polygon,
.node circle,
.node ellipse,
.node path {
  fill: #ECECFF;
  stroke: #9370DB;
  stroke-width: 1px;
}

.node line {
  stroke: #9370DB;
  stroke-width: 1px;
}

.node .label {
  fill: #333333;
}

.node text {
  fill: #333333;
  font-family: trebuchet ms, verdana, arial, sans-serif;
  font-size: 16px;
}

.edge-path {
  fill: none;
  stroke: #333333;
  stroke-width: 1px;
}

.edge-label {
  fill: #333333;
  font-family: trebuchet ms, verdana, arial, sans-serif;
}

.edge-label-bg {
  fill: rgba(232, 232, 232, 0.8);
}

.subgraph {
  fill: #ffffde;
  stroke: #aaaa33;
  stroke-width: 1px;
}

.subgraph-title {
  fill: #333333;
  font-weight: bold;
}

.cluster rect {
  fill: #ffffde;
  stroke: #aaaa33;
  stroke-width: 1px;
  rx: 5px;
  ry: 5px;
}

.cluster-label {
  fill: #333333;
  font-family: trebuchet ms, verdana, arial, sans-serif;
  font-size: 16px;
  font-weight: bold;
}

marker path {
  fill: #333333;
  stroke: #333333;
}


.state-title {
  fill: #333333;
}

.state-box {
  fill: #ECECFF;
  stroke: #9370DB;
}

.state-label {
  fill: #333333;
}

.state-description {
  fill: #666666;
}

.state-start {
  fill: #333333;
}

.state-end-outer {
  fill: none;
  stroke: #9370DB;
  stroke-width: 2;
}

.state-end-inner {
  fill: #9370DB;
  stroke: #9370DB;
  stroke-width: 2;
}

.state-fork-join {
  fill: #333333;
}

.state-choice {
  fill: #ECECFF;
  stroke: #333333;
}

.state-divider {
  stroke: #333333;
  stroke-dasharray: 5, 5;
  fill: none;
}

.transition-path {
  stroke: #333333;
  fill: none;
}

.transition-label {
  fill: #333333;
}

.transition-label-bg {
  fill: rgba(232, 232, 232, 0.8);
  stroke: none;
}

.note-box {
  fill: #FFFFCC;
  stroke: #333333;
}

.note-text {
  fill: #333333;
}

.state-composite-outer {
  fill: #ECECFF;
  stroke: #9370DB;
  stroke-width: 1px;
}

.state-composite-inner {
  fill: #ffffff;
  stroke: none;
}

.state-composite-inner-alt {
  fill: #f0f0f0;
  stroke: none;
}

.state-composite-label {
  fill: #333333;
  font-weight: bold;
}

.state-composite-divider {
  stroke: #9370DB;
  stroke-width: 1px;
  fill: none;
}

  </style>
  <defs>
    <marker id="arrow" viewBox="0 0 20 14" refX="19" refY="7" markerWidth="20" markerHeight="14" orient="auto" markerUnits="userSpaceOnUse">
      <path d="M 19,7 L9,13 L14,7 L9,1 Z" fill="#333333" stroke-width="1" stroke="#333333"/>
    </marker>
  </defs>
  <g class="root">
    <g class="clusters">

    </g>
    <g class="edgePaths">

    </g>
    <g class="edgeLabels">

    </g>
    <g class="nodes">

    </g>
    <g class="composite-state" id="composite-Idle">
      <rect x="58.900000000000034" y="49" width="505.59999999999997" height="1513.2000000000003" rx="5" ry="5" class="state-composite-outer"/>
      <rect x="59.900000000000034" y="70" width="503.59999999999997" height="1488.2000000000003" rx="0" ry="0" class="state-composite-inner"/>
      <path d="M 58.900000000000034 70 L 564.5 70" class="state-composite-divider"/>
      <text x="311.70000000000005" y="65" class="state-composite-label" font-size="14" text-anchor="middle">Idle</text>
    </g>
    <g class="composite-state" id="composite-Processing">
      <rect x="70.90000000000003" y="258.4" width="363.79999999999995" height="1291.8000000000002" rx="5" ry="5" class="state-composite-outer"/>
      <rect x="71.90000000000003" y="279.4" width="361.79999999999995" height="1266.8000000000002" rx="0" ry="0" class="state-composite-inner-alt"/>
      <path d="M 70.90000000000003 279.4 L 434.7 279.4" class="state-composite-divider"/>
      <text x="252.8" y="274.4" class="state-composite-label" font-size="14" text-anchor="middle">Processing</text>
    </g>
    <g class="composite-state" id="composite-Paused">
      <rect x="175.60000000000002" y="1218.4" width="154.39999999999998" height="319.8000000000002" rx="5" ry="5" class="state-composite-outer"/>
      <rect x="176.60000000000002" y="1239.4" width="152.39999999999998" height="294.8000000000002" rx="0" ry="0" class="state-composite-inner-alt"/>
      <path d="M 175.60000000000002 1239.4 L 330 1239.4" class="state-composite-divider"/>
      <text x="252.8" y="1234.4" class="state-composite-label" font-size="14" text-anchor="middle">Paused</text>
    </g>
    <g class="composite-state" id="composite-Running">
      <rect x="180.00000000000003" y="621.2" width="145.6" height="512.2" rx="5" ry="5" class="state-composite-outer"/>
      <rect x="181.00000000000003" y="642.2" width="143.6" height="487.20000000000005" rx="0" ry="0" class="state-composite-inner-alt"/>
      <path d="M 180.00000000000003 642.2 L 325.6 642.2" class="state-composite-divider"/>
      <text x="252.8" y="637.2" class="state-composite-label" font-size="14" text-anchor="middle">Running</text>
    </g>
    <g class="state-node" id="state-Cancelled">
      <path d="M 210.20000000000002 1617.2000000000003 H 295.40000000000003 A 5 5 0 0 1 300.40000000000003 1622.2000000000003 V 1650.6000000000004 A 5 5 0 0 1 295.40000000000003 1655.6000000000004 H 210.20000000000002 A 5 5 0 0 1 205.20000000000002 1650.6000000000004 V 1622.2000000000003 A 5 5 0 0 1 210.20000000000002 1617.2000000000003 Z" class="state-box" stroke="#9370DB" fill="#ECECFF" stroke-width="1"/>
      <text x="252.8" y="1641.4000000000003" class="state-label" text-anchor="middle" font-size="16">Cancelled</text>
    </g>
    <g class="state-node" id="state-Completed">
      <path d="M 87.90000000000003 1359.1 H 173.10000000000002 A 5 5 0 0 1 178.10000000000002 1364.1 V 1392.5 A 5 5 0 0 1 173.10000000000002 1397.5 H 87.90000000000003 A 5 5 0 0 1 82.90000000000003 1392.5 V 1364.1 A 5 5 0 0 1 87.90000000000003 1359.1 Z" class="state-box" stroke-width="1" stroke="#9370DB" fill="#ECECFF"/>
      <text x="130.50000000000003" y="1383.3" class="state-label" font-size="16" text-anchor="middle">Completed</text>
    </g>
    <g class="state-node" id="state-Executing">
      <path d="M 210.20000000000005 870.6 H 295.40000000000003 A 5 5 0 0 1 300.40000000000003 875.6 V 904 A 5 5 0 0 1 295.40000000000003 909 H 210.20000000000005 A 5 5 0 0 1 205.20000000000005 904 V 875.6 A 5 5 0 0 1 210.20000000000005 870.6 Z" class="state-box" fill="#ECECFF" stroke="#9370DB" stroke-width="1"/>
      <text x="252.80000000000004" y="894.8000000000001" class="state-label" text-anchor="middle" font-size="16">Executing</text>
    </g>
    <g class="state-node" id="state-Failed">
      <path d="M 251.8 1359.1 H 310.6 A 5 5 0 0 1 315.6 1364.1 V 1392.5 A 5 5 0 0 1 310.6 1397.5 H 251.8 A 5 5 0 0 1 246.8 1392.5 V 1364.1 A 5 5 0 0 1 251.8 1359.1 Z" class="state-box" stroke="#9370DB" stroke-width="1" fill="#ECECFF"/>
      <text x="281.20000000000005" y="1383.3" class="state-label" font-size="16" text-anchor="middle">Failed</text>
    </g>
    <g class="state-node" id="state-Finalizing">
      <path d="M 205.80000000000004 989 H 299.80000000000007 A 5 5 0 0 1 304.80000000000007 994 V 1022.4000000000001 A 5 5 0 0 1 299.80000000000007 1027.4 H 205.80000000000004 A 5 5 0 0 1 200.80000000000004 1022.4000000000001 V 994 A 5 5 0 0 1 205.80000000000004 989 Z" class="state-box" fill="#ECECFF" stroke="#9370DB" stroke-width="1"/>
      <text x="252.80000000000004" y="1013.2" class="state-label" font-size="16" text-anchor="middle">Finalizing</text>
    </g>
    <g class="state-node" id="state-Idle_start">
      <circle cx="252.8" cy="93" r="7" class="state-start" fill="#333333"/>
    </g>
    <g class="state-node" id="state-Initializing">
      <path d="M 197.00000000000003 752.2 H 308.6 A 5 5 0 0 1 313.6 757.2 V 785.6 A 5 5 0 0 1 308.6 790.6 H 197.00000000000003 A 5 5 0 0 1 192.00000000000003 785.6 V 757.2 A 5 5 0 0 1 197.00000000000003 752.2 Z" class="state-box" stroke="#9370DB" stroke-width="1" fill="#ECECFF"/>
      <text x="252.80000000000004" y="776.4000000000001" class="state-label" text-anchor="middle" font-size="16">Initializing</text>
    </g>
    <g class="state-node" id="state-Paused_start">
      <circle cx="252.8" cy="1262.4" r="7" class="state-start" fill="#333333"/>
    </g>
    <g class="state-node" id="state-Processing_start">
      <circle cx="370.7" cy="302.4" r="7" class="state-start" fill="#333333"/>
    </g>
    <g class="state-node" id="state-Queued">
      <path d="M 251.8 497.79999999999995 H 310.6 A 5 5 0 0 1 315.6 502.79999999999995 V 531.1999999999999 A 5 5 0 0 1 310.6 536.1999999999999 H 251.8 A 5 5 0 0 1 246.8 531.1999999999999 V 502.79999999999995 A 5 5 0 0 1 251.8 497.79999999999995 Z" class="state-box" fill="#ECECFF" stroke="#9370DB" stroke-width="1"/>
      <text x="281.20000000000005" y="522" class="state-label" font-size="16" text-anchor="middle">Queued</text>
    </g>
    <g class="state-node" id="state-Ready">
      <path d="M 227.8 150 H 277.8 A 5 5 0 0 1 282.8 155 V 183.4 A 5 5 0 0 1 277.8 188.4 H 227.8 A 5 5 0 0 1 222.8 183.4 V 155 A 5 5 0 0 1 227.8 150 Z" class="state-box" stroke-width="1" fill="#ECECFF" stroke="#9370DB"/>
      <text x="252.8" y="174.2" class="state-label" text-anchor="middle" font-size="16">Ready</text>
    </g>
    <g class="state-node" id="state-Running_end">
      <path d="M 245.80000000000004 1114.4 A 7 7 0 1 0 259.80000000000007 1114.4 A 7 7 0 1 0 245.80000000000004 1114.4 Z" class="state-end-outer" fill="none" stroke="#9370DB" stroke-width="2"/>
      <path d="M 250.28000000000003 1114.4 A 2.52 2.52 0 1 0 255.32000000000005 1114.4 A 2.52 2.52 0 1 0 250.28000000000003 1114.4 Z" class="state-end-inner" fill="#9370DB" stroke="#9370DB" stroke-width="2"/>
    </g>
    <g class="state-node" id="state-Running_start">
      <circle cx="252.80000000000004" cy="665.2" r="7" class="state-start" fill="#333333"/>
    </g>
    <g class="state-node" id="state-Timeout">
      <path d="M 219 1487.8000000000002 H 286.6 A 5 5 0 0 1 291.6 1492.8000000000002 V 1521.2000000000003 A 5 5 0 0 1 286.6 1526.2000000000003 H 219 A 5 5 0 0 1 214 1521.2000000000003 V 1492.8000000000002 A 5 5 0 0 1 219 1487.8000000000002 Z" class="state-box" stroke="#9370DB" stroke-width="1" fill="#ECECFF"/>
      <text x="252.8" y="1512.0000000000002" class="state-label" text-anchor="middle" font-size="16">Timeout</text>
    </g>
    <g class="state-node" id="state-Validating">
      <path d="M 323.7 374.4 H 417.7 A 5 5 0 0 1 422.7 379.4 V 407.79999999999995 A 5 5 0 0 1 417.7 412.79999999999995 H 323.7 A 5 5 0 0 1 318.7 407.79999999999995 V 379.4 A 5 5 0 0 1 323.7 374.4 Z" class="state-box" stroke="#9370DB" stroke-width="1" fill="#ECECFF"/>
      <text x="370.7" y="398.59999999999997" class="state-label" font-size="16" text-anchor="middle">Validating</text>
    </g>
    <g class="state-node" id="state-WaitingResume">
      <path d="M 192.60000000000002 1349.4 H 313 A 5 5 0 0 1 318 1354.4 V 1382.8000000000002 A 5 5 0 0 1 313 1387.8000000000002 H 192.60000000000002 A 5 5 0 0 1 187.60000000000002 1382.8000000000002 V 1354.4 A 5 5 0 0 1 192.60000000000002 1349.4 Z" class="state-box" stroke="#9370DB" stroke-width="1" fill="#ECECFF"/>
      <text x="252.8" y="1373.6000000000001" class="state-label" text-anchor="middle" font-size="16">WaitingResume</text>
    </g>
    <g class="state-node" id="state-root_end">
      <path d="M 255.8 1697.6000000000004 A 7 7 0 1 0 269.8 1697.6000000000004 A 7 7 0 1 0 255.8 1697.6000000000004 Z" class="state-end-outer" stroke-width="2" fill="none" stroke="#9370DB"/>
      <path d="M 260.28000000000003 1697.6000000000004 A 2.52 2.52 0 1 0 265.32 1697.6000000000004 A 2.52 2.52 0 1 0 260.28000000000003 1697.6000000000004 Z" class="state-end-inner" stroke-width="2" fill="#9370DB" stroke="#9370DB"/>
    </g>
    <g class="state-node" id="state-root_start">
      <circle cx="252.8" cy="7" r="7" class="state-start" fill="#333333"/>
    </g>
    <g class="transition">
      <path d="M 252.80 14.00 L 311.70 49.00" class="transition-path" marker-end="url(#arrow)" stroke-width="0.7" fill="none"/>
    </g>
    <g class="transition">
      <path d="M 252.80 100.00 C 252.80 108.33, 252.80 116.67, 252.80 125.00 C 252.80 133.33, 252.80 141.67, 252.80 150.00" class="transition-path" stroke-width="0.7" fill="none" marker-end="url(#arrow)"/>
    </g>
    <g class="transition">
      <path d="M 252.80 188.40 C 252.80 200.07, 252.80 211.73, 252.80 223.40 C 252.80 235.07, 252.80 246.73, 252.80 258.40" class="transition-path" stroke-width="0.7" marker-end="url(#arrow)" fill="none"/>
      <path d="M 216.8 212.59999999999997 H 288.8 A 2 2 0 0 1 290.8 214.59999999999997 V 232.19999999999996 A 2 2 0 0 1 288.8 234.19999999999996 H 216.8 A 2 2 0 0 1 214.8 232.19999999999996 V 214.59999999999997 A 2 2 0 0 1 216.8 212.59999999999997 Z" class="transition-label-bg"/>
      <text x="252.8" y="223.39999999999998" class="transition-label" dominant-baseline="central" text-anchor="middle" font-size="16">Start Job</text>
    </g>
    <g class="transition">
      <path d="M 370.70 309.40 C 370.70 320.23, 370.70 331.07, 370.70 341.90 C 370.70 352.73, 370.70 363.57, 370.70 374.40" class="transition-path" fill="none" marker-end="url(#arrow)" stroke-width="0.7"/>
    </g>
    <g class="transition">
      <path d="M 342.85 412.80 C 322.30 426.97, 301.75 441.13, 291.47 455.30 C 281.20 469.47, 281.20 483.63, 281.20 497.80" class="transition-path" fill="none" stroke-width="0.7" marker-end="url(#arrow)"/>
      <path d="M 274.52907763059636 435.31112748818106 H 314.52907763059636 A 2 2 0 0 1 316.52907763059636 437.31112748818106 V 454.9111274881811 A 2 2 0 0 1 314.52907763059636 456.9111274881811 H 274.52907763059636 A 2 2 0 0 1 272.52907763059636 454.9111274881811 V 437.31112748818106 A 2 2 0 0 1 274.52907763059636 435.31112748818106 Z" class="transition-label-bg"/>
      <text x="294.52907763059636" y="446.11112748818107" class="transition-label" dominant-baseline="central" text-anchor="middle" font-size="16">Valid</text>
    </g>
    <g class="transition">
      <path d="M 422.70 406.38 C 489.07 422.68, 555.43 438.99, 588.62 567.25 C 621.80 695.50, 621.80 935.70, 570.42 1086.33 C 416.27 1298.03, 313.51 1359.10, 313.51 1359.10" class="transition-path" stroke-width="0.7" fill="none" marker-end="url(#arrow)"/>
      <path d="M 593.8 881.5964634882301 H 649.8 A 2 2 0 0 1 651.8 883.5964634882301 V 901.1964634882302 A 2 2 0 0 1 649.8 903.1964634882302 H 593.8 A 2 2 0 0 1 591.8 901.1964634882302 V 883.5964634882301 A 2 2 0 0 1 593.8 881.5964634882301 Z" class="transition-label-bg"/>
      <text x="621.8" y="892.3964634882301" class="transition-label" font-size="16" text-anchor="middle" dominant-baseline="central">Invalid</text>
    </g>
    <g class="transition">
      <path d="M 281.20 536.20 L 252.80 621.20" class="transition-path" marker-end="url(#arrow)" stroke-width="0.7" fill="none"/>
      <path d="M 217.20000000000005 567.9000000000001 H 345.20000000000005 A 2 2 0 0 1 347.20000000000005 569.9000000000001 V 587.5000000000001 A 2 2 0 0 1 345.20000000000005 589.5000000000001 H 217.20000000000005 A 2 2 0 0 1 215.20000000000005 587.5000000000001 V 569.9000000000001 A 2 2 0 0 1 217.20000000000005 567.9000000000001 Z" class="transition-label-bg"/>
      <text x="281.20000000000005" y="578.7" class="transition-label" font-size="16" dominant-baseline="central" text-anchor="middle">Worker Available</text>
    </g>
    <g class="transition">
      <path d="M 252.80 1133.40 C 212.03 1147.57, 171.27 1161.73, 150.88 1199.35 C 130.50 1236.97, 130.50 1298.03, 130.50 1359.10" class="transition-path" marker-end="url(#arrow)" fill="none" stroke-width="0.7"/>
      <path d="M 102.50000000000003 1170.2518339683959 H 158.50000000000003 A 2 2 0 0 1 160.50000000000003 1172.2518339683959 V 1189.8518339683958 A 2 2 0 0 1 158.50000000000003 1191.8518339683958 H 102.50000000000003 A 2 2 0 0 1 100.50000000000003 1189.8518339683958 V 1172.2518339683959 A 2 2 0 0 1 102.50000000000003 1170.2518339683959 Z" class="transition-label-bg"/>
      <text x="130.50000000000003" y="1181.0518339683958" class="transition-label" font-size="16" text-anchor="middle" dominant-baseline="central">Success</text>
    </g>
    <g class="transition">
      <path d="M 252.80 1133.40 C 256.03 1147.57, 259.27 1161.73, 263.70 1199.35 C 268.14 1236.97, 273.78 1298.03, 279.43 1359.10" class="transition-path" marker-end="url(#arrow)" stroke-width="0.7" fill="none"/>
      <path d="M 249.00422462575295 1235.4986665375611 H 289.00422462575295 A 2 2 0 0 1 291.00422462575295 1237.4986665375611 V 1255.098666537561 A 2 2 0 0 1 289.00422462575295 1257.098666537561 H 249.00422462575295 A 2 2 0 0 1 247.00422462575295 1255.098666537561 V 1237.4986665375611 A 2 2 0 0 1 249.00422462575295 1235.4986665375611 Z" class="transition-label-bg"/>
      <text x="269.00422462575295" y="1246.298666537561" class="transition-label" dominant-baseline="central" text-anchor="middle" font-size="16">Error</text>
    </g>
    <g class="transition">
      <path d="M 252.80 1133.40 C 302.63 1147.57, 352.47 1161.73, 352.47 1175.90 C 352.47 1190.07, 302.63 1204.23, 252.80 1218.40" class="transition-path" marker-end="url(#arrow)" stroke-width="0.7" fill="none"/>
      <path d="M 334.4911608224435 1126.119658311987 H 438.4911608224435 A 2 2 0 0 1 440.4911608224435 1128.119658311987 V 1145.719658311987 A 2 2 0 0 1 438.4911608224435 1147.719658311987 H 334.4911608224435 A 2 2 0 0 1 332.4911608224435 1145.719658311987 V 1128.119658311987 A 2 2 0 0 1 334.4911608224435 1126.119658311987 Z" class="transition-label-bg"/>
      <text x="386.4911608224435" y="1136.919658311987" class="transition-label" font-size="16" dominant-baseline="central" text-anchor="middle">Pause Request</text>
    </g>
    <g class="transition">
      <path d="M 252.80 672.20 C 252.80 685.53, 252.80 698.87, 252.80 712.20 C 252.80 725.53, 252.80 738.87, 252.80 752.20" class="transition-path" marker-end="url(#arrow)" fill="none" stroke-width="0.7"/>
    </g>
    <g class="transition">
      <path d="M 252.80 790.60 C 252.80 803.93, 252.80 817.27, 252.80 830.60 C 252.80 843.93, 252.80 857.27, 252.80 870.60" class="transition-path" stroke-width="0.7" fill="none" marker-end="url(#arrow)"/>
    </g>
    <g class="transition">
      <path d="M 252.80 909.00 C 252.80 922.33, 252.80 935.67, 252.80 949.00 C 252.80 962.33, 252.80 975.67, 252.80 989.00" class="transition-path" stroke-width="0.7" fill="none" marker-end="url(#arrow)"/>
    </g>
    <g class="transition">
      <path d="M 252.80 1027.40 C 252.80 1040.73, 252.80 1054.07, 252.80 1067.40 C 252.80 1080.73, 252.80 1094.07, 252.80 1107.40" class="transition-path" fill="none" marker-end="url(#arrow)" stroke-width="0.7"/>
    </g>
    <g class="transition">
      <path d="M 252.80 1269.40 C 252.80 1282.73, 252.80 1296.07, 252.80 1309.40 C 252.80 1322.73, 252.80 1336.07, 252.80 1349.40" class="transition-path" marker-end="url(#arrow)" stroke-width="0.7" fill="none"/>
    </g>
    <g class="transition">
      <path d="M 252.80 1387.80 C 252.80 1404.47, 252.80 1421.13, 252.80 1437.80 C 252.80 1454.47, 252.80 1471.13, 252.80 1487.80" class="transition-path" marker-end="url(#arrow)" stroke-width="0.7" fill="none"/>
      <path d="M 228.8 1427.0000000000002 H 276.8 A 2 2 0 0 1 278.8 1429.0000000000002 V 1446.6000000000001 A 2 2 0 0 1 276.8 1448.6000000000001 H 228.8 A 2 2 0 0 1 226.8 1446.6000000000001 V 1429.0000000000002 A 2 2 0 0 1 228.8 1427.0000000000002 Z" class="transition-label-bg"/>
      <text x="252.8" y="1437.8000000000002" class="transition-label" dominant-baseline="central" font-size="16" text-anchor="middle">1 hour</text>
    </g>
    <g class="transition">
      <path d="M 252.80 1538.20 C 343.30 1417.43, 433.80 1296.67, 433.80 1143.83 C 433.80 991.00, 343.30 806.10, 252.80 621.20" class="transition-path" marker-end="url(#arrow)" fill="none" stroke-width="0.7"/>
      <path d="M 429.1623652965533 1077.7215642844542 H 477.1623652965533 A 2 2 0 0 1 479.1623652965533 1079.7215642844542 V 1097.321564284454 A 2 2 0 0 1 477.1623652965533 1099.321564284454 H 429.1623652965533 A 2 2 0 0 1 427.1623652965533 1097.321564284454 V 1079.7215642844542 A 2 2 0 0 1 429.1623652965533 1077.7215642844542 Z" class="transition-label-bg"/>
      <text x="453.1623652965533" y="1088.5215642844541" class="transition-label" text-anchor="middle" dominant-baseline="central" font-size="16">Resume</text>
    </g>
    <g class="transition">
      <path d="M 252.80 1538.20 C 252.80 1551.37, 252.80 1564.53, 252.80 1577.70 C 252.80 1590.87, 252.80 1604.03, 252.80 1617.20" class="transition-path" marker-end="url(#arrow)" fill="none" stroke-width="0.7"/>
      <path d="M 196.8 1566.9000000000003 H 308.8 A 2 2 0 0 1 310.8 1568.9000000000003 V 1586.5000000000002 A 2 2 0 0 1 308.8 1588.5000000000002 H 196.8 A 2 2 0 0 1 194.8 1586.5000000000002 V 1568.9000000000003 A 2 2 0 0 1 196.8 1566.9000000000003 Z" class="transition-label-bg"/>
      <text x="252.8" y="1577.7000000000003" class="transition-label" dominant-baseline="central" font-size="16" text-anchor="middle">Cancel Request</text>
    </g>
    <g class="transition">
      <path d="M 252.80 1526.20 C 252.80 1541.37, 252.80 1556.53, 252.80 1571.70 C 252.80 1586.87, 252.80 1602.03, 252.80 1617.20" class="transition-path" stroke-width="0.7" fill="none" marker-end="url(#arrow)"/>
    </g>
    <g class="transition">
      <path d="M 130.50 1359.10 C 150.88 1392.95, 171.27 1426.80, 191.65 1460.65 C 212.03 1494.50, 232.42 1528.35, 252.80 1562.20" class="transition-path" fill="none" marker-end="url(#arrow)" stroke-width="0.7"/>
      <path d="M 171.65000000000003 1449.8500000000001 H 211.65000000000003 A 2 2 0 0 1 213.65000000000003 1451.8500000000001 V 1469.45 A 2 2 0 0 1 211.65000000000003 1471.45 H 171.65000000000003 A 2 2 0 0 1 169.65000000000003 1469.45 V 1451.8500000000001 A 2 2 0 0 1 171.65000000000003 1449.8500000000001 Z" class="transition-label-bg"/>
      <text x="191.65000000000003" y="1460.65" class="transition-label" text-anchor="middle" font-size="16" dominant-baseline="central">Reset</text>
    </g>
    <g class="transition">
      <path d="M 281.20 1359.10 C 276.47 1392.95, 271.73 1426.80, 267.00 1460.65 C 262.27 1494.50, 257.53 1528.35, 252.80 1562.20" class="transition-path" marker-end="url(#arrow)" stroke-width="0.7" fill="none"/>
      <path d="M 247 1449.8500000000001 H 287 A 2 2 0 0 1 289 1451.8500000000001 V 1469.45 A 2 2 0 0 1 287 1471.45 H 247 A 2 2 0 0 1 245 1469.45 V 1451.8500000000001 A 2 2 0 0 1 247 1449.8500000000001 Z" class="transition-label-bg"/>
      <text x="267" y="1460.65" class="transition-label" font-size="16" text-anchor="middle" dominant-baseline="central">Retry</text>
    </g>
    <g class="transition">
      <path d="M 267.81 1617.20 C 274.97 1608.03, 282.14 1598.87, 289.45 1337.50 C 296.77 1076.13, 304.23 562.57, 311.70 49.00" class="transition-path" marker-end="url(#arrow)" stroke-width="0.7" fill="none"/>
      <path d="M 267.02973735219587 1581.8046922096567 H 307.02973735219587 A 2 2 0 0 1 309.02973735219587 1583.8046922096567 V 1601.4046922096566 A 2 2 0 0 1 307.02973735219587 1603.4046922096566 H 267.02973735219587 A 2 2 0 0 1 265.02973735219587 1601.4046922096566 V 1583.8046922096567 A 2 2 0 0 1 267.02973735219587 1581.8046922096567 Z" class="transition-label-bg"/>
      <text x="287.02973735219587" y="1592.6046922096566" class="transition-label" dominant-baseline="central" text-anchor="middle" font-size="16">Reset</text>
    </g>
    <g class="transition">
      <path d="M 130.50 1397.50 C 152.10 1446.44, 173.71 1495.38, 195.31 1544.32 C 216.91 1593.26, 238.52 1642.19, 260.12 1691.13" class="transition-path" stroke-width="0.7" marker-end="url(#arrow)" fill="none"/>
    </g>
    <g class="transition">
      <path d="M 252.80 1655.60 C 252.80 1661.43, 252.80 1667.27, 254.03 1673.19 C 255.25 1679.11, 257.70 1685.11, 260.15 1691.12" class="transition-path" marker-end="url(#arrow)" fill="none" stroke-width="0.7"/>
    </g>
  </g>
</svg>
