<?xml version="1.0" encoding="UTF-8"?>
<svg xmlns="http://www.w3.org/2000/svg" width="192.97699350487358" height="404" viewBox="3 -8 192.97699350487358 404" class="mermaid">
  <style>

.mermaid {
  font-family: trebuchet ms, verdana, arial, sans-serif;
  font-size: 16px;
}

.node rect,
.node polygon,
.node circle,
.node ellipse,
.node path {
  fill: #ECECFF;
  stroke: #9370DB;
  stroke-width: 1px;
}

.node line {
  stroke: #9370DB;
  stroke-width: 1px;
}

.node .label {
  fill: #333333;
}

.node text {
  fill: #333333;
  font-family: trebuchet ms, verdana, arial, sans-serif;
  font-size: 16px;
}

.edge-path {
  fill: none;
  stroke: #333333;
  stroke-width: 1px;
}

.edge-label {
  fill: #333333;
  font-family: trebuchet ms, verdana, arial, sans-serif;
}

.edge-label-bg {
  fill: rgba(232, 232, 232, 0.8);
}

.subgraph {
  fill: #ffffde;
  stroke: #aaaa33;
  stroke-width: 1px;
}

.subgraph-title {
  fill: #333333;
  font-weight: bold;
}

.cluster rect {
  fill: #ffffde;
  stroke: #aaaa33;
  stroke-width: 1px;
  rx: 5px;
  ry: 5px;
}

.cluster-label {
  fill: #333333;
  font-family: trebuchet ms, verdana, arial, sans-serif;
  font-size: 16px;
  font-weight: bold;
}

marker path {
  fill: #333333;
  stroke: #333333;
}


.state-title {
  fill: #333333;
}

.state-box {
  fill: #ECECFF;
  stroke: #9370DB;
}

.state-label {
  fill: #333333;
}

.state-description {
  fill: #666666;
}

.state-start {
  fill: #333333;
}

.state-end-outer {
  fill: none;
  stroke: #9370DB;
  stroke-width: 2;
}

.state-end-inner {
  fill: #9370DB;
  stroke: #9370DB;
  stroke-width: 2;
}

.state-fork-join {
  fill: #333333;
}

.state-choice {
  fill: #ECECFF;
  stroke: #333333;
}

.state-divider {
  stroke: #333333;
  stroke-dasharray: 5, 5;
  fill: none;
}

.transition-path {
  stroke: #333333;
  fill: none;
}

.transition-label {
  fill: #333333;
}

.transition-label-bg {
  fill: rgba(232, 232, 232, 0.8);
  stroke: none;
}

.note-box {
  fill: #FFFFCC;
  stroke: #333333;
}

.note-text {
  fill: #333333;
}

.state-composite-outer {
  fill: #ECECFF;
  stroke: #9370DB;
  stroke-width: 1px;
}

.state-composite-inner {
  fill: #ffffff;
  stroke: none;
}

.state-composite-inner-alt {
  fill: #f0f0f0;
  stroke: none;
}

.state-composite-label {
  fill: #333333;
  font-weight: bold;
}

.state-composite-divider {
  stroke: #9370DB;
  stroke-width: 1px;
  fill: none;
}

  </style>
  <defs>
    <marker id="arrow" viewBox="0 0 20 14" refX="19" refY="7" markerWidth="20" markerHeight="14" orient="auto" markerUnits="userSpaceOnUse">
      <path d="M 19,7 L9,13 L14,7 L9,1 Z" stroke="#333333" stroke-width="1" fill="#333333"/>
    </marker>
  </defs>
  <g class="root">
    <g class="clusters">

    </g>
    <g class="edgePaths">

    </g>
    <g class="edgeLabels">

    </g>
    <g class="nodes">

    </g>
    <g class="state-node" id="state-Error">
      <path d="M 86.69964975487358 284 H 128.25433725487358 A 5 5 0 0 1 133.25433725487358 289 V 319 A 5 5 0 0 1 128.25433725487358 324 H 86.69964975487358 A 5 5 0 0 1 81.69964975487358 319 V 289 A 5 5 0 0 1 86.69964975487358 284 Z" class="state-box" fill="#ECECFF" stroke="#9370DB" stroke-width="1"/>
      <text x="107.47699350487358" y="309" class="state-label" text-anchor="middle" font-size="16">Error</text>
    </g>
    <g class="state-node" id="state-Idle">
      <path d="M 79.67816537987358 64 H 111.47504037987358 A 5 5 0 0 1 116.47504037987358 69 V 99 A 5 5 0 0 1 111.47504037987358 104 H 79.67816537987358 A 5 5 0 0 1 74.67816537987358 99 V 69 A 5 5 0 0 1 79.67816537987358 64 Z" class="state-box" stroke-width="1" stroke="#9370DB" fill="#ECECFF"/>
      <text x="95.57660287987358" y="89" class="state-label" text-anchor="middle" font-size="16">Idle</text>
    </g>
    <g class="state-node" id="state-Running">
      <path d="M 21.77582162987357 174 H 87.37738412987358 A 5 5 0 0 1 92.37738412987358 179 V 209 A 5 5 0 0 1 87.37738412987358 214 H 21.77582162987357 A 5 5 0 0 1 16.77582162987357 209 V 179 A 5 5 0 0 1 21.77582162987357 174 Z" class="state-box" stroke-width="1" stroke="#9370DB" fill="#ECECFF"/>
      <text x="54.57660287987357" y="199" class="state-label" text-anchor="middle" font-size="16">Running</text>
    </g>
    <g class="state-node" id="state-root_end">
      <path d="M 100.47699350487358 381 A 7 7 0 1 0 114.47699350487358 381 A 7 7 0 1 0 100.47699350487358 381 Z" class="state-end-outer" stroke-width="2" fill="none" stroke="#9370DB"/>
      <path d="M 104.95699350487358 381 A 2.52 2.52 0 1 0 109.99699350487357 381 A 2.52 2.52 0 1 0 104.95699350487358 381 Z" class="state-end-inner" stroke-width="2" fill="#9370DB" stroke="#9370DB"/>
    </g>
    <g class="state-node" id="state-root_start">
      <circle cx="95.57660287987358" cy="7" r="7" class="state-start" fill="#333333"/>
    </g>
    <g class="transition">
      <path d="M 95.58 14.00 C 95.58 22.33, 95.58 30.67, 95.58 39.00 C 95.58 47.33, 95.58 55.67, 95.58 64.00" class="transition-path" fill="none" marker-end="url(#arrow)" stroke-width="1.3"/>
    </g>
    <g class="transition">
      <path d="M 74.68 98.02 C 54.31 111.68, 33.94 125.34, 28.11 138.00 C 22.27 150.67, 30.97 162.33, 39.67 174.00" class="transition-path" fill="none" stroke-width="1.3" marker-end="url(#arrow)"/>
      <path d="M 6 119.8672336389396 H 46 A 2 2 0 0 1 48 121.8672336389396 V 139.4672336389396 A 2 2 0 0 1 46 141.4672336389396 H 6 A 2 2 0 0 1 4 139.4672336389396 V 121.8672336389396 A 2 2 0 0 1 6 119.8672336389396 Z" class="transition-label-bg"/>
      <text x="26" y="130.6672336389396" class="transition-label" dominant-baseline="central" font-size="16" text-anchor="middle">start</text>
    </g>
    <g class="transition">
      <path d="M 69.49 174.00 L 95.58 104.00" class="transition-path" fill="none" marker-end="url(#arrow)" stroke-width="1.3"/>
      <path d="M 76.99028755737461 131.66944738384007 H 108.99028755737461 A 2 2 0 0 1 110.99028755737461 133.66944738384007 V 151.26944738384006 A 2 2 0 0 1 108.99028755737461 153.26944738384006 H 76.99028755737461 A 2 2 0 0 1 74.99028755737461 151.26944738384006 V 133.66944738384007 A 2 2 0 0 1 76.99028755737461 131.66944738384007 Z" class="transition-label-bg"/>
      <text x="92.99028755737461" y="142.46944738384008" class="transition-label" text-anchor="middle" dominant-baseline="central" font-size="16">stop</text>
    </g>
    <g class="transition">
      <path d="M 54.58 214.00 L 88.24 284.00" class="transition-path" stroke-width="1.3" fill="none" marker-end="url(#arrow)"/>
      <path d="M 39.27726323152043 243.08722892753832 H 79.27726323152044 A 2 2 0 0 1 81.27726323152044 245.08722892753832 V 262.68722892753834 A 2 2 0 0 1 79.27726323152044 264.68722892753834 H 39.27726323152043 A 2 2 0 0 1 37.27726323152043 262.68722892753834 V 245.08722892753832 A 2 2 0 0 1 39.27726323152043 243.08722892753832 Z" class="transition-label-bg"/>
      <text x="59.27726323152043" y="253.88722892753833" class="transition-label" font-size="16" text-anchor="middle" dominant-baseline="central">error</text>
    </g>
    <g class="transition">
      <path d="M 131.30 284.00 C 145.19 272.33, 159.08 260.67, 166.03 236.50 C 172.98 212.33, 172.98 175.67, 163.56 150.64 C 135.31 112.23, 116.48 98.85, 116.48 98.85" class="transition-path" fill="none" stroke-width="1.3" marker-end="url(#arrow)"/>
      <path d="M 152.97699350487358 175.75668993617893 H 192.97699350487358 A 2 2 0 0 1 194.97699350487358 177.75668993617893 V 195.35668993617892 A 2 2 0 0 1 192.97699350487358 197.35668993617892 H 152.97699350487358 A 2 2 0 0 1 150.97699350487358 195.35668993617892 V 177.75668993617893 A 2 2 0 0 1 152.97699350487358 175.75668993617893 Z" class="transition-label-bg"/>
      <text x="172.97699350487358" y="186.55668993617894" class="transition-label" font-size="16" text-anchor="middle" dominant-baseline="central">reset</text>
    </g>
    <g class="transition">
      <path d="M 107.48 324.00 C 107.48 332.33, 107.48 340.67, 107.48 349.00 C 107.48 357.33, 107.48 365.67, 107.48 374.00" class="transition-path" marker-end="url(#arrow)" stroke-width="1.3" fill="none"/>
    </g>
  </g>
</svg>
