<?xml version="1.0" encoding="UTF-8"?>
<svg xmlns="http://www.w3.org/2000/svg" width="263.4296875" height="1145" viewBox="-8 -8 263.4296875 1145" class="mermaid">
  <style>

.statediagram {
  font-family: trebuchet ms, verdana, arial, sans-serif;
  font-size: 16px;
  fill: #333333;
}

.error-icon {
  fill: #552222;
}

.error-text {
  fill: #552222;
  stroke: #552222;
}

.state-title {
  fill: #131300;
}

.state-box {
  fill: #ECECFF;
  stroke: #9370DB;
}

.state-label {
  fill: #131300;
}

.state-description {
  fill: #333333;
}

.state-start {
  fill: #333333;
}

.state-end-outer {
  fill: none;
  stroke: #9370DB;
  stroke-width: 2;
}

.state-end-inner {
  fill: #9370DB;
  stroke: #9370DB;
  stroke-width: 2;
}

.state-fork-join {
  fill: #333333;
}

.state-choice {
  fill: #ECECFF;
  stroke: #333333;
}

.state-divider {
  stroke: #333333;
  stroke-dasharray: 5, 5;
  fill: none;
}

.transition-path {
  stroke: #333333;
  fill: none;
}

.transition-label {
  fill: #333333;
}

.transition-label-bg {
  fill: rgba(232, 232, 232, 0.8);
  stroke: none;
}

.note-box {
  fill: #fff5ad;
  stroke: #aaaa33;
}

.note-text {
  fill: black;
}

.state-composite-outer {
  fill: #ECECFF;
  stroke: #9370DB;
  stroke-width: 1px;
}

.state-composite-inner {
  fill: white;
  stroke: none;
}

.state-composite-inner-alt {
  fill: #e0e0e0;
  stroke: none;
}

.state-composite-label {
  fill: #333333;
  font-weight: bold;
}

.state-composite-divider {
  stroke: #9370DB;
  stroke-width: 1px;
  fill: none;
}

  </style>
  <defs>
    <marker id="arrow" viewBox="0 0 20 14" refX="19" refY="7" markerWidth="20" markerHeight="14" orient="auto" markerUnits="userSpaceOnUse">
      <path d="M 19,7 L9,13 L14,7 L9,1 Z" stroke-width="1" fill="#333333" stroke="#333333"/>
    </marker>
  </defs>
  <g class="root">
    <g class="clusters">

    </g>
    <g class="edgePaths">

    </g>
    <g class="edgeLabels">

    </g>
    <g class="nodes">

    </g>
    <g class="composite-state" id="composite-Idle">
      <rect x="39.39484375000002" y="64" width="168.63999999999996" height="285" rx="5" ry="5" class="state-composite-outer"/>
      <rect x="40.39484375000002" y="85" width="166.63999999999996" height="260" rx="0" ry="0" class="state-composite-inner"/>
      <path d="M 39.39484375000002 85 L 208.03484375 85" class="state-composite-divider"/>
      <text x="123.71484375" y="80" class="state-composite-label" text-anchor="middle" font-size="14">Idle</text>
    </g>
    <g class="composite-state" id="composite-Processing">
      <rect x="30.414140625000016" y="605" width="170.16" height="524" rx="5" ry="5" class="state-composite-outer"/>
      <rect x="31.414140625000016" y="626" width="168.16" height="499" rx="0" ry="0" class="state-composite-inner"/>
      <path d="M 30.414140625000016 626 L 200.574140625 626" class="state-composite-divider"/>
      <text x="115.49414062500001" y="621" class="state-composite-label" font-size="14" text-anchor="middle">Processing</text>
    </g>
    <g class="composite-state" id="composite-Executing">
      <rect x="63.294140625000004" y="822" width="104.4" height="295" rx="5" ry="5" class="state-composite-outer"/>
      <rect x="64.29414062500001" y="843" width="102.4" height="270" rx="0" ry="0" class="state-composite-inner-alt"/>
      <path d="M 63.294140625000004 843 L 167.69414062500002 843" class="state-composite-divider"/>
      <text x="115.494140625" y="838" class="state-composite-label" font-size="14" text-anchor="middle">Executing</text>
    </g>
    <g class="state-node" id="state-Active">
      <path d="M 100.9296875 301 H 146.5 A 5 5 0 0 1 151.5 306 V 332 A 5 5 0 0 1 146.5 337 H 100.9296875 A 5 5 0 0 1 95.9296875 332 V 306 A 5 5 0 0 1 100.9296875 301 Z" class="state-box" fill="#ECECFF" stroke="#9370DB" stroke-width="1"/>
      <text x="123.71484375" y="324" class="state-label" font-size="16" text-anchor="middle">Active</text>
    </g>
    <g class="state-node" id="state-Done">
      <path d="M 95.36914062500001 1069 H 135.619140625 A 5 5 0 0 1 140.619140625 1074 V 1100 A 5 5 0 0 1 135.619140625 1105 H 95.36914062500001 A 5 5 0 0 1 90.36914062500001 1100 V 1074 A 5 5 0 0 1 95.36914062500001 1069 Z" class="state-box" fill="#ECECFF" stroke="#9370DB" stroke-width="1"/>
      <text x="115.49414062500001" y="1092" class="state-label" text-anchor="middle" font-size="16">Done</text>
    </g>
    <g class="state-node" id="state-Executing_start">
      <circle cx="115.49414062500001" cy="866" r="7" class="state-start" fill="#333333"/>
    </g>
    <g class="state-node" id="state-Idle_start">
      <circle cx="123.71484375000001" cy="108" r="7" class="state-start" fill="#333333"/>
    </g>
    <g class="state-node" id="state-Init">
      <path d="M 102.99414062500001 953 H 127.994140625 A 5 5 0 0 1 132.994140625 958 V 984 A 5 5 0 0 1 127.994140625 989 H 102.99414062500001 A 5 5 0 0 1 97.99414062500001 984 V 958 A 5 5 0 0 1 102.99414062500001 953 Z" class="state-box" stroke="#9370DB" fill="#ECECFF" stroke-width="1"/>
      <text x="115.49414062500001" y="976" class="state-label" text-anchor="middle" font-size="16">Init</text>
    </g>
    <g class="state-node" id="state-Processing_start">
      <circle cx="115.49414062500001" cy="649" r="7" class="state-start" fill="#333333"/>
    </g>
    <g class="state-node" id="state-Ready">
      <path d="M 99.58984375 180 H 147.83984375 A 5 5 0 0 1 152.83984375 185 V 211 A 5 5 0 0 1 147.83984375 216 H 99.58984375 A 5 5 0 0 1 94.58984375 211 V 185 A 5 5 0 0 1 99.58984375 180 Z" class="state-box" stroke="#9370DB" stroke-width="1" fill="#ECECFF"/>
      <text x="123.71484375" y="203" class="state-label" font-size="16" text-anchor="middle">Ready</text>
    </g>
    <g class="state-node" id="state-ResourceAlloc">
      <path d="M 137.2734375 459 H 242.4296875 A 5 5 0 0 1 247.4296875 464 V 490 A 5 5 0 0 1 242.4296875 495 H 137.2734375 A 5 5 0 0 1 132.2734375 490 V 464 A 5 5 0 0 1 137.2734375 459 Z" class="state-box" stroke="#9370DB" stroke-width="1" fill="#ECECFF"/>
      <text x="189.8515625" y="482" class="state-label" font-size="16" text-anchor="middle">ResourceAlloc</text>
    </g>
    <g class="state-node" id="state-Validating">
      <path d="M 79.35742187500001 721 H 151.630859375 A 5 5 0 0 1 156.630859375 726 V 752 A 5 5 0 0 1 151.630859375 757 H 79.35742187500001 A 5 5 0 0 1 74.35742187500001 752 V 726 A 5 5 0 0 1 79.35742187500001 721 Z" class="state-box" fill="#ECECFF" stroke="#9370DB" stroke-width="1"/>
      <text x="115.49414062500001" y="744" class="state-label" font-size="16" text-anchor="middle">Validating</text>
    </g>
    <g class="state-node" id="state-Validation">
      <path d="M 5 459 H 77.2734375 A 5 5 0 0 1 82.2734375 464 V 490 A 5 5 0 0 1 77.2734375 495 H 5 A 5 5 0 0 1 0 490 V 464 A 5 5 0 0 1 5 459 Z" class="state-box" stroke="#9370DB" stroke-width="1" fill="#ECECFF"/>
      <text x="41.13671875" y="482" class="state-label" font-size="16" text-anchor="middle">Validation</text>
    </g>
    <g class="state-node" id="state-fork_state">
      <path d="M 82.494140625 399 H 148.494140625 A 2 2 0 0 1 150.494140625 401 V 407 A 2 2 0 0 1 148.494140625 409 H 82.494140625 A 2 2 0 0 1 80.494140625 407 V 401 A 2 2 0 0 1 82.494140625 399 Z" class="state-fork-join" fill="#333333"/>
    </g>
    <g class="state-node" id="state-join_state">
      <path d="M 82.494140625 545 H 148.494140625 A 2 2 0 0 1 150.494140625 547 V 553 A 2 2 0 0 1 148.494140625 555 H 82.494140625 A 2 2 0 0 1 80.494140625 553 V 547 A 2 2 0 0 1 82.494140625 545 Z" class="state-fork-join" fill="#333333"/>
    </g>
    <g class="state-node" id="state-root_start">
      <circle cx="123.71484375" cy="7" r="7" class="state-start" fill="#333333"/>
    </g>
    <g class="transition">
      <path d="M 123.71 14.00 C 123.71 22.33, 123.71 30.67, 123.71 39.00 C 123.71 47.33, 123.71 55.67, 123.71 64.00" class="transition-path" fill="none" marker-end="url(#arrow)" stroke-width="0.7"/>
    </g>
    <g class="transition">
      <path d="M 123.71 115.00 C 123.71 125.83, 123.71 136.67, 123.71 147.50 C 123.71 158.33, 123.71 169.17, 123.71 180.00" class="transition-path" marker-end="url(#arrow)" stroke-width="0.7" fill="none"/>
    </g>
    <g class="transition">
      <path d="M 123.71 216.00 C 123.71 230.17, 123.71 244.33, 123.71 258.50 C 123.71 272.67, 123.71 286.83, 123.71 301.00" class="transition-path" marker-end="url(#arrow)" fill="none" stroke-width="0.7"/>
      <path d="M 87.71484375000001 247.7 H 159.71484375 A 2 2 0 0 1 161.71484375 249.7 V 267.3 A 2 2 0 0 1 159.71484375 269.3 H 87.71484375000001 A 2 2 0 0 1 85.71484375000001 267.3 V 249.7 A 2 2 0 0 1 87.71484375000001 247.7 Z" class="transition-label-bg"/>
      <text x="123.71484375000001" y="258.5" class="transition-label" font-size="16" text-anchor="middle" dominant-baseline="central">Start Job</text>
    </g>
    <g class="transition">
      <path d="M 115.49 349.00 C 115.49 357.33, 115.49 365.67, 115.49 374.00 C 115.49 382.33, 115.49 390.67, 115.49 399.00" class="transition-path" marker-end="url(#arrow)" stroke-width="0.7" fill="none"/>
    </g>
    <g class="transition">
      <path d="M 103.10 409.00 C 82.45 417.33, 61.79 425.67, 51.46 434.00 C 41.14 442.33, 41.14 450.67, 41.14 459.00" class="transition-path" marker-end="url(#arrow)" stroke-width="0.7" fill="none"/>
    </g>
    <g class="transition">
      <path d="M 127.89 409.00 C 148.54 417.33, 169.20 425.67, 179.52 434.00 C 189.85 442.33, 189.85 450.67, 189.85 459.00" class="transition-path" stroke-width="0.7" fill="none" marker-end="url(#arrow)"/>
    </g>
    <g class="transition">
      <path d="M 41.14 495.00 C 41.14 503.33, 41.14 511.67, 51.46 520.00 C 61.79 528.33, 82.45 536.67, 103.10 545.00" class="transition-path" fill="none" marker-end="url(#arrow)" stroke-width="0.7"/>
    </g>
    <g class="transition">
      <path d="M 189.85 495.00 C 189.85 503.33, 189.85 511.67, 179.52 520.00 C 169.20 528.33, 148.54 536.67, 127.89 545.00" class="transition-path" stroke-width="0.7" marker-end="url(#arrow)" fill="none"/>
    </g>
    <g class="transition">
      <path d="M 115.49 555.00 C 115.49 563.33, 115.49 571.67, 115.49 580.00 C 115.49 588.33, 115.49 596.67, 115.49 605.00" class="transition-path" stroke-width="0.7" fill="none" marker-end="url(#arrow)"/>
    </g>
    <g class="transition">
      <path d="M 123.71 656.00 C 123.71 666.83, 123.71 677.67, 123.71 688.50 C 123.71 699.33, 123.71 710.17, 123.71 721.00" class="transition-path" fill="none" stroke-width="0.7" marker-end="url(#arrow)"/>
    </g>
    <g class="transition">
      <path d="M 123.71 757.00 C 123.71 767.83, 123.71 778.67, 122.34 789.50 C 120.97 800.33, 118.23 811.17, 115.49 822.00" class="transition-path" fill="none" stroke-width="0.7" marker-end="url(#arrow)"/>
    </g>
    <g class="transition">
      <path d="M 123.71 873.00 C 123.71 886.33, 123.71 899.67, 123.71 913.00 C 123.71 926.33, 123.71 939.67, 123.71 953.00" class="transition-path" fill="none" marker-end="url(#arrow)" stroke-width="0.7"/>
    </g>
    <g class="transition">
      <path d="M 123.71 989.00 C 123.71 1002.33, 123.71 1015.67, 123.71 1029.00 C 123.71 1042.33, 123.71 1055.67, 123.71 1069.00" class="transition-path" stroke-width="0.7" fill="none" marker-end="url(#arrow)"/>
    </g>
  </g>
</svg>
