<?xml version="1.0" encoding="UTF-8"?>
<svg xmlns="http://www.w3.org/2000/svg" width="192.01284402658064" height="408" viewBox="3 -8 192.01284402658064 408" class="mermaid">
  <style>

.statediagram {
  font-family: trebuchet ms, verdana, arial, sans-serif;
  font-size: 16px;
  fill: #333333;
}

.error-icon {
  fill: #552222;
}

.error-text {
  fill: #552222;
  stroke: #552222;
}

.state-title {
  fill: #131300;
}

.state-box {
  fill: #ECECFF;
  stroke: #9370DB;
}

.state-label {
  fill: #131300;
}

.state-description {
  fill: #333333;
}

.state-start {
  fill: #333333;
}

.state-end-outer {
  fill: none;
  stroke: #9370DB;
  stroke-width: 2;
}

.state-end-inner {
  fill: #9370DB;
  stroke: #9370DB;
  stroke-width: 2;
}

.state-fork-join {
  fill: #333333;
}

.state-choice {
  fill: #ECECFF;
  stroke: #333333;
}

.state-divider {
  stroke: #333333;
  stroke-dasharray: 5, 5;
  fill: none;
}

.transition-path {
  stroke: #333333;
  fill: none;
}

.transition-label {
  fill: #333333;
}

.transition-label-bg {
  fill: rgba(232, 232, 232, 0.8);
  stroke: none;
}

.note-box {
  fill: #fff5ad;
  stroke: #aaaa33;
}

.note-text {
  fill: black;
}

.state-composite-outer {
  fill: #ECECFF;
  stroke: #9370DB;
  stroke-width: 1px;
}

.state-composite-inner {
  fill: white;
  stroke: none;
}

.state-composite-inner-alt {
  fill: #e0e0e0;
  stroke: none;
}

.state-composite-label {
  fill: #333333;
  font-weight: bold;
}

.state-composite-divider {
  stroke: #9370DB;
  stroke-width: 1px;
  fill: none;
}

  </style>
  <defs>
    <marker id="arrow" viewBox="0 0 20 14" refX="19" refY="7" markerWidth="20" markerHeight="14" orient="auto" markerUnits="userSpaceOnUse">
      <path d="M 19,7 L9,13 L14,7 L9,1 Z" stroke="#333333" fill="#333333" stroke-width="1"/>
    </marker>
  </defs>
  <g class="root">
    <g class="clusters">

    </g>
    <g class="edgePaths">

    </g>
    <g class="edgeLabels">

    </g>
    <g class="nodes">

    </g>
    <g class="state-node" id="state-Error">
      <path d="M 87.73550027658062 288 H 125.29018777658064 A 5 5 0 0 1 130.29018777658064 293 V 319 A 5 5 0 0 1 125.29018777658064 324 H 87.73550027658062 A 5 5 0 0 1 82.73550027658062 319 V 293 A 5 5 0 0 1 87.73550027658062 288 Z" class="state-box" fill="#ECECFF" stroke="#9370DB" stroke-width="1"/>
      <text x="106.51284402658062" y="311" class="state-label" text-anchor="middle" font-size="16">Error</text>
    </g>
    <g class="state-node" id="state-Idle">
      <path d="M 81.71401590158062 68 H 109.51089090158062 A 5 5 0 0 1 114.51089090158062 73 V 99 A 5 5 0 0 1 109.51089090158062 104 H 81.71401590158062 A 5 5 0 0 1 76.71401590158062 99 V 73 A 5 5 0 0 1 81.71401590158062 68 Z" class="state-box" fill="#ECECFF" stroke="#9370DB" stroke-width="1"/>
      <text x="95.61245340158062" y="91" class="state-label" font-size="16" text-anchor="middle">Idle</text>
    </g>
    <g class="state-node" id="state-Running">
      <path d="M 23.811672151580623 178 H 85.41323465158062 A 5 5 0 0 1 90.41323465158062 183 V 209 A 5 5 0 0 1 85.41323465158062 214 H 23.811672151580623 A 5 5 0 0 1 18.811672151580623 209 V 183 A 5 5 0 0 1 23.811672151580623 178 Z" class="state-box" fill="#ECECFF" stroke="#9370DB" stroke-width="1"/>
      <text x="54.61245340158062" y="201" class="state-label" font-size="16" text-anchor="middle">Running</text>
    </g>
    <g class="state-node" id="state-root_end">
      <path d="M 99.51284402658062 385 A 7 7 0 1 0 113.51284402658062 385 A 7 7 0 1 0 99.51284402658062 385 Z" class="state-end-outer" stroke="#9370DB" stroke-width="2" fill="none"/>
      <path d="M 103.99284402658063 385 A 2.52 2.52 0 1 0 109.03284402658062 385 A 2.52 2.52 0 1 0 103.99284402658063 385 Z" class="state-end-inner" fill="#9370DB" stroke="#9370DB" stroke-width="2"/>
    </g>
    <g class="state-node" id="state-root_start">
      <circle cx="95.61245340158062" cy="7" r="7" class="state-start" fill="#333333"/>
    </g>
    <g class="transition">
      <path d="M 95.61 14.00 C 95.61 23.00, 95.61 32.00, 95.61 41.00 C 95.61 50.00, 95.61 59.00, 95.61 68.00" class="transition-path" fill="none" marker-end="url(#arrow)" stroke-width="0.7"/>
    </g>
    <g class="transition">
      <path d="M 76.71 98.68 C 55.68 112.78, 34.65 126.89, 28.73 140.11 C 22.81 153.33, 32.00 165.67, 41.19 178.00" class="transition-path" stroke-width="0.7" marker-end="url(#arrow)" fill="none"/>
      <path d="M 6 121.89127972057237 H 46 A 2 2 0 0 1 48 123.89127972057237 V 141.49127972057238 A 2 2 0 0 1 46 143.49127972057238 H 6 A 2 2 0 0 1 4 141.49127972057238 V 123.89127972057237 A 2 2 0 0 1 6 121.89127972057237 Z" class="transition-label-bg"/>
      <text x="26" y="132.69127972057237" class="transition-label" text-anchor="middle" dominant-baseline="central" font-size="16">start</text>
    </g>
    <g class="transition">
      <path d="M 68.03 178.00 L 95.61 104.00" class="transition-path" marker-end="url(#arrow)" stroke-width="0.7" fill="none"/>
      <path d="M 76.87834863208171 133.86770152005948 H 108.87834863208171 A 2 2 0 0 1 110.87834863208171 135.86770152005948 V 153.46770152005948 A 2 2 0 0 1 108.87834863208171 155.46770152005948 H 76.87834863208171 A 2 2 0 0 1 74.87834863208171 153.46770152005948 V 135.86770152005948 A 2 2 0 0 1 76.87834863208171 133.86770152005948 Z" class="transition-label-bg"/>
      <text x="92.87834863208171" y="144.6677015200595" class="transition-label" text-anchor="middle" font-size="16" dominant-baseline="central">stop</text>
    </g>
    <g class="transition">
      <path d="M 54.61 214.00 L 89.53 288.00" class="transition-path" fill="none" marker-end="url(#arrow)" stroke-width="0.7"/>
      <path d="M 39.3730196029233 245.24487804274298 H 79.3730196029233 A 2 2 0 0 1 81.3730196029233 247.24487804274298 V 264.844878042743 A 2 2 0 0 1 79.3730196029233 266.844878042743 H 39.3730196029233 A 2 2 0 0 1 37.3730196029233 264.844878042743 V 247.24487804274298 A 2 2 0 0 1 39.3730196029233 245.24487804274298 Z" class="transition-label-bg"/>
      <text x="59.3730196029233" y="256.044878042743" class="transition-label" dominant-baseline="central" font-size="16" text-anchor="middle">error</text>
    </g>
    <g class="transition">
      <path d="M 127.95 288.00 C 142.64 275.67, 157.32 263.33, 164.67 238.83 C 172.01 214.33, 172.01 177.67, 162.43 152.43 C 133.68 113.40, 114.51 99.60, 114.51 99.60" class="transition-path" stroke-width="0.7" fill="none" marker-end="url(#arrow)"/>
      <path d="M 152.01284402658064 178.54282176278022 H 192.01284402658064 A 2 2 0 0 1 194.01284402658064 180.54282176278022 V 198.14282176278022 A 2 2 0 0 1 192.01284402658064 200.14282176278022 H 152.01284402658064 A 2 2 0 0 1 150.01284402658064 198.14282176278022 V 180.54282176278022 A 2 2 0 0 1 152.01284402658064 178.54282176278022 Z" class="transition-label-bg"/>
      <text x="172.01284402658064" y="189.34282176278023" class="transition-label" font-size="16" text-anchor="middle" dominant-baseline="central">reset</text>
    </g>
    <g class="transition">
      <path d="M 106.51 324.00 C 106.51 333.00, 106.51 342.00, 106.51 351.00 C 106.51 360.00, 106.51 369.00, 106.51 378.00" class="transition-path" fill="none" marker-end="url(#arrow)" stroke-width="0.7"/>
    </g>
  </g>
</svg>
