<?xml version="1.0" encoding="UTF-8"?>
<svg xmlns="http://www.w3.org/2000/svg" width="1390" height="618.8" viewBox="0 0 1390 618.8" class="mermaid">
  <style>

.mermaid {
  font-family: trebuchet ms, verdana, arial, sans-serif;
  font-size: 16px;
}

.node rect,
.node polygon,
.node circle,
.node ellipse,
.node path {
  fill: #ECECFF;
  stroke: #9370DB;
  stroke-width: 1px;
}

.node line {
  stroke: #9370DB;
  stroke-width: 1px;
}

.node .label {
  fill: #333333;
}

.node text {
  fill: #333333;
  font-family: trebuchet ms, verdana, arial, sans-serif;
  font-size: 16px;
}

.edge-path {
  fill: none;
  stroke: #333333;
  stroke-width: 1px;
}

.edge-label {
  fill: #333333;
  font-family: trebuchet ms, verdana, arial, sans-serif;
}

.edge-label-bg {
  fill: rgba(232, 232, 232, 0.8);
}

.subgraph {
  fill: #ffffde;
  stroke: #aaaa33;
  stroke-width: 1px;
}

.subgraph-title {
  fill: #333333;
  font-weight: bold;
}

.cluster rect {
  fill: #ffffde;
  stroke: #aaaa33;
  stroke-width: 1px;
  rx: 5px;
  ry: 5px;
}

.cluster-label {
  fill: #333333;
  font-family: trebuchet ms, verdana, arial, sans-serif;
  font-size: 16px;
  font-weight: bold;
}

marker path {
  fill: #333333;
  stroke: #333333;
}


.titleText {
  text-anchor: middle;
  font-size: 24px;
  fill: #333333;
  font-family: trebuchet ms, verdana, arial, sans-serif;
}

.timeline-node {
  font-family: trebuchet ms, verdana, arial, sans-serif;
}

.timeline-node text {
  fill: #333333;
  font-size: 16px;
}

.lineWrapper line {
  stroke: #333333;
}

.section--1 {
  fill: hsl(240, 100%, 76.27%);
}

.section--1 text {
  fill: #ffffff;
}

.node-section--1 {
  fill: hsl(240, 100%, 76.27%);
  stroke: #9370DB;
  stroke-width: 1px;
}

.node-line--1 {
  stroke: hsl(60, 100%, 86.27%);
  stroke-width: 3px;
}

.section-0 {
  fill: hsl(60, 100%, 73.53%);
}

.section-0 text {
  fill: black;
}

.node-section-0 {
  fill: hsl(60, 100%, 73.53%);
  stroke: #9370DB;
  stroke-width: 1px;
}

.node-line-0 {
  stroke: hsl(240, 100%, 83.53%);
  stroke-width: 3px;
}

.section-1 {
  fill: hsl(80, 100%, 76.27%);
}

.section-1 text {
  fill: black;
}

.node-section-1 {
  fill: hsl(80, 100%, 76.27%);
  stroke: #9370DB;
  stroke-width: 1px;
}

.node-line-1 {
  stroke: hsl(260, 100%, 86.27%);
  stroke-width: 3px;
}

.section-2 {
  fill: hsl(270, 100%, 76.27%);
}

.section-2 text {
  fill: black;
}

.node-section-2 {
  fill: hsl(270, 100%, 76.27%);
  stroke: #9370DB;
  stroke-width: 1px;
}

.node-line-2 {
  stroke: hsl(90, 100%, 86.27%);
  stroke-width: 3px;
}

.section-3 {
  fill: hsl(300, 100%, 76.27%);
}

.section-3 text {
  fill: black;
}

.node-section-3 {
  fill: hsl(300, 100%, 76.27%);
  stroke: #9370DB;
  stroke-width: 1px;
}

.node-line-3 {
  stroke: hsl(120, 100%, 86.27%);
  stroke-width: 3px;
}

.section-4 {
  fill: hsl(330, 100%, 76.27%);
}

.section-4 text {
  fill: black;
}

.node-section-4 {
  fill: hsl(330, 100%, 76.27%);
  stroke: #9370DB;
  stroke-width: 1px;
}

.node-line-4 {
  stroke: hsl(150, 100%, 86.27%);
  stroke-width: 3px;
}

.section-5 {
  fill: hsl(0, 100%, 76.27%);
}

.section-5 text {
  fill: black;
}

.node-section-5 {
  fill: hsl(0, 100%, 76.27%);
  stroke: #9370DB;
  stroke-width: 1px;
}

.node-line-5 {
  stroke: hsl(180, 100%, 86.27%);
  stroke-width: 3px;
}

.section-6 {
  fill: hsl(30, 100%, 76.27%);
}

.section-6 text {
  fill: black;
}

.node-section-6 {
  fill: hsl(30, 100%, 76.27%);
  stroke: #9370DB;
  stroke-width: 1px;
}

.node-line-6 {
  stroke: hsl(210, 100%, 86.27%);
  stroke-width: 3px;
}

.section-7 {
  fill: hsl(90, 100%, 76.27%);
}

.section-7 text {
  fill: black;
}

.node-section-7 {
  fill: hsl(90, 100%, 76.27%);
  stroke: #9370DB;
  stroke-width: 1px;
}

.node-line-7 {
  stroke: hsl(270, 100%, 86.27%);
  stroke-width: 3px;
}

.section-8 {
  fill: hsl(150, 100%, 76.27%);
}

.section-8 text {
  fill: black;
}

.node-section-8 {
  fill: hsl(150, 100%, 76.27%);
  stroke: #9370DB;
  stroke-width: 1px;
}

.node-line-8 {
  stroke: hsl(330, 100%, 86.27%);
  stroke-width: 3px;
}

.section-9 {
  fill: hsl(180, 100%, 76.27%);
}

.section-9 text {
  fill: black;
}

.node-section-9 {
  fill: hsl(180, 100%, 76.27%);
  stroke: #9370DB;
  stroke-width: 1px;
}

.node-line-9 {
  stroke: hsl(0, 100%, 86.27%);
  stroke-width: 3px;
}

.section-10 {
  fill: hsl(210, 100%, 76.27%);
}

.section-10 text {
  fill: black;
}

.node-section-10 {
  fill: hsl(210, 100%, 76.27%);
  stroke: #9370DB;
  stroke-width: 1px;
}

.node-line-10 {
  stroke: hsl(30, 100%, 86.27%);
  stroke-width: 3px;
}

.section-11 {
  fill: hsl(240, 100%, 76.27%);
}

.section-11 text {
  fill: black;
}

.node-section-11 {
  fill: hsl(240, 100%, 76.27%);
  stroke: #9370DB;
  stroke-width: 1px;
}

.node-line-11 {
  stroke: hsl(60, 100%, 86.27%);
  stroke-width: 3px;
}

  </style>
  <g class="root">
    <g class="clusters">

    </g>
    <g class="edgePaths">

    </g>
    <g class="edgeLabels">

    </g>
    <g class="nodes">

    </g>
    <defs>
      <marker id="arrowhead" refX="5" refY="2" markerWidth="6" markerHeight="4" orient="auto">
                <path d="M 0,0 V 4 L6,2 Z"></path>
            </marker>
    </defs>
    <text x="495" y="20" class="titleText" font-size="4ex" text-anchor="middle" font-weight="bold">Timeline of Industrial Revolution</text>
    <g class="timeline-node section--1" transform="translate(200, 50)">
      <path d="M0 63 v-58 q0,-5 5,-5 h580 q5,0 5,5 v63 H0 Z" class="node-bkg node-section--1"/>
      <line x1="0" y1="68" x2="590" y2="68" class="node-line--1"/>
      <text x="295" y="10" alignment-baseline="middle" dominant-baseline="middle" text-anchor="middle" dy="1em">17th-20th century</text>
    </g>
    <g class="taskWrapper timeline-node section--1" transform="translate(200, 168)">
      <path d="M0 63 v-58 q0,-5 5,-5 h180 q5,0 5,5 v63 H0 Z" class="node-bkg node-section--1"/>
      <line x1="0" y1="68" x2="190" y2="68" class="node-line--1"/>
      <text x="95" y="10" dominant-baseline="middle" alignment-baseline="middle" dy="1em" text-anchor="middle">Industry 1.0</text>
    </g>
    <g class="lineWrapper">
      <line x1="295" y1="236" x2="295" y2="550.8" stroke="black" stroke-dasharray="5,5" stroke-width="2" marker-end="url(#arrowhead)"/>
    </g>
    <g class="eventWrapper timeline-node section--1" transform="translate(200, 368)">
      <path d="M0 77.80000000000001 v-72.80000000000001 q0,-5 5,-5 h180 q5,0 5,5 v77.80000000000001 H0 Z" class="node-bkg node-section--1"/>
      <line x1="0" y1="82.80000000000001" x2="190" y2="82.80000000000001" class="node-line--1"/>
      <g>
        <text x="95" y="10" text-anchor="middle" dominant-baseline="middle" alignment-baseline="middle"><tspan x="95" dy="1em">Machinery, Water</tspan><tspan x="95" dy="1.1em">power, Steam</tspan><tspan x="95" dy="1.1em">power</tspan></text>
      </g>
    </g>
    <g class="taskWrapper timeline-node section--1" transform="translate(400, 168)">
      <path d="M0 63 v-58 q0,-5 5,-5 h180 q5,0 5,5 v63 H0 Z" class="node-bkg node-section--1"/>
      <line x1="0" y1="68" x2="190" y2="68" class="node-line--1"/>
      <text x="95" y="10" dominant-baseline="middle" dy="1em" text-anchor="middle" alignment-baseline="middle">Industry 2.0</text>
    </g>
    <g class="lineWrapper">
      <line x1="495" y1="236" x2="495" y2="550.8" stroke="black" stroke-width="2" stroke-dasharray="5,5" marker-end="url(#arrowhead)"/>
    </g>
    <g class="eventWrapper timeline-node section--1" transform="translate(400, 368)">
      <path d="M0 77.80000000000001 v-72.80000000000001 q0,-5 5,-5 h180 q5,0 5,5 v77.80000000000001 H0 Z" class="node-bkg node-section--1"/>
      <line x1="0" y1="82.80000000000001" x2="190" y2="82.80000000000001" class="node-line--1"/>
      <g>
        <text x="95" y="10" text-anchor="middle" dominant-baseline="middle" alignment-baseline="middle"><tspan x="95" dy="1em">Electricity, Internal</tspan><tspan x="95" dy="1.1em">combustion engine,</tspan><tspan x="95" dy="1.1em">Mass production</tspan></text>
      </g>
    </g>
    <g class="taskWrapper timeline-node section--1" transform="translate(600, 168)">
      <path d="M0 63 v-58 q0,-5 5,-5 h180 q5,0 5,5 v63 H0 Z" class="node-bkg node-section--1"/>
      <line x1="0" y1="68" x2="190" y2="68" class="node-line--1"/>
      <text x="95" y="10" dominant-baseline="middle" dy="1em" alignment-baseline="middle" text-anchor="middle">Industry 3.0</text>
    </g>
    <g class="lineWrapper">
      <line x1="695" y1="236" x2="695" y2="550.8" stroke-dasharray="5,5" stroke="black" marker-end="url(#arrowhead)" stroke-width="2"/>
    </g>
    <g class="eventWrapper timeline-node section--1" transform="translate(600, 368)">
      <path d="M0 77.80000000000001 v-72.80000000000001 q0,-5 5,-5 h180 q5,0 5,5 v77.80000000000001 H0 Z" class="node-bkg node-section--1"/>
      <line x1="0" y1="82.80000000000001" x2="190" y2="82.80000000000001" class="node-line--1"/>
      <g>
        <text x="95" y="10" text-anchor="middle" dominant-baseline="middle" alignment-baseline="middle"><tspan x="95" dy="1em">Electronics,</tspan><tspan x="95" dy="1.1em">Computers,</tspan><tspan x="95" dy="1.1em">Automation</tspan></text>
      </g>
    </g>
    <g class="timeline-node section-0" transform="translate(840, 50)">
      <path d="M0 63 v-58 q0,-5 5,-5 h380 q5,0 5,5 v63 H0 Z" class="node-bkg node-section-0"/>
      <line x1="0" y1="68" x2="390" y2="68" class="node-line-0"/>
      <text x="195" y="10" dominant-baseline="middle" dy="1em" alignment-baseline="middle" text-anchor="middle">21st century</text>
    </g>
    <g class="taskWrapper timeline-node section-0" transform="translate(840, 168)">
      <path d="M0 63 v-58 q0,-5 5,-5 h180 q5,0 5,5 v63 H0 Z" class="node-bkg node-section-0"/>
      <line x1="0" y1="68" x2="190" y2="68" class="node-line-0"/>
      <text x="95" y="10" text-anchor="middle" alignment-baseline="middle" dy="1em" dominant-baseline="middle">Industry 4.0</text>
    </g>
    <g class="lineWrapper">
      <line x1="935" y1="236" x2="935" y2="550.8" stroke-width="2" stroke-dasharray="5,5" marker-end="url(#arrowhead)" stroke="black"/>
    </g>
    <g class="eventWrapper timeline-node section-0" transform="translate(840, 368)">
      <path d="M0 60.2 v-55.2 q0,-5 5,-5 h180 q5,0 5,5 v60.2 H0 Z" class="node-bkg node-section-0"/>
      <line x1="0" y1="65.2" x2="190" y2="65.2" class="node-line-0"/>
      <g>
        <text x="95" y="10" text-anchor="middle" dominant-baseline="middle" alignment-baseline="middle"><tspan x="95" dy="1em">Internet, Robotics,</tspan><tspan x="95" dy="1.1em">Internet of Things</tspan></text>
      </g>
    </g>
    <g class="taskWrapper timeline-node section-0" transform="translate(1040, 168)">
      <path d="M0 63 v-58 q0,-5 5,-5 h180 q5,0 5,5 v63 H0 Z" class="node-bkg node-section-0"/>
      <line x1="0" y1="68" x2="190" y2="68" class="node-line-0"/>
      <text x="95" y="10" dy="1em" dominant-baseline="middle" text-anchor="middle" alignment-baseline="middle">Industry 5.0</text>
    </g>
    <g class="lineWrapper">
      <line x1="1135" y1="236" x2="1135" y2="550.8" stroke="black" stroke-dasharray="5,5" stroke-width="2" marker-end="url(#arrowhead)"/>
    </g>
    <g class="eventWrapper timeline-node section-0" transform="translate(1040, 368)">
      <path d="M0 77.80000000000001 v-72.80000000000001 q0,-5 5,-5 h180 q5,0 5,5 v77.80000000000001 H0 Z" class="node-bkg node-section-0"/>
      <line x1="0" y1="82.80000000000001" x2="190" y2="82.80000000000001" class="node-line-0"/>
      <g>
        <text x="95" y="10" text-anchor="middle" dominant-baseline="middle" alignment-baseline="middle"><tspan x="95" dy="1em">Artificial</tspan><tspan x="95" dy="1.1em">intelligence, Big</tspan><tspan x="95" dy="1.1em">data, 3D printing</tspan></text>
      </g>
    </g>
    <g class="lineWrapper">
      <line x1="200" y1="286" x2="1190" y2="286" stroke="black" marker-end="url(#arrowhead)" stroke-width="4"/>
    </g>
  </g>
</svg>
