<?xml version="1.0" encoding="UTF-8"?>
<svg xmlns="http://www.w3.org/2000/svg" width="1140" height="780.8" viewBox="100 -61 1140 780.8" class="mermaid">
  <style>

.mermaid {
  font-family: trebuchet ms, verdana, arial, sans-serif;
  font-size: 16px;
}

.node rect,
.node polygon,
.node circle,
.node ellipse,
.node path {
  fill: #ECECFF;
  stroke: #9370DB;
  stroke-width: 1px;
}

.node line {
  stroke: #9370DB;
  stroke-width: 1px;
}

.node .label {
  fill: #333333;
}

.node text {
  fill: #333333;
  font-family: trebuchet ms, verdana, arial, sans-serif;
  font-size: 16px;
}

.edge-path {
  fill: none;
  stroke: #333333;
  stroke-width: 1px;
}

.edge-label {
  fill: #333333;
  font-family: trebuchet ms, verdana, arial, sans-serif;
}

.edge-label-bg {
  fill: rgba(232, 232, 232, 0.8);
}

.subgraph {
  fill: #ffffde;
  stroke: #aaaa33;
  stroke-width: 1px;
}

.subgraph-title {
  fill: #333333;
  font-weight: bold;
}

.cluster rect {
  fill: #ffffde;
  stroke: #aaaa33;
  stroke-width: 1px;
  rx: 5px;
  ry: 5px;
}

.cluster-label {
  fill: #333333;
  font-family: trebuchet ms, verdana, arial, sans-serif;
  font-size: 16px;
  font-weight: bold;
}

marker path {
  fill: #333333;
  stroke: #333333;
}


.titleText {
  text-anchor: middle;
  font-size: 24px;
  fill: #333333;
  font-family: trebuchet ms, verdana, arial, sans-serif;
}

.timeline-node {
  font-family: trebuchet ms, verdana, arial, sans-serif;
}

.timeline-node text {
  fill: #333333;
  font-size: 16px;
}

.lineWrapper line {
  stroke: #333333;
}

.section--1 {
  fill: hsl(240, 100%, 76.27%);
}

.section--1 text {
  fill: #ffffff;
}

.node-section--1 {
  fill: hsl(240, 100%, 76.27%);
  stroke: #9370DB;
  stroke-width: 1px;
}

.node-line--1 {
  stroke: hsl(60, 100%, 86.27%);
  stroke-width: 3px;
}

.section-0 {
  fill: hsl(60, 100%, 73.53%);
}

.section-0 text {
  fill: black;
}

.node-section-0 {
  fill: hsl(60, 100%, 73.53%);
  stroke: #9370DB;
  stroke-width: 1px;
}

.node-line-0 {
  stroke: hsl(240, 100%, 83.53%);
  stroke-width: 3px;
}

.section-1 {
  fill: hsl(80, 100%, 76.27%);
}

.section-1 text {
  fill: black;
}

.node-section-1 {
  fill: hsl(80, 100%, 76.27%);
  stroke: #9370DB;
  stroke-width: 1px;
}

.node-line-1 {
  stroke: hsl(260, 100%, 86.27%);
  stroke-width: 3px;
}

.section-2 {
  fill: hsl(270, 100%, 76.27%);
}

.section-2 text {
  fill: black;
}

.node-section-2 {
  fill: hsl(270, 100%, 76.27%);
  stroke: #9370DB;
  stroke-width: 1px;
}

.node-line-2 {
  stroke: hsl(90, 100%, 86.27%);
  stroke-width: 3px;
}

.section-3 {
  fill: hsl(300, 100%, 76.27%);
}

.section-3 text {
  fill: black;
}

.node-section-3 {
  fill: hsl(300, 100%, 76.27%);
  stroke: #9370DB;
  stroke-width: 1px;
}

.node-line-3 {
  stroke: hsl(120, 100%, 86.27%);
  stroke-width: 3px;
}

.section-4 {
  fill: hsl(330, 100%, 76.27%);
}

.section-4 text {
  fill: black;
}

.node-section-4 {
  fill: hsl(330, 100%, 76.27%);
  stroke: #9370DB;
  stroke-width: 1px;
}

.node-line-4 {
  stroke: hsl(150, 100%, 86.27%);
  stroke-width: 3px;
}

.section-5 {
  fill: hsl(0, 100%, 76.27%);
}

.section-5 text {
  fill: black;
}

.node-section-5 {
  fill: hsl(0, 100%, 76.27%);
  stroke: #9370DB;
  stroke-width: 1px;
}

.node-line-5 {
  stroke: hsl(180, 100%, 86.27%);
  stroke-width: 3px;
}

.section-6 {
  fill: hsl(30, 100%, 76.27%);
}

.section-6 text {
  fill: black;
}

.node-section-6 {
  fill: hsl(30, 100%, 76.27%);
  stroke: #9370DB;
  stroke-width: 1px;
}

.node-line-6 {
  stroke: hsl(210, 100%, 86.27%);
  stroke-width: 3px;
}

.section-7 {
  fill: hsl(90, 100%, 76.27%);
}

.section-7 text {
  fill: black;
}

.node-section-7 {
  fill: hsl(90, 100%, 76.27%);
  stroke: #9370DB;
  stroke-width: 1px;
}

.node-line-7 {
  stroke: hsl(270, 100%, 86.27%);
  stroke-width: 3px;
}

.section-8 {
  fill: hsl(150, 100%, 76.27%);
}

.section-8 text {
  fill: black;
}

.node-section-8 {
  fill: hsl(150, 100%, 76.27%);
  stroke: #9370DB;
  stroke-width: 1px;
}

.node-line-8 {
  stroke: hsl(330, 100%, 86.27%);
  stroke-width: 3px;
}

.section-9 {
  fill: hsl(180, 100%, 76.27%);
}

.section-9 text {
  fill: black;
}

.node-section-9 {
  fill: hsl(180, 100%, 76.27%);
  stroke: #9370DB;
  stroke-width: 1px;
}

.node-line-9 {
  stroke: hsl(0, 100%, 86.27%);
  stroke-width: 3px;
}

.section-10 {
  fill: hsl(210, 100%, 76.27%);
}

.section-10 text {
  fill: black;
}

.node-section-10 {
  fill: hsl(210, 100%, 76.27%);
  stroke: #9370DB;
  stroke-width: 1px;
}

.node-line-10 {
  stroke: hsl(30, 100%, 86.27%);
  stroke-width: 3px;
}

.section-11 {
  fill: hsl(240, 100%, 76.27%);
}

.section-11 text {
  fill: black;
}

.node-section-11 {
  fill: hsl(240, 100%, 76.27%);
  stroke: #9370DB;
  stroke-width: 1px;
}

.node-line-11 {
  stroke: hsl(60, 100%, 86.27%);
  stroke-width: 3px;
}

  </style>
  <g class="root">
    <g class="clusters">

    </g>
    <g class="edgePaths">

    </g>
    <g class="edgeLabels">

    </g>
    <g class="nodes">

    </g>
    <defs>
      <marker id="arrowhead" refX="5" refY="2" markerWidth="6" markerHeight="4" orient="auto">
                <path d="M 0,0 V 4 L6,2 Z"></path>
            </marker>
    </defs>
    <text x="620" y="20" class="titleText" text-anchor="middle" font-weight="bold" font-size="4ex">England&apos;s History Timeline</text>
    <g class="timeline-node section--1" transform="translate(200, 50)">
      <path d="M0 65 v-60 q0,-5 5,-5 h380 q5,0 5,5 v65 H0 Z" class="node-bkg node-section--1"/>
      <line x1="0" y1="70" x2="390" y2="70" class="node-line--1"/>
      <text x="195" y="10" text-anchor="middle" alignment-baseline="middle" dominant-baseline="middle" dy="1em">Stone Age</text>
    </g>
    <g class="taskWrapper timeline-node section--1" transform="translate(200, 170)">
      <path d="M0 65 v-60 q0,-5 5,-5 h180 q5,0 5,5 v65 H0 Z" class="node-bkg node-section--1"/>
      <line x1="0" y1="70" x2="190" y2="70" class="node-line--1"/>
      <text x="95" y="10" dominant-baseline="middle" text-anchor="middle" dy="1em" alignment-baseline="middle">7600 BC</text>
    </g>
    <g class="lineWrapper">
      <line x1="295" y1="240" x2="295" y2="660.8" stroke-dasharray="5,5" marker-end="url(#arrowhead)" stroke="black" stroke-width="2"/>
    </g>
    <g class="eventWrapper timeline-node section--1" transform="translate(200, 370)">
      <path d="M0 94.2 v-89.2 q0,-5 5,-5 h180 q5,0 5,5 v94.2 H0 Z" class="node-bkg node-section--1"/>
      <line x1="0" y1="99.2" x2="190" y2="99.2" class="node-line--1"/>
      <g>
        <text x="95" y="10" text-anchor="middle" dominant-baseline="middle" alignment-baseline="middle"><tspan x="95" dy="1em">Britain&apos;s oldest</tspan><tspan x="95" dy="1.1em">known house was</tspan><tspan x="95" dy="1.1em">built in Orkney,</tspan><tspan x="95" dy="1.1em">Scotland</tspan></text>
      </g>
    </g>
    <g class="taskWrapper timeline-node section--1" transform="translate(400, 170)">
      <path d="M0 65 v-60 q0,-5 5,-5 h180 q5,0 5,5 v65 H0 Z" class="node-bkg node-section--1"/>
      <line x1="0" y1="70" x2="190" y2="70" class="node-line--1"/>
      <text x="95" y="10" dominant-baseline="middle" dy="1em" text-anchor="middle" alignment-baseline="middle">6000 BC</text>
    </g>
    <g class="lineWrapper">
      <line x1="495" y1="240" x2="495" y2="660.8" stroke-dasharray="5,5" stroke-width="2" stroke="black" marker-end="url(#arrowhead)"/>
    </g>
    <g class="eventWrapper timeline-node section--1" transform="translate(400, 370)">
      <path d="M0 76.60000000000001 v-71.60000000000001 q0,-5 5,-5 h180 q5,0 5,5 v76.60000000000001 H0 Z" class="node-bkg node-section--1"/>
      <line x1="0" y1="81.60000000000001" x2="190" y2="81.60000000000001" class="node-line--1"/>
      <g>
        <text x="95" y="10" text-anchor="middle" dominant-baseline="middle" alignment-baseline="middle"><tspan x="95" dy="1em">Sea levels rise and</tspan><tspan x="95" dy="1.1em">Britain becomes an</tspan><tspan x="95" dy="1.1em">island.</tspan></text>
      </g>
    </g>
    <g class="timeline-node section-0" transform="translate(640, 50)">
      <path d="M0 65 v-60 q0,-5 5,-5 h380 q5,0 5,5 v65 H0 Z" class="node-bkg node-section-0"/>
      <line x1="0" y1="70" x2="390" y2="70" class="node-line-0"/>
      <text x="195" y="10" text-anchor="middle" alignment-baseline="middle" dominant-baseline="middle" dy="1em">Bronze Age</text>
    </g>
    <g class="taskWrapper timeline-node section-0" transform="translate(640, 170)">
      <path d="M0 65 v-60 q0,-5 5,-5 h180 q5,0 5,5 v65 H0 Z" class="node-bkg node-section-0"/>
      <line x1="0" y1="70" x2="190" y2="70" class="node-line-0"/>
      <text x="95" y="10" dy="1em" text-anchor="middle" dominant-baseline="middle" alignment-baseline="middle">2300 BC</text>
    </g>
    <g class="lineWrapper">
      <line x1="735" y1="240" x2="735" y2="660.8" stroke-dasharray="5,5" stroke-width="2" stroke="black" marker-end="url(#arrowhead)"/>
    </g>
    <g class="eventWrapper timeline-node section-0" transform="translate(640, 370)">
      <path d="M0 76.60000000000001 v-71.60000000000001 q0,-5 5,-5 h180 q5,0 5,5 v76.60000000000001 H0 Z" class="node-bkg node-section-0"/>
      <line x1="0" y1="81.60000000000001" x2="190" y2="81.60000000000001" class="node-line-0"/>
      <g>
        <text x="95" y="10" text-anchor="middle" dominant-baseline="middle" alignment-baseline="middle"><tspan x="95" dy="1em">People arrive from</tspan><tspan x="95" dy="1.1em">Europe and settle in</tspan><tspan x="95" dy="1.1em">Britain.</tspan></text>
      </g>
    </g>
    <g class="eventWrapper timeline-node section-0" transform="translate(640, 461.6)">
      <path d="M0 94.2 v-89.2 q0,-5 5,-5 h180 q5,0 5,5 v94.2 H0 Z" class="node-bkg node-section-0"/>
      <line x1="0" y1="99.2" x2="190" y2="99.2" class="node-line-0"/>
      <g>
        <text x="95" y="10" text-anchor="middle" dominant-baseline="middle" alignment-baseline="middle"><tspan x="95" dy="1em">New styles of</tspan><tspan x="95" dy="1.1em">pottery and ways of</tspan><tspan x="95" dy="1.1em">burying the dead</tspan><tspan x="95" dy="1.1em">appear.</tspan></text>
      </g>
    </g>
    <g class="taskWrapper timeline-node section-0" transform="translate(840, 170)">
      <path d="M0 65 v-60 q0,-5 5,-5 h180 q5,0 5,5 v65 H0 Z" class="node-bkg node-section-0"/>
      <line x1="0" y1="70" x2="190" y2="70" class="node-line-0"/>
      <text x="95" y="10" alignment-baseline="middle" dy="1em" text-anchor="middle" dominant-baseline="middle">2200 BC</text>
    </g>
    <g class="lineWrapper">
      <line x1="935" y1="240" x2="935" y2="660.8" stroke-width="2" stroke-dasharray="5,5" marker-end="url(#arrowhead)" stroke="black"/>
    </g>
    <g class="eventWrapper timeline-node section-0" transform="translate(840, 370)">
      <path d="M0 94.2 v-89.2 q0,-5 5,-5 h180 q5,0 5,5 v94.2 H0 Z" class="node-bkg node-section-0"/>
      <line x1="0" y1="99.2" x2="190" y2="99.2" class="node-line-0"/>
      <g>
        <text x="95" y="10" text-anchor="middle" dominant-baseline="middle" alignment-baseline="middle"><tspan x="95" dy="1em">The last major</tspan><tspan x="95" dy="1.1em">building works are</tspan><tspan x="95" dy="1.1em">completed at</tspan><tspan x="95" dy="1.1em">Stonehenge.</tspan></text>
      </g>
    </g>
    <g class="eventWrapper timeline-node section-0" transform="translate(840, 479.2)">
      <path d="M0 76.60000000000001 v-71.60000000000001 q0,-5 5,-5 h180 q5,0 5,5 v76.60000000000001 H0 Z" class="node-bkg node-section-0"/>
      <line x1="0" y1="81.60000000000001" x2="190" y2="81.60000000000001" class="node-line-0"/>
      <g>
        <text x="95" y="10" text-anchor="middle" dominant-baseline="middle" alignment-baseline="middle"><tspan x="95" dy="1em">The first metal</tspan><tspan x="95" dy="1.1em">objects are made in</tspan><tspan x="95" dy="1.1em">Britain.</tspan></text>
      </g>
    </g>
    <g class="lineWrapper">
      <line x1="50" y1="290" x2="1240" y2="290" marker-end="url(#arrowhead)" stroke-width="4" stroke="black"/>
    </g>
  </g>
</svg>
